<svg width="35" height="23" viewBox="0 0 35 23" fill="none" xmlns="http://www.w3.org/2000/svg">
<path d="M34.3964 22.931H0.603474C0.270224 22.931 0 22.6608 0 22.3275V0.603474C0 0.270223 0.270224 0 0.603474 0H34.3965C34.7297 0 34.9999 0.270223 34.9999 0.603474V22.3275C34.9999 22.6608 34.7296 22.931 34.3964 22.931Z" fill="#41479B"/>
<path d="M34.9999 0.603474C34.9999 0.270223 34.7296 0 34.3964 0H31.6965L20.5171 7.32447V0H14.4826V7.32447L3.30325 0H0.603474C0.270224 0 0 0.270223 0 0.603474V2.16418L9.5914 8.44823H0V14.4827H9.5914L0 20.7668V22.3275C0 22.6608 0.270224 22.931 0.603474 22.931H3.30332L14.4828 15.6065V22.931H20.5172V15.6065L31.6967 22.931H34.3965C34.7298 22.931 35 22.6608 35 22.3275V20.7668L25.4086 14.4828H34.9999V8.4483H25.4085L34.9999 2.16418V0.603474Z" fill="#F5F5F5"/>
<path d="M34.9999 9.65518H19.3103V0H15.6896V9.65518H0V13.2758H15.6896V22.931H19.3103V13.2758H34.9999V9.65518Z" fill="#FF4B55"/>
<path d="M12.2332 14.4827L0.0175781 22.4121C0.0603026 22.7035 0.300585 22.931 0.603894 22.931H1.43507L14.45 14.4827H12.2332V14.4827Z" fill="#FF4B55"/>
<path d="M23.6787 14.4827H21.4619L34.4579 22.9185C34.7608 22.8862 34.9998 22.6389 34.9998 22.3274V21.8313L23.6787 14.4827Z" fill="#FF4B55"/>
<path d="M0 1.26961L11.0591 8.44828H13.2758L0.351571 0.0588379C0.145126 0.154746 0 0.360848 0 0.603455V1.26961Z" fill="#FF4B55"/>
<path d="M22.7343 8.44823L34.9793 0.499637C34.9284 0.21786 34.6933 0 34.3968 0H33.5323L20.5176 8.44823H22.7343Z" fill="#FF4B55"/>
</svg>
