<svg width="36" height="24" viewBox="0 0 36 24" fill="none" xmlns="http://www.w3.org/2000/svg">
<path d="M34.6552 23.1035H0.608015C0.272257 23.1035 0 22.8313 0 22.4955V0.608015C0 0.272257 0.272257 0 0.608015 0H34.6553C34.991 0 35.2633 0.272257 35.2633 0.608015V22.4955C35.2632 22.8314 34.991 23.1035 34.6552 23.1035Z" fill="#F5F5F5"/>
<path d="M35.2632 1.77728H0V0.608015C0 0.272257 0.272257 0 0.608015 0H34.6553C34.991 0 35.2633 0.272257 35.2633 0.608015L35.2632 1.77728Z" fill="#FF4B55"/>
<path d="M35.2632 7.10913H0V8.88634H35.2632V7.10913Z" fill="#ff0000"/>
<path d="M35.2632 3.55444H0V5.33166H35.2632V3.55444Z" fill="#ff0000"/>
<path d="M35.2632 12.4406H0.608015C0.272257 12.4406 0 12.1684 0 11.8326V10.6633H35.2632V12.4406Z" fill="#ff0000"/>
<path d="M35.2632 17.7727H0V19.5499H35.2632V17.7727Z" fill="#ff0000"/>
<path d="M34.6552 23.1039H0.608015C0.272257 23.1039 0 22.8316 0 22.4959V21.3267H35.2632V22.4959C35.2632 22.8317 34.991 23.1039 34.6552 23.1039Z" fill="#FF4B55"/>
<path d="M35.2632 14.2183H0V15.9955H35.2632V14.2183Z" fill="#ff0000"/>
<path d="M15.8076 0.000244141H0.608015C0.272257 0.000244141 0 0.272432 0 0.60819V11.8325C0 12.1683 0.272257 12.4405 0.608015 12.4405H15.8077C16.1435 12.4405 16.4157 12.1683 16.4157 11.8325V0.60819C16.4157 0.272432 16.1434 0.000244141 15.8076 0.000244141Z" fill="#ff0000"/>
<path d="M1.70712 1.39564L1.8417 1.79924L2.26713 1.80248C2.32223 1.80296 2.34503 1.87321 2.30074 1.90593L1.95851 2.15869L2.08689 2.56429C2.10356 2.61677 2.04371 2.6603 1.99887 2.6282L1.65278 2.38088L1.30669 2.62827C1.26185 2.6603 1.20214 2.61684 1.21867 2.56436L1.34705 2.15876L1.00482 1.906C0.960532 1.87321 0.98333 1.80303 1.03843 1.80255L1.46386 1.79931L1.59844 1.39571C1.61579 1.34337 1.68963 1.34337 1.70712 1.39564Z" fill="#ff0000"/>
<path d="M1.70712 3.50716L1.8417 3.91076L2.26713 3.914C2.32223 3.91448 2.34503 3.98473 2.30074 4.01745L1.95851 4.27021L2.08689 4.67581C2.10356 4.72829 2.04371 4.77182 1.99887 4.73972L1.65278 4.4924L1.30669 4.73979C1.26185 4.77182 1.20214 4.72836 1.21867 4.67588L1.34705 4.27028L1.00482 4.01752C0.960532 3.98473 0.98333 3.91455 1.03843 3.91407L1.46386 3.91083L1.59844 3.50723C1.61579 3.45496 1.68963 3.45496 1.70712 3.50716Z" fill="#ff0000"/>
<path d="M1.70712 5.61825L1.8417 6.02185L2.26713 6.02508C2.32223 6.02557 2.34503 6.09582 2.30074 6.12853L1.95851 6.3813L2.08689 6.78689C2.10356 6.83937 2.04371 6.8829 1.99887 6.85081L1.65278 6.60348L1.30669 6.85088C1.26185 6.8829 1.20214 6.83944 1.21867 6.78696L1.34705 6.38137L1.00482 6.1286C0.960532 6.09582 0.98333 6.02563 1.03843 6.02515L1.46386 6.02192L1.59844 5.61832C1.61579 5.56604 1.68963 5.56604 1.70712 5.61825Z" fill="#ff0000"/>
<path d="M1.70712 7.72938L1.8417 8.13298L2.26713 8.13622C2.32223 8.1367 2.34503 8.20695 2.30074 8.23967L1.95851 8.49243L2.08689 8.89803C2.10356 8.95051 2.04371 8.99404 1.99887 8.96194L1.65278 8.71462L1.30669 8.96201C1.26185 8.99404 1.20214 8.95058 1.21867 8.8981L1.34705 8.4925L1.00482 8.23974C0.960532 8.20695 0.98333 8.13677 1.03843 8.13629L1.46386 8.13305L1.59844 7.72945C1.61579 7.67711 1.68963 7.67711 1.70712 7.72938Z" fill="#ff0000"/>
<path d="M1.70712 9.84076L1.8417 10.2444L2.26713 10.2476C2.32223 10.2481 2.34503 10.3183 2.30074 10.351L1.95851 10.6038L2.08689 11.0094C2.10356 11.0619 2.04371 11.1054 1.99887 11.0733L1.65278 10.826L1.30669 11.0734C1.26185 11.1054 1.20214 11.062 1.21867 11.0095L1.34705 10.6039L1.00482 10.3511C0.960532 10.3183 0.98333 10.2481 1.03843 10.2477L1.46386 10.2444L1.59844 9.84083C1.61579 9.78842 1.68963 9.78842 1.70712 9.84076Z" fill="#ff0000"/>
<path d="M3.34579 2.431L3.48037 2.8346L3.9058 2.83784C3.9609 2.83832 3.9837 2.90857 3.93941 2.94128L3.59718 3.19405L3.72556 3.59965C3.74223 3.65213 3.68238 3.69566 3.63754 3.66356L3.29145 3.41617L2.94536 3.66356C2.90053 3.69559 2.84081 3.65213 2.85734 3.59965L2.98572 3.19405L2.64349 2.94128C2.5992 2.9085 2.622 2.83832 2.6771 2.83784L3.10253 2.8346L3.23711 2.431C3.2544 2.37879 3.32837 2.37879 3.34579 2.431Z" fill="#F5F5F5"/>
<path d="M3.34579 4.54214L3.48037 4.94573L3.9058 4.94897C3.9609 4.94945 3.9837 5.0197 3.93941 5.05242L3.59718 5.30519L3.72556 5.71078C3.74223 5.76326 3.68238 5.80679 3.63754 5.7747L3.29145 5.5273L2.94536 5.7747C2.90053 5.80672 2.84081 5.76333 2.85734 5.71078L2.98572 5.30519L2.64349 5.05242C2.5992 5.01964 2.622 4.94945 2.6771 4.94897L3.10253 4.94573L3.23711 4.54214C3.2544 4.48986 3.32837 4.48986 3.34579 4.54214Z" fill="#F5F5F5"/>
<path d="M3.34579 6.65346L3.48037 7.05706L3.9058 7.0603C3.9609 7.06078 3.9837 7.13103 3.93941 7.16375L3.59718 7.41651L3.72556 7.82211C3.74223 7.87459 3.68238 7.91812 3.63754 7.88602L3.29145 7.63863L2.94536 7.88602C2.90053 7.91805 2.84081 7.87459 2.85734 7.82211L2.98572 7.41651L2.64349 7.16375C2.5992 7.13096 2.622 7.06078 2.6771 7.0603L3.10253 7.05706L3.23711 6.65346C3.2544 6.60119 3.32837 6.60119 3.34579 6.65346Z" fill="#F5F5F5"/>
<path d="M3.34579 8.76474L3.48037 9.16834L3.9058 9.17158C3.9609 9.17206 3.9837 9.24231 3.93941 9.27502L3.59718 9.52779L3.72556 9.93339C3.74223 9.98587 3.68238 10.0294 3.63754 9.9973L3.29145 9.74991L2.94536 9.9973C2.90053 10.0293 2.84081 9.98587 2.85734 9.93339L2.98572 9.52779L2.64349 9.27502C2.5992 9.24224 2.622 9.17206 2.6771 9.17158L3.10253 9.16834L3.23711 8.76474C3.2544 8.71253 3.32837 8.71253 3.34579 8.76474Z" fill="#ff0000"/>
<path d="M4.98446 1.39565L5.11904 1.79925L5.54448 1.80249C5.59957 1.80297 5.62237 1.87322 5.57809 1.90594L5.23585 2.1587L5.36423 2.5643C5.3809 2.61678 5.32105 2.66031 5.27621 2.62821L4.93012 2.38082L4.58403 2.62821C4.5392 2.66024 4.47948 2.61678 4.49601 2.5643L4.62439 2.1587L4.28216 1.90594C4.23788 1.87315 4.26067 1.80297 4.31577 1.80249L4.7412 1.79925L4.87578 1.39565C4.89314 1.34338 4.96704 1.34338 4.98446 1.39565Z" fill="#F5F5F5"/>
<path d="M4.98446 3.50717L5.11904 3.91077L5.54448 3.91401C5.59957 3.91449 5.62237 3.98474 5.57809 4.01746L5.23585 4.27022L5.36423 4.67582C5.3809 4.7283 5.32105 4.77183 5.27621 4.73973L4.93012 4.49234L4.58403 4.73973C4.5392 4.77176 4.47948 4.7283 4.49601 4.67582L4.62439 4.27022L4.28216 4.01746C4.23788 3.98467 4.26067 3.91449 4.31577 3.91401L4.7412 3.91077L4.87578 3.50717C4.89314 3.45497 4.96704 3.45497 4.98446 3.50717Z" fill="#ff0000"/>
<path d="M4.98446 5.61826L5.11904 6.02185L5.54448 6.02509C5.59957 6.02557 5.62237 6.09583 5.57809 6.12854L5.23585 6.38131L5.36423 6.7869C5.3809 6.83938 5.32105 6.88291 5.27621 6.85082L4.93012 6.60342L4.58403 6.85082C4.5392 6.88284 4.47948 6.83938 4.49601 6.7869L4.62439 6.38131L4.28216 6.12854C4.23788 6.09576 4.26067 6.02557 4.31577 6.02509L4.7412 6.02185L4.87578 5.61826C4.89314 5.56605 4.96704 5.56605 4.98446 5.61826Z" fill="#F5F5F5"/>
<path d="M4.98446 7.72939L5.11904 8.13299L5.54448 8.13623C5.59957 8.13671 5.62237 8.20696 5.57809 8.23968L5.23585 8.49244L5.36423 8.89804C5.3809 8.95052 5.32105 8.99405 5.27621 8.96195L4.93012 8.71456L4.58403 8.96195C4.5392 8.99398 4.47948 8.95052 4.49601 8.89804L4.62439 8.49244L4.28216 8.23968C4.23788 8.20689 4.26067 8.13671 4.31577 8.13623L4.7412 8.13299L4.87578 7.72939C4.89314 7.67712 4.96704 7.67712 4.98446 7.72939Z" fill="#F5F5F5"/>
<path d="M4.98446 9.84077L5.11904 10.2444L5.54448 10.2476C5.59957 10.2481 5.62237 10.3183 5.57809 10.3511L5.23585 10.6038L5.36423 11.0094C5.3809 11.0619 5.32105 11.1054 5.27621 11.0733L4.93012 10.8259L4.58403 11.0733C4.5392 11.1054 4.47948 11.0619 4.49601 11.0094L4.62439 10.6038L4.28216 10.3511C4.23788 10.3183 4.26067 10.2481 4.31577 10.2476L4.7412 10.2444L4.87578 9.84077C4.89314 9.78843 4.96704 9.78843 4.98446 9.84077Z" fill="#ff0000"/>
<path d="M6.62411 2.431L6.75869 2.8346L7.18412 2.83784C7.23922 2.83832 7.26202 2.90857 7.21773 2.94128L6.8755 3.19405L7.00388 3.59965C7.02055 3.65213 6.9607 3.69566 6.91586 3.66356L6.56977 3.41617L6.22368 3.66356C6.17885 3.69559 6.11913 3.65213 6.13566 3.59965L6.26404 3.19405L5.92181 2.94128C5.87752 2.9085 5.90032 2.83832 5.95542 2.83784L6.38085 2.8346L6.51543 2.431C6.53272 2.37879 6.60669 2.37879 6.62411 2.431Z" fill="#F5F5F5"/>
<path d="M6.62411 4.54214L6.75869 4.94573L7.18412 4.94897C7.23922 4.94945 7.26202 5.0197 7.21773 5.05242L6.8755 5.30519L7.00388 5.71078C7.02055 5.76326 6.9607 5.80679 6.91586 5.7747L6.56977 5.5273L6.22368 5.7747C6.17885 5.80672 6.11913 5.76333 6.13566 5.71078L6.26404 5.30519L5.92181 5.05242C5.87752 5.01964 5.90032 4.94945 5.95542 4.94897L6.38085 4.94573L6.51543 4.54214C6.53272 4.48986 6.60669 4.48986 6.62411 4.54214Z" fill="#F5F5F5"/>
<path d="M6.62411 6.65346L6.75869 7.05706L7.18412 7.0603C7.23922 7.06078 7.26202 7.13103 7.21773 7.16375L6.8755 7.41651L7.00388 7.82211C7.02055 7.87459 6.9607 7.91812 6.91586 7.88602L6.56977 7.63863L6.22368 7.88602C6.17885 7.91805 6.11913 7.87459 6.13566 7.82211L6.26404 7.41651L5.92181 7.16375C5.87752 7.13096 5.90032 7.06078 5.95542 7.0603L6.38085 7.05706L6.51543 6.65346C6.53272 6.60119 6.60669 6.60119 6.62411 6.65346Z" fill="#F5F5F5"/>
<path d="M6.62411 8.76474L6.75869 9.16834L7.18412 9.17158C7.23922 9.17206 7.26202 9.24231 7.21773 9.27502L6.8755 9.52779L7.00388 9.93339C7.02055 9.98587 6.9607 10.0294 6.91586 9.9973L6.56977 9.74991L6.22368 9.9973C6.17885 10.0293 6.11913 9.98587 6.13566 9.93339L6.26404 9.52779L5.92181 9.27502C5.87752 9.24224 5.90032 9.17206 5.95542 9.17158L6.38085 9.16834L6.51543 8.76474C6.53272 8.71253 6.60669 8.71253 6.62411 8.76474Z" fill="#ff0000"/>
<path d="M8.26285 1.39565L8.39743 1.79925L8.82286 1.80249C8.87796 1.80297 8.90076 1.87322 8.85647 1.90594L8.51424 2.1587L8.64262 2.5643C8.65929 2.61678 8.59944 2.66031 8.5546 2.62821L8.20844 2.38082L7.86236 2.62821C7.81752 2.66024 7.75781 2.61678 7.77433 2.5643L7.90271 2.1587L7.56048 1.90594C7.5162 1.87315 7.53899 1.80297 7.59409 1.80249L8.01952 1.79925L8.1541 1.39565C8.17153 1.34338 8.24543 1.34338 8.26285 1.39565Z" fill="#F5F5F5"/>
<path d="M8.26285 3.50717L8.39743 3.91077L8.82286 3.91401C8.87796 3.91449 8.90076 3.98474 8.85647 4.01746L8.51424 4.27022L8.64262 4.67582C8.65929 4.7283 8.59944 4.77183 8.5546 4.73973L8.20844 4.49234L7.86236 4.73973C7.81752 4.77176 7.75781 4.7283 7.77433 4.67582L7.90271 4.27022L7.56048 4.01746C7.5162 3.98467 7.53899 3.91449 7.59409 3.91401L8.01952 3.91077L8.1541 3.50717C8.17153 3.45497 8.24543 3.45497 8.26285 3.50717Z" fill="#F5F5F5"/>
<path d="M8.26285 5.61826L8.39743 6.02185L8.82286 6.02509C8.87796 6.02557 8.90076 6.09583 8.85647 6.12854L8.51424 6.38131L8.64262 6.7869C8.65929 6.83938 8.59944 6.88291 8.5546 6.85082L8.20844 6.60342L7.86236 6.85082C7.81752 6.88284 7.75781 6.83938 7.77433 6.7869L7.90271 6.38131L7.56048 6.12854C7.5162 6.09576 7.53899 6.02557 7.59409 6.02509L8.01952 6.02185L8.1541 5.61826C8.17153 5.56605 8.24543 5.56605 8.26285 5.61826Z" fill="#ff0000"/>
<path d="M8.26285 7.72939L8.39743 8.13299L8.82286 8.13623C8.87796 8.13671 8.90076 8.20696 8.85647 8.23968L8.51424 8.49244L8.64262 8.89804C8.65929 8.95052 8.59944 8.99405 8.5546 8.96195L8.20844 8.71456L7.86236 8.96195C7.81752 8.99398 7.75781 8.95052 7.77433 8.89804L7.90271 8.49244L7.56048 8.23968C7.5162 8.20689 7.53899 8.13671 7.59409 8.13623L8.01952 8.13299L8.1541 7.72939C8.17153 7.67712 8.24543 7.67712 8.26285 7.72939Z" fill="#F5F5F5"/>
<path d="M8.26285 9.84077L8.39743 10.2444L8.82286 10.2476C8.87796 10.2481 8.90076 10.3183 8.85647 10.3511L8.51424 10.6038L8.64262 11.0094C8.65929 11.0619 8.59944 11.1054 8.5546 11.0733L8.20844 10.8259L7.86236 11.0733C7.81752 11.1054 7.75781 11.0619 7.77433 11.0094L7.90271 10.6038L7.56048 10.3511C7.5162 10.3183 7.53899 10.2481 7.59409 10.2476L8.01952 10.2444L8.1541 9.84077C8.17153 9.78843 8.24543 9.78843 8.26285 9.84077Z" fill="#ff0000"/>
<path d="M9.90048 2.431L10.0351 2.8346L10.4605 2.83784C10.5156 2.83832 10.5384 2.90857 10.4941 2.94128L10.1519 3.19405L10.2802 3.59965C10.2969 3.65213 10.2371 3.69566 10.1922 3.66356L9.84614 3.41617L9.50005 3.66356C9.45521 3.69559 9.3955 3.65213 9.41203 3.59965L9.54041 3.19405L9.19818 2.94128C9.15389 2.9085 9.17669 2.83832 9.23179 2.83784L9.65722 2.8346L9.7918 2.431C9.80922 2.37879 9.88306 2.37879 9.90048 2.431Z" fill="#F5F5F5"/>
<path d="M9.90048 4.54214L10.0351 4.94573L10.4605 4.94897C10.5156 4.94945 10.5384 5.0197 10.4941 5.05242L10.1519 5.30519L10.2802 5.71078C10.2969 5.76326 10.2371 5.80679 10.1922 5.7747L9.84614 5.5273L9.50005 5.7747C9.45521 5.80672 9.3955 5.76333 9.41203 5.71078L9.54041 5.30519L9.19818 5.05242C9.15389 5.01964 9.17669 4.94945 9.23179 4.94897L9.65722 4.94573L9.7918 4.54214C9.80922 4.48986 9.88306 4.48986 9.90048 4.54214Z" fill="#F5F5F5"/>
<path d="M9.90048 6.65346L10.0351 7.05706L10.4605 7.0603C10.5156 7.06078 10.5384 7.13103 10.4941 7.16375L10.1519 7.41651L10.2802 7.82211C10.2969 7.87459 10.2371 7.91812 10.1922 7.88602L9.84614 7.63863L9.50005 7.88602C9.45521 7.91805 9.3955 7.87459 9.41203 7.82211L9.54041 7.41651L9.19818 7.16375C9.15389 7.13096 9.17669 7.06078 9.23179 7.0603L9.65722 7.05706L9.7918 6.65346C9.80922 6.60119 9.88306 6.60119 9.90048 6.65346Z" fill="#F5F5F5"/>
<path d="M9.90048 8.76474L10.0351 9.16834L10.4605 9.17158C10.5156 9.17206 10.5384 9.24231 10.4941 9.27502L10.1519 9.52779L10.2802 9.93339C10.2969 9.98587 10.2371 10.0294 10.1922 9.9973L9.84614 9.74991L9.50005 9.9973C9.45521 10.0293 9.3955 9.98587 9.41203 9.93339L9.54041 9.52779L9.19818 9.27502C9.15389 9.24224 9.17669 9.17206 9.23179 9.17158L9.65722 9.16834L9.7918 8.76474C9.80922 8.71253 9.88306 8.71253 9.90048 8.76474Z" fill="#ff0000"/>
<path d="M11.5401 1.39565L11.6747 1.79925L12.1001 1.80249C12.1552 1.80297 12.178 1.87322 12.1337 1.90594L11.7915 2.1587L11.9199 2.5643C11.9366 2.61678 11.8767 2.66031 11.8319 2.62821L11.4858 2.38082L11.1397 2.62821C11.0949 2.66024 11.0351 2.61678 11.0517 2.5643L11.1801 2.1587L10.8378 1.90594C10.7935 1.87315 10.8163 1.80297 10.8714 1.80249L11.2969 1.79925L11.4314 1.39565C11.4487 1.34338 11.5227 1.34338 11.5401 1.39565Z" fill="#ff0000"/>
<path d="M11.5401 3.50717L11.6747 3.91077L12.1001 3.91401C12.1552 3.91449 12.178 3.98474 12.1337 4.01746L11.7915 4.27022L11.9199 4.67582C11.9366 4.7283 11.8767 4.77183 11.8319 4.73973L11.4858 4.49234L11.1397 4.73973C11.0949 4.77176 11.0351 4.7283 11.0517 4.67582L11.1801 4.27022L10.8378 4.01746C10.7935 3.98467 10.8163 3.91449 10.8714 3.91401L11.2969 3.91077L11.4314 3.50717C11.4487 3.45497 11.5227 3.45497 11.5401 3.50717Z" fill="#F5F5F5"/>
<path d="M11.5401 5.61826L11.6747 6.02185L12.1001 6.02509C12.1552 6.02557 12.178 6.09583 12.1337 6.12854L11.7915 6.38131L11.9199 6.7869C11.9366 6.83938 11.8767 6.88291 11.8319 6.85082L11.4858 6.60342L11.1397 6.85082C11.0949 6.88284 11.0351 6.83938 11.0517 6.7869L11.1801 6.38131L10.8378 6.12854C10.7935 6.09576 10.8163 6.02557 10.8714 6.02509L11.2969 6.02185L11.4314 5.61826C11.4487 5.56605 11.5227 5.56605 11.5401 5.61826Z" fill="#ff0000"/>
<path d="M11.5401 7.72939L11.6747 8.13299L12.1001 8.13623C12.1552 8.13671 12.178 8.20696 12.1337 8.23968L11.7915 8.49244L11.9199 8.89804C11.9366 8.95052 11.8767 8.99405 11.8319 8.96195L11.4858 8.71456L11.1397 8.96195C11.0949 8.99398 11.0351 8.95052 11.0517 8.89804L11.1801 8.49244L10.8378 8.23968C10.7935 8.20689 10.8163 8.13671 10.8714 8.13623L11.2969 8.13299L11.4314 7.72939C11.4487 7.67712 11.5227 7.67712 11.5401 7.72939Z" fill="#F5F5F5"/>
<path d="M11.5401 9.84077L11.6747 10.2444L12.1001 10.2476C12.1552 10.2481 12.178 10.3183 12.1337 10.3511L11.7915 10.6038L11.9199 11.0094C11.9366 11.0619 11.8767 11.1054 11.8319 11.0733L11.4858 10.8259L11.1397 11.0733C11.0949 11.1054 11.0351 11.0619 11.0517 11.0094L11.1801 10.6038L10.8378 10.3511C10.7935 10.3183 10.8163 10.2481 10.8714 10.2476L11.2969 10.2444L11.4314 9.84077C11.4487 9.78843 11.5227 9.78843 11.5401 9.84077Z" fill="#ff0000"/>
<path d="M13.1788 2.431L13.3134 2.8346L13.7388 2.83784C13.7939 2.83832 13.8167 2.90857 13.7724 2.94128L13.4302 3.19405L13.5586 3.59965C13.5752 3.65213 13.5154 3.69566 13.4705 3.66356L13.1245 3.41617L12.7784 3.66356C12.7335 3.69559 12.6738 3.65213 12.6903 3.59965L12.8187 3.19405L12.4765 2.94128C12.4322 2.9085 12.455 2.83832 12.5101 2.83784L12.9355 2.8346L13.0701 2.431C13.0875 2.37879 13.1614 2.37879 13.1788 2.431Z" fill="#F5F5F5"/>
<path d="M13.1788 4.54214L13.3134 4.94573L13.7388 4.94897C13.7939 4.94945 13.8167 5.0197 13.7724 5.05242L13.4302 5.30519L13.5586 5.71078C13.5752 5.76326 13.5154 5.80679 13.4705 5.7747L13.1245 5.5273L12.7784 5.7747C12.7335 5.80672 12.6738 5.76333 12.6903 5.71078L12.8187 5.30519L12.4765 5.05242C12.4322 5.01964 12.455 4.94945 12.5101 4.94897L12.9355 4.94573L13.0701 4.54214C13.0875 4.48986 13.1614 4.48986 13.1788 4.54214Z" fill="#ff0000"/>
<path d="M13.1788 6.65346L13.3134 7.05706L13.7388 7.0603C13.7939 7.06078 13.8167 7.13103 13.7724 7.16375L13.4302 7.41651L13.5586 7.82211C13.5752 7.87459 13.5154 7.91812 13.4705 7.88602L13.1245 7.63863L12.7784 7.88602C12.7335 7.91805 12.6738 7.87459 12.6903 7.82211L12.8187 7.41651L12.4765 7.16375C12.4322 7.13096 12.455 7.06078 12.5101 7.0603L12.9355 7.05706L13.0701 6.65346C13.0875 6.60119 13.1614 6.60119 13.1788 6.65346Z" fill="#F5F5F5"/>
<path d="M13.1788 8.76474L13.3134 9.16834L13.7388 9.17158C13.7939 9.17206 13.8167 9.24231 13.7724 9.27502L13.4302 9.52779L13.5586 9.93339C13.5752 9.98587 13.5154 10.0294 13.4705 9.9973L13.1245 9.74991L12.7784 9.9973C12.7335 10.0293 12.6738 9.98587 12.6903 9.93339L12.8187 9.52779L12.4765 9.27502C12.4322 9.24224 12.455 9.17206 12.5101 9.17158L12.9355 9.16834L13.0701 8.76474C13.0875 8.71253 13.1614 8.71253 13.1788 8.76474Z" fill="#ff0000"/>
<path d="M14.8175 1.39565L14.9521 1.79925L15.3775 1.80249C15.4326 1.80297 15.4554 1.87322 15.4111 1.90594L15.0689 2.1587L15.1972 2.5643C15.2139 2.61678 15.1541 2.66031 15.1092 2.62821L14.7631 2.38082L14.417 2.62821C14.3722 2.66024 14.3125 2.61678 14.329 2.5643L14.4574 2.1587L14.1152 1.90594C14.0709 1.87315 14.0937 1.80297 14.1488 1.80249L14.5742 1.79925L14.7088 1.39565C14.7261 1.34338 14.8 1.34338 14.8175 1.39565Z" fill="#ff0000"/>
<path d="M14.8175 3.50717L14.9521 3.91077L15.3775 3.91401C15.4326 3.91449 15.4554 3.98474 15.4111 4.01746L15.0689 4.27022L15.1972 4.67582C15.2139 4.7283 15.1541 4.77183 15.1092 4.73973L14.7631 4.49234L14.417 4.73973C14.3722 4.77176 14.3125 4.7283 14.329 4.67582L14.4574 4.27022L14.1152 4.01746C14.0709 3.98467 14.0937 3.91449 14.1488 3.91401L14.5742 3.91077L14.7088 3.50717C14.7261 3.45497 14.8 3.45497 14.8175 3.50717Z" fill="#F5F5F5"/>
<path d="M14.8175 5.61826L14.9521 6.02185L15.3775 6.02509C15.4326 6.02557 15.4554 6.09583 15.4111 6.12854L15.0689 6.38131L15.1972 6.7869C15.2139 6.83938 15.1541 6.88291 15.1092 6.85082L14.7631 6.60342L14.417 6.85082C14.3722 6.88284 14.3125 6.83938 14.329 6.7869L14.4574 6.38131L14.1152 6.12854C14.0709 6.09576 14.0937 6.02557 14.1488 6.02509L14.5742 6.02185L14.7088 5.61826C14.7261 5.56605 14.8 5.56605 14.8175 5.61826Z" fill="#F5F5F5"/>
<path d="M14.8175 7.72939L14.9521 8.13299L15.3775 8.13623C15.4326 8.13671 15.4554 8.20696 15.4111 8.23968L15.0689 8.49244L15.1972 8.89804C15.2139 8.95052 15.1541 8.99405 15.1092 8.96195L14.7631 8.71456L14.417 8.96195C14.3722 8.99398 14.3125 8.95052 14.329 8.89804L14.4574 8.49244L14.1152 8.23968C14.0709 8.20689 14.0937 8.13671 14.1488 8.13623L14.5742 8.13299L14.7088 7.72939C14.7261 7.67712 14.8 7.67712 14.8175 7.72939Z" fill="#ff0000"/>
<path d="M14.8175 9.84077L14.9521 10.2444L15.3775 10.2476C15.4326 10.2481 15.4554 10.3183 15.4111 10.3511L15.0689 10.6038L15.1972 11.0094C15.2139 11.0619 15.1541 11.1054 15.1092 11.0733L14.7631 10.8259L14.417 11.0733C14.3722 11.1054 14.3125 11.0619 14.329 11.0094L14.4574 10.6038L14.1152 10.3511C14.0709 10.3183 14.0937 10.2481 14.1488 10.2476L14.5742 10.2444L14.7088 9.84077C14.7261 9.78843 14.8 9.78843 14.8175 9.84077Z" fill="#ff0000"/>
</svg>
