<svg width="60" height="51" viewBox="0 0 60 51" fill="none" xmlns="http://www.w3.org/2000/svg">
<path d="M35.3166 25.1203C35.3166 17.0737 35.3166 9.02712 35.3166 0.980512C35.3166 0.799282 35.3896 0.69054 35.4992 0.545556C35.8463 0.0924812 36.2664 -0.016254 36.8144 0.00186903C39.3898 0.038115 41.9653 0.0199904 44.5225 0.0199904C44.6869 0.0199904 44.7782 0.0924812 44.9061 0.183096C45.381 0.527433 45.4723 0.962385 45.4723 1.54232C45.4541 17.4543 45.4541 33.3844 45.4723 49.2964C45.4723 49.4958 45.3993 49.6226 45.2714 49.7676C44.9426 50.2026 44.5225 50.3113 43.9745 50.3113C41.4173 50.2751 38.8601 50.2932 36.3029 50.2932C36.1203 50.2932 36.0107 50.2207 35.8828 50.1301C35.4262 49.7857 35.3166 49.3508 35.3166 48.789C35.3166 40.8873 35.3166 33.0038 35.3166 25.1203Z" fill="#7D8DAC"/>
<path d="M48.888 19.6653C48.888 13.431 48.888 7.17858 48.888 0.94427C48.888 0.76304 48.9611 0.654304 49.0524 0.527443C49.3812 0.0924912 49.8013 -0.0162484 50.331 0.00187459C52.9247 0.0381206 55.5002 0.0199959 58.0939 0.0199959C58.24 0.0199959 58.3314 0.0743671 58.441 0.146859C58.9159 0.491196 59.0255 0.944272 59.0255 1.52421C59.0072 13.7935 59.0072 26.0627 59.0255 38.332C59.0255 38.5314 58.9524 38.6582 58.8428 38.8032C58.514 39.2382 58.0939 39.3288 57.5642 39.3288C54.9887 39.2925 52.4133 39.3107 49.8561 39.3107C49.6917 39.3107 49.5821 39.2563 49.4542 39.1657C49.0341 38.8395 48.9063 38.4407 48.9063 37.8971C48.9063 31.844 48.888 25.7546 48.888 19.6653Z" fill="#7D8DAC"/>
<path d="M54.2399 45.7262C54.2399 45.7987 54.2399 45.8712 54.2399 45.9437C54.2399 47.3029 54.2399 48.6621 54.2399 50.0395C54.2399 50.2207 54.2034 50.2932 54.0024 50.2932C53.4179 50.2751 52.8334 50.2751 52.2489 50.2932C52.1028 50.2932 52.048 50.257 52.048 50.0939C52.048 47.2667 52.048 44.4214 52.048 41.5942C52.048 41.4311 52.1028 41.3948 52.2672 41.3948C52.8882 41.3948 53.5275 41.3948 54.1486 41.3948C54.2947 41.3948 54.3678 41.4311 54.4408 41.5579C55.208 42.9715 55.9751 44.3851 56.724 45.7987C56.7423 45.8349 56.7788 45.8893 56.8336 45.9799C56.8336 45.8349 56.8519 45.7625 56.8519 45.69C56.8519 44.3307 56.8519 42.9715 56.8519 41.5942C56.8519 41.4129 56.8884 41.3586 57.0894 41.3586C57.4364 41.3767 57.7835 41.3586 58.1488 41.3586C58.2766 41.3586 58.3497 41.4129 58.441 41.4673C58.9525 41.8298 59.0803 42.301 59.0621 42.9171C59.0255 45.0557 59.0438 47.1761 59.0438 49.3146C59.0438 49.4596 58.989 49.5502 58.9159 49.6589C58.5506 50.1482 58.0757 50.2751 57.4547 50.2751C56.925 50.2751 56.651 50.112 56.4135 49.6408C55.7742 48.3722 55.0801 47.1217 54.386 45.8712C54.3495 45.8168 54.313 45.7443 54.2764 45.69C54.2582 45.7081 54.2582 45.7081 54.2399 45.7262Z" fill="#7D8DAC"/>
<path d="M51.0434 45.835C51.0434 47.2304 51.0434 48.6259 51.0434 50.0395C51.0434 50.2207 51.0069 50.2932 50.806 50.2751C50.4589 50.257 50.1119 50.2751 49.7466 50.2751C49.5091 50.2751 48.8698 49.6408 48.8698 49.4052C48.8698 47.013 48.8698 44.6389 48.8698 42.2466C48.8698 42.1379 48.9063 42.0654 48.9794 41.9748C49.3447 41.4855 49.8013 41.268 50.4224 41.3767C50.5502 41.3948 50.6964 41.3948 50.8425 41.3767C51.0069 41.3586 51.0434 41.4311 51.0252 41.5761C51.0434 42.9897 51.0434 44.4214 51.0434 45.835Z" fill="#7D8DAC"/>
<path fill-rule="evenodd" clip-rule="evenodd" d="M0.191617 37.4621C0.136766 37.7883 0.155049 38.1327 0.0637207 38.4589V40.4887C0.100288 40.7786 0.0820043 41.0867 0.118482 41.3767C0.30114 42.6815 0.666454 43.9501 1.28756 45.1281C2.05467 46.5779 3.13233 47.7741 4.48406 48.7165C5.56172 49.4595 6.73071 50.0032 7.97275 50.3657C9.06869 50.6919 10.1829 50.9094 11.3337 50.9637C11.5237 50.9748 11.7068 50.9655 11.8873 50.9691C12.0018 50.9714 12.1153 50.9788 12.2287 51H13.8909C13.9091 50.9637 13.9457 50.9637 13.9822 50.9637C14.4023 50.9456 14.8042 50.8912 15.206 50.8188C17.2518 50.4744 19.1148 49.6951 20.7406 48.3902C20.9963 48.1908 21.2337 48.0822 21.5442 48.1003C21.7269 48.1184 21.8182 48.1547 21.8913 48.3177C21.9382 48.4108 21.984 48.5047 22.0299 48.5986C22.305 49.1624 22.5801 49.7261 23.0968 50.13C23.2064 50.2207 23.316 50.2751 23.4621 50.2751C25.7636 50.2751 28.0833 50.2569 30.4031 50.2931C30.9694 50.3113 31.4077 50.2025 31.7548 49.7494L31.7648 49.7334C31.8514 49.5964 31.9191 49.489 31.9191 49.3145V30.666C31.9191 29.0892 31.8827 27.5126 31.7 25.9358C31.5173 24.4317 31.2251 22.9637 30.7319 21.5501C29.5263 18.143 27.2431 15.8051 23.7726 14.6453C21.6356 13.9385 19.4437 13.7028 17.2152 13.6666C15.827 13.6485 14.4571 13.721 13.0872 13.9022C11.3337 14.1378 9.65323 14.5546 8.04588 15.2977C5.85399 16.2945 4.04561 17.7443 2.82186 19.8284C2.01819 21.2057 1.56155 22.6918 1.52498 24.2866C1.5067 24.5223 2.16428 25.1566 2.4017 25.1566H10.7492C10.7873 25.1566 10.8255 25.1665 10.8611 25.1656C10.8936 25.1647 10.9239 25.1549 10.9501 25.1203C11.0372 25.0231 11.1323 24.9356 11.227 24.8486C11.4498 24.6436 11.6694 24.4417 11.7721 24.1235C11.8078 24.0082 11.8612 23.9014 11.9257 23.7991C11.9927 23.6926 12.0718 23.5909 12.1557 23.4892C12.7401 22.7643 13.5621 22.5106 14.4571 22.3837C15.2347 22.2799 16.0246 22.2853 16.8066 22.2907C16.9798 22.292 17.1526 22.2931 17.3248 22.2931C18.092 22.2931 18.8591 22.3475 19.6263 22.5106C20.704 22.7462 21.3799 23.3805 21.599 24.4679C21.7004 24.933 21.7227 25.4068 21.7451 25.8832C21.755 26.0937 21.7649 26.3048 21.7817 26.5158C21.8365 27.0957 21.672 27.5307 21.2154 27.875C21.0876 27.9657 21.0146 28.0018 20.8501 27.9657C19.4437 27.5669 18.0007 27.3494 16.5394 27.3132C14.8042 27.2588 13.0872 27.3675 11.3702 27.6394C9.48886 27.9294 7.68057 28.4187 5.9818 29.2886C2.60264 31.0103 0.703021 33.7469 0.191617 37.4621ZM12.1922 41.8479C13.1419 42.2465 14.1465 42.3553 15.0598 42.3553C16.7037 42.3734 18.1468 42.0473 19.4619 41.2136C20.6127 40.4705 21.4163 39.4738 21.6903 38.0964C21.7902 37.6255 21.7792 37.1462 21.7679 36.6642C21.7628 36.4412 21.7576 36.2176 21.7634 35.9941C21.7817 35.9761 21.7634 35.9216 21.7451 35.9035C21.6474 35.8173 21.5578 35.7216 21.4681 35.6257C21.2558 35.399 21.0431 35.1718 20.7222 35.0699C19.7176 34.7255 18.6765 34.5624 17.617 34.5081C16.2106 34.4356 14.8224 34.4899 13.4525 34.8524C12.5939 35.088 11.8268 35.4324 11.2058 36.0667C10.53 36.7372 10.256 37.5527 10.2012 38.477C10.1281 39.945 10.6396 41.1773 12.1922 41.8479Z" fill="#7D8DAC"/>
</svg>
