<svg width="151" height="45" viewBox="0 0 151 45" fill="none" xmlns="http://www.w3.org/2000/svg">
<path fill-rule="evenodd" clip-rule="evenodd" d="M150.586 44.7619V0H103.91V44.7619H150.586ZM139.949 12.855C136.354 10.7888 132.757 9.71751 129.39 9.71751C125.795 9.71751 122.809 10.8653 120.514 13.1609C118.142 15.38 116.919 18.1343 116.919 21.5777C116.919 24.8673 118.142 27.6981 120.439 29.9953C122.886 32.1363 125.795 33.2084 129.314 33.2084C133.064 33.2084 136.736 32.0606 140.333 29.7643V34.5856C136.965 36.4216 133.216 37.34 129.084 37.34C125.564 37.34 122.656 36.6518 120.207 35.2746C117.863 33.8471 115.896 31.879 114.469 29.5349C113.092 26.9351 112.326 24.3328 112.326 21.5777C112.326 16.9865 113.933 13.2373 117.223 10.1763C120.438 7.11528 124.417 5.50871 129.084 5.50871C132.45 5.50871 136.047 6.35064 139.949 8.11014V12.855H139.949ZM98.7082 0H52.0322V44.7619H98.7082V0ZM66.3409 6.6565H74.4518C77.0532 6.6565 79.0438 6.96236 80.4958 7.65135C81.9502 8.41681 83.0207 9.33439 83.7105 10.483C84.4744 11.7072 84.8583 13.0844 84.8583 14.691C84.8583 17.7512 83.3274 19.8938 80.1135 21.1953C82.409 21.5777 84.245 22.4961 85.5465 24.0262C86.8464 25.4033 87.4597 27.1637 87.5354 29.1525C87.4597 30.6835 87.0766 32.1363 86.312 33.3614C85.4692 34.5856 84.3215 35.5813 82.7149 36.4224C81.1083 37.1878 79.1951 37.5702 76.823 37.5702H66.3409V6.6565Z" fill="#7D8DAC"/>
<path fill-rule="evenodd" clip-rule="evenodd" d="M73.6867 19.8946C76.0579 19.8946 77.7417 19.4358 78.7366 18.5939C79.7314 17.5991 80.2659 16.4513 80.2659 14.9976C80.2659 12.0904 78.3543 10.5594 74.6042 10.5594H70.7794V19.8946H73.6867ZM74.9109 23.8732H70.7794V33.5899H75.2176C77.2829 33.5899 78.9668 33.4378 80.0373 33.1312C81.0322 32.5951 81.7211 31.9834 82.1799 31.2952C82.6387 30.5297 82.9454 29.6886 82.9454 28.7702C82.8681 27.8518 82.6387 27.0091 82.1027 26.2453C81.6439 25.4025 80.8792 24.7908 79.8071 24.4077C78.8139 24.0262 77.13 23.7968 74.9109 23.8732ZM46.6759 0H0V44.7619H46.6759V0ZM14.233 37.5694V6.6565H22.3439C24.9454 6.6565 26.8586 6.96236 28.3122 7.65135C29.7659 8.33954 30.9137 9.33439 31.6027 10.5586C32.3673 11.7064 32.7504 13.0836 32.8269 14.6902C32.7504 17.7504 31.2203 19.893 28.0064 21.2702C30.3784 21.6533 32.1379 22.5709 33.4394 24.0246C34.7401 25.4017 35.4291 27.162 35.4291 29.1509C35.4291 30.7575 35.0468 32.212 34.2049 33.3597C33.363 34.6596 32.2152 35.6553 30.6851 36.4208C29.0785 37.1862 27.0888 37.5685 24.7168 37.5685H14.233V37.5694Z" fill="#7D8DAC"/>
<path fill-rule="evenodd" clip-rule="evenodd" d="M22.4971 10.5591H18.6714V19.8943H21.6551C23.9507 19.8943 25.6337 19.4355 26.6294 18.5936C27.6234 17.6752 28.1595 16.4509 28.1595 15.0737C28.1587 12.0892 26.2463 10.5591 22.4971 10.5591ZM22.8029 23.8729H18.6714V33.5896H23.0323C25.3279 33.5896 27.0109 33.4375 28.0058 33.1308C28.8477 32.7485 29.5359 32.2124 30.0711 31.4469C30.5307 30.6058 30.7601 29.7631 30.8366 28.7699C30.7601 27.6977 30.4535 26.8566 29.9947 26.2449C29.4697 25.3977 28.6534 24.7714 27.6991 24.4838C26.6286 24.0258 24.9456 23.8729 22.8029 23.8729Z" fill="#7D8DAC"/>
</svg>
