<svg width="192" height="54" viewBox="0 0 192 54" fill="none" xmlns="http://www.w3.org/2000/svg">
<path d="M56.856 17.8388C56.856 14.441 59.283 11.6904 62.7616 11.6904C64.865 11.6904 66.1594 12.4185 67.2111 13.5511L65.5931 15.4927C64.7032 14.6837 63.8133 14.1174 62.6807 14.1174C60.7391 14.1174 59.3639 15.8163 59.3639 17.8388C59.3639 19.8613 60.7391 21.5602 62.6807 21.5602C63.9751 21.5602 64.7841 20.9939 65.674 20.1849L67.292 21.8838C66.1594 23.1782 64.865 23.9872 62.6807 23.9872C59.3639 23.9872 56.856 21.2366 56.856 17.8388Z" fill="#7D8DAC"/>
<path d="M69.3135 11.9321H71.8214V16.6243H76.4327V11.9321H78.9405V23.8244H76.4327V19.0513H71.8214V23.8244H69.3135V11.9321Z" fill="#7D8DAC"/>
<path d="M85.4929 11.7708H87.7581L92.6121 23.7439H90.0233L88.9716 21.0742H84.1985L83.1468 23.7439H80.6389L85.4929 11.7708ZM88.0817 18.809L86.5446 14.9258L85.0075 18.809H88.0817Z" fill="#7D8DAC"/>
<path d="M94.4724 11.9321H96.9803V23.8244H94.4724V11.9321Z" fill="#7D8DAC"/>
<path d="M99.8118 11.9321H102.077L107.416 19.2131V11.9321H109.843V23.8244H107.74L102.239 16.3007V23.8244H99.8118V11.9321Z" fill="#7D8DAC"/>
<path d="M112.109 17.8383C112.109 14.4405 114.536 11.6899 118.015 11.6899C120.118 11.6899 121.413 12.418 122.465 13.5506L120.847 15.4922C119.957 14.6832 119.067 14.1169 117.934 14.1169C115.993 14.1169 114.617 15.8158 114.617 17.8383C114.617 19.8608 115.993 21.5597 117.934 21.5597C119.229 21.5597 120.038 20.9934 120.927 20.1844L122.545 21.8833C121.413 23.1777 120.118 23.9867 117.934 23.9867C114.617 23.9867 112.109 21.2361 112.109 17.8383Z" fill="#7D8DAC"/>
<path d="M124.566 11.9321H129.744C131.2 11.9321 132.332 12.3366 133.06 13.1456C133.708 13.7928 134.031 14.7636 134.031 15.8962C134.031 17.8378 133.06 19.0513 131.604 19.5367L134.355 23.7435H131.442L129.015 19.9412H127.074V23.7435H124.566V11.9321ZM129.582 17.676C130.795 17.676 131.523 17.0288 131.523 15.9771C131.523 14.8445 130.795 14.2782 129.582 14.2782H127.074V17.676H129.582Z" fill="#7D8DAC"/>
<path d="M136.217 11.9321H144.792V14.2782H138.724V16.7052H144.064V19.0513H138.724V21.5592H144.873V23.9053H136.217V11.9321Z" fill="#7D8DAC"/>
<path d="M150.94 11.7708H153.205L158.059 23.7439H155.47L154.419 21.0742H149.727L148.675 23.7439H146.167L150.94 11.7708ZM153.61 18.809L152.073 14.9258L150.536 18.809H153.61Z" fill="#7D8DAC"/>
<path d="M161.054 14.2786H157.575V11.8516H166.96V14.2786H163.481V23.7438H161.054V14.2786Z" fill="#7D8DAC"/>
<path d="M167.93 17.8383C167.93 14.4405 170.438 11.6899 173.997 11.6899C177.476 11.6899 179.984 14.4405 179.984 17.7574C179.984 21.1552 177.476 23.9058 173.917 23.9058C170.357 23.9058 167.93 21.2361 167.93 17.8383ZM177.314 17.8383C177.314 15.7349 175.858 14.036 173.917 14.036C171.975 14.036 170.519 15.7349 170.519 17.7574C170.519 19.7799 171.975 21.4788 173.917 21.4788C175.858 21.4788 177.314 19.8608 177.314 17.8383Z" fill="#7D8DAC"/>
<path d="M182.168 11.9321H187.345C188.801 11.9321 189.934 12.3366 190.662 13.1456C191.309 13.7928 191.633 14.7636 191.633 15.8962C191.633 17.8378 190.662 19.0513 189.206 19.5367L191.957 23.7435H189.044L186.617 19.9412H184.676V23.7435H182.168V11.9321ZM187.184 17.676C188.397 17.676 189.125 17.0288 189.125 15.9771C189.125 14.8445 188.397 14.2782 187.184 14.2782H184.676V17.676H187.184Z" fill="#7D8DAC"/>
<path d="M57.583 28.8418H65.7539V30.0553H58.8774V34.1003H65.0258V35.3138H58.8774V39.4397H65.8348V40.6532H57.583V28.8418Z" fill="#7D8DAC"/>
<path d="M71.9828 34.6656L67.7761 28.8408H69.3132L72.7918 33.6948L76.2705 28.8408H77.7267L73.5199 34.6656L77.8885 40.7331H76.3514L72.7109 35.6364L69.0705 40.7331H67.6143L71.9828 34.6656Z" fill="#7D8DAC"/>
<path d="M78.8613 34.8273C78.8613 31.4295 81.2883 28.679 84.6052 28.679C86.6277 28.679 87.9221 29.4071 89.0547 30.5396L88.1648 31.5104C87.194 30.5396 86.1423 29.8925 84.6052 29.8925C82.0973 29.8925 80.2366 31.9958 80.2366 34.7464C80.2366 37.497 82.0973 39.6813 84.6052 39.6813C86.1423 39.6813 87.194 39.0341 88.2457 37.9824L89.0547 38.8723C87.8412 40.1667 86.5468 40.9757 84.5243 40.9757C81.2883 40.8948 78.8613 38.2251 78.8613 34.8273Z" fill="#7D8DAC"/>
<path d="M91.3184 28.8408H92.6128V34.0993H99.1656V28.8408H100.46V40.7331H99.1656V35.3937H92.6128V40.7331H91.3184V28.8408Z" fill="#7D8DAC"/>
<path d="M107.823 28.7598H109.037L114.215 40.7329H112.839L111.545 37.5778H105.396L104.021 40.7329H102.727L107.823 28.7598ZM110.979 36.3643L108.39 30.2969L105.801 36.3643H110.979Z" fill="#7D8DAC"/>
<path d="M116.396 28.8408H117.61L124.729 38.387V28.8408H125.943V40.7331H124.891L117.61 31.0251V40.7331H116.396V28.8408Z" fill="#7D8DAC"/>
<path d="M128.695 34.8273C128.695 31.5104 130.96 28.679 134.358 28.679C136.299 28.679 137.432 29.2453 138.565 30.2161L137.756 31.2677C136.866 30.4588 135.895 29.8925 134.277 29.8925C131.769 29.8925 129.989 32.0767 129.989 34.7464C129.989 37.5779 131.688 39.6813 134.439 39.6813C135.733 39.6813 136.947 39.1959 137.675 38.4678V35.5554H134.196V34.3419H138.888V39.0341C137.837 40.0049 136.219 40.8139 134.358 40.8139C130.879 40.8948 128.695 38.2251 128.695 34.8273Z" fill="#7D8DAC"/>
<path d="M141.88 28.8408H150.051V30.0543H143.175V34.0993H149.323V35.3128H143.175V39.4387H150.132V40.6522H141.88V28.8408Z" fill="#7D8DAC"/>
<path d="M2.32891 42.0274L21.664 53.1916C23.1202 54.0006 24.819 54.0006 26.2752 53.1916L45.6103 42.0274C47.0665 41.2184 47.8755 39.6813 47.8755 38.0633V15.735C47.8755 14.117 46.9856 12.5799 45.6103 11.7709L26.2752 0.606748C24.819 -0.202249 23.1202 -0.202249 21.664 0.606748L2.32891 11.7709C0.872718 12.5799 0.0637207 14.117 0.0637207 15.735V38.0633C0.0637207 39.6813 0.953618 41.2184 2.32891 42.0274ZM5.24131 19.0519C5.24131 16.1395 7.5874 13.7934 10.4998 13.7934C11.7942 13.7934 12.9268 14.2788 13.8976 15.0069L18.8325 12.1754C18.7516 11.8518 18.7516 11.6091 18.7516 11.2855C18.7516 8.37312 21.0977 6.02703 24.01 6.02703C26.9224 6.02703 29.2685 8.37312 29.2685 11.2855C29.2685 11.6091 29.2685 11.9327 29.1876 12.1754L34.1225 15.0069C35.0124 14.2788 36.2259 13.7934 37.5203 13.7934C40.4327 13.7934 42.7788 16.1395 42.7788 19.0519C42.7788 21.9643 40.4327 24.3104 37.5203 24.3104C34.6079 24.3104 32.2618 21.9643 32.2618 19.0519C32.2618 18.7283 32.2618 18.4047 32.3427 18.162L27.3269 15.3305C26.437 16.0586 25.2235 16.544 23.9291 16.544C22.6348 16.544 21.5022 16.0586 20.5314 15.3305L15.5965 18.162C15.6774 18.4856 15.6774 18.7283 15.6774 19.0519C15.6774 21.3171 14.2212 23.2587 12.1987 23.9868V29.7307C14.2212 30.4588 15.6774 32.4004 15.6774 34.6655C15.6774 34.9891 15.6774 35.3127 15.5965 35.5554L20.5314 38.3869C21.4213 37.6588 22.6348 37.1734 23.9291 37.1734C25.2235 37.1734 26.3561 37.6588 27.3269 38.3869L32.2618 35.5554C32.1809 35.2318 32.1809 34.9891 32.1809 34.6655C32.1809 31.7532 34.527 29.4071 37.4394 29.4071C40.3518 29.4071 42.6979 31.7532 42.6979 34.6655C42.6979 37.5779 40.3518 39.924 37.4394 39.924C36.145 39.924 35.0124 39.4386 34.0416 38.7105L29.1876 41.6229C29.2685 41.9465 29.2685 42.1892 29.2685 42.5128C29.2685 45.4252 26.9224 47.7713 24.01 47.7713C21.0977 47.7713 18.7516 45.4252 18.7516 42.5128C18.7516 42.1892 18.7516 41.8656 18.8325 41.6229L13.8167 38.7105C12.9268 39.4386 11.7133 39.924 10.4189 39.924C7.5065 39.924 5.16041 37.5779 5.16041 34.6655C5.16041 32.4004 6.6166 30.4588 8.6391 29.7307V23.9868C6.6166 23.2587 5.24131 21.3171 5.24131 19.0519Z" fill="#7D8DAC"/>
<path d="M8.23462 34.6658C8.23462 35.8793 9.20542 36.931 10.4998 36.931C10.5807 36.931 10.6616 36.931 10.7425 36.931C11.8751 36.7692 12.765 35.8793 12.765 34.6658C12.765 34.3422 12.6841 34.0186 12.6032 33.7759C12.5223 33.6141 12.4414 33.4523 12.3605 33.2905C11.956 32.7242 11.3088 32.4006 10.5807 32.4006C9.85261 32.4006 9.20542 32.7242 8.80092 33.2905C8.39642 33.695 8.23462 34.1804 8.23462 34.6658Z" fill="#7D8DAC"/>
<path d="M24.011 44.7782C24.0919 44.7782 24.1728 44.7782 24.2537 44.7782C25.3863 44.6164 26.2762 43.7265 26.2762 42.513C26.2762 42.1894 26.1953 41.8658 26.1144 41.6231C26.0335 41.4613 25.9526 41.2995 25.8717 41.1377C25.4672 40.5714 24.82 40.2478 24.0919 40.2478C23.3638 40.2478 22.7166 40.5714 22.3121 41.1377C22.0694 41.5422 21.8267 41.9467 21.8267 42.513C21.7458 43.7265 22.7166 44.7782 24.011 44.7782Z" fill="#7D8DAC"/>
<path d="M37.5188 36.931C37.5997 36.931 37.6806 36.931 37.7615 36.931C38.8941 36.7692 39.784 35.8793 39.784 34.6658C39.784 34.3422 39.7031 34.0186 39.6222 33.7759C39.5413 33.6141 39.4604 33.4523 39.3795 33.2905C38.975 32.7242 38.3278 32.4006 37.5997 32.4006C36.8716 32.4006 36.2244 32.7242 35.8199 33.2905C35.5772 33.695 35.3345 34.0995 35.3345 34.6658C35.2536 35.9602 36.2244 36.931 37.5188 36.931Z" fill="#7D8DAC"/>
<path d="M37.5188 21.3165C37.5997 21.3165 37.6806 21.3165 37.7615 21.3165C38.8941 21.1547 39.784 20.2648 39.784 19.0513C39.784 18.7277 39.7031 18.4041 39.6222 18.1614C39.5413 17.9996 39.4604 17.8378 39.3795 17.676C38.975 17.1097 38.3278 16.7861 37.5997 16.7861C36.8716 16.7861 36.2244 17.1097 35.8199 17.676C35.5772 18.0805 35.3345 18.485 35.3345 19.0513C35.2536 20.3457 36.2244 21.3165 37.5188 21.3165Z" fill="#7D8DAC"/>
<path d="M24.011 13.5506C24.0919 13.5506 24.1728 13.5506 24.2537 13.5506C25.3863 13.3889 26.2762 12.499 26.2762 11.2855C26.2762 10.9619 26.1953 10.6383 26.1144 10.3956C26.0335 10.2338 25.9526 10.072 25.8717 9.91016C25.4672 9.34386 24.82 9.02026 24.0919 9.02026C23.3638 9.02026 22.7166 9.34386 22.3121 9.91016C22.0694 10.3147 21.8267 10.7192 21.8267 11.2855C21.7458 12.499 22.7166 13.5506 24.011 13.5506Z" fill="#7D8DAC"/>
<path d="M10.5 21.3165C10.5809 21.3165 10.6618 21.3165 10.7427 21.3165C11.8753 21.1547 12.7652 20.2648 12.7652 19.0513C12.7652 18.7277 12.6843 18.4041 12.6034 18.1614C12.5225 17.9996 12.4416 17.8378 12.3607 17.676C11.9562 17.1097 11.309 16.7861 10.5809 16.7861C9.85284 16.7861 9.20564 17.1097 8.80114 17.676C8.55844 18.0805 8.31574 18.485 8.31574 19.0513C8.23484 20.3457 9.20564 21.3165 10.5 21.3165Z" fill="#7D8DAC"/>
</svg>
