<svg width="235" height="34" viewBox="0 0 235 34" fill="none" xmlns="http://www.w3.org/2000/svg">
<path d="M0.180289 33.1734H4.53728C7.03129 33.1734 9.04452 31.1602 9.07457 28.6361V24.1289H4.53728C2.01323 24.159 0 26.1722 0 28.6662V33.2035L0.180289 33.1734Z" fill="#7D8DAC"/>
<path d="M33.1734 21.5447C31.4005 23.2274 29.0568 24.1589 26.6229 24.1589H24.0988V26.6829C24.0988 29.1168 23.1673 31.4606 21.4846 33.2334H22.5664C28.3957 33.2334 33.1133 28.5159 33.1133 22.6865V21.5447" fill="#7D8DAC"/>
<path d="M11.6587 0.000244141H10.577C4.71757 0.000244141 0 4.71782 0 10.5472V11.6289C1.77285 9.94621 4.11661 9.01472 6.55052 9.01472H9.07457V6.49067C9.04452 4.11685 9.97602 1.77309 11.6587 0.000244141Z" fill="#7D8DAC"/>
<path d="M21.1231 24.1289H12.0786V28.6662C12.0786 30.2888 11.5377 31.8814 10.5461 33.2035H14.5726C18.1784 33.2035 21.1231 30.2888 21.1231 26.653V24.1289Z" fill="#7D8DAC"/>
<path d="M9.04452 12.0796H6.52047C2.91468 12.0796 0 14.9943 0 18.6001V22.6265C1.29207 21.6349 2.88463 21.1241 4.53728 21.1241H9.07457V12.0796" fill="#7D8DAC"/>
<path d="M22.6268 0H18.5703C14.9645 0 12.0498 2.91468 12.0498 6.55052V9.07457H21.0943V4.56733C21.0943 2.88463 21.6352 1.29207 22.6268 0Z" fill="#7D8DAC"/>
<path d="M33.1737 10.5474C31.8816 11.539 30.289 12.0798 28.6364 12.0498H24.1292V21.1243H26.6532C30.259 21.1243 33.1737 18.2097 33.2037 14.6039L33.1737 10.5474Z" fill="#7D8DAC"/>
<path d="M21.1244 12.0796H16.5871C14.0931 12.0796 12.0799 14.0928 12.0498 16.6169V21.1542H16.5871C19.0811 21.1542 21.0943 19.1409 21.1244 16.6169V12.0796Z" fill="#7D8DAC"/>
<path d="M33.1737 0H28.6664C26.1724 0 24.1292 2.01323 24.1292 4.53728V9.07457H28.6664C31.1604 9.07457 33.2037 7.06134 33.2037 4.53728L33.1737 0Z" fill="#7D8DAC"/>
<path d="M50.271 27.6747H54.7482V21.004H65.6256V17.0076H54.7482V8.92464H67.3985V4.92822H50.271V27.6747ZM82.9635 19.141C82.9635 22.6567 81.401 24.3694 78.3661 24.3694C75.3913 24.3694 73.8288 22.6867 73.8288 19.141V8.89459H70.1028V20.1326C70.1028 24.4596 72.9574 27.8851 78.3661 27.8851C83.7748 27.8851 86.6895 24.4596 86.6895 20.1326V8.89459H82.9635V19.141ZM103.937 20.7036L92.7592 8.89459H90.8962V27.6747H94.7124V15.8357L105.89 27.6747H107.753V8.89459H103.937V20.7036ZM119.562 8.89459H112.14V27.6447H120.193C125.121 27.6447 129.027 23.2577 129.027 18.2696C128.997 13.0713 124.761 8.89459 119.562 8.89459ZM119.863 24.1891H115.836V12.3802H119.562C122.717 12.3802 125.271 15.0545 125.271 18.2997C125.241 21.4247 122.838 24.1591 119.863 24.1891ZM141.467 15.1446C137.832 14.2432 135.037 13.3718 135.037 11.0881C135.037 8.80445 137.14 7.39218 140.386 7.39218C142.339 7.39218 145.193 7.903 146.936 8.83449L147.567 9.19507L148.739 6.9715L148.138 6.64097C146.275 5.61933 143.09 4.92822 140.416 4.92822C135.668 4.92822 132.513 7.42223 132.513 11.1182C132.513 15.5653 137.351 16.7372 140.897 17.6086C144.863 18.6002 146.876 19.4716 146.876 21.605C146.876 24.4596 143.931 25.4812 141.137 25.4812C138.102 25.4812 136.93 25.2709 133.805 23.7384L133.174 23.4379L132.122 25.6315L132.753 25.9319C136.269 27.7048 137.711 27.9452 141.167 27.9452C146.185 27.9452 149.43 25.4512 149.43 21.575C149.4 17.1278 144.653 15.9559 141.467 15.1446ZM154.568 19.6519H163.673V17.3982H154.568V11.0581H165.206V8.7744H152.225V27.7348H165.716V25.4512H154.568V19.6519ZM170.584 19.6519H179.659V17.3982H170.584V11.0581H181.221V8.7744H168.24V27.7348H181.732V25.4512H170.584V19.6519ZM190.386 8.7744H184.286V27.7348H191.017C196.245 27.4344 200.272 22.9572 199.971 17.7288C199.671 12.6807 195.434 8.7143 190.386 8.7744ZM186.6 11.0581H190.386C194.352 11.0581 197.568 14.3033 197.568 18.2696C197.568 21.9956 194.593 25.1507 190.867 25.4512H186.6V11.0581ZM205.47 19.6519H214.575V17.3982H205.47V11.0581H216.107V8.7744H203.156V27.7348H216.648V25.4512H205.47V19.6519ZM229.629 21.0942C232.093 20.1326 233.415 18.0293 233.415 15.0845C233.415 11.1482 230.861 8.7744 226.594 8.7744H219.142V27.7348H221.456V21.6951H225.963C226.384 21.6951 226.804 21.6951 227.195 21.6651L231.672 27.7348H234.557L229.629 21.0942ZM221.486 11.0581H226.564C230.26 11.0581 231.041 13.2516 231.041 15.1146C231.041 17.9992 229.329 19.4415 225.933 19.4415H221.486V11.0581Z" fill="#7D8DAC"/>
</svg>
