<svg width="98" height="39" viewBox="0 0 98 39" fill="none" xmlns="http://www.w3.org/2000/svg">
<path d="M22.2498 8.60161C24.3079 8.60161 26.2664 8.6348 28.2249 8.60161C28.7228 8.60161 28.7892 8.90036 28.922 9.23231C30.9137 14.5767 32.9386 19.9543 34.9303 25.2987C35.4614 26.7261 35.9925 28.1535 36.59 29.7469C37.2207 28.1203 37.785 26.6265 38.3162 25.166C40.2747 19.9543 42.2332 14.7095 44.1585 9.46468C44.4241 8.76759 44.756 8.56841 45.4531 8.60161C47.2456 8.668 49.0382 8.63481 50.9635 8.63481C50.3328 10.2946 49.7353 11.8879 49.1378 13.4813C46.117 21.5477 43.0963 29.6141 40.1087 37.7137C39.8763 38.3444 39.5444 38.5104 38.9137 38.5104C37.3535 38.4772 35.8265 38.444 34.2664 38.5104C33.5029 38.5436 33.2373 38.2448 32.9718 37.5809C31.4116 33.2655 29.785 28.9834 28.1917 24.7012C26.2664 19.5892 24.3742 14.4439 22.4489 9.3319C22.4157 9.09953 22.3825 8.90037 22.2498 8.60161Z" fill="#7D8DAC"/>
<path d="M11.3287 38.9752C6.98013 38.9752 3.49465 37.1495 0.772653 33.7967C0.507093 33.498 0.440701 33.2988 0.839042 33.0333C2.16685 32.1038 3.42826 31.1743 4.72287 30.2117C5.08801 29.9461 5.25399 30.0457 5.51955 30.3445C6.88055 31.8714 8.44071 33.1329 10.5984 33.3652C11.8266 33.498 13.0216 33.2988 14.0839 32.6017C15.81 31.5395 16.0424 29.4482 14.615 28.0208C13.7851 27.1909 12.7229 26.7594 11.6938 26.2947C9.63574 25.3652 7.44486 24.6681 5.58594 23.3403C1.86809 20.6515 0.872236 15.971 3.22909 12.0872C4.68967 9.69712 6.98013 8.50209 9.66893 8.17014C13.6855 7.67222 17.1378 8.86724 19.8266 11.9876C20.1918 12.3859 20.1586 12.6183 19.6938 12.917C18.5652 13.6805 17.4366 14.5104 16.3411 15.3403C15.9096 15.6722 15.644 15.7054 15.2457 15.3071C14.1171 14.2116 12.7893 13.5809 11.1295 13.6473C9.66893 13.7137 8.5071 14.4772 8.14196 15.6058C7.74362 16.8673 8.17516 18.0291 9.50296 18.9585C11.1627 20.0872 13.088 20.6847 14.8806 21.5478C16.2084 22.1785 17.4698 22.8756 18.6316 23.805C23.1793 27.3901 22.3495 34.7262 17.1046 37.5478C15.2789 38.61 13.7187 38.9752 11.3287 38.9752Z" fill="#7D8DAC"/>
<path d="M54.0508 15.2737C54.0508 10.4937 54.084 5.71356 54.0176 0.933465C54.0176 0.136784 54.2499 -0.0291878 54.9802 0.00400732C56.4076 0.0703975 57.8682 0.0372024 59.2956 0.00400732C59.8931 -0.0291878 60.0923 0.136784 60.0923 0.76749C60.0591 3.12434 60.0923 5.48119 60.0591 7.80485C60.0591 8.46875 60.2582 8.60153 60.889 8.60153C63.445 8.56833 66.0342 8.60153 68.5902 8.56833C69.1877 8.56833 69.2873 8.66792 69.0881 9.26543C68.4906 10.7924 67.8931 12.3526 67.362 13.9127C67.196 14.3443 66.9968 14.4771 66.5321 14.4771C64.64 14.4439 62.7147 14.4771 60.8226 14.4439C60.2251 14.4439 60.0923 14.6098 60.0923 15.1742C60.1255 19.6555 60.0923 24.1368 60.1255 28.6182C60.1255 30.0787 60.557 31.4065 61.752 32.3692C63.2126 33.5642 64.9388 33.6306 66.7645 32.4688C67.2292 32.17 67.4616 32.17 67.8267 32.6016C68.723 33.697 69.6856 34.7924 70.6483 35.8547C71.0798 36.2862 71.0135 36.5186 70.5819 36.8505C65.5363 40.7012 57.4699 39.4397 54.8143 32.5684C54.3163 31.2738 54.084 29.9128 54.084 28.5186C54.0508 24.1368 54.0508 19.7219 54.0508 15.2737Z" fill="#7D8DAC"/>
<path d="M76.0923 8.56836C77.752 9.73019 79.3454 10.8588 80.9056 11.9543C86.1504 15.6389 91.362 19.3568 96.64 23.0414C97.2375 23.4398 97.1712 23.6389 96.64 24.0041C92.0259 27.224 87.4118 30.4771 82.8309 33.7302C80.8724 35.1244 78.9139 36.5186 76.9553 37.8796C76.723 38.0456 76.4574 38.2116 76.1255 38.4439C76.0923 28.4854 76.0923 18.6265 76.0923 8.56836Z" fill="#7D8DAC"/>
</svg>
