<svg width="72" height="74" viewBox="0 0 72 74" fill="none" xmlns="http://www.w3.org/2000/svg">
<path d="M65 69.0801H34.5V71.0801H65V69.0801Z" fill="#ff0000"/>
<path d="M34 69.0801H32V71.0801H34V69.0801ZM30 69.0801H28V71.0801H30V69.0801ZM26 69.0801H24V71.0801H26V69.0801ZM22 69.0801H20V71.0801H22V69.0801ZM18 69.0801H16V71.0801H18V69.0801ZM14 69.0801H12V71.0801H14V69.0801ZM10 69.0801H8V71.0801H10V69.0801ZM6 69.0801H4V71.0801H6V69.0801ZM2 69.0801H0V71.0801H2V69.0801Z" fill="#7D8DAC"/>
<path d="M65 70.0801C67.2091 70.0801 69 68.2892 69 66.0801C69 63.8709 67.2091 62.0801 65 62.0801C62.7909 62.0801 61 63.8709 61 66.0801C61 68.2892 62.7909 70.0801 65 70.0801Z" stroke="#4984F8" stroke-width="2"/>
<path d="M35 71.0802C15.67 71.0802 0 55.4102 0 36.0802C0 19.5047 11.5224 5.62034 26.9944 2L27.2262 4.0006C12.5409 7.54486 2 20.7488 2 36.0802C2 54.2283 16.6495 68.9547 34.7681 69.0794L35 71.0802Z" fill="#ff0000"/>
<path d="M44.0849 2.271C59.0104 6.2716 70 19.8926 70 36.0804C70 55.4103 54.33 71.0804 35 71.0804" stroke="#ff0000" stroke-width="4" stroke-dasharray="2 2"/>
<path d="M35 51.0801C26.7157 51.0801 20 44.3643 20 36.0801C20 27.7958 26.7157 21.0801 35 21.0801C43.2843 21.0801 50 27.7958 50 36.0801C50 44.3643 43.2843 51.0801 35 51.0801Z" stroke="#ff0000" stroke-width="4" stroke-dasharray="2 2"/>
<path d="M35 10.0801C37.2091 10.0801 39 8.28922 39 6.08008C39 3.87094 37.2091 2.08008 35 2.08008C32.7909 2.08008 31 3.87094 31 6.08008C31 8.28922 32.7909 10.0801 35 10.0801Z" stroke="#ff0000" stroke-width="2"/>
</svg>
