<svg width="50" height="45" viewBox="0 0 50 45" fill="none" xmlns="http://www.w3.org/2000/svg">
<path d="M11.5799 44.495C7.83987 44.495 5.12654 43.7617 3.43987 42.295C1.78987 40.7917 0.909873 38.3717 0.799873 35.035C0.763206 33.7517 0.744873 32.67 0.744873 31.79C0.744873 30.91 0.763206 30.03 0.799873 29.15H7.23487C7.19821 29.7367 7.16154 30.47 7.12487 31.35C7.08821 32.23 7.06987 33.0733 7.06987 33.88C7.10654 34.6867 7.14321 35.3283 7.17987 35.805C7.36321 38.115 8.77487 39.27 11.4149 39.27C14.0182 39.27 15.3932 38.115 15.5399 35.805C15.6865 33.7517 15.7782 31.8267 15.8149 30.03C15.8515 28.2333 15.7965 26.5283 15.6499 24.915C15.4665 22.7517 14.1832 21.67 11.7999 21.67C10.5165 21.67 9.48987 21.9817 8.71987 22.605C7.94987 23.2283 7.54654 23.9617 7.50987 24.805H1.40487V0H21.4799V5.555H7.78487V19.195H8.88487C9.36154 18.425 10.1132 17.765 11.1399 17.215C12.1665 16.665 13.3399 16.39 14.6599 16.39C17.0432 16.39 18.8215 17.1233 19.9949 18.59C21.2049 20.0567 21.8832 22.0733 22.0299 24.64C22.1399 26.3267 22.1765 28.0867 22.1399 29.92C22.1399 31.7533 22.0849 33.44 21.9749 34.98C21.6815 38.39 20.7465 40.8283 19.1699 42.295C17.6299 43.7617 15.0999 44.495 11.5799 44.495Z" fill="#7D8DAC"/>
<path d="M36.2444 34.76V26.07H27.6094V21.23H36.2444V12.54H41.1944V21.23H49.8294V26.07H41.1944V34.76H36.2444Z" fill="#7D8DAC"/>
</svg>
