<svg width="74" height="74" viewBox="0 0 74 74" fill="none" xmlns="http://www.w3.org/2000/svg">
<path d="M2 2H72V72H2V2Z" stroke="#ff0000" stroke-width="4" stroke-dasharray="2 2"/>
<path d="M52.293 20.293L50.8788 21.7072L52.293 23.1214L53.7072 21.7072L52.293 20.293ZM49.4645 23.1214L48.0503 24.5356L49.4645 25.9498L50.8788 24.5356L49.4645 23.1214ZM46.6361 25.9498L45.2219 27.364L46.6361 28.7783L48.0503 27.364L46.6361 25.9498ZM43.8077 28.7783L42.3935 30.1925L43.8077 31.6067L45.2219 30.1925L43.8077 28.7783ZM40.9793 31.6067L39.565 33.0209L40.9793 34.4351L42.3935 33.0209L40.9793 31.6067ZM38.1508 34.4351L36.7366 35.8493L38.1508 37.2635L39.565 35.8493L38.1508 34.4351ZM35.3224 37.2635L33.9082 38.6777L35.3224 40.092L36.7366 38.6777L35.3224 37.2635ZM32.494 40.092L31.293 41.293L32.7072 42.7072L33.9082 41.5062L32.494 40.092Z" fill="#7D8DAC"/>
<path d="M4 70H30V44H4V70ZM2 42H32V72H2V42Z" fill="#ff0000"/>
<path d="M62 12H52V22H62V12Z" fill="#ff0000"/>
<path d="M14 60H20V54H14V60ZM12 52H22V62H12V52Z" fill="#ff0000"/>
</svg>
