<svg width="120" height="32" viewBox="0 0 120 32" fill="none" xmlns="http://www.w3.org/2000/svg">
<path fill-rule="evenodd" clip-rule="evenodd" d="M19.0552 14.7241C19.0236 11.2373 21.9356 9.54089 22.0687 9.46191C20.4195 7.07854 17.8634 6.7529 16.9651 6.72693C14.8182 6.50298 12.7357 8.0003 11.6421 8.0003C10.5267 8.0003 8.84255 6.74857 7.02747 6.78535C4.69178 6.82106 2.5067 8.1615 1.30829 10.243C-1.16493 14.4872 0.679617 20.7242 3.04915 24.1548C4.23446 25.835 5.61951 27.711 7.4324 27.645C9.206 27.5725 9.86851 26.5241 12.0088 26.5241C14.1295 26.5241 14.7516 27.645 16.6006 27.6028C18.504 27.5725 19.7025 25.9151 20.8463 24.2198C22.2161 22.294 22.7661 20.3975 22.788 20.3001C22.7432 20.285 19.0912 18.9034 19.0552 14.7241Z" fill="white"/>
<path fill-rule="evenodd" clip-rule="evenodd" d="M15.5622 4.47066C16.5161 3.28817 17.1688 1.67942 16.9876 0.046875C15.6069 0.10746 13.8803 0.993515 12.886 2.15004C12.0062 3.16916 11.2204 4.83958 11.4234 6.41046C12.9744 6.52514 14.5668 5.63476 15.5622 4.47066Z" fill="white"/>
<path fill-rule="evenodd" clip-rule="evenodd" d="M44.7226 27.4034H42.2439L40.8862 23.1744H36.1668L34.8734 27.4034H32.4602L37.136 13.0059H40.0239L44.7226 27.4034ZM40.4775 21.4007L39.2496 17.6412C39.1197 17.2571 38.8764 16.3527 38.5173 14.9289H38.4736C38.3306 15.5413 38.1003 16.4457 37.7838 17.6412L36.5778 21.4007H40.4775Z" fill="white"/>
<path fill-rule="evenodd" clip-rule="evenodd" d="M56.7443 22.0854C56.7443 23.851 56.2629 25.2466 55.3003 26.2712C54.438 27.1832 53.3673 27.6386 52.0892 27.6386C50.7097 27.6386 49.7186 27.1475 49.1151 26.1651H49.0714V31.634H46.7444V20.4399C46.7444 19.3298 46.715 18.1906 46.6582 17.0222H48.7047L48.8345 18.6677H48.8782C49.6542 17.4279 50.8319 16.8091 52.4123 16.8091C53.6478 16.8091 54.6792 17.2927 55.5044 18.261C56.3317 19.2303 56.7443 20.5048 56.7443 22.0854ZM54.3735 22.1702C54.3735 21.1597 54.1442 20.3267 53.6837 19.6711C53.1805 18.9873 52.5049 18.6454 51.6579 18.6454C51.0838 18.6454 50.5621 18.8358 50.0961 19.2113C49.6289 19.5899 49.3233 20.0843 49.1803 20.6967C49.1083 20.9823 49.0723 21.216 49.0723 21.3999V23.1309C49.0723 23.886 49.3059 24.5233 49.773 25.0436C50.2401 25.564 50.847 25.8237 51.5935 25.8237C52.47 25.8237 53.1521 25.4883 53.64 24.8197C54.129 24.15 54.3735 23.2672 54.3735 22.1702Z" fill="white"/>
<path fill-rule="evenodd" clip-rule="evenodd" d="M68.7952 22.0859C68.7952 23.8515 68.3139 25.2471 67.3501 26.2716C66.489 27.1837 65.4182 27.6391 64.1402 27.6391C62.7606 27.6391 61.7695 27.148 61.1671 26.1656H61.1234V31.6345H58.7964V20.4403C58.7964 19.3303 58.767 18.1911 58.7102 17.0227H60.7567L60.8866 18.6682H60.9302C61.7051 17.4284 62.8828 16.8096 64.4643 16.8096C65.6987 16.8096 66.7302 17.2932 67.5575 18.2614C68.3815 19.2308 68.7952 20.5053 68.7952 22.0859ZM66.4256 22.1707C66.4256 21.1602 66.1953 20.3272 65.7347 19.6715C65.2315 18.9878 64.5581 18.6459 63.7101 18.6459C63.1349 18.6459 62.6143 18.8363 62.1471 19.2117C61.68 19.5904 61.3755 20.0848 61.2325 20.6972C61.1615 20.9828 61.1244 21.2165 61.1244 21.4004V23.1314C61.1244 23.8865 61.358 24.5238 61.823 25.0441C62.2901 25.5634 62.8969 25.8242 63.6457 25.8242C64.5221 25.8242 65.2043 25.4888 65.6921 24.8202C66.1811 24.1505 66.4256 23.2677 66.4256 22.1707Z" fill="white"/>
<path fill-rule="evenodd" clip-rule="evenodd" d="M82.2627 23.3669C82.2627 24.5916 81.8338 25.588 80.9726 26.3572C80.0263 27.1978 78.7089 27.6176 77.0161 27.6176C75.4532 27.6176 74.2002 27.319 73.2517 26.7207L73.7909 24.7982C74.8125 25.4106 75.9334 25.7178 77.1547 25.7178C78.0312 25.7178 78.7133 25.5209 79.2034 25.1293C79.6912 24.7376 79.9346 24.2118 79.9346 23.5562C79.9346 22.972 79.7338 22.4798 79.3311 22.0805C78.9305 21.6813 78.2615 21.3102 77.3272 20.9673C74.7841 20.0271 73.5137 18.6499 73.5137 16.8389C73.5137 15.6553 73.959 14.6849 74.8507 13.9297C75.7391 13.1735 76.9244 12.7959 78.4066 12.7959C79.7284 12.7959 80.8264 13.0242 81.7028 13.4796L81.121 15.3599C80.3025 14.9185 79.3769 14.6978 78.3411 14.6978C77.5225 14.6978 76.883 14.898 76.4245 15.2961C76.0371 15.652 75.8428 16.0859 75.8428 16.5998C75.8428 17.1688 76.0644 17.6395 76.5097 18.0095C76.8971 18.3513 77.6011 18.7213 78.6227 19.1205C79.8724 19.6193 80.7903 20.2024 81.3808 20.871C81.9691 21.5374 82.2627 22.3716 82.2627 23.3669Z" fill="white"/>
<path fill-rule="evenodd" clip-rule="evenodd" d="M89.9565 18.7538H87.3916V23.7942C87.3916 25.0763 87.8435 25.7167 88.7494 25.7167C89.1652 25.7167 89.5101 25.681 89.783 25.6096L89.8474 27.3612C89.389 27.531 88.7854 27.6165 88.0378 27.6165C87.1188 27.6165 86.4006 27.3385 85.8822 26.7835C85.3659 26.2274 85.1062 25.2948 85.1062 23.9847V18.7516H83.5781V17.0206H85.1062V15.1198L87.3916 14.436V17.0206H89.9565V18.7538Z" fill="white"/>
<path fill-rule="evenodd" clip-rule="evenodd" d="M101.527 22.128C101.527 23.7237 101.067 25.0339 100.148 26.0584C99.184 27.1132 97.9048 27.639 96.3102 27.639C94.7734 27.639 93.5499 27.1338 92.6375 26.1233C91.725 25.1129 91.2688 23.8373 91.2688 22.3C91.2688 20.6912 91.7381 19.3735 92.68 18.349C93.6198 17.3234 94.888 16.8105 96.4826 16.8105C98.0194 16.8105 99.256 17.3158 100.189 18.3273C101.082 19.3086 101.527 20.5755 101.527 22.128ZM99.1144 22.2029C99.1144 21.2454 98.9081 20.4243 98.4901 19.7395C98.0022 18.9108 97.3048 18.4975 96.4011 18.4975C95.4657 18.4975 94.7552 18.9118 94.2673 19.7395C93.8493 20.4254 93.643 21.2595 93.643 22.2462C93.643 23.2036 93.8493 24.0248 94.2673 24.7085C94.7704 25.5372 95.4733 25.9505 96.3803 25.9505C97.2688 25.9505 97.9662 25.5286 98.4694 24.6869C98.8983 23.9891 99.1144 23.1593 99.1144 22.2029Z" fill="white"/>
<path fill-rule="evenodd" clip-rule="evenodd" d="M109.092 19.0512C108.861 19.009 108.616 18.9874 108.358 18.9874C107.54 18.9874 106.907 19.2936 106.461 19.907C106.074 20.4479 105.88 21.1317 105.88 21.9571V27.4044H103.554L103.576 20.2921C103.576 19.0956 103.546 18.0061 103.488 17.0238H105.515L105.6 19.0101H105.665C105.91 18.3274 106.298 17.7778 106.828 17.3657C107.347 16.9946 107.906 16.8096 108.51 16.8096C108.725 16.8096 108.919 16.8247 109.092 16.8518V19.0512Z" fill="white"/>
<path fill-rule="evenodd" clip-rule="evenodd" d="M119.499 21.7218C119.499 22.1351 119.472 22.4835 119.414 22.768H112.433C112.461 23.7936 112.798 24.578 113.446 25.1189C114.034 25.6025 114.795 25.8448 115.729 25.8448C116.763 25.8448 117.706 25.6815 118.554 25.3537L118.919 26.9548C117.928 27.3833 116.758 27.5964 115.407 27.5964C113.783 27.5964 112.509 27.1225 111.581 26.1759C110.655 25.2293 110.191 23.958 110.191 22.3634C110.191 20.7979 110.623 19.4942 111.486 18.4546C112.39 17.3446 113.611 16.7896 115.148 16.7896C116.657 16.7896 117.8 17.3446 118.576 18.4546C119.19 19.3363 119.499 20.4268 119.499 21.7218ZM117.279 21.1237C117.294 20.44 117.143 19.8493 116.827 19.3505C116.424 18.709 115.806 18.3887 114.973 18.3887C114.212 18.3887 113.593 18.7014 113.121 19.3289C112.733 19.8276 112.503 20.4259 112.432 21.1226H117.279V21.1237Z" fill="white"/>
<path fill-rule="evenodd" clip-rule="evenodd" d="M39.7063 4.14902C39.7063 5.42238 39.321 6.38093 38.5515 7.02464C37.8388 7.61859 36.8259 7.9161 35.514 7.9161C34.8635 7.9161 34.3069 7.88798 33.8408 7.83172V0.874186C34.4488 0.776817 35.1036 0.727051 35.8109 0.727051C37.0606 0.727051 38.0025 0.996437 38.6377 1.53521C39.3494 2.14431 39.7063 3.01521 39.7063 4.14902ZM38.5018 4.18024C38.5018 3.35477 38.2814 2.72188 37.8404 2.28047C37.3995 1.84015 36.7555 1.61945 35.9075 1.61945C35.5473 1.61945 35.2406 1.64325 34.9863 1.69301V6.9823C35.1271 7.00394 35.3847 7.01367 35.759 7.01367C36.6344 7.01367 37.31 6.77241 37.7858 6.2899C38.2617 5.80738 38.5018 5.10416 38.5018 4.18024Z" fill="white"/>
<path fill-rule="evenodd" clip-rule="evenodd" d="M46.1015 5.26155C46.1015 6.04591 45.8755 6.68854 45.4237 7.19269C44.95 7.71091 44.3224 7.96948 43.5387 7.96948C42.7835 7.96948 42.1821 7.72173 41.7335 7.22407C41.286 6.72749 41.0623 6.10108 41.0623 5.34593C41.0623 4.55616 41.2926 3.90812 41.7553 3.40505C42.2181 2.90198 42.8402 2.6499 43.6239 2.6499C44.3792 2.6499 44.986 2.89765 45.4455 3.39423C45.8821 3.87675 46.1015 4.49991 46.1015 5.26155ZM44.9152 5.29849C44.9152 4.82787 44.8126 4.42433 44.6085 4.08787C44.3684 3.68108 44.0268 3.47769 43.5825 3.47769C43.123 3.47769 42.7738 3.68108 42.5337 4.08787C42.3285 4.42433 42.227 4.83436 42.227 5.31904C42.227 5.78966 42.3296 6.1932 42.5337 6.52966C42.7814 6.93644 43.1263 7.13984 43.5716 7.13984C44.0082 7.13984 44.3509 6.9332 44.5976 6.51884C44.8093 6.17589 44.9152 5.7691 44.9152 5.29849Z" fill="white"/>
<path fill-rule="evenodd" clip-rule="evenodd" d="M54.676 2.75342L53.0661 7.85337H52.0183L51.3515 5.63878C51.1823 5.08594 51.0448 4.53635 50.9378 3.99108H50.9171C50.8178 4.55149 50.6802 5.1 50.5034 5.63878L49.7951 7.85337H48.7353L47.2214 2.75342H48.3969L48.9787 5.1779C49.1195 5.75129 49.2352 6.29764 49.3279 6.81477H49.3487C49.4338 6.38852 49.5746 5.84541 49.7732 5.18872L50.5034 2.7545H51.4355L52.1351 5.13679C52.3043 5.71775 52.4418 6.27708 52.5477 6.81586H52.5794C52.6568 6.29115 52.7736 5.73182 52.9286 5.13679L53.5529 2.7545H54.676V2.75342Z" fill="white"/>
<path fill-rule="evenodd" clip-rule="evenodd" d="M60.6056 7.85355H59.4617V4.93248C59.4617 4.03237 59.1168 3.58231 58.4249 3.58231C58.0854 3.58231 57.8115 3.70564 57.5986 3.95339C57.388 4.20114 57.281 4.49324 57.281 4.82754V7.85246H56.1372V4.21087C56.1372 3.76298 56.123 3.27722 56.0957 2.75143H57.1009L57.1544 3.54877H57.1861C57.3192 3.30102 57.5179 3.09654 57.7787 2.93318C58.0887 2.74277 58.4358 2.64648 58.8156 2.64648C59.2958 2.64648 59.6953 2.80011 60.0129 3.10844C60.408 3.48602 60.6056 4.04968 60.6056 4.79833V7.85355Z" fill="white"/>
<path fill-rule="evenodd" clip-rule="evenodd" d="M63.7592 7.85362H62.6165V0.413574H63.7592V7.85362Z" fill="white"/>
<path fill-rule="evenodd" clip-rule="evenodd" d="M70.4943 5.26155C70.4943 6.04591 70.2684 6.68854 69.8165 7.19269C69.3428 7.71091 68.7141 7.96948 67.9316 7.96948C67.1752 7.96948 66.5738 7.72173 66.1263 7.22407C65.6788 6.72749 65.4551 6.10108 65.4551 5.34593C65.4551 4.55616 65.6854 3.90812 66.1481 3.40505C66.6109 2.90198 67.233 2.6499 68.0156 2.6499C68.772 2.6499 69.3777 2.89765 69.8383 3.39423C70.2749 3.87675 70.4943 4.49991 70.4943 5.26155ZM69.3072 5.29849C69.3072 4.82787 69.2046 4.42433 69.0005 4.08787C68.7615 3.68108 68.4187 3.47769 67.9756 3.47769C67.515 3.47769 67.1658 3.68108 66.9267 4.08787C66.7215 4.42433 66.62 4.83436 66.62 5.31904C66.62 5.78966 66.7226 6.1932 66.9267 6.52966C67.1745 6.93644 67.5194 7.13984 67.9647 7.13984C68.4013 7.13984 68.7429 6.9332 68.9896 6.51884C69.2024 6.17589 69.3072 5.7691 69.3072 5.29849Z" fill="white"/>
<path fill-rule="evenodd" clip-rule="evenodd" d="M76.0291 7.85372H75.002L74.9169 7.26626H74.8852C74.5338 7.73471 74.0328 7.96948 73.3823 7.96948C72.8966 7.96948 72.5037 7.81477 72.2079 7.50752C71.9394 7.22839 71.8052 6.88111 71.8052 6.46892C71.8052 5.84576 72.0671 5.37082 72.5943 5.04193C73.1204 4.71304 73.8604 4.55184 74.8132 4.55941V4.46421C74.8132 3.79236 74.4574 3.45698 73.7447 3.45698C73.2372 3.45698 72.7897 3.58356 72.4033 3.83455L72.1708 3.09023C72.6489 2.79704 73.2393 2.6499 73.9357 2.6499C75.2803 2.6499 75.9549 3.35312 75.9549 4.75956V6.63769C75.9549 7.14725 75.98 7.55296 76.0291 7.85372ZM74.8428 6.10138V5.31485C73.5811 5.29322 72.9502 5.63617 72.9502 6.34263C72.9502 6.60878 73.0223 6.80784 73.1696 6.94091C73.317 7.07398 73.5047 7.13998 73.7284 7.13998C73.9795 7.13998 74.2141 7.061 74.428 6.90413C74.6431 6.74617 74.7751 6.54603 74.8242 6.30044C74.8362 6.24527 74.8428 6.17819 74.8428 6.10138Z" fill="white"/>
<path fill-rule="evenodd" clip-rule="evenodd" d="M82.5302 7.85362H81.5151L81.4616 7.03465H81.43C81.1058 7.6578 80.5536 7.96938 79.7775 7.96938C79.1576 7.96938 78.6413 7.72813 78.232 7.24561C77.8228 6.76309 77.6187 6.13669 77.6187 5.36748C77.6187 4.54201 77.8402 3.87341 78.2855 3.36276C78.7166 2.88674 79.2449 2.64873 79.8736 2.64873C80.5645 2.64873 81.048 2.87917 81.323 3.34113H81.3449V0.413574H82.4898V6.47964C82.4898 6.97622 82.5029 7.43386 82.5302 7.85362ZM81.347 5.70349V4.85314C81.347 4.70601 81.3361 4.587 81.3154 4.49612C81.251 4.22349 81.1123 3.99413 80.9017 3.80913C80.6889 3.62413 80.4324 3.53109 80.1366 3.53109C79.7098 3.53109 79.3758 3.69878 79.1303 4.03524C78.8869 4.37171 78.7635 4.80121 78.7635 5.32592C78.7635 5.83007 78.8803 6.23902 79.115 6.55385C79.3628 6.88923 79.6967 7.05692 80.1148 7.05692C80.4902 7.05692 80.7904 6.91736 81.0185 6.63715C81.2389 6.37858 81.347 6.067 81.347 5.70349Z" fill="white"/>
<path fill-rule="evenodd" clip-rule="evenodd" d="M92.3131 5.26155C92.3131 6.04591 92.0872 6.68854 91.6353 7.19269C91.1617 7.71091 90.5352 7.96948 89.7504 7.96948C88.9962 7.96948 88.3948 7.72173 87.9452 7.22407C87.4977 6.72749 87.2739 6.10108 87.2739 5.34593C87.2739 4.55616 87.5042 3.90812 87.967 3.40505C88.4298 2.90198 89.0519 2.6499 89.8366 2.6499C90.5908 2.6499 91.1988 2.89765 91.6572 3.39423C92.0938 3.87675 92.3131 4.49991 92.3131 5.26155ZM91.1287 5.29849C91.1287 4.82787 91.0261 4.42433 90.822 4.08787C90.5808 3.68108 90.2402 3.47769 89.7949 3.47769C89.3365 3.47769 88.9873 3.68108 88.7461 4.08787C88.5409 4.42433 88.4394 4.83436 88.4394 5.31904C88.4394 5.78966 88.5419 6.1932 88.7461 6.52966C88.9938 6.93644 89.3387 7.13984 89.784 7.13984C90.2206 7.13984 90.5644 6.9332 90.8111 6.51884C91.0217 6.17589 91.1287 5.7691 91.1287 5.29849Z" fill="white"/>
<path fill-rule="evenodd" clip-rule="evenodd" d="M98.4641 7.85355H97.3213V4.93248C97.3213 4.03237 96.9764 3.58231 96.2834 3.58231C95.9439 3.58231 95.67 3.70564 95.4582 3.95339C95.2465 4.20114 95.1406 4.49324 95.1406 4.82754V7.85246H93.9957V4.21087C93.9957 3.76298 93.9826 3.27722 93.9553 2.75143H94.9595L95.0129 3.54877H95.0446C95.1788 3.30102 95.3775 3.09654 95.6372 2.93318C95.9483 2.74277 96.2943 2.64648 96.6752 2.64648C97.1544 2.64648 97.5538 2.80011 97.8714 3.10844C98.2676 3.48602 98.4641 4.04968 98.4641 4.79833V7.85355Z" fill="white"/>
<path fill-rule="evenodd" clip-rule="evenodd" d="M106.162 3.60279H104.903V6.08028C104.903 6.70993 105.126 7.02476 105.569 7.02476C105.775 7.02476 105.945 7.00745 106.079 6.97175L106.109 7.83184C105.883 7.91622 105.586 7.95842 105.22 7.95842C104.768 7.95842 104.417 7.8221 104.163 7.54947C103.907 7.27683 103.781 6.81812 103.781 6.17441V3.60279H103.029V2.75352H103.781V1.81878L104.901 1.4834V2.75244H106.161V3.60279H106.162Z" fill="white"/>
<path fill-rule="evenodd" clip-rule="evenodd" d="M112.217 7.85362H111.072V4.9542C111.072 4.04002 110.727 3.58238 110.036 3.58238C109.506 3.58238 109.143 3.84744 108.945 4.37756C108.911 4.48899 108.891 4.62531 108.891 4.78543V7.85254H107.748V0.413574H108.891V3.48718H108.913C109.273 2.92785 109.789 2.64873 110.458 2.64873C110.932 2.64873 111.324 2.80235 111.635 3.11069C112.022 3.49475 112.217 4.06598 112.217 4.82113V7.85362Z" fill="white"/>
<path fill-rule="evenodd" clip-rule="evenodd" d="M118.463 5.06245C118.463 5.26585 118.448 5.43678 118.421 5.57634H114.99C115.005 6.0805 115.169 6.46456 115.487 6.7307C115.777 6.96872 116.151 7.08772 116.61 7.08772C117.117 7.08772 117.58 7.00766 117.997 6.84646L118.176 7.63407C117.688 7.84395 117.114 7.94889 116.449 7.94889C115.653 7.94889 115.025 7.71629 114.571 7.25108C114.115 6.78588 113.889 6.16164 113.889 5.37836C113.889 4.60915 114.1 3.96868 114.524 3.45803C114.967 2.91277 115.566 2.64014 116.323 2.64014C117.063 2.64014 117.625 2.91277 118.005 3.45803C118.311 3.89078 118.463 4.42631 118.463 5.06245ZM117.372 4.76896C117.381 4.4325 117.305 4.14255 117.15 3.89805C116.952 3.58322 116.65 3.42527 116.24 3.42527C115.867 3.42527 115.562 3.5789 115.33 3.88723C115.14 4.13282 115.028 4.426 114.991 4.76896H117.372Z" fill="white"/>
</svg>
