<svg width="151" height="90" viewBox="0 0 151 90" fill="none" xmlns="http://www.w3.org/2000/svg">
<path d="M42.2863 32.5884C42.2863 34.4349 42.486 35.932 42.8353 37.03C43.2346 38.1279 43.7336 39.3256 44.4323 40.6232C44.6818 41.0224 44.7816 41.4217 44.7816 41.771C44.7816 42.2701 44.4822 42.7691 43.8334 43.2682L40.6894 45.3642C40.2402 45.6636 39.7911 45.8134 39.3918 45.8134C38.8928 45.8134 38.3937 45.5638 37.8946 45.1147C37.196 44.3661 36.5971 43.5676 36.098 42.7691C35.599 41.9207 35.0999 40.9725 34.551 39.8247C30.6583 44.416 25.7676 46.7116 19.8787 46.7116C15.6867 46.7116 12.343 45.5139 9.8976 43.1184C7.45223 40.723 6.20459 37.529 6.20459 33.5366C6.20459 29.2946 7.70176 25.8511 10.746 23.256C13.7902 20.6609 17.8326 19.3634 22.9729 19.3634C24.6697 19.3634 26.4164 19.5131 28.2629 19.7626C30.1094 20.0121 32.0058 20.4114 34.002 20.8605V17.2174C34.002 13.4246 33.2035 10.7796 31.6564 9.23254C30.0595 7.68546 27.3646 6.93688 23.5218 6.93688C21.7751 6.93688 19.9785 7.1365 18.132 7.58565C16.2855 8.0348 14.4889 8.58377 12.7422 9.28244C11.9437 9.63178 11.3449 9.8314 10.9955 9.93122C10.6462 10.031 10.3967 10.0809 10.197 10.0809C9.49836 10.0809 9.14902 9.58188 9.14902 8.53386V6.08848C9.14902 5.28999 9.24883 4.69113 9.49836 4.34179C9.74789 3.99245 10.197 3.64311 10.8957 3.29377C12.6424 2.39547 14.7384 1.64689 17.1838 1.04802C19.6292 0.399245 22.2243 0.0998112 24.9691 0.0998112C30.9079 0.0998112 35.2497 1.44726 38.0444 4.14217C40.7892 6.83707 42.1865 10.9293 42.1865 16.4189V32.5884H42.2863ZM22.0247 40.174C23.6716 40.174 25.3683 39.8746 27.1649 39.2757C28.9615 38.6768 30.5585 37.5789 31.906 36.0818C32.7045 35.1335 33.3033 34.0855 33.6028 32.8878C33.9022 31.6901 34.1018 30.2428 34.1018 28.546V26.45C32.6546 26.1006 31.1075 25.8012 29.5105 25.6016C27.9135 25.402 26.3665 25.3021 24.8194 25.3021C21.4757 25.3021 19.0303 25.9509 17.3834 27.2984C15.7366 28.6458 14.9381 30.5422 14.9381 33.0375C14.9381 35.3831 15.5369 37.1298 16.7846 38.3275C17.9823 39.5751 19.729 40.174 22.0247 40.174ZM62.0989 45.5638C61.2006 45.5638 60.6017 45.4141 60.2025 45.0648C59.8032 44.7653 59.4539 44.0667 59.1544 43.1184L47.4266 4.54141C47.1272 3.5433 46.9775 2.89453 46.9775 2.54519C46.9775 1.7467 47.3767 1.29755 48.1752 1.29755H53.066C54.0142 1.29755 54.6629 1.44726 55.0123 1.7966C55.4115 2.09604 55.7109 2.79471 56.0104 3.74292L64.3945 36.7804L72.1798 3.74292C72.4293 2.74481 72.7288 2.09604 73.128 1.7966C73.5272 1.49717 74.2259 1.29755 75.1242 1.29755H79.1167C80.0649 1.29755 80.7137 1.44726 81.1129 1.7966C81.5121 2.09604 81.8615 2.79471 82.0611 3.74292L89.9462 37.1797L98.5799 3.74292C98.8793 2.74481 99.2286 2.09604 99.578 1.7966C99.9772 1.49717 100.626 1.29755 101.524 1.29755H106.166C106.964 1.29755 107.413 1.69679 107.413 2.54519C107.413 2.79471 107.363 3.04424 107.313 3.34368C107.263 3.64311 107.164 4.04235 106.964 4.59132L94.9367 43.1684C94.6373 44.1665 94.288 44.8152 93.8887 45.1147C93.4895 45.4141 92.8407 45.6137 91.9923 45.6137H87.7004C86.7522 45.6137 86.1035 45.464 85.7042 45.1147C85.305 44.7653 84.9556 44.1166 84.756 43.1184L77.0206 10.9293L69.3352 43.0685C69.0857 44.0667 68.7862 44.7154 68.387 45.0648C67.9877 45.4141 67.289 45.5638 66.3907 45.5638H62.0989ZM126.228 46.9113C123.632 46.9113 121.037 46.6118 118.542 46.013C116.047 45.4141 114.101 44.7653 112.803 44.0167C112.004 43.5676 111.456 43.0685 111.256 42.6194C111.056 42.1702 110.956 41.6712 110.956 41.222V38.6768C110.956 37.6288 111.356 37.1298 112.104 37.1298C112.404 37.1298 112.703 37.1797 113.003 37.2795C113.302 37.3793 113.751 37.5789 114.25 37.7785C115.947 38.5271 117.794 39.126 119.74 39.5252C121.736 39.9245 123.682 40.1241 125.679 40.1241C128.823 40.1241 131.268 39.5751 132.965 38.4772C134.662 37.3793 135.56 35.7823 135.56 33.7362C135.56 32.3388 135.111 31.191 134.212 30.2428C133.314 29.2946 131.617 28.4462 129.172 27.6477L121.936 25.402C118.293 24.2541 115.598 22.5573 113.951 20.3116C112.304 18.1157 111.456 15.6704 111.456 13.0753C111.456 10.9792 111.905 9.13273 112.803 7.53575C113.701 5.93877 114.899 4.54141 116.396 3.44349C117.893 2.29566 119.59 1.44726 121.586 0.848395C123.583 0.249528 125.679 0 127.874 0C128.972 0 130.12 0.0499056 131.218 0.199622C132.366 0.349339 133.414 0.548962 134.462 0.748584C135.46 0.998112 136.408 1.24764 137.307 1.54707C138.205 1.84651 138.904 2.14594 139.403 2.44537C140.101 2.84462 140.6 3.24386 140.9 3.69301C141.199 4.09226 141.349 4.64122 141.349 5.3399V7.68546C141.349 8.73348 140.95 9.28244 140.201 9.28244C139.802 9.28244 139.153 9.08282 138.305 8.68358C135.46 7.38603 132.266 6.73726 128.723 6.73726C125.878 6.73726 123.632 7.18641 122.085 8.13461C120.538 9.08282 119.74 10.5301 119.74 12.5762C119.74 13.9736 120.239 15.1713 121.237 16.1195C122.235 17.0677 124.082 18.0159 126.727 18.8643L133.813 21.1101C137.406 22.2579 140.002 23.8549 141.549 25.901C143.096 27.9471 143.844 30.2927 143.844 32.8878C143.844 35.0337 143.395 36.9801 142.547 38.6768C141.648 40.3736 140.451 41.8708 138.904 43.0685C137.357 44.3162 135.51 45.2145 133.364 45.8633C131.118 46.5619 128.773 46.9113 126.228 46.9113Z" fill="white"/>
<path fill-rule="evenodd" clip-rule="evenodd" d="M135.659 71.1657C119.24 83.2928 95.3856 89.7306 74.8744 89.7306C46.1288 89.7306 20.2277 79.1007 0.664751 61.4341C-0.882323 60.0368 0.515034 58.1404 2.36154 59.2383C23.5215 71.5151 49.6221 78.951 76.6211 78.951C94.8366 78.951 114.849 75.1582 133.264 67.3729C136.009 66.1253 138.354 69.1695 135.659 71.1657Z" fill="white"/>
<path fill-rule="evenodd" clip-rule="evenodd" d="M142.496 63.3805C140.399 60.6856 128.622 62.0829 123.282 62.7317C121.685 62.9313 121.435 61.534 122.883 60.486C132.265 53.8984 147.686 55.7948 149.482 57.9907C151.279 60.2364 148.983 75.6573 140.2 83.0433C138.852 84.1911 137.555 83.5922 138.154 82.0951C140.15 77.1544 144.592 66.0255 142.496 63.3805Z" fill="white"/>
</svg>
