<svg width="642" height="745" viewBox="0 0 642 745" fill="none" xmlns="http://www.w3.org/2000/svg">
<path fill-rule="evenodd" clip-rule="evenodd" d="M0 33.2227C0 15.1603 14.6425 0.517822 32.7048 0.517822H369.683C370.434 0.517822 371.184 0.54367 371.933 0.595323C450.989 6.04748 593.001 62.5134 611.247 238.89C623.119 353.652 583.249 429.64 538.39 476.586C524.857 490.748 511.051 502.093 498.404 511.025C490.047 516.927 487.521 528.447 493.298 536.891L638.882 749.667C644.445 757.798 642.364 768.899 634.233 774.463L609.695 791.252C601.564 796.815 590.462 794.734 584.899 786.603L407.564 527.42C401.811 519.012 400.305 508.403 403.49 498.726C406.657 489.107 414.1 481.5 423.641 478.122C423.664 478.114 423.687 478.106 423.71 478.097C423.826 478.054 424.089 477.956 424.487 477.8C425.285 477.488 426.622 476.946 428.415 476.153C432.008 474.565 437.391 471.99 443.918 468.267C457.024 460.792 474.378 448.896 491.099 431.397C523.726 397.252 555.937 339.891 546.184 245.621C532.47 113.05 428.962 70.5098 368.503 65.9275H83.2487C73.3965 65.9275 65.4097 73.9143 65.4097 83.7665V782.852C65.4097 782.852 65.4097 782.857 32.7048 782.857C0 782.857 0 782.852 0 782.852V33.2227ZM423.739 478.088C423.751 478.084 423.762 478.08 423.774 478.076L423.748 478.085L423.739 478.088Z" fill="#1C2664"/>
<path fill-rule="evenodd" clip-rule="evenodd" d="M326.431 210.088H149.653C139.801 210.088 131.814 202.101 131.814 192.249V162.517C131.814 152.665 139.801 144.678 149.653 144.678H326.431C357.492 144.678 391.318 153.544 417.75 177.458C444.829 201.958 460.048 238.538 460.048 285.503C460.048 315.98 454.992 341.671 444.388 362.723C433.528 384.283 417.733 399.19 399.539 408.937C366.949 426.396 333.825 426.364 300.602 426.331C298.943 426.329 297.599 424.984 297.599 423.325V378.758C297.599 368.906 305.592 360.979 315.442 360.768C337.762 360.29 355.385 358.387 368.651 351.28C375.685 347.512 381.513 342.147 385.971 333.298C390.684 323.941 394.638 309.087 394.638 285.503C394.638 253.181 384.629 235.7 373.866 225.962C362.455 215.638 345.825 210.088 326.431 210.088Z" fill="#1C2664"/>
<path fill-rule="evenodd" clip-rule="evenodd" d="M273.985 522.409C282.218 516.998 293.279 519.287 298.69 527.52L444.881 749.985C450.291 758.218 448.003 769.279 439.769 774.69L414.923 791.018C406.689 796.428 395.628 794.14 390.218 785.906L244.027 563.442C238.616 555.208 240.904 544.147 249.138 538.737L273.985 522.409Z" fill="#1C2664"/>
</svg>
