<svg width="121" height="30" viewBox="0 0 121 30" fill="none" xmlns="http://www.w3.org/2000/svg">
<path fill-rule="evenodd" clip-rule="evenodd" d="M39.085 17.5666H32.5471V19.5065H37.184C36.9548 22.2272 34.6914 23.3873 32.5549 23.3873C29.8215 23.3873 27.4362 21.2366 27.4362 18.2222C27.4362 15.2857 29.71 13.0242 32.5608 13.0242C34.7605 13.0242 36.0565 14.4263 36.0565 14.4263L37.415 13.0196C37.415 13.0196 35.6714 11.0786 32.4914 11.0786C28.4422 11.0785 25.3096 14.4961 25.3096 18.1876C25.3096 21.8048 28.2562 25.3319 32.5946 25.3319C36.4102 25.3317 39.2032 22.7181 39.2032 18.8527C39.2032 18.0372 39.0849 17.566 39.0849 17.566L39.085 17.5666Z" fill="#FFFFFE"/>
<path fill-rule="evenodd" clip-rule="evenodd" d="M44.6418 16.1616C41.9589 16.1616 40.0364 18.2588 40.0364 20.7052C40.0364 23.1873 41.901 25.3237 44.6731 25.3237C47.1825 25.3237 49.2384 23.4055 49.2384 20.7584C49.2384 17.7241 46.847 16.1616 44.6418 16.1616ZM44.6707 17.9605C45.9901 17.9605 47.2402 19.027 47.2402 20.7457C47.2402 22.4279 45.9953 23.5249 44.6647 23.5249C43.2026 23.5249 42.0491 22.354 42.0491 20.7325C42.0491 19.1455 43.1884 17.9605 44.6707 17.9605Z" fill="#FFFFFE"/>
<path fill-rule="evenodd" clip-rule="evenodd" d="M54.7644 16.1616C52.0816 16.1616 50.1589 18.2588 50.1589 20.7052C50.1589 23.1873 52.0237 25.3237 54.7959 25.3237C57.3052 25.3237 59.3611 23.4055 59.3611 20.7584C59.3611 17.7241 56.9698 16.1616 54.7644 16.1616ZM54.7907 17.9609C56.11 17.9609 57.3602 19.0275 57.3602 20.7462C57.3602 22.4283 56.1153 23.5254 54.7845 23.5254C53.3227 23.5254 52.1693 22.3545 52.1693 20.733C52.1693 19.146 53.3083 17.9609 54.7907 17.9609Z" fill="#FFFFFE"/>
<path fill-rule="evenodd" clip-rule="evenodd" d="M64.6815 16.1665C62.2192 16.1665 60.2834 18.3233 60.2834 20.7439C60.2834 23.5012 62.5274 25.3299 64.639 25.3299C65.9448 25.3299 66.639 24.8115 67.1515 24.2167V25.12C67.1515 26.7005 66.1919 27.6469 64.7434 27.6469C63.3441 27.6469 62.6422 26.6065 62.3983 26.016L60.6376 26.7521C61.2624 28.0729 62.5197 29.4501 64.7579 29.4501C67.2063 29.4501 69.0723 27.908 69.0723 24.6738V16.4419H67.1516V17.218C66.5611 16.5815 65.7535 16.1666 64.6815 16.1666V16.1665ZM64.8591 17.9619C66.0665 17.9619 67.3062 18.9928 67.3062 20.7531C67.3062 22.5425 66.0691 23.5287 64.8325 23.5287C63.5199 23.5287 62.2983 22.4627 62.2983 20.7702C62.2983 19.0115 63.567 17.9619 64.8591 17.9619Z" fill="#FFFFFE"/>
<path fill-rule="evenodd" clip-rule="evenodd" d="M78.0173 16.1553C75.6946 16.1553 73.7444 18.0034 73.7444 20.7302C73.7444 23.6157 75.9181 25.327 78.2404 25.327C80.1787 25.327 81.3682 24.2668 82.0782 23.3165L80.4946 22.2629C80.0836 22.9006 79.3965 23.5241 78.2501 23.5241C76.9624 23.524 76.3701 22.8187 76.0032 22.1357L82.146 19.5868L81.827 18.8398C81.2336 17.377 79.8494 16.1556 78.0174 16.1556L78.0173 16.1553ZM78.0977 17.9173C78.9346 17.9173 79.5369 18.3623 79.7928 18.8958L75.6906 20.6103C75.5138 19.2831 76.7714 17.9173 78.0975 17.9173H78.0977Z" fill="#FFFFFE"/>
<path fill-rule="evenodd" clip-rule="evenodd" d="M70.6128 25.0549H72.6305V11.5522H70.6128V25.0549Z" fill="#FFFFFE"/>
<path fill-rule="evenodd" clip-rule="evenodd" d="M97.6641 25.0549H99.6818V11.5522H97.6641V25.0549Z" fill="#FFFFFE"/>
<path fill-rule="evenodd" clip-rule="evenodd" d="M86.9663 25.0549H88.984V11.5522H86.9663V25.0549Z" fill="#FFFFFE"/>
<path fill-rule="evenodd" clip-rule="evenodd" d="M88.9851 13.5698V18.1374H91.8481C93.1004 18.1374 94.1321 17.1058 94.1321 15.8536C94.1321 14.6014 93.1004 13.5698 91.8481 13.5698H88.9851ZM86.9663 11.5518H91.847C94.2129 11.5518 96.1486 13.4875 96.1486 15.8533C96.1486 18.2192 94.2129 20.1547 91.847 20.1547H86.9663V11.5518Z" fill="#FFFFFE"/>
<path fill-rule="evenodd" clip-rule="evenodd" d="M114.579 29.45L120.421 16.1558H118.217L112.375 29.45H114.579Z" fill="#FFFFFE"/>
<path fill-rule="evenodd" clip-rule="evenodd" d="M115.231 26.407L110.726 16.1558H112.93L116.037 23.226H115.231V26.407Z" fill="#FFFFFE"/>
<path fill-rule="evenodd" clip-rule="evenodd" d="M107.944 21.1517C107.685 22.2745 106.815 23.0821 105.711 23.383C103.378 24.019 102.797 20.2282 106.264 20.7494C106.86 20.8213 107.379 20.9688 107.944 21.1517ZM107.942 25.0545H109.96V20.1983C110.275 15.1896 103.925 14.0115 101.522 17.6222L103.146 18.7118C104.321 16.6577 107.673 17.1303 107.894 19.3315C106.886 19.0648 105.798 18.8711 104.803 18.9718C103.251 19.1288 101.922 20.1148 101.711 21.7294C101.597 22.6016 101.792 23.6774 102.401 24.3329C103.35 25.3538 104.908 25.4916 106.189 25.1428C106.909 24.9461 107.477 24.518 107.942 23.9648V25.0545Z" fill="#FFFFFE"/>
<path fill-rule="evenodd" clip-rule="evenodd" d="M31.984 3.33682H29.0087V4.21971H31.1189C31.0146 5.45788 29.9845 5.98577 29.0123 5.98577C27.7683 5.98577 26.6828 5.00701 26.6828 3.63525C26.6828 2.2989 27.7175 1.26961 29.0149 1.26961C30.0161 1.26961 30.6059 1.90777 30.6059 1.90777L31.224 1.26759C31.224 1.26759 30.4305 0.384277 28.9833 0.384277C27.1405 0.384133 25.7151 1.93958 25.7151 3.61941C25.7151 5.26555 27.056 6.87067 29.0303 6.87067C30.7668 6.87067 32.0379 5.68115 32.0379 3.92215C32.0379 3.55103 31.984 3.33654 31.984 3.33654V3.33682Z" fill="#FFFFFE"/>
<path fill-rule="evenodd" clip-rule="evenodd" d="M44.1467 6.74453H45.0649V0.599609H44.1467V6.74453Z" fill="#FFFFFE"/>
<path fill-rule="evenodd" clip-rule="evenodd" d="M39.0048 6.74453H39.9231V1.51776H41.4303V0.599609C40.1194 0.599609 38.8086 0.599609 37.4976 0.599609V1.51776H39.0048V6.74453Z" fill="#FFFFFE"/>
<path fill-rule="evenodd" clip-rule="evenodd" d="M33.0051 6.74453H36.5266V5.82638H33.9234V4.13129H36.2132V3.21299H33.9234V1.51776H36.5266V0.599609H33.0051C33.0051 2.64797 33.0051 4.69618 33.0051 6.74453Z" fill="#FFFFFE"/>
<path fill-rule="evenodd" clip-rule="evenodd" d="M47.3187 6.74453H48.2369V1.51776H49.7441V0.599609C48.4333 0.599609 47.1224 0.599609 45.8115 0.599609V1.51776H47.3187V6.74453Z" fill="#FFFFFE"/>
<path fill-rule="evenodd" clip-rule="evenodd" d="M55.3734 0.384277C53.5306 0.384133 52.105 1.93944 52.105 3.61941C52.105 5.25245 53.4248 6.8449 55.3734 6.87009C57.322 6.8449 58.6418 5.25245 58.6418 3.61941C58.6418 1.93944 57.2162 0.384133 55.3734 0.384277ZM55.373 5.98549C54.1412 5.97037 53.0724 4.99637 53.0724 3.63526C53.0724 2.30971 54.0905 1.28661 55.373 1.27005C56.6557 1.28661 57.6736 2.30971 57.6736 3.63526C57.6736 4.99637 56.6048 5.97037 55.373 5.98549Z" fill="#FFFFFE"/>
<path fill-rule="evenodd" clip-rule="evenodd" d="M59.5583 6.74453H60.4766V2.2685L63.4257 6.74453H64.3425V0.599609H63.4242V5.07334L60.4766 0.599609H59.5583V6.74453Z" fill="#FFFFFE"/>
<path fill-rule="evenodd" clip-rule="evenodd" d="M0.642159 8.0483L11.0168 18.4074L0.691968 28.8569C0.390667 28.6659 0.229148 28.2511 0.226413 27.7155C0.221231 26.6888 0.139031 10.3916 0.132841 9.16886C0.129962 8.58238 0.343306 8.22451 0.642159 8.0483ZM14.4389 14.9455L1.82328 8.0628C1.68853 7.9891 1.53551 7.94433 1.38306 7.92432L11.4469 17.9735L14.4389 14.9455ZM14.9988 21.5212L11.878 18.4051L14.9957 15.25L19.289 17.5919C20.3467 18.1686 19.8057 18.8901 19.289 19.173L14.9988 21.5212ZM1.54865 28.8604C1.63661 28.8272 1.72845 28.7851 1.82375 28.733L14.442 21.8262L11.4504 18.8391L1.54865 28.8604Z" fill="#FFFFFE"/>
</svg>
