<svg width="240" height="240" viewBox="0 0 240 240" fill="none" xmlns="http://www.w3.org/2000/svg">
<path d="M240 0H0V240H240V0Z" fill="#ff0000"/>
<path d="M160.543 187.38C165.402 195.252 171.725 201.038 182.907 201.038C192.301 201.038 198.302 196.38 198.302 189.944C198.302 182.232 192.137 179.5 181.797 175.013L176.129 172.601C159.769 165.686 148.901 157.023 148.901 138.711C148.901 121.842 161.856 109 182.103 109C196.518 109 206.88 113.977 214.348 127.009L196.694 138.255C192.807 131.34 188.613 128.616 182.103 128.616C175.463 128.616 171.254 132.795 171.254 138.255C171.254 145.002 175.466 147.734 185.193 151.913L190.861 154.322C210.124 162.517 221 170.872 221 189.656C221 209.906 204.966 221 183.432 221C162.377 221 148.774 211.046 142.118 197.999L160.543 187.38ZM80.4547 189.329C84.0162 195.598 87.256 200.898 95.0454 200.898C102.494 200.898 107.193 198.007 107.193 186.764V110.284H129.864V187.068C129.864 210.358 116.1 220.958 96.0104 220.958C77.8583 220.958 67.3461 211.638 62 200.413L80.4547 189.329Z" fill="white"/>
</svg>
