<svg width="180" height="56" viewBox="0 0 180 56" fill="none" xmlns="http://www.w3.org/2000/svg">
<path d="M0 0.297257C0 0.133087 0.133086 0 0.297256 0H55.2897C55.4539 0 55.5869 0.133086 55.5869 0.297256V55.2897C55.5869 55.4539 55.4539 55.5869 55.2897 55.5869H0.297257C0.133087 55.5869 0 55.4539 0 55.2897V0.297257Z" fill="#4984F8"/>
<path fill-rule="evenodd" clip-rule="evenodd" d="M12.782 8.62051C12.782 7.71757 13.514 6.9856 14.4169 6.9856H31.2624C31.2999 6.9856 31.3374 6.98689 31.3749 6.98947C35.3269 7.26202 42.426 10.0847 43.3381 18.9018C43.9316 24.6387 41.9385 28.4374 39.696 30.7841C39.0195 31.4921 38.3294 32.0593 37.6971 32.5058C37.2794 32.8008 37.1531 33.3767 37.4419 33.7988L44.7196 44.4354C44.9977 44.8419 44.8937 45.3969 44.4872 45.675L43.2605 46.5143C42.8541 46.7924 42.2991 46.6883 42.021 46.2819L33.156 33.3254C32.8684 32.9051 32.7931 32.3747 32.9524 31.891C33.1107 31.4101 33.4828 31.0298 33.9597 30.861C33.9609 30.8606 33.962 30.8601 33.9632 30.8597C33.969 30.8576 33.9821 30.8527 34.002 30.8449C34.0419 30.8293 34.1087 30.8022 34.1984 30.7625C34.378 30.6832 34.6471 30.5544 34.9734 30.3683C35.6286 29.9946 36.496 29.4 37.332 28.5252C38.963 26.8183 40.5732 23.9508 40.0857 19.2383C39.4001 12.611 34.2257 10.4845 31.2034 10.2554H16.9436C16.4511 10.2554 16.0518 10.6547 16.0518 11.1472V46.0943C16.0518 46.0943 16.0518 46.0946 14.4169 46.0946C12.782 46.0946 12.782 46.0943 12.782 46.0943V8.62051ZM33.9646 30.8592C33.9652 30.859 33.9658 30.8588 33.9664 30.8586L33.9651 30.8591L33.9646 30.8592Z" fill="white"/>
<path fill-rule="evenodd" clip-rule="evenodd" d="M29.1007 17.462H20.2636C19.7711 17.462 19.3718 17.0627 19.3718 16.5702V15.0839C19.3718 14.5914 19.7711 14.1921 20.2636 14.1921H29.1007C30.6535 14.1921 32.3444 14.6353 33.6657 15.8308C35.0194 17.0556 35.7802 18.8842 35.7802 21.232C35.7802 22.7555 35.5275 24.0398 34.9974 25.0922C34.4545 26.1699 33.6649 26.9152 32.7553 27.4024C31.1262 28.2752 29.4703 28.2736 27.8095 28.2719C27.7266 28.2718 27.6594 28.2046 27.6594 28.1217V25.8938C27.6594 25.4012 28.059 25.005 28.5514 24.9944C29.6671 24.9705 30.5481 24.8754 31.2113 24.5201C31.5629 24.3318 31.8543 24.0636 32.0771 23.6212C32.3127 23.1535 32.5104 22.4109 32.5104 21.232C32.5104 19.6162 32.01 18.7423 31.472 18.2555C30.9015 17.7394 30.0702 17.462 29.1007 17.462Z" fill="white"/>
<path fill-rule="evenodd" clip-rule="evenodd" d="M26.4787 33.0748C26.8903 32.8044 27.4432 32.9188 27.7137 33.3304L35.0218 44.4513C35.2922 44.8629 35.1778 45.4158 34.7662 45.6863L33.5241 46.5026C33.1126 46.773 32.5596 46.6586 32.2892 46.247L24.9811 35.1261C24.7106 34.7145 24.825 34.1615 25.2366 33.8911L26.4787 33.0748Z" fill="white"/>
<path d="M74.3394 32.214H70.144V42.9825H68.9833V32.214H64.7878V31.1837H74.3394V32.214Z" fill="#7D8DAC"/>
<path d="M77.7073 43.1487C77.0771 43.1487 76.4967 43.0324 75.9661 42.7997C75.4465 42.556 74.9933 42.2292 74.6063 41.8192C74.2194 41.3983 73.9154 40.9163 73.6943 40.3735C73.4842 39.8306 73.3792 39.249 73.3792 38.6286C73.3792 38.0192 73.4842 37.4487 73.6943 36.9169C73.9154 36.3741 74.2139 35.9032 74.5897 35.5044C74.9767 35.0945 75.4355 34.7732 75.9661 34.5405C76.4967 34.2968 77.0716 34.1749 77.6907 34.1749C78.3208 34.1749 78.8957 34.2968 79.4153 34.5405C79.9459 34.7732 80.3992 35.0945 80.7751 35.5044C81.1509 35.9143 81.4439 36.3851 81.654 36.9169C81.864 37.4487 81.969 38.0137 81.969 38.612C81.969 38.7006 81.969 38.7892 81.969 38.8779C81.969 38.9665 81.9635 39.0274 81.9524 39.0606H74.5566C74.5897 39.526 74.6948 39.958 74.8716 40.3569C75.0596 40.7446 75.2973 41.0825 75.5847 41.3706C75.8721 41.6586 76.1983 41.8857 76.5631 42.0519C76.939 42.207 77.3369 42.2846 77.757 42.2846C78.0334 42.2846 78.3098 42.2458 78.5862 42.1682C78.8625 42.0907 79.1168 41.9854 79.349 41.8525C79.5811 41.7195 79.7912 41.5589 79.9791 41.3706C80.167 41.1711 80.3108 40.9551 80.4103 40.7225L81.3886 40.9883C81.256 41.3096 81.068 41.6032 80.8248 41.8691C80.5816 42.1239 80.2997 42.351 79.9791 42.5504C79.6585 42.7388 79.3047 42.8828 78.9178 42.9825C78.5309 43.0933 78.1274 43.1487 77.7073 43.1487ZM80.8911 38.1965C80.858 37.7312 80.7474 37.3102 80.5595 36.9335C80.3826 36.5458 80.1505 36.2134 79.863 35.9364C79.5866 35.6595 79.2605 35.4434 78.8846 35.2883C78.5198 35.1332 78.1274 35.0557 77.7073 35.0557C77.2872 35.0557 76.8892 35.1332 76.5133 35.2883C76.1375 35.4434 75.8058 35.6595 75.5184 35.9364C75.242 36.2134 75.0154 36.5458 74.8385 36.9335C74.6727 37.3213 74.5732 37.7423 74.54 38.1965H80.8911Z" fill="#7D8DAC"/>
<path d="M83.1118 38.6286C83.1118 38.0192 83.2168 37.4432 83.4269 36.9003C83.6369 36.3574 83.9299 35.8866 84.3057 35.4878C84.6927 35.0778 85.1515 34.7566 85.6821 34.5239C86.2128 34.2913 86.7987 34.1749 87.4399 34.1749C88.2579 34.1749 88.971 34.3633 89.579 34.7399C90.1871 35.1055 90.6458 35.6041 90.9554 36.2356L89.8609 36.5846C89.6177 36.1414 89.275 35.798 88.8328 35.5542C88.4017 35.2994 87.9208 35.172 87.3901 35.172C86.9479 35.172 86.5333 35.2606 86.1464 35.4379C85.7705 35.6152 85.4389 35.8589 85.1515 36.1691C84.8751 36.4682 84.654 36.8283 84.4882 37.2493C84.3334 37.6703 84.256 38.13 84.256 38.6286C84.256 39.116 84.3389 39.5758 84.5047 40.0079C84.6706 40.4399 84.8972 40.8166 85.1846 41.1379C85.4721 41.4481 85.8037 41.6974 86.1796 41.8857C86.5665 42.063 86.9756 42.1516 87.4067 42.1516C87.6831 42.1516 87.9539 42.1128 88.2193 42.0353C88.4956 41.9577 88.7499 41.8525 88.9821 41.7195C89.2142 41.5755 89.4132 41.4149 89.579 41.2376C89.7449 41.0604 89.8609 40.872 89.9273 40.6726L91.0383 41.005C90.9167 41.3152 90.7398 41.6032 90.5077 41.8691C90.2755 42.1239 89.9991 42.351 89.6785 42.5504C89.369 42.7388 89.0207 42.8828 88.6338 42.9825C88.2579 43.0933 87.8655 43.1487 87.4565 43.1487C86.8263 43.1487 86.2459 43.0324 85.7153 42.7997C85.1846 42.556 84.7258 42.2292 84.3389 41.8192C83.952 41.3983 83.648 40.9163 83.4269 40.3735C83.2168 39.8306 83.1118 39.249 83.1118 38.6286Z" fill="#7D8DAC"/>
<path d="M100.073 42.9825H98.9454V38.1467C98.9454 37.1606 98.774 36.4239 98.4313 35.9364C98.0997 35.449 97.6077 35.2053 96.9555 35.2053C96.6349 35.2053 96.3143 35.2717 95.9937 35.4047C95.6841 35.5265 95.3912 35.6983 95.1148 35.9198C94.8384 36.1414 94.5952 36.4018 94.3851 36.7009C94.1862 37 94.0369 37.3268 93.9374 37.6813V42.9825H92.8098V30.8513H93.9374V36.2854C94.2801 35.6318 94.7555 35.1166 95.3635 34.7399C95.9716 34.3633 96.6293 34.1749 97.3369 34.1749C97.8343 34.1749 98.2544 34.2691 98.5971 34.4574C98.9398 34.6347 99.2218 34.8895 99.4429 35.2219C99.664 35.5432 99.8243 35.9365 99.9238 36.4018C100.023 36.856 100.073 37.3601 100.073 37.914V42.9825Z" fill="#7D8DAC"/>
<path d="M109.741 42.9825H108.613V38.1467C108.613 37.1163 108.458 36.3685 108.149 35.9032C107.85 35.4379 107.386 35.2053 106.756 35.2053C106.424 35.2053 106.093 35.2662 105.761 35.3881C105.429 35.5099 105.12 35.6816 104.832 35.9032C104.556 36.1248 104.307 36.3907 104.086 36.7009C103.865 37 103.705 37.3268 103.605 37.6813V42.9825H102.478V34.3245H103.506V36.2854C103.859 35.6539 104.363 35.1443 105.015 34.7566C105.678 34.3688 106.397 34.1749 107.17 34.1749C107.646 34.1749 108.049 34.2636 108.381 34.4408C108.713 34.6181 108.978 34.8674 109.177 35.1886C109.376 35.5099 109.52 35.9032 109.608 36.3685C109.697 36.8338 109.741 37.349 109.741 37.914V42.9825Z" fill="#7D8DAC"/>
<path d="M115.827 43.1487C115.197 43.1487 114.622 43.0324 114.102 42.7997C113.583 42.556 113.129 42.2292 112.742 41.8192C112.367 41.4093 112.074 40.933 111.864 40.3901C111.653 39.8472 111.548 39.2767 111.548 38.6784C111.548 38.0691 111.653 37.493 111.864 36.9502C112.085 36.4073 112.383 35.9309 112.759 35.521C113.146 35.1111 113.599 34.7843 114.119 34.5405C114.638 34.2968 115.208 34.1749 115.827 34.1749C116.446 34.1749 117.015 34.2968 117.535 34.5405C118.065 34.7843 118.519 35.1111 118.895 35.521C119.281 35.9309 119.58 36.4073 119.79 36.9502C120.011 37.493 120.122 38.0691 120.122 38.6784C120.122 39.2767 120.017 39.8472 119.807 40.3901C119.597 40.933 119.298 41.4093 118.911 41.8192C118.535 42.2292 118.082 42.556 117.551 42.7997C117.032 43.0324 116.457 43.1487 115.827 43.1487ZM112.693 38.6951C112.693 39.1825 112.776 39.6367 112.941 40.0577C113.107 40.4676 113.328 40.8332 113.605 41.1545C113.892 41.4647 114.224 41.7085 114.6 41.8857C114.987 42.063 115.396 42.1516 115.827 42.1516C116.258 42.1516 116.661 42.063 117.037 41.8857C117.424 41.6974 117.761 41.4481 118.049 41.1379C118.336 40.8166 118.563 40.4455 118.729 40.0245C118.895 39.6035 118.977 39.1493 118.977 38.6618C118.977 38.1854 118.895 37.7367 118.729 37.3157C118.563 36.8837 118.336 36.5125 118.049 36.2023C117.761 35.8811 117.424 35.6318 117.037 35.4545C116.661 35.2662 116.258 35.172 115.827 35.172C115.396 35.172 114.992 35.2662 114.616 35.4545C114.24 35.6318 113.909 35.8811 113.621 36.2023C113.334 36.5236 113.107 36.9003 112.941 37.3324C112.776 37.7534 112.693 38.2076 112.693 38.6951Z" fill="#7D8DAC"/>
<path d="M122.057 30.8513H123.185V41.0216C123.185 41.3429 123.273 41.5977 123.45 41.786C123.627 41.9633 123.876 42.0519 124.196 42.0519C124.318 42.0519 124.462 42.0353 124.628 42.002C124.793 41.9688 124.948 41.9245 125.092 41.8691L125.291 42.7831C125.081 42.8717 124.821 42.9437 124.512 42.9991C124.213 43.0545 123.953 43.0822 123.732 43.0822C123.213 43.0822 122.804 42.9382 122.505 42.6502C122.207 42.351 122.057 41.9356 122.057 41.4038V30.8513Z" fill="#7D8DAC"/>
<path d="M130.207 43.1487C129.577 43.1487 129.002 43.0324 128.482 42.7997C127.963 42.556 127.51 42.2292 127.123 41.8192C126.747 41.4093 126.454 40.933 126.244 40.3901C126.034 39.8472 125.929 39.2767 125.929 38.6784C125.929 38.0691 126.034 37.493 126.244 36.9502C126.465 36.4073 126.763 35.9309 127.139 35.521C127.526 35.1111 127.979 34.7843 128.499 34.5405C129.019 34.2968 129.588 34.1749 130.207 34.1749C130.826 34.1749 131.395 34.2968 131.915 34.5405C132.446 34.7843 132.899 35.1111 133.275 35.521C133.662 35.9309 133.96 36.4073 134.17 36.9502C134.391 37.493 134.502 38.0691 134.502 38.6784C134.502 39.2767 134.397 39.8472 134.187 40.3901C133.977 40.933 133.678 41.4093 133.291 41.8192C132.916 42.2292 132.462 42.556 131.932 42.7997C131.412 43.0324 130.837 43.1487 130.207 43.1487ZM127.073 38.6951C127.073 39.1825 127.156 39.6367 127.322 40.0577C127.487 40.4676 127.709 40.8332 127.985 41.1545C128.272 41.4647 128.604 41.7085 128.98 41.8857C129.367 42.063 129.776 42.1516 130.207 42.1516C130.638 42.1516 131.042 42.063 131.418 41.8857C131.804 41.6974 132.142 41.4481 132.429 41.1379C132.717 40.8166 132.943 40.4455 133.109 40.0245C133.275 39.6035 133.358 39.1493 133.358 38.6618C133.358 38.1854 133.275 37.7367 133.109 37.3157C132.943 36.8837 132.717 36.5125 132.429 36.2023C132.142 35.8811 131.804 35.6318 131.418 35.4545C131.042 35.2662 130.638 35.172 130.207 35.172C129.776 35.172 129.372 35.2662 128.996 35.4545C128.621 35.6318 128.289 35.8811 128.002 36.2023C127.714 36.5236 127.487 36.9003 127.322 37.3324C127.156 37.7534 127.073 38.2076 127.073 38.6951Z" fill="#7D8DAC"/>
<path d="M139.854 43.0988C139.257 43.0988 138.709 42.977 138.212 42.7332C137.726 42.4784 137.3 42.1461 136.935 41.7362C136.581 41.3262 136.305 40.8554 136.106 40.3236C135.907 39.7918 135.807 39.2434 135.807 38.6784C135.807 38.0802 135.901 37.5096 136.089 36.9668C136.288 36.4128 136.565 35.9309 136.918 35.521C137.272 35.1111 137.692 34.7843 138.179 34.5405C138.676 34.2968 139.223 34.1749 139.82 34.1749C140.561 34.1749 141.202 34.3633 141.744 34.7399C142.286 35.1055 142.75 35.5709 143.137 36.1359V34.3245H144.149V43.0157C144.149 43.614 144.032 44.1402 143.8 44.5945C143.579 45.0598 143.275 45.4475 142.888 45.7577C142.512 46.0679 142.065 46.3006 141.545 46.4557C141.036 46.6108 140.495 46.6883 139.92 46.6883C138.925 46.6883 138.123 46.5111 137.515 46.1566C136.907 45.802 136.415 45.3257 136.04 44.7274L136.736 44.179C137.079 44.733 137.532 45.1373 138.096 45.3921C138.66 45.658 139.268 45.791 139.92 45.791C140.34 45.791 140.738 45.73 141.114 45.6082C141.49 45.4974 141.816 45.3257 142.092 45.093C142.38 44.8714 142.606 44.5834 142.772 44.2289C142.938 43.8854 143.021 43.4811 143.021 43.0157V41.3041C142.689 41.858 142.236 42.2956 141.661 42.6169C141.086 42.9382 140.484 43.0988 139.854 43.0988ZM140.169 42.1516C140.5 42.1516 140.826 42.0907 141.147 41.9688C141.468 41.8469 141.755 41.6863 142.009 41.4869C142.275 41.2764 142.496 41.0437 142.673 40.7889C142.85 40.5341 142.966 40.2738 143.021 40.0079V37.3324C142.899 37.0222 142.733 36.7341 142.523 36.4682C142.313 36.2023 142.076 35.9752 141.81 35.7869C141.545 35.5985 141.258 35.449 140.948 35.3382C140.65 35.2274 140.346 35.172 140.036 35.172C139.55 35.172 139.113 35.2773 138.726 35.4878C138.35 35.6872 138.03 35.9531 137.764 36.2854C137.499 36.6178 137.294 36.9945 137.151 37.4155C137.018 37.8364 136.952 38.263 136.952 38.6951C136.952 39.1604 137.035 39.6035 137.2 40.0245C137.366 40.4455 137.593 40.8166 137.88 41.1379C138.179 41.4481 138.521 41.6974 138.908 41.8857C139.295 42.063 139.715 42.1516 140.169 42.1516Z" fill="#7D8DAC"/>
<path d="M147.136 45.6414C147.225 45.6525 147.307 45.658 147.385 45.658C147.473 45.6691 147.556 45.6746 147.634 45.6746C147.833 45.6746 147.987 45.6469 148.098 45.5916C148.22 45.5362 148.336 45.4143 148.446 45.226C148.557 45.0376 148.678 44.7662 148.811 44.4117C148.955 44.0572 149.154 43.5808 149.408 42.9825L145.644 34.3245H146.804L150.005 41.9356L152.973 34.3245H154.051L149.574 45.4918C149.452 45.8131 149.248 46.0901 148.96 46.3228C148.684 46.5665 148.302 46.6883 147.816 46.6883C147.705 46.6883 147.6 46.6828 147.501 46.6717C147.401 46.6717 147.28 46.6606 147.136 46.6385V45.6414Z" fill="#7D8DAC"/>
<path d="M64.8574 25.0702V12.6182H70.3644C70.9373 12.6182 71.4634 12.7409 71.9428 12.9865C72.4339 13.2203 72.8548 13.536 73.2056 13.9335C73.5563 14.3194 73.8311 14.7637 74.0299 15.2664C74.2286 15.7575 74.328 16.2544 74.328 16.7572C74.328 17.5639 74.1234 18.3005 73.7142 18.967C73.3166 19.6217 72.773 20.0953 72.0831 20.3876L74.9243 25.0702H72.2059L69.6629 20.8962H67.2777V25.0702H64.8574ZM67.2777 18.774H70.3118C70.5339 18.774 70.7385 18.7214 70.9256 18.6162C71.1244 18.511 71.2939 18.3707 71.4342 18.1953C71.5745 18.0082 71.6856 17.7919 71.7674 17.5464C71.8493 17.3008 71.8902 17.0378 71.8902 16.7572C71.8902 16.4649 71.8434 16.1959 71.7499 15.9504C71.6564 15.7049 71.5278 15.4944 71.3641 15.319C71.2121 15.132 71.0308 14.9917 70.8204 14.8981C70.6216 14.7929 70.417 14.7403 70.2066 14.7403H67.2777V18.774Z" fill="#1D315A"/>
<path d="M85.1673 22.9481V25.0702H76.521V12.6182H85.0094V14.7403H78.9412V17.7393H84.1851V19.7036H78.9412V22.9481H85.1673Z" fill="#ff0000"/>
<path d="M97.2087 25.0702V16.8273L93.9992 22.9657H92.6839L89.4744 16.8273V25.0702H87.0541V12.6182H89.6498L93.3328 19.7036L97.0508 12.6182H99.6289V25.0702H97.2087Z" fill="#ff0000"/>
<path d="M105.771 12.6182H107.911L112.646 25.0702H110.156L108.998 21.966H104.649L103.509 25.0702H101.019L105.771 12.6182ZM108.56 20.2648L106.841 15.3716L105.052 20.2648H108.56Z" fill="#ff0000"/>
<path d="M114.012 25.0702V12.6182H119.519C120.092 12.6182 120.618 12.7409 121.098 12.9865C121.589 13.2203 122.01 13.536 122.36 13.9335C122.711 14.3194 122.986 14.7637 123.185 15.2664C123.383 15.7575 123.483 16.2544 123.483 16.7572C123.483 17.5639 123.278 18.3005 122.869 18.967C122.471 19.6217 121.928 20.0953 121.238 20.3876L124.079 25.0702H121.361L118.818 20.8962H116.432V25.0702H114.012ZM116.432 18.774H119.466C119.689 18.774 119.893 18.7214 120.08 18.6162C120.279 18.511 120.449 18.3707 120.589 18.1953C120.729 18.0082 120.84 17.7919 120.922 17.5464C121.004 17.3008 121.045 17.0378 121.045 16.7572C121.045 16.4649 120.998 16.1959 120.905 15.9504C120.811 15.7049 120.682 15.4944 120.519 15.319C120.367 15.132 120.186 14.9917 119.975 14.8981C119.776 14.7929 119.572 14.7403 119.361 14.7403H116.432V18.774Z" fill="#1D315A"/>
<path d="M125.676 25.0702V12.6357H128.096V18.5461L133.322 12.6182H135.988L131.218 18.1427L136.286 25.0702H133.568L129.692 19.686L128.096 21.3522V25.0702H125.676Z" fill="#1D315A"/>
<path d="M140.95 12.6182H143.09L147.825 25.0702H145.335L144.177 21.966H139.828L138.688 25.0702H136.198L140.95 12.6182ZM143.739 20.2648L142.02 15.3716L140.231 20.2648H143.739Z" fill="#1D315A"/>
<path d="M159.223 21.8608C159.223 22.3869 159.118 22.8487 158.907 23.2463C158.697 23.6438 158.405 23.977 158.03 24.2459C157.668 24.5149 157.241 24.7195 156.75 24.8598C156.271 25.0001 155.756 25.0702 155.207 25.0702H149.191V12.6182H155.856C156.288 12.6182 156.68 12.7117 157.031 12.8988C157.381 13.0858 157.68 13.3314 157.925 13.6354C158.171 13.9277 158.358 14.2667 158.486 14.6526C158.627 15.0267 158.697 15.4067 158.697 15.7926C158.697 16.4006 158.545 16.9735 158.241 17.5113C157.937 18.0374 157.493 18.4291 156.908 18.6864C157.621 18.8968 158.182 19.2768 158.592 19.8263C159.012 20.3642 159.223 21.0423 159.223 21.8608ZM156.785 21.4048C156.785 21.1826 156.744 20.9722 156.662 20.7734C156.592 20.5629 156.493 20.3817 156.364 20.2297C156.236 20.0777 156.084 19.9608 155.908 19.8789C155.733 19.7854 155.54 19.7386 155.329 19.7386H151.611V23.0183H155.207C155.429 23.0183 155.633 22.9774 155.821 22.8955C156.019 22.8137 156.189 22.7026 156.329 22.5623C156.469 22.4103 156.581 22.2349 156.662 22.0361C156.744 21.8374 156.785 21.6269 156.785 21.4048ZM151.611 14.6877V17.827H154.838C155.248 17.827 155.593 17.6867 155.873 17.4061C156.165 17.1255 156.312 16.7396 156.312 16.2486C156.312 15.7692 156.177 15.3892 155.908 15.1086C155.651 14.828 155.329 14.6877 154.944 14.6877H151.611Z" fill="#1D315A"/>
<path d="M161.112 25.0702V12.6182H163.532V22.9481H169.881V25.0702H161.112Z" fill="#1D315A"/>
<path d="M180 22.9481V25.0702H171.354V12.6182H179.842V14.7403H173.774V17.7393H179.018V19.7036H173.774V22.9481H180Z" fill="#ff0000"/>
</svg>
