<svg width="10" height="18" viewBox="0 0 10 18" fill="none" xmlns="http://www.w3.org/2000/svg">
<path d="M5 0.900452C2.24296 0.900452 0 3.14341 0 5.90045V12.8989C0 15.656 2.24296 17.8989 5 17.8989C7.75704 17.8989 10 15.656 10 12.8989V5.90045C10 3.14341 7.75704 0.900452 5 0.900452ZM8.98013 12.8989C8.98013 15.0935 7.19458 16.8791 5 16.8791C2.80542 16.8791 1.01987 15.0935 1.01987 12.8989V5.90045C1.01987 3.70587 2.80542 1.92032 5 1.92032C7.19458 1.92032 8.98013 3.70587 8.98013 5.90045V12.8989Z" fill="#000000"/>
<path d="M5.00013 4.28198C4.71845 4.28198 4.4902 4.51023 4.4902 4.79192V7.13901C4.4902 7.42057 4.71845 7.64895 5.00013 7.64895C5.28168 7.64895 5.51006 7.42057 5.51006 7.13901V4.79192C5.51006 4.51023 5.28181 4.28198 5.00013 4.28198Z" fill="#A6A6A6"/>
</svg>
