<svg width="170" height="105" viewBox="0 0 170 105" fill="none" xmlns="http://www.w3.org/2000/svg">
<path d="M84.1719 104.005C83.6107 104.005 83.0533 103.858 82.5613 103.576L77.4347 100.551C76.669 100.124 77.0426 99.973 77.2952 99.886C78.3161 99.5297 78.5233 99.4493 79.613 98.8324C79.7276 98.7673 79.8775 98.7903 79.9947 98.8593L83.9332 101.189C84.0754 101.265 84.2772 101.265 84.4091 101.189L99.7655 92.3539C99.9077 92.2734 100 92.1087 100 91.9401V74.2783C100 74.1021 99.9077 73.945 99.7624 73.8569L84.4122 65.0298C84.2699 64.9455 84.0816 64.9455 83.9394 65.0298L68.5922 73.8569C68.4434 73.9412 68.3489 74.1059 68.3489 74.2745V91.9363C68.3489 92.1049 68.4411 92.2658 68.5872 92.3462L72.7924 94.7675C75.0757 95.9054 76.471 94.5645 76.471 93.2159V75.784C76.471 75.5349 76.6671 75.3434 76.9169 75.3434H78.8619C79.1041 75.3434 79.304 75.5349 79.304 75.784V93.2236C79.304 96.2579 77.6434 98.0011 74.7566 98.0011C73.8687 98.0011 73.1691 98.0011 71.2164 97.0433L67.188 94.7292C66.1924 94.1546 65.5774 93.0818 65.5774 91.9363V74.2745C65.5774 73.1251 66.1924 72.0524 67.188 71.4854L82.5598 62.6468C83.5323 62.0989 84.8238 62.0989 85.7887 62.6468L101.141 71.4892C102.133 72.06 102.752 73.129 102.752 74.2783V91.9401C102.752 93.0857 102.133 94.1546 101.141 94.7292L85.7887 103.568C85.2966 103.851 84.7393 103.997 84.1704 103.997" fill="white"/>
<path d="M88.694 91.8737C82.0141 91.8737 80.6135 88.7643 80.6135 86.1563C80.6135 85.9083 80.8107 85.7107 81.0557 85.7107H83.0275C83.2454 85.7107 83.4288 85.8715 83.4632 86.0897C83.7613 88.1272 84.6478 89.1549 88.6871 89.1549C91.9048 89.1549 93.2729 88.4179 93.2729 86.6876C93.2729 85.6917 92.8831 84.9516 87.8846 84.4556C83.7039 84.0371 81.1206 83.1032 81.1206 79.7125C81.1206 76.5891 83.7192 74.7291 88.0719 74.7291C92.9595 74.7291 95.3823 76.4496 95.688 80.1465C95.6995 80.2743 95.6536 80.3983 95.5696 80.4913C95.4855 80.5805 95.367 80.6347 95.2447 80.6347H93.2614C93.055 80.6347 92.8754 80.4875 92.8334 80.286C92.3557 78.143 91.2016 77.4571 88.0642 77.4571C84.5523 77.4571 84.1434 78.6972 84.1434 79.6272C84.1434 80.7549 84.6249 81.0842 89.3635 81.7197C94.0563 82.3514 96.2842 83.2427 96.2842 86.5869C96.2842 89.9582 93.5098 91.8919 88.6718 91.8919L88.694 91.8737ZM107.267 72.9465H107.779C108.199 72.9465 108.28 72.6482 108.28 72.4738C108.28 72.0165 107.97 72.0165 107.798 72.0165H107.271L107.267 72.9465ZM106.644 71.4818H107.779C108.169 71.4818 108.933 71.4817 108.933 72.3653C108.933 72.9814 108.543 73.1093 108.31 73.1868C108.765 73.2178 108.796 73.52 108.857 73.9463C108.887 74.2137 108.937 74.6748 109.029 74.8298H108.329C108.31 74.6748 108.203 73.8223 108.203 73.7758C108.157 73.5859 108.092 73.4929 107.859 73.4929H107.282V74.8337H106.644V71.4818ZM105.28 73.148C105.28 74.5353 106.384 75.6591 107.741 75.6591C109.109 75.6591 110.213 74.5121 110.213 73.148C110.213 71.7569 109.094 70.6525 107.737 70.6525C106.4 70.6525 105.276 71.7414 105.276 73.1442L105.28 73.148ZM110.687 73.1558C110.687 74.7988 109.361 76.1396 107.745 76.1396C106.14 76.1396 104.802 74.8143 104.802 73.1558C104.802 71.4662 106.17 70.172 107.745 70.172C109.331 70.172 110.683 71.4701 110.683 73.1558" fill="white"/>
<path fill-rule="evenodd" clip-rule="evenodd" d="M36.4833 34.8526C36.4833 34.1444 36.1105 33.4939 35.5003 33.1417L19.2231 23.7617C18.9484 23.6 18.6406 23.5154 18.3285 23.5038H18.1602C17.8481 23.5154 17.5403 23.6 17.2609 23.7617L0.98456 33.1417C0.378145 33.4958 0 34.1463 0 34.8545L0.0357393 60.1193C0.0357393 60.4696 0.216357 60.7968 0.523792 60.97C0.823541 61.1547 1.20015 61.1547 1.4999 60.97L11.1764 55.4197C11.7874 55.0556 12.1602 54.412 12.1602 53.7108V41.9078C12.1602 41.2034 12.533 40.553 13.1421 40.2027L17.2617 37.8263C17.5676 37.6493 17.9035 37.5615 18.2455 37.5615C18.5821 37.5615 18.9257 37.6485 19.2231 37.8259L23.3408 40.2015C23.9503 40.5518 24.3246 41.2023 24.3246 41.9066V53.7088C24.3246 54.4093 24.7024 55.056 25.3104 55.4178L34.9807 60.9642C35.2843 61.1451 35.6621 61.1451 35.9645 60.9642C36.2627 60.791 36.4518 60.4638 36.4518 60.1136L36.4833 34.8526ZM113.291 48.0069C113.291 48.1828 113.198 48.3456 113.045 48.4326L107.455 51.6604C107.303 51.7478 107.115 51.7478 106.964 51.6604L101.372 48.4326C101.219 48.3452 101.127 48.1824 101.127 48.0069V41.5421C101.127 41.3659 101.219 41.2034 101.369 41.1149L106.956 37.8817C107.11 37.7932 107.298 37.7932 107.452 37.8817L113.043 41.1149C113.197 41.2034 113.289 41.3659 113.289 41.5421L113.291 48.0069ZM114.802 0.124624C114.496 -0.0455015 114.125 -0.0408827 113.824 0.135017C113.524 0.31207 113.339 0.635386 113.339 0.985645V26.0041C113.339 26.2505 113.208 26.4776 112.995 26.6007C112.784 26.7239 112.521 26.7239 112.308 26.6007L108.23 24.2486C107.623 23.8968 106.875 23.8968 106.266 24.2486L89.9831 33.6606C89.3748 34.0108 88.9994 34.6613 88.9994 35.3618V54.1911C88.9994 54.8955 89.3748 55.5421 89.9831 55.8962L106.266 65.3147C106.874 65.665 107.622 65.665 108.232 65.3147L124.515 55.8924C125.122 55.5383 125.498 54.8916 125.498 54.1873V7.26028C125.498 6.54591 125.11 5.88888 124.488 5.53978L114.802 0.124624ZM169.023 41.372C169.628 41.0202 170 40.3705 170 39.67V35.1066C170 34.4046 169.627 33.7568 169.021 33.4034L152.842 23.9965C152.231 23.6424 151.482 23.6424 150.871 23.9965L134.592 33.4073C133.981 33.7614 133.609 34.408 133.609 35.1124V53.934C133.609 54.6422 133.989 55.2965 134.6 55.6468L150.775 64.8805C151.371 65.2231 152.101 65.227 152.704 64.8921L162.488 59.4458C162.796 59.2726 162.992 58.9454 162.992 58.5913C162.992 58.2372 162.803 57.9062 162.496 57.733L146.117 48.3183C145.81 48.1451 145.622 47.8179 145.622 47.4677V41.5633C145.622 41.2107 145.806 40.8859 146.113 40.7104L151.209 37.7659C151.513 37.5888 151.886 37.5888 152.189 37.7659L157.289 40.7104C157.592 40.8836 157.781 41.2107 157.781 41.561V46.2029C157.781 46.5532 157.969 46.8803 158.273 47.0574C158.576 47.2306 158.953 47.2306 159.256 47.0535L169.023 41.372Z" fill="white"/>
<path fill-rule="evenodd" clip-rule="evenodd" d="M151.64 40.5667C151.757 40.499 151.904 40.499 152.022 40.5667L155.19 42.3617C155.308 42.4291 155.381 42.5531 155.381 42.6871V46.2809C155.381 46.4149 155.308 46.5389 155.19 46.6062L152.022 48.4012C151.904 48.469 151.757 48.469 151.64 48.4012L148.475 46.6062C148.354 46.5389 148.28 46.4149 148.28 46.2809V42.6871C148.28 42.5531 148.35 42.4291 148.471 42.3617L151.64 40.5667Z" fill="white"/>
<mask id="mask0" mask-type="alpha" maskUnits="userSpaceOnUse" x="45" y="26" width="35" height="39">
<path d="M61.5771 26.5465C62.1143 26.2372 62.7762 26.2372 63.3134 26.5465L78.4936 35.2875C79.0308 35.5969 79.3617 36.1686 79.3617 36.7872V54.2693C79.3617 54.888 79.0308 55.4597 78.4936 55.769L63.3134 64.51C62.7762 64.8194 62.1143 64.8194 61.5771 64.51L46.397 55.769C45.8597 55.4597 45.5288 54.888 45.5288 54.2693V36.7872C45.5288 36.1686 45.8597 35.5969 46.397 35.2875L61.5771 26.5465Z" fill="white"/>
</mask>
<g mask="url(#mask0)">
<path d="M40.8223 25.3604L59.0415 35.8793L45.3084 59.6656L27.0892 49.1468L40.8223 25.3604Z" fill="white"/>
<path d="M81.48 32.277L99.6992 42.7959L80.7556 75.6072L62.5363 65.0883L81.48 32.277Z" fill="white"/>
<path d="M60.4424 31.7005L78.6616 42.2194L59.718 75.0307L41.4987 64.5118L60.4424 31.7005Z" fill="white"/>
<path d="M66.7812 19.3086L85.0005 29.8275L71.2674 53.6138L53.0482 43.095L66.7812 19.3086Z" fill="white"/>
<path d="M43.2559 34.3279L61.4751 23.8091L80.4187 56.6204L62.1995 67.1393L43.2559 34.3279Z" fill="white"/>
</g>
</svg>
