<svg width="74" height="103" viewBox="0 0 74 103" fill="none" xmlns="http://www.w3.org/2000/svg">
<path d="M59.1562 11.7931C59.0974 14.3263 58.7441 17.095 58.0965 19.8049C57.9787 20.394 58.0965 20.5707 58.6264 20.6885C62.1 21.7489 65.4559 23.1038 68.4586 25.2246C69.6361 26.0493 70.6958 26.9919 71.6378 28.1112C74.1106 31.1745 73.9929 34.5324 71.4612 37.4779C69.1062 40.1288 66.1624 41.8961 62.9243 43.251C61.5112 43.8401 60.0982 44.3703 58.6264 44.7827C58.2142 44.9005 58.1553 45.0183 58.2142 45.4307C58.8619 48.0228 59.274 50.6148 59.274 53.2657C59.274 56.4469 59.0385 59.628 57.2133 62.3968C55.6237 64.8121 53.2687 65.6368 50.5015 65.2834C46.6158 64.7532 43.4365 62.7502 40.4338 60.4528C39.3741 59.628 38.3143 58.8033 37.4312 57.8607C37.0191 57.4483 36.7247 57.4483 36.3125 57.8607C34.2519 59.8637 31.9558 61.631 29.4241 63.0448C27.4223 64.1641 25.3617 64.9888 23.1244 65.2834C19.0032 65.8725 16.1771 63.7517 15.0585 60.0404C14.1165 57.1538 14.1165 54.2083 14.352 51.2628C14.5286 49.4366 14.823 47.6104 15.294 45.8431C15.4706 45.1951 15.2351 45.0183 14.6464 44.8416C11.055 43.7812 7.69906 42.3085 4.69641 40.0699C3.46003 39.1863 2.40027 38.1259 1.51714 36.8888C-0.661257 33.8255 -0.48463 30.5854 1.98814 27.7577C3.63665 25.8726 5.6973 24.4588 7.87569 23.3395C10.113 22.1613 12.468 21.2776 14.8819 20.5707C15.3529 20.4529 15.4117 20.2762 15.294 19.8049C14.6464 17.0361 14.1754 14.2673 14.1754 11.3808C14.1754 8.90654 14.4109 6.43233 15.4117 4.13484C16.8836 0.894791 19.8274 -0.519048 23.4188 0.187871C26.8336 0.835881 29.7774 2.54427 32.4856 4.54721C33.7809 5.48977 35.0762 6.55015 36.1948 7.66944C36.6069 8.08181 36.7835 8.02289 37.1957 7.66944C39.8451 5.13631 42.73 2.89773 46.1447 1.36607C47.7344 0.65915 49.4418 0.0700512 51.208 0.0111412C54.6817 -0.165589 56.8601 1.77844 57.9787 4.54721C58.7441 6.49124 59.0974 8.96545 59.1562 11.7931ZM36.548 44.606C38.6087 44.7238 40.6693 44.4882 42.73 44.4882C43.1421 44.4882 43.4365 44.3703 43.672 44.0169C45.9092 40.5412 48.0288 36.9477 49.9128 33.1774C50.0894 32.8829 50.0894 32.5883 49.9128 32.2938C48.0288 28.5825 45.9681 24.989 43.672 21.5133C43.4954 21.2187 43.2598 21.1009 42.9066 21.1009C38.7853 20.8653 34.664 20.8653 30.5427 21.1009C30.1306 21.1009 29.8951 21.2776 29.6596 21.5722C27.3635 25.0479 25.3028 28.6414 23.4777 32.3527C23.3011 32.7062 23.3599 33.0007 23.4777 33.2953C25.3028 37.0066 27.4223 40.6001 29.7185 44.0169C29.8951 44.3114 30.1306 44.4882 30.5427 44.4882C32.4856 44.4882 34.5463 44.7238 36.548 44.606ZM15.8239 23.5162C15.8239 23.5162 15.765 23.5162 15.7061 23.5751C12.939 24.3999 10.2307 25.4013 7.75794 26.933C6.1683 27.8756 4.69641 28.9948 3.63665 30.5854C2.69465 31.9992 2.69464 33.4131 3.57778 34.8858C4.16653 35.8284 4.93191 36.5942 5.75617 37.3011C8.64107 39.6575 11.9381 41.0714 15.4117 42.1318C15.9416 42.3085 16.1183 42.1907 16.2949 41.6605C17.178 38.8328 18.2966 36.064 19.4742 33.3542C19.5919 33.0596 19.6508 32.824 19.533 32.5294C18.2378 29.7607 17.1191 26.8741 16.236 23.9286C16.236 23.6929 16.1771 23.4573 15.8239 23.5162ZM17.1191 54.0905C17.1191 55.4454 17.178 56.7414 17.4724 58.0374C17.5313 58.3909 17.649 58.8033 17.7668 59.1567C18.6499 61.8666 20.3573 62.8681 23.1244 62.2201C27.5401 61.1597 31.0726 58.5087 34.3108 55.4454C34.5463 55.2687 34.4874 55.0919 34.3108 54.9152C32.2501 52.6177 30.3072 50.2613 28.541 47.7282C28.3644 47.4926 28.1877 47.3747 27.8934 47.3747C24.8318 47.1391 21.8292 46.7267 18.8854 46.0787C18.4144 45.9609 18.2378 46.0787 18.12 46.55C17.5901 49.0831 17.1191 51.5574 17.1191 54.0905ZM56.1536 53.737C56.1536 51.2039 55.8003 48.7886 55.2704 46.4911C55.1527 46.0198 55.0349 45.8431 54.5639 45.9609C51.6202 46.6089 48.6175 47.0802 45.6149 47.3158C45.2616 47.3158 45.085 47.4337 44.8495 47.7871C43.1421 50.2613 41.317 52.6766 39.2563 54.8563C38.9619 55.1509 39.0208 55.3276 39.3152 55.6221C40.3161 56.5058 41.317 57.4483 42.4356 58.2731C44.7317 60.0404 47.2045 61.572 50.0305 62.2201C52.7388 62.8681 54.5051 61.9844 55.4471 59.3335C56.0358 57.4483 56.1536 55.5043 56.1536 53.737ZM17.178 11.204C17.1191 13.855 17.5901 16.3881 18.12 18.8034C18.2966 19.746 18.3555 19.6871 19.2387 19.5103C21.8881 18.9212 24.5374 18.5089 27.1868 18.2732C27.8345 18.2143 28.3055 18.0376 28.6587 17.4485C30.3072 15.0921 32.0735 12.8535 34.0753 10.7917C34.4285 10.4382 34.3697 10.2026 34.0164 9.90801C33.251 9.26 32.5445 8.55308 31.7791 7.96398C29.3064 6.01996 26.7158 4.31157 23.6543 3.42792C20.2984 2.48536 18.4733 3.60465 17.649 6.96252C17.2958 8.43526 17.1191 9.90801 17.178 11.204ZM51.6202 3.13337C50.737 3.13337 49.9717 3.3101 49.2652 3.54574C45.2616 4.78285 42.1412 7.37489 39.1386 10.1437C38.7853 10.4382 39.0208 10.6149 39.2563 10.8506C41.2581 13.0302 43.0832 15.3277 44.7317 17.6841C44.9672 18.0376 45.2616 18.2143 45.6737 18.2732C48.6175 18.5089 51.5613 18.9801 54.5051 19.6282C54.9172 19.746 55.0349 19.6282 55.1527 19.2158C55.8003 16.3292 56.2125 13.3837 56.0947 10.4382C55.977 8.72981 55.8003 7.02143 55.0938 5.43086C54.2696 3.95811 53.2098 3.07446 51.6202 3.13337ZM70.3426 32.6473C70.3426 32.6473 70.2837 32.5294 70.2837 32.4116C70.1071 30.821 69.0473 29.7607 67.9287 28.7592C64.926 26.1672 61.2757 24.7533 57.5666 23.5751C57.2133 23.4573 57.0956 23.5751 56.9778 23.8697C56.0947 26.7563 54.9761 29.525 53.7397 32.2349C53.6219 32.5883 53.6219 32.824 53.7397 33.1185C55.0349 35.8284 56.1536 38.6561 57.0956 41.5427C57.2133 41.8961 57.3311 41.955 57.7432 41.8372C59.3917 41.3659 60.9225 40.7768 62.5121 40.0699C64.926 38.9506 67.2222 37.5957 69.0473 35.5338C69.7538 34.768 70.2248 33.8255 70.3426 32.6473ZM47.2634 44.0758C49.5595 43.8402 51.6202 43.4278 53.7397 43.0154C54.1518 42.9565 54.2107 42.7209 54.0929 42.3674C53.7397 41.4248 53.4453 40.4823 53.0921 39.5397C52.6799 38.4793 52.2678 37.4779 51.7968 36.2997C50.3249 38.9506 48.853 41.4838 47.2634 44.0758ZM26.0093 44.0758C25.6561 43.4867 25.3617 43.0154 25.0673 42.603C23.9487 40.7768 22.8301 38.8917 21.8292 37.0066C21.7703 36.8888 21.7114 36.6531 21.5348 36.6531C21.2993 36.6531 21.2993 36.8888 21.2404 37.0066C20.5339 38.8328 19.8274 40.659 19.2387 42.5441C19.1798 42.7798 19.062 43.0154 19.4742 43.0743C21.5937 43.5456 23.7132 43.8991 26.0093 44.0758ZM32.309 47.6693C33.6631 49.5544 35.0762 51.145 36.4892 52.7945C36.7247 53.089 36.9013 52.9123 37.0779 52.7356C38.3732 51.2628 39.6096 49.7311 40.7871 48.1406C40.846 48.0228 41.0226 47.9049 40.9048 47.7871C40.7871 47.6693 40.6693 47.7282 40.4927 47.7282C37.7844 47.6693 35.135 47.6693 32.309 47.6693ZM47.3811 21.5133C47.3811 21.6311 47.3811 21.69 47.44 21.7489C48.853 23.9875 50.1483 26.285 51.4435 28.6414C51.5024 28.7592 51.5613 28.9359 51.7379 28.877C51.8557 28.8181 51.9145 28.7003 51.9734 28.5236C52.6799 26.7563 53.3864 24.989 53.9752 23.1628C54.0929 22.7504 54.0341 22.6326 53.6219 22.5147C51.5613 22.1024 49.5007 21.7489 47.3811 21.5133ZM32.2501 17.8019C35.1939 17.8019 38.0788 17.8019 40.9637 17.8019C39.6096 15.9757 38.2554 14.3852 36.8424 12.7946C36.6658 12.6179 36.548 12.6179 36.3714 12.7946C34.9584 14.3852 33.6043 16.0346 32.2501 17.8019ZM21.5348 29.1716C22.8889 26.5206 24.3019 24.1053 25.8916 21.5722C23.6543 21.8078 21.5348 22.1613 19.533 22.6326C19.2387 22.6915 19.1798 22.8682 19.2975 23.1038C19.8863 25.1068 20.5928 27.1097 21.5348 29.1716Z" fill="white"/>
<path d="M43.2529 32.6901C43.2529 36.3418 40.249 39.2867 36.597 39.2278C33.1218 39.2278 30.1768 36.224 30.1768 32.6901C30.1768 29.1563 33.1218 26.1525 36.597 26.1525C40.3079 26.1525 43.2529 29.0385 43.2529 32.6901Z" fill="white"/>
<path d="M13.6915 95.0985H10.33V102.07H7.31421V83.9761H13.4174C15.42 83.9761 16.9656 84.4442 18.0543 85.3804C19.1431 86.3165 19.6874 87.6711 19.6874 89.4441C19.6874 90.6536 19.4053 91.6685 18.8411 92.4887C18.2848 93.3006 17.506 93.9262 16.5047 94.3652L20.4026 101.909V102.07H17.1723L13.6915 95.0985ZM10.33 92.5757H13.4293C14.4465 92.5757 15.2412 92.3106 15.8133 91.7804C16.3855 91.2419 16.6716 90.5087 16.6716 89.5808C16.6716 88.6114 16.4054 87.8617 15.8729 87.3314C15.3485 86.8012 14.5617 86.5278 13.5127 86.5112H10.33V92.5757Z" fill="white"/>
<path d="M27.9482 102.319C26.1124 102.319 24.6224 101.718 23.4781 100.517C22.3417 99.3071 21.7735 97.6999 21.7735 95.695V95.3221C21.7735 93.98 22.0198 92.7828 22.5125 91.7307C23.0132 90.6702 23.7125 89.8459 24.6105 89.2577C25.5085 88.6694 26.5098 88.3753 27.6144 88.3753C29.3706 88.3753 30.7256 88.9594 31.6792 90.1276C32.6408 91.2957 33.1215 92.9485 33.1215 95.086V96.3039H24.6939C24.7813 97.4141 25.135 98.2923 25.7548 98.9385C26.3826 99.5847 27.1694 99.9078 28.115 99.9078C29.4422 99.9078 30.5229 99.3486 31.3573 98.2301L32.9189 99.7835C32.4023 100.587 31.711 101.213 30.8448 101.66C29.9865 102.099 29.021 102.319 27.9482 102.319ZM27.6025 90.7986C26.8078 90.7986 26.1641 91.0886 25.6714 91.6685C25.1866 92.2485 24.8767 93.0562 24.7416 94.0918H30.2607V93.8682C30.1971 92.8574 29.9388 92.0952 29.4859 91.5815C29.0329 91.0596 28.4051 90.7986 27.6025 90.7986Z" fill="white"/>
<path d="M43.0869 102.07C42.9597 101.813 42.8485 101.395 42.7531 100.815C41.8313 101.817 40.7028 102.319 39.3677 102.319C38.0724 102.319 37.0155 101.933 36.197 101.163C35.3784 100.392 34.9692 99.4397 34.9692 98.3047C34.9692 96.8714 35.4778 95.7737 36.495 95.0115C37.5201 94.241 38.9823 93.8557 40.8816 93.8557H42.6577V92.9734C42.6577 92.2775 42.471 91.7224 42.0975 91.3081C41.724 90.8856 41.1558 90.6744 40.3929 90.6744C39.7333 90.6744 39.1929 90.8483 38.7717 91.1963C38.3505 91.536 38.14 91.9709 38.14 92.5012H35.2433C35.2433 91.7638 35.4778 91.0762 35.9466 90.4382C36.4155 89.792 37.0512 89.2866 37.8539 88.9221C38.6644 88.5576 39.5664 88.3753 40.5598 88.3753C42.0697 88.3753 43.2736 88.773 44.1716 89.5683C45.0696 90.3554 45.5305 91.4656 45.5543 92.8988V98.9633C45.5543 100.173 45.7173 101.138 46.0431 101.859V102.07H43.0869ZM39.9042 99.8954C40.4763 99.8954 41.0127 99.7504 41.5134 99.4604C42.022 99.1704 42.4034 98.7811 42.6577 98.2923V95.7571H41.0962C40.0234 95.7571 39.2168 95.9518 38.6764 96.3412C38.136 96.7306 37.8658 97.2815 37.8658 97.994C37.8658 98.5739 38.0486 99.0379 38.4141 99.3859C38.7876 99.7255 39.2843 99.8954 39.9042 99.8954Z" fill="white"/>
<path d="M53.8866 99.9078C54.6098 99.9078 55.2097 99.6882 55.6866 99.2492C56.1634 98.8101 56.4177 98.2674 56.4495 97.6212H59.1792C59.1474 98.458 58.8971 99.2409 58.4282 99.9699C57.9594 100.691 57.3236 101.262 56.521 101.685C55.7183 102.107 54.8521 102.319 53.9224 102.319C52.1184 102.319 50.688 101.71 49.6311 100.492C48.5741 99.274 48.0457 97.5922 48.0457 95.4464V95.1357C48.0457 93.0894 48.5702 91.4531 49.6192 90.227C50.6681 88.9925 52.0986 88.3753 53.9104 88.3753C55.4442 88.3753 56.6918 88.8434 57.6534 89.7796C58.6229 90.7075 59.1315 91.9295 59.1792 93.4456H56.4495C56.4177 92.6751 56.1634 92.0414 55.6866 91.5443C55.2177 91.0472 54.6177 90.7986 53.8866 90.7986C52.9489 90.7986 52.2257 91.1549 51.7171 91.8674C51.2085 92.5716 50.9502 93.6445 50.9423 95.086V95.5707C50.9423 97.0288 51.1926 98.1183 51.6933 98.8391C52.2019 99.5515 52.933 99.9078 53.8866 99.9078Z" fill="white"/>
<path d="M64.9963 85.3555V88.6239H67.273V90.8608H64.9963V98.3668C64.9963 98.8805 65.0916 99.2533 65.2824 99.4853C65.481 99.709 65.8307 99.8208 66.3313 99.8208C66.6651 99.8208 67.0028 99.7794 67.3446 99.6965V102.033C66.685 102.223 66.0492 102.319 65.4373 102.319C63.2122 102.319 62.0996 101.039 62.0996 98.4787V90.8608H59.9778V88.6239H62.0996V85.3555H64.9963Z" fill="white"/>
</svg>
