<svg width="158" height="118" viewBox="0 0 158 118" fill="none" xmlns="http://www.w3.org/2000/svg">
<path d="M104.464 13.5445C104.397 16.4539 103.991 19.6338 103.247 22.7461C103.112 23.4227 103.247 23.6257 103.856 23.761C107.845 24.9788 111.699 26.535 115.148 28.9707C116.5 29.9179 117.718 31.0005 118.799 32.286C121.639 35.8042 121.504 39.6608 118.597 43.0437C115.892 46.0884 112.511 48.1181 108.792 49.6743C107.169 50.3508 105.546 50.9598 103.856 51.4334C103.382 51.5687 103.315 51.704 103.382 52.1776C104.126 55.1546 104.599 58.1316 104.599 61.1762C104.599 64.8298 104.329 68.4834 102.233 71.6633C100.407 74.4373 97.7023 75.3846 94.5242 74.9786C90.0614 74.3697 86.4099 72.0693 82.9614 69.4306C81.7442 68.4834 80.5271 67.5361 79.5128 66.4536C79.0395 65.98 78.7014 65.98 78.228 66.4536C75.8614 68.754 73.2242 70.7838 70.3166 72.4076C68.0175 73.6931 65.6509 74.6403 63.0813 74.9786C58.348 75.6552 55.1023 73.2195 53.8175 68.957C52.7356 65.6417 52.7356 62.2588 53.0061 58.8758C53.209 56.7784 53.5471 54.681 54.088 52.6512C54.2909 51.907 54.0204 51.704 53.3442 51.501C49.2194 50.2832 45.3652 48.5917 41.9166 46.0207C40.4966 45.0058 39.2794 43.788 38.2652 42.3671C35.7632 38.8489 35.9661 35.1276 38.8061 31.88C40.6994 29.715 43.0661 28.0911 45.568 26.8056C48.1375 25.4525 50.8423 24.4376 53.6147 23.6257C54.1556 23.4904 54.2233 23.2874 54.088 22.7461C53.3442 19.5662 52.8033 16.3862 52.8033 13.0709C52.8033 10.2293 53.0737 7.38759 54.2233 4.7489C55.9137 1.02768 59.2947 -0.596132 63.4194 0.215772C67.3413 0.960017 70.7223 2.92212 73.8328 5.22251C75.3204 6.30505 76.808 7.52291 78.0928 8.80842C78.5661 9.28203 78.769 9.21438 79.2423 8.80842C82.2852 5.8991 85.5985 3.32807 89.5204 1.56894C91.3461 0.757041 93.3071 0.0804545 95.3357 0.0127958C99.3252 -0.19018 101.827 2.04256 103.112 5.22251C103.991 7.45525 104.397 10.2969 104.464 13.5445ZM78.4985 51.2304C80.8652 51.3657 83.2318 51.0951 85.5985 51.0951C86.0718 51.0951 86.4099 50.9598 86.6804 50.5538C89.2499 46.562 91.6842 42.4348 93.848 38.1046C94.0509 37.7663 94.0509 37.428 93.848 37.0898C91.6842 32.8273 89.3176 28.7001 86.6804 24.7082C86.4776 24.3699 86.2071 24.2346 85.8014 24.2346C81.068 23.964 76.3347 23.964 71.6013 24.2346C71.128 24.2346 70.8575 24.4376 70.5871 24.7759C67.9499 28.7677 65.5833 32.8949 63.4871 37.1574C63.2842 37.5634 63.3518 37.9017 63.4871 38.2399C65.5833 42.5024 68.0175 46.6296 70.6547 50.5538C70.8575 50.8921 71.128 51.0951 71.6013 51.0951C73.8328 51.0951 76.1994 51.3657 78.4985 51.2304ZM54.6966 27.0086C54.6966 27.0086 54.629 27.0086 54.5613 27.0763C51.3833 28.0235 48.2728 29.1737 45.4328 30.9328C43.6071 32.0154 41.9166 33.3009 40.6994 35.1277C39.6175 36.7515 39.6175 38.3753 40.6318 40.0667C41.308 41.1493 42.1871 42.0288 43.1337 42.8407C46.4471 45.5471 50.2337 47.1709 54.2233 48.3887C54.8318 48.5917 55.0347 48.4564 55.2375 47.8475C56.2518 44.5999 57.5366 41.4199 58.889 38.3076C59.0242 37.9693 59.0918 37.6987 58.9566 37.3604C57.469 34.1804 56.1842 30.8652 55.1699 27.4822C55.1699 27.2116 55.1023 26.9409 54.6966 27.0086ZM56.1842 62.1235C56.1842 63.6796 56.2518 65.1681 56.5899 66.6566C56.6575 67.0625 56.7928 67.5361 56.928 67.9421C57.9423 71.0544 59.9032 72.2046 63.0813 71.4604C68.1528 70.2425 72.2099 67.1979 75.929 63.6796C76.1994 63.4766 76.1318 63.2737 75.929 63.0707C73.5623 60.432 71.3309 57.7256 69.3023 54.8163C69.0994 54.5457 68.8966 54.4104 68.5585 54.4104C65.0423 54.1397 61.5937 53.6661 58.2128 52.9219C57.6718 52.7866 57.469 52.9219 57.3337 53.4632C56.7252 56.3725 56.1842 59.2141 56.1842 62.1235ZM101.016 61.7175C101.016 58.8082 100.61 56.0342 100.001 53.3955C99.8661 52.8542 99.7309 52.6512 99.1899 52.7866C95.809 53.5308 92.3604 54.0721 88.9118 54.3427C88.5061 54.3427 88.3033 54.478 88.0328 54.884C86.0718 57.7256 83.9756 60.4996 81.609 63.003C81.2709 63.3413 81.3385 63.5443 81.6766 63.8826C82.8261 64.8975 83.9756 65.98 85.2604 66.9272C87.8976 68.957 90.7376 70.7161 93.9833 71.4604C97.0937 72.2046 99.1223 71.1897 100.204 68.1451C100.88 65.98 101.016 63.7473 101.016 61.7175ZM56.2518 12.8679C56.1842 15.9126 56.7252 18.8219 57.3337 21.5959C57.5366 22.6785 57.6042 22.6108 58.6185 22.4078C61.6613 21.7312 64.7042 21.2576 67.7471 20.987C68.4909 20.9193 69.0318 20.7163 69.4375 20.0398C71.3309 17.3334 73.3594 14.7624 75.6585 12.3943C76.0642 11.9884 75.9966 11.7177 75.5909 11.3795C74.7118 10.6352 73.9004 9.8233 73.0214 9.14672C70.1814 6.91398 67.2061 4.95188 63.6899 3.937C59.8356 2.85446 57.7394 4.13997 56.7928 7.99652C56.3871 9.68799 56.1842 11.3795 56.2518 12.8679ZM95.809 3.5987C94.7947 3.5987 93.9156 3.80168 93.1042 4.07232C88.5061 5.49315 84.9223 8.47013 81.4737 11.6501C81.068 11.9884 81.3385 12.1914 81.609 12.462C83.908 14.9654 86.0042 17.6041 87.8976 20.3104C88.168 20.7164 88.5061 20.9193 88.9795 20.987C92.3604 21.2576 95.7414 21.7989 99.1223 22.5431C99.5956 22.6785 99.7309 22.5431 99.8661 22.0695C100.61 18.7542 101.083 15.3713 100.948 11.9884C100.813 10.0263 100.61 8.06418 99.7985 6.23739C98.8518 4.54593 97.6347 3.53105 95.809 3.5987ZM117.312 37.4957C117.312 37.4957 117.244 37.3604 117.244 37.2251C117.041 35.3983 115.824 34.1804 114.539 33.0302C111.091 30.0532 106.899 28.4294 102.639 27.0763C102.233 26.9409 102.098 27.0763 101.962 27.4146C100.948 30.7298 99.6633 33.9098 98.2433 37.0221C98.108 37.428 98.108 37.6987 98.2433 38.037C99.7309 41.1493 101.016 44.3969 102.098 47.7122C102.233 48.1181 102.368 48.1858 102.841 48.0505C104.735 47.5092 106.493 46.8326 108.319 46.0207C111.091 44.7352 113.728 43.179 115.824 40.811C116.636 39.9314 117.177 38.8489 117.312 37.4957ZM90.8052 50.6215C93.4423 50.3509 95.809 49.8772 98.2433 49.4036C98.7166 49.336 98.7842 49.0653 98.649 48.6594C98.2433 47.5768 97.9052 46.4943 97.4995 45.4118C97.0261 44.1939 96.5528 43.0437 96.0118 41.6905C94.3214 44.7352 92.6309 47.6445 90.8052 50.6215ZM66.3947 50.6215C65.989 49.9449 65.6509 49.4036 65.3128 48.93C64.028 46.8326 62.7433 44.6675 61.5937 42.5024C61.5261 42.3671 61.4585 42.0965 61.2556 42.0965C60.9852 42.0965 60.9852 42.3671 60.9175 42.5024C60.1061 44.5999 59.2947 46.6973 58.6185 48.8624C58.5509 49.133 58.4156 49.4036 58.889 49.4713C61.3233 50.0126 63.7575 50.4185 66.3947 50.6215ZM73.6299 54.7487C75.1852 56.9137 76.808 58.7405 78.4309 60.635C78.7014 60.9733 78.9042 60.7703 79.1071 60.5673C80.5947 58.8758 82.0147 57.1167 83.3671 55.2899C83.4347 55.1546 83.6376 55.0193 83.5023 54.884C83.3671 54.7487 83.2318 54.8163 83.029 54.8163C79.9185 54.7487 76.8756 54.7487 73.6299 54.7487ZM90.9404 24.7082C90.9404 24.8435 90.9404 24.9112 91.008 24.9788C92.6309 27.5499 94.1185 30.1886 95.6061 32.8949C95.6737 33.0302 95.7414 33.2332 95.9442 33.1655C96.0795 33.0979 96.1471 32.9626 96.2147 32.7596C97.0261 30.7298 97.8376 28.7001 98.5137 26.6027C98.649 26.129 98.5814 25.9937 98.108 25.8584C95.7414 25.3848 93.3747 24.9788 90.9404 24.7082ZM73.5623 20.4457C76.9433 20.4457 80.2566 20.4457 83.5699 20.4457C82.0147 18.3483 80.4594 16.5215 78.8366 14.6947C78.6337 14.4918 78.4985 14.4918 78.2956 14.6947C76.6728 16.5215 75.1175 18.416 73.5623 20.4457ZM61.2556 33.5038C62.8109 30.4592 64.4337 27.6852 66.2594 24.7759C63.6899 25.0465 61.2556 25.4525 58.9566 25.9937C58.6185 26.0614 58.5509 26.2644 58.6861 26.535C59.3623 28.8354 60.1737 31.1358 61.2556 33.5038Z" fill="white"/>
<path d="M86.1988 37.5449C86.1988 41.7389 82.7487 45.1211 78.5544 45.0534C74.5631 45.0534 71.1807 41.6036 71.1807 37.5449C71.1807 33.4862 74.5631 30.0363 78.5544 30.0363C82.8163 30.0363 86.1988 33.3509 86.1988 37.5449Z" fill="white"/>
<path d="M7.41166 109.424H3.50495V117.235H0V96.9624H7.09303C9.42043 96.9624 11.2168 97.4869 12.4821 98.5358C13.7474 99.5848 14.38 101.102 14.38 103.089C14.38 104.444 14.0521 105.581 13.3964 106.5C12.7499 107.41 11.8448 108.111 10.6811 108.603L15.2112 117.054V117.235H11.4569L7.41166 109.424ZM3.50495 106.598H7.10688C8.28905 106.598 9.21263 106.301 9.8776 105.707C10.5426 105.103 10.8751 104.282 10.8751 103.242C10.8751 102.156 10.5657 101.316 9.94687 100.722C9.33731 100.128 8.42297 99.8215 7.20386 99.8029H3.50495V106.598Z" fill="white"/>
<path d="M23.9805 117.514C21.8471 117.514 20.1154 116.841 18.7854 115.495C17.4647 114.14 16.8044 112.339 16.8044 110.093V109.675C16.8044 108.171 17.0907 106.83 17.6633 105.651C18.2452 104.463 19.0579 103.539 20.1015 102.88C21.1452 102.221 22.3089 101.891 23.5926 101.891C25.6337 101.891 27.2084 102.546 28.3167 103.855C29.4342 105.164 29.993 107.015 29.993 109.41V110.775H20.1985C20.3001 112.019 20.7111 113.003 21.4315 113.727C22.1611 114.451 23.0754 114.813 24.1745 114.813C25.7168 114.813 26.9729 114.186 27.9427 112.933L29.7575 114.673C29.1572 115.574 28.3536 116.275 27.347 116.776C26.3495 117.268 25.2274 117.514 23.9805 117.514ZM23.5788 104.607C22.6552 104.607 21.9071 104.931 21.3345 105.581C20.7711 106.231 20.4109 107.136 20.2539 108.296H26.6681V108.046C26.5942 106.913 26.2941 106.059 25.7676 105.484C25.2412 104.899 24.5116 104.607 23.5788 104.607Z" fill="white"/>
<path d="M41.5746 117.235C41.4268 116.948 41.2975 116.479 41.1867 115.829C40.1153 116.952 38.8039 117.514 37.2523 117.514C35.7468 117.514 34.5185 117.082 33.5672 116.219C32.6159 115.356 32.1403 114.288 32.1403 113.017C32.1403 111.411 32.7314 110.181 33.9135 109.327C35.105 108.463 36.8043 108.032 39.0117 108.032H41.0758V107.043C41.0758 106.264 40.8588 105.642 40.4247 105.177C39.9906 104.704 39.3303 104.467 38.4437 104.467C37.6771 104.467 37.0491 104.662 36.5596 105.052C36.0701 105.433 35.8253 105.92 35.8253 106.514H32.4589C32.4589 105.688 32.7314 104.918 33.2763 104.203C33.8212 103.479 34.56 102.913 35.4929 102.504C36.4349 102.096 37.4832 101.891 38.6376 101.891C40.3924 101.891 41.7916 102.337 42.8352 103.228C43.8789 104.11 44.4146 105.354 44.4423 106.96V113.755C44.4423 115.11 44.6316 116.191 45.0103 116.999V117.235H41.5746ZM37.8757 114.799C38.5406 114.799 39.1641 114.636 39.7459 114.311C40.337 113.987 40.7803 113.55 41.0758 113.003V110.162H39.261C38.0142 110.162 37.0768 110.38 36.4487 110.817C35.8207 111.253 35.5067 111.87 35.5067 112.668C35.5067 113.318 35.7191 113.838 36.144 114.228C36.5781 114.609 37.1553 114.799 37.8757 114.799Z" fill="white"/>
<path d="M54.1259 114.813C54.9664 114.813 55.6637 114.567 56.2178 114.075C56.7719 113.583 57.0675 112.975 57.1044 112.251H60.2769C60.24 113.188 59.949 114.065 59.4041 114.882C58.8592 115.69 58.1204 116.33 57.1875 116.804C56.2547 117.277 55.2481 117.514 54.1675 117.514C52.071 117.514 50.4085 116.832 49.1802 115.467C47.9518 114.103 47.3377 112.218 47.3377 109.814V109.466C47.3377 107.173 47.9472 105.34 49.1663 103.966C50.3854 102.583 52.0479 101.891 54.1536 101.891C55.9361 101.891 57.3861 102.416 58.5036 103.465C59.6304 104.504 60.2215 105.874 60.2769 107.572H57.1044C57.0675 106.709 56.7719 105.999 56.2178 105.442C55.6729 104.885 54.9756 104.607 54.1259 104.607C53.0361 104.607 52.1956 105.006 51.6046 105.804C51.0135 106.593 50.7133 107.795 50.7041 109.41V109.953C50.7041 111.587 50.995 112.808 51.5769 113.615C52.1679 114.414 53.0176 114.813 54.1259 114.813Z" fill="white"/>
<path d="M67.0374 98.508V102.17H69.6835V104.676H67.0374V113.086C67.0374 113.662 67.1483 114.079 67.3699 114.339C67.6008 114.59 68.0072 114.715 68.589 114.715C68.9769 114.715 69.3695 114.669 69.7666 114.576V117.194C69 117.407 68.2612 117.514 67.55 117.514C64.964 117.514 63.671 116.08 63.671 113.211V104.676H61.2051V102.17H63.671V98.508H67.0374Z" fill="white"/>
<path d="M95.6589 117.235H92.154L83.163 102.852V117.235H79.658V96.9624H83.163L92.1817 111.401V96.9624H95.6589V117.235Z" fill="white"/>
<path d="M108.432 117.235C108.284 116.948 108.155 116.479 108.044 115.829C106.973 116.952 105.661 117.514 104.11 117.514C102.604 117.514 101.376 117.082 100.425 116.219C99.4733 115.356 98.9976 114.288 98.9976 113.017C98.9976 111.411 99.5887 110.181 100.771 109.327C101.962 108.463 103.662 108.032 105.869 108.032H107.933V107.043C107.933 106.264 107.716 105.642 107.282 105.177C106.848 104.704 106.188 104.467 105.301 104.467C104.534 104.467 103.906 104.662 103.417 105.052C102.927 105.433 102.683 105.92 102.683 106.514H99.3163C99.3163 105.688 99.5887 104.918 100.134 104.203C100.679 103.479 101.417 102.913 102.35 102.504C103.292 102.096 104.34 101.891 105.495 101.891C107.25 101.891 108.649 102.337 109.693 103.228C110.736 104.11 111.272 105.354 111.3 106.96V113.755C111.3 115.11 111.489 116.191 111.868 116.999V117.235H108.432ZM104.733 114.799C105.398 114.799 106.021 114.636 106.603 114.311C107.194 113.987 107.638 113.55 107.933 113.003V110.162H106.118C104.872 110.162 103.934 110.38 103.306 110.817C102.678 111.253 102.364 111.87 102.364 112.668C102.364 113.318 102.576 113.838 103.001 114.228C103.435 114.609 104.013 114.799 104.733 114.799Z" fill="white"/>
<path d="M119.044 98.508V102.17H121.69V104.676H119.044V113.086C119.044 113.662 119.155 114.079 119.376 114.339C119.607 114.59 120.014 114.715 120.595 114.715C120.983 114.715 121.376 114.669 121.773 114.576V117.194C121.006 117.407 120.267 117.514 119.556 117.514C116.97 117.514 115.677 116.08 115.677 113.211V104.676H113.211V102.17H115.677V98.508H119.044Z" fill="white"/>
<path d="M127.855 117.235H124.488V102.17H127.855V117.235ZM124.28 98.2574C124.28 97.7375 124.442 97.3059 124.765 96.9624C125.098 96.619 125.569 96.4473 126.178 96.4473C126.788 96.4473 127.259 96.619 127.591 96.9624C127.924 97.3059 128.09 97.7375 128.09 98.2574C128.09 98.7679 127.924 99.1949 127.591 99.5383C127.259 99.8725 126.788 100.04 126.178 100.04C125.569 100.04 125.098 99.8725 124.765 99.5383C124.442 99.1949 124.28 98.7679 124.28 98.2574Z" fill="white"/>
<path d="M136.818 112.947L139.99 102.17H143.468L138.273 117.235H135.349L130.113 102.17H133.604L136.818 112.947Z" fill="white"/>
<path d="M151.988 117.514C149.854 117.514 148.122 116.841 146.792 115.495C145.472 114.14 144.811 112.339 144.811 110.093V109.675C144.811 108.171 145.098 106.83 145.67 105.651C146.252 104.463 147.065 103.539 148.109 102.88C149.152 102.221 150.316 101.891 151.6 101.891C153.641 101.891 155.215 102.546 156.324 103.855C157.441 105.164 158 107.015 158 109.41V110.775H148.206C148.307 112.019 148.718 113.003 149.438 113.727C150.168 114.451 151.082 114.813 152.182 114.813C153.724 114.813 154.98 114.186 155.95 112.933L157.764 114.673C157.164 115.574 156.361 116.275 155.354 116.776C154.357 117.268 153.234 117.514 151.988 117.514ZM151.586 104.607C150.662 104.607 149.914 104.931 149.342 105.581C148.778 106.231 148.418 107.136 148.261 108.296H154.675V108.046C154.601 106.913 154.301 106.059 153.775 105.484C153.248 104.899 152.519 104.607 151.586 104.607Z" fill="white"/>
</svg>
