<svg width="85" height="74" viewBox="0 0 85 74" fill="none" xmlns="http://www.w3.org/2000/svg">
<path d="M0.50708 0.815643C0.759476 0.815643 1.01187 0.815643 1.23623 0.815643C6.59264 0.815643 11.949 0.815643 17.3055 0.815643C17.3055 0.843687 17.3055 0.843687 17.3055 0.871731C17.6981 1.57283 18.0907 2.24589 18.4833 2.94699C20.6707 6.73293 22.8582 10.4908 25.0456 14.2768C27.177 17.9786 29.3083 21.6804 31.4396 25.3822C33.1503 28.3549 34.8891 31.3275 36.5998 34.3002C38.5348 37.6655 40.4698 41.0027 42.4049 44.368C42.461 44.4522 42.461 44.5643 42.5731 44.5924C42.7133 44.5924 42.7133 44.4522 42.7694 44.368C43.5266 43.078 44.2558 41.788 45.013 40.498C46.1628 38.4788 47.3406 36.4877 48.4904 34.4685C49.7524 32.3091 50.9863 30.1497 52.2483 27.9623C53.4823 25.8029 54.7442 23.6435 55.9782 21.4841C57.2402 19.2967 58.5021 17.1092 59.7641 14.9218C60.9139 12.9307 62.0637 10.9395 63.2135 8.94841C64.4755 6.76098 65.7375 4.57354 66.9995 2.38611C67.308 1.85327 67.6445 1.34848 67.8969 0.787598C72.7766 0.787598 77.6843 0.787598 82.5639 0.787598C83.2931 0.787598 83.9942 0.787598 84.7233 0.787598C84.7233 0.815642 84.7233 0.87173 84.7233 0.899774C83.3492 3.28352 81.975 5.6953 80.6008 8.07905C75.581 16.7727 70.5611 25.4383 65.5692 34.132C61.1383 41.8441 56.6793 49.5281 52.2203 57.2122C49.1074 62.5966 45.9945 67.9811 42.9097 73.3656C42.8255 73.5058 42.7414 73.646 42.6292 73.8423C42.5451 73.7021 42.461 73.5619 42.3768 73.4497C34.5806 59.9605 26.7843 46.4433 18.9881 32.9541C12.8465 22.3254 6.70481 11.6967 0.591212 1.06804C0.563168 1.01195 0.535124 0.955862 0.50708 0.899774C0.50708 0.899774 0.50708 0.843687 0.50708 0.815643Z" fill="white"/>
<path d="M67.8969 0.815918C67.6725 1.3768 67.3079 1.88159 66.9994 2.41443C65.7375 4.60186 64.4755 6.7893 63.2135 8.97673C62.0637 10.9679 60.9139 12.959 59.7641 14.9501C58.5021 17.1375 57.2401 19.325 55.9781 21.5124C54.7442 23.6718 53.4822 25.8312 52.2483 27.9906C50.9863 30.15 49.7524 32.3094 48.4904 34.4968C47.3406 36.516 46.1627 38.5071 45.0129 40.5263C44.2557 41.8163 43.5266 43.1063 42.7694 44.3963C42.7133 44.4805 42.7133 44.6207 42.5731 44.6207C42.4609 44.6207 42.4329 44.4805 42.4048 44.3963C40.4698 41.0311 38.5348 37.6938 36.5997 34.3285C34.889 31.3559 33.1503 28.3832 31.4396 25.4105C29.3083 21.7087 27.1769 18.0069 25.0456 14.3051C22.8581 10.5192 20.6707 6.76125 18.4833 2.97531C18.0907 2.30225 17.698 1.60115 17.3054 0.900049C22.4936 0.900049 27.6537 0.900049 32.8418 0.900049C33.3466 1.76941 33.8514 2.63878 34.3562 3.50814C35.1134 4.82621 35.8986 6.17233 36.6558 7.4904C38.0019 9.84609 39.348 12.2018 40.6941 14.5294C41.2831 15.5671 41.9 16.6047 42.545 17.6984C42.8255 17.2217 43.1059 16.773 43.3583 16.2962C44.1155 15.0062 44.8727 13.6881 45.6299 12.3701C47.0041 9.98631 48.3502 7.60257 49.7243 5.24687C50.5376 3.87272 51.3509 2.47052 52.1361 1.09636C52.1642 1.01223 52.2483 0.956137 52.2763 0.900049C57.3243 0.900049 62.3722 0.900049 67.4201 0.900049C67.5042 0.900049 67.6164 0.928094 67.7005 0.843962C67.8127 0.815918 67.8408 0.815918 67.8969 0.815918Z" fill="white" fill-opacity="0.7"/>
<path d="M32.8706 0.843792C27.6825 0.843792 22.5224 0.843792 17.3342 0.843792C17.3342 0.815748 17.3342 0.815747 17.3342 0.787703C17.4464 0.787703 17.5586 0.787703 17.6427 0.787703C22.6065 0.787703 27.5703 0.787703 32.506 0.787703C32.6463 0.787703 32.7865 0.731616 32.8706 0.843792Z" fill="white"/>
<path d="M67.7572 0.815711C67.6731 0.899843 67.5609 0.871798 67.4768 0.871798C62.4289 0.871798 57.3809 0.871798 52.333 0.871798C52.3891 0.787666 52.4732 0.815711 52.5574 0.815711C57.5772 0.815711 62.5971 0.815711 67.617 0.815711C67.6731 0.787667 67.7292 0.787667 67.7572 0.815711Z" fill="white"/>
<path d="M0.50736 0.815918C0.50736 0.843888 0.50736 0.899825 0.47939 0.927795C0.451421 0.871856 0.395481 0.843888 0.50736 0.815918Z" fill="white"/>
<path d="M84.7239 0.927795C84.7239 0.899825 84.7239 0.843888 84.7239 0.815918C84.8358 0.843888 84.7798 0.871856 84.7239 0.927795Z" fill="white"/>
</svg>
