<svg width="254" height="233" viewBox="0 0 254 233" fill="none" xmlns="http://www.w3.org/2000/svg">
<g filter="url(#filter0_d)">
<path d="M142.016 111.51C142.016 90.5256 142.016 69.5413 142.016 48.557C142.016 48.0844 142.207 47.8008 142.493 47.4227C143.399 46.2412 144.495 45.9576 145.925 46.0049C152.648 46.0994 159.37 46.0521 166.045 46.0521C166.474 46.0521 166.712 46.2412 167.046 46.4775C168.286 47.3755 168.524 48.5097 168.524 50.0221C168.476 91.5181 168.476 133.061 168.524 174.557C168.524 175.077 168.333 175.408 168 175.786C167.142 176.92 166.045 177.204 164.615 177.204C157.94 177.109 151.265 177.157 144.59 177.157C144.114 177.157 143.828 176.968 143.494 176.731C142.302 175.833 142.016 174.699 142.016 173.234C142.016 152.628 142.016 132.069 142.016 111.51Z" fill="white"/>
<path d="M177.44 97.2841C177.44 81.026 177.44 64.7206 177.44 48.4625C177.44 47.9899 177.63 47.7063 177.869 47.3755C178.727 46.2412 179.823 45.9576 181.206 46.0049C187.976 46.0994 194.699 46.0521 201.469 46.0521C201.85 46.0521 202.088 46.1939 202.374 46.383C203.614 47.281 203.9 48.4625 203.9 49.9749C203.852 81.9712 203.852 113.968 203.9 145.964C203.9 146.484 203.709 146.815 203.423 147.193C202.565 148.327 201.469 148.563 200.086 148.563C193.364 148.469 186.641 148.516 179.966 148.516C179.537 148.516 179.251 148.374 178.918 148.138C177.821 147.287 177.487 146.247 177.487 144.83C177.487 129.044 177.44 113.164 177.44 97.2841Z" fill="white"/>
<path d="M191.409 165.247C191.409 165.436 191.409 165.625 191.409 165.814C191.409 169.359 191.409 172.903 191.409 176.495C191.409 176.968 191.314 177.157 190.789 177.157C189.264 177.11 187.738 177.11 186.212 177.157C185.831 177.157 185.688 177.062 185.688 176.637C185.688 169.264 185.688 161.844 185.688 154.471C185.688 154.046 185.831 153.951 186.26 153.951C187.881 153.951 189.55 153.951 191.171 153.951C191.552 153.951 191.743 154.046 191.933 154.377C193.936 158.063 195.938 161.749 197.893 165.436C197.941 165.53 198.036 165.672 198.179 165.908C198.179 165.53 198.227 165.341 198.227 165.152C198.227 161.608 198.227 158.063 198.227 154.471C198.227 153.998 198.322 153.857 198.847 153.857C199.752 153.904 200.658 153.857 201.612 153.857C201.946 153.857 202.136 153.998 202.375 154.14C203.71 155.085 204.043 156.314 203.996 157.921C203.9 163.498 203.948 169.028 203.948 174.605C203.948 174.983 203.805 175.219 203.614 175.503C202.661 176.779 201.421 177.11 199.8 177.11C198.417 177.11 197.702 176.684 197.083 175.455C195.414 172.147 193.602 168.886 191.79 165.625C191.695 165.483 191.6 165.294 191.504 165.152C191.457 165.2 191.457 165.2 191.409 165.247Z" fill="white"/>
<path d="M183.066 165.53C183.066 169.17 183.066 172.809 183.066 176.495C183.066 176.968 182.97 177.157 182.446 177.11C181.54 177.062 180.634 177.11 179.681 177.11C179.061 177.11 177.392 175.455 177.392 174.841C177.392 168.602 177.392 162.411 177.392 156.173C177.392 155.889 177.487 155.7 177.678 155.464C178.632 154.188 179.824 153.62 181.445 153.904C181.778 153.951 182.16 153.951 182.541 153.904C182.97 153.857 183.066 154.046 183.018 154.424C183.066 158.11 183.066 161.844 183.066 165.53Z" fill="white"/>
<path fill-rule="evenodd" clip-rule="evenodd" d="M50.3338 143.695C50.1907 144.546 50.2384 145.444 50 146.295V151.588C50.0954 152.344 50.0477 153.148 50.1429 153.904C50.6197 157.307 51.5732 160.615 53.1944 163.687C55.1967 167.468 58.0096 170.587 61.5378 173.045C64.3507 174.982 67.402 176.401 70.6439 177.346C73.5045 178.196 76.4128 178.764 79.4166 178.905C79.9124 178.934 80.3904 178.91 80.8616 178.919C81.1605 178.925 81.4566 178.945 81.7527 179H86.0913C86.1388 178.905 86.2343 178.905 86.3297 178.905C87.4262 178.858 88.4752 178.716 89.5239 178.527C94.8638 177.629 99.7267 175.597 103.97 172.194C104.637 171.674 105.257 171.391 106.068 171.438C106.545 171.485 106.783 171.58 106.974 172.005C107.096 172.248 107.216 172.493 107.335 172.738C108.054 174.208 108.771 175.678 110.12 176.731C110.406 176.968 110.692 177.11 111.074 177.11C117.081 177.11 123.136 177.062 129.191 177.157C130.669 177.204 131.813 176.92 132.719 175.739L132.745 175.697C132.971 175.34 133.148 175.06 133.148 174.605V125.972C133.148 121.86 133.053 117.748 132.576 113.637C132.099 109.714 131.336 105.886 130.049 102.199C126.902 93.314 120.943 87.2172 111.884 84.1925C106.306 82.3494 100.585 81.7348 94.7683 81.6404C91.1449 81.5931 87.5691 81.7821 83.9934 82.2547C79.4166 82.8691 75.0302 83.9562 70.8348 85.894C65.1136 88.4934 60.3934 92.2744 57.1992 97.7095C55.1015 101.301 53.9096 105.177 53.8141 109.336C53.7664 109.95 55.4828 111.604 56.1025 111.604H77.8908C77.9905 111.604 78.0901 111.63 78.183 111.628C78.2677 111.626 78.3469 111.6 78.4153 111.51C78.6425 111.256 78.8909 111.028 79.1379 110.801C79.7197 110.267 80.2928 109.74 80.5608 108.91C80.6541 108.609 80.7933 108.331 80.9617 108.064C81.1367 107.787 81.3432 107.521 81.562 107.256C83.0876 105.366 85.233 104.704 87.5691 104.373C89.5989 104.103 91.6605 104.117 93.7017 104.131C94.1538 104.134 94.6049 104.137 95.0544 104.137C97.057 104.137 99.0592 104.279 101.062 104.704C103.875 105.318 105.639 106.973 106.211 109.808C106.475 111.021 106.534 112.257 106.592 113.499C106.618 114.048 106.644 114.599 106.688 115.149C106.831 116.661 106.401 117.796 105.209 118.694C104.876 118.93 104.685 119.024 104.256 118.93C100.585 117.89 96.8186 117.323 93.0044 117.229C88.4752 117.087 83.9934 117.37 79.5118 118.079C74.6012 118.835 69.8813 120.112 65.4472 122.38C56.627 126.87 51.6687 134.007 50.3338 143.695ZM81.6573 155.133C84.1363 156.172 86.7585 156.456 89.1423 156.456C93.4333 156.503 97.1999 155.653 100.632 153.479C103.636 151.541 105.734 148.941 106.449 145.349C106.71 144.121 106.681 142.871 106.652 141.614C106.638 141.033 106.625 140.45 106.64 139.867C106.688 139.82 106.64 139.678 106.592 139.631C106.337 139.406 106.103 139.156 105.869 138.906C105.315 138.315 104.76 137.722 103.922 137.457C101.3 136.559 98.5825 136.133 95.8171 135.992C92.1461 135.803 88.5226 135.944 84.9469 136.89C82.706 137.504 80.7037 138.402 79.0828 140.056C77.3186 141.805 76.6035 143.932 76.4605 146.342C76.2697 150.17 77.6047 153.384 81.6573 155.133Z" fill="white"/>
</g>
<defs>
<filter id="filter0_d" x="0" y="0" width="254" height="233" filterUnits="userSpaceOnUse" color-interpolation-filters="sRGB">
<feFlood flood-opacity="0" result="BackgroundImageFix"/>
<feColorMatrix in="SourceAlpha" type="matrix" values="0 0 0 0 0 0 0 0 0 0 0 0 0 0 0 0 0 0 127 0"/>
<feOffset dy="4"/>
<feGaussianBlur stdDeviation="25"/>
<feColorMatrix type="matrix" values="0 0 0 0 0 0 0 0 0 0 0 0 0 0 0 0 0 0 0.25 0"/>
<feBlend mode="normal" in2="BackgroundImageFix" result="effect1_dropShadow"/>
<feBlend mode="normal" in="SourceGraphic" in2="effect1_dropShadow" result="shape"/>
</filter>
</defs>
</svg>
