<svg width="237" height="241" viewBox="0 0 237 241" fill="none" xmlns="http://www.w3.org/2000/svg">
<g filter="url(#filter0_d)">
<path d="M116.802 186.954C93.1405 186.305 73.5076 175.285 59.848 153.939C52.5319 142.456 49.6611 129.722 50.0315 116.201C50.3094 105.181 52.9487 94.7625 58.3662 85.1313C61.376 79.8063 65.0803 74.9907 69.4329 70.6381C70.1274 69.9436 70.359 69.2953 70.3127 68.3229C69.7107 52.7648 84.2965 42.3927 98.4192 47.4398C100.364 48.1344 102.077 49.5235 103.976 50.4959C104.578 50.82 105.365 51.0979 105.967 50.959C114.07 49.4309 122.127 49.3383 130.23 50.9126C131.202 51.0979 131.943 50.7737 132.684 50.2181C138.055 46.3286 143.982 44.9857 150.418 46.7916C158.29 48.9679 163.245 54.2002 165.375 62.0256C165.93 64.0167 165.791 66.2393 166.069 68.3229C166.162 68.9249 166.347 69.6194 166.764 70.0362C178.062 81.288 184.822 94.7162 186.536 110.598C187.971 123.98 186.165 136.899 179.914 148.938C171.765 164.589 159.54 175.887 143.102 182.462C135.277 185.565 126.989 186.768 116.802 186.954ZM118.376 161.44C118.376 161.486 118.376 161.486 118.376 161.533C123.886 161.533 129.396 161.533 134.907 161.533C139.12 161.533 143.334 161.533 147.501 161.44C149.261 161.394 150.233 160.283 150.28 158.523C150.326 157.041 150.326 155.606 150.28 154.124C150.233 151.531 149.168 150.466 146.575 150.466C140.417 150.466 134.212 150.466 128.054 150.466C125.831 150.466 123.562 150.559 121.34 150.374C118.237 150.096 115.922 148.521 114.903 145.512C113.977 142.687 114.857 140.326 117.033 138.334C124.674 131.343 132.221 124.304 139.815 117.313C142.501 114.858 145.14 112.358 147.779 109.904C149.354 108.422 149.446 107.218 147.964 105.644C146.853 104.486 145.695 103.329 144.445 102.31C142.176 100.365 141.482 100.412 139.074 102.125C130.786 108.052 121.571 109.95 111.616 108.098C106.337 107.126 101.568 104.949 97.2616 101.708C96.0577 100.782 94.8074 100.597 93.8351 101.43C92.0755 102.912 90.316 104.44 88.6953 106.107C87.7229 107.079 87.8156 108.144 88.6953 109.209C89.0195 109.58 89.3899 109.95 89.8066 110.228C93.5109 113.053 97.5394 115.321 101.938 116.896C103.513 117.451 105.133 117.822 106.661 118.378C111.894 120.276 113.098 126.295 109.023 130.092C107.541 131.435 106.059 132.778 104.578 134.167C99.4378 138.844 94.3444 143.521 89.1584 148.151C87.3988 149.725 86.4264 151.531 86.6116 153.939C86.7043 155.282 86.658 156.625 86.658 157.967C86.658 160.514 87.6303 161.486 90.1308 161.486C99.6231 161.44 108.976 161.44 118.376 161.44ZM134.768 90.1784C137.222 89.8543 139.537 89.4375 141.667 88.3262C144.353 86.9371 146.159 84.8071 146.344 81.6585C146.529 77.7689 145.14 74.574 141.899 72.2588C138.565 69.851 135.046 69.8973 131.712 72.2588C128.332 74.6666 126.387 78.0005 125.507 81.9826C124.812 85.1776 125.97 87.4465 128.98 88.6504C130.832 89.3912 132.869 89.7153 134.768 90.1784ZM101.753 90.1321C104.716 89.9006 107.31 89.206 109.069 87.9558C110.829 86.6593 111.755 84.9923 111.384 82.7698C110.551 78.0005 108.282 74.1572 104.068 71.6568C102.957 71.0086 101.522 70.4529 100.271 70.4992C96.104 70.6844 93.0479 72.7681 91.2883 76.565C88.9268 81.7511 90.9179 86.7982 96.0577 88.743C97.9098 89.4375 99.8546 89.7154 101.753 90.1321Z" fill="white"/>
</g>
<defs>
<filter id="filter0_d" x="0" y="0" width="237" height="240.954" filterUnits="userSpaceOnUse" color-interpolation-filters="sRGB">
<feFlood flood-opacity="0" result="BackgroundImageFix"/>
<feColorMatrix in="SourceAlpha" type="matrix" values="0 0 0 0 0 0 0 0 0 0 0 0 0 0 0 0 0 0 127 0"/>
<feOffset dy="4"/>
<feGaussianBlur stdDeviation="25"/>
<feColorMatrix type="matrix" values="0 0 0 0 0 0 0 0 0 0 0 0 0 0 0 0 0 0 0.4 0"/>
<feBlend mode="normal" in2="BackgroundImageFix" result="effect1_dropShadow"/>
<feBlend mode="normal" in="SourceGraphic" in2="effect1_dropShadow" result="shape"/>
</filter>
</defs>
</svg>
