<svg width="154" height="174" viewBox="0 0 154 174" fill="none" xmlns="http://www.w3.org/2000/svg">
<path d="M7.29611 135.369L69.5736 171.328C74.264 173.934 79.736 173.934 84.4264 171.328L146.704 135.369C151.394 132.763 154 127.812 154 122.601V50.6819C154 45.4704 151.134 40.5195 146.704 37.9137L84.4264 1.95431C79.736 -0.651438 74.264 -0.651438 69.5736 1.95431L7.29611 37.9137C2.60575 40.5195 0 45.4704 0 50.6819V122.601C0 127.812 2.86633 132.763 7.29611 135.369ZM16.6768 61.3655C16.6768 51.9848 24.2335 44.4281 33.6142 44.4281C37.7834 44.4281 41.4315 45.9915 44.5584 48.3367L60.4535 39.2166C60.1929 38.1743 60.1929 37.3926 60.1929 36.3503C60.1929 26.9695 67.7496 19.4129 77.1303 19.4129C86.511 19.4129 94.0677 26.9695 94.0677 36.3503C94.0677 37.3926 94.0677 38.4349 93.8071 39.2166L109.702 48.3367C112.569 45.9915 116.477 44.4281 120.646 44.4281C130.027 44.4281 137.584 51.9848 137.584 61.3655C137.584 70.7462 130.027 78.3029 120.646 78.3029C111.266 78.3029 103.709 70.7462 103.709 61.3655C103.709 60.3232 103.709 59.2809 103.97 58.4992L87.8139 49.379C84.9475 51.7242 81.0389 53.2877 76.8697 53.2877C72.7005 53.2877 69.0525 51.7242 65.9255 49.379L50.0305 58.4992C50.291 59.5415 50.291 60.3232 50.291 61.3655C50.291 68.6616 45.6007 74.9154 39.0863 77.2606V95.7614C45.6007 98.1066 50.291 104.36 50.291 111.657C50.291 112.699 50.291 113.741 50.0305 114.523L65.9255 123.643C68.7919 121.298 72.7005 119.734 76.8697 119.734C81.0389 119.734 84.687 121.298 87.8139 123.643L103.709 114.523C103.448 113.481 103.448 112.699 103.448 111.657C103.448 102.276 111.005 94.7191 120.386 94.7191C129.766 94.7191 137.323 102.276 137.323 111.657C137.323 121.037 129.766 128.594 120.386 128.594C116.217 128.594 112.569 127.03 109.442 124.685L93.8071 134.066C94.0677 135.108 94.0677 135.89 94.0677 136.932C94.0677 146.313 86.511 153.87 77.1303 153.87C67.7496 153.87 60.1929 146.313 60.1929 136.932C60.1929 135.89 60.1929 134.848 60.4535 134.066L44.2978 124.685C41.4315 127.03 37.5228 128.594 33.3536 128.594C23.9729 128.594 16.4162 121.037 16.4162 111.657C16.4162 104.36 21.1066 98.1066 27.621 95.7614V77.2606C21.1066 74.9154 16.6768 68.6616 16.6768 61.3655Z" fill="white"/>
<path d="M26.3184 111.655C26.3184 115.564 29.4453 118.952 33.6145 118.952C33.875 118.952 34.1356 118.952 34.3962 118.952C38.0442 118.43 40.9106 115.564 40.9106 111.655C40.9106 110.613 40.65 109.571 40.3894 108.789C40.1288 108.268 39.8683 107.747 39.6077 107.226C38.3048 105.402 36.2202 104.359 33.875 104.359C31.5299 104.359 29.4453 105.402 28.1424 107.226C26.8395 108.529 26.3184 110.092 26.3184 111.655Z" fill="white"/>
<path d="M77.1327 144.228C77.3933 144.228 77.6539 144.228 77.9145 144.228C81.5625 143.707 84.4288 140.84 84.4288 136.932C84.4288 135.89 84.1683 134.847 83.9077 134.066C83.6471 133.544 83.3865 133.023 83.126 132.502C81.8231 130.678 79.7385 129.636 77.3933 129.636C75.0481 129.636 72.9635 130.678 71.6607 132.502C70.8789 133.805 70.0972 135.108 70.0972 136.932C69.8366 140.84 72.9635 144.228 77.1327 144.228Z" fill="white"/>
<path d="M120.641 118.952C120.901 118.952 121.162 118.952 121.422 118.952C125.07 118.43 127.937 115.564 127.937 111.655C127.937 110.613 127.676 109.571 127.416 108.789C127.155 108.268 126.894 107.747 126.634 107.226C125.331 105.402 123.246 104.359 120.901 104.359C118.556 104.359 116.471 105.402 115.168 107.226C114.387 108.529 113.605 109.831 113.605 111.655C113.344 115.825 116.471 118.952 120.641 118.952Z" fill="white"/>
<path d="M120.641 68.6618C120.901 68.6618 121.162 68.6618 121.422 68.6618C125.07 68.1406 127.937 65.2743 127.937 61.3657C127.937 60.3234 127.676 59.2811 127.416 58.4994C127.155 57.9782 126.894 57.4571 126.634 56.9359C125.331 55.1119 123.246 54.0696 120.901 54.0696C118.556 54.0696 116.471 55.1119 115.168 56.9359C114.387 58.2388 113.605 59.5417 113.605 61.3657C113.344 65.5349 116.471 68.6618 120.641 68.6618Z" fill="white"/>
<path d="M77.1327 43.6464C77.3933 43.6464 77.6539 43.6464 77.9145 43.6464C81.5625 43.1253 84.4288 40.2589 84.4288 36.3503C84.4288 35.308 84.1683 34.2657 83.9077 33.484C83.6471 32.9628 83.3865 32.4417 83.126 31.9205C81.8231 30.0965 79.7385 29.0542 77.3933 29.0542C75.0481 29.0542 72.9635 30.0965 71.6607 31.9205C70.8789 33.2234 70.0972 34.5263 70.0972 36.3503C69.8366 40.2589 72.9635 43.6464 77.1327 43.6464Z" fill="white"/>
<path d="M33.6132 68.6618C33.8738 68.6618 34.1344 68.6618 34.3949 68.6618C38.043 68.1406 40.9093 65.2743 40.9093 61.3657C40.9093 60.3234 40.6487 59.2811 40.3882 58.4994C40.1276 57.9782 39.867 57.4571 39.6064 56.9359C38.3036 55.1119 36.219 54.0696 33.8738 54.0696C31.5286 54.0696 29.444 55.1119 28.1411 56.9359C27.3594 58.2388 26.5777 59.5417 26.5777 61.3657C26.3171 65.5349 29.444 68.6618 33.6132 68.6618Z" fill="white"/>
</svg>
