<svg width="137" height="154" viewBox="0 0 137 154" fill="none" xmlns="http://www.w3.org/2000/svg">
<path d="M130.496 33.6713L75.0998 1.73603C73.0846 0.598054 70.8088 0 68.4935 0C66.1783 0 63.9025 0.598054 61.8872 1.73603L6.4906 33.6713C4.49099 34.8078 2.83384 36.4597 1.69233 38.4543C0.550814 40.4489 -0.0331545 42.713 0.00145352 45.0099V108.88C0.0125118 111.196 0.640867 113.467 1.82195 115.459C3.00303 117.452 4.69425 119.095 6.7218 120.219L62.1184 152.154C64.1337 153.292 66.4095 153.89 68.7247 153.89C71.04 153.89 73.3158 153.292 75.331 152.154L130.496 120.219C132.496 119.083 134.153 117.431 135.295 115.436C136.436 113.442 137.02 111.177 136.986 108.88V45.0099C137.098 42.6991 136.547 40.4042 135.398 38.3954C134.248 36.3867 132.548 34.7476 130.496 33.6713ZM69.0731 17.9345C72.007 17.9345 74.875 18.8031 77.3145 20.4305C79.7539 22.0579 81.6552 24.371 82.778 27.0772C83.9007 29.7834 84.1945 32.7613 83.6221 35.6342C83.0498 38.5072 81.6369 41.1461 79.5624 43.2174C77.4878 45.2887 74.8446 46.6992 71.9671 47.2707C69.0895 47.8422 66.1069 47.5489 63.3963 46.4279C60.6857 45.3069 58.369 43.4086 56.739 40.9731C55.109 38.5375 54.239 35.6741 54.239 32.7449C54.1939 30.7876 54.5467 28.8416 55.2762 27.0243C56.0058 25.2071 57.0968 23.5564 58.4833 22.1721C59.8699 20.7877 61.5232 19.6985 63.3434 18.9701C65.1635 18.2418 67.1127 17.8895 69.0731 17.9345ZM108.477 107.954C108.49 109.472 108.086 110.965 107.31 112.271C106.533 113.576 105.413 114.645 104.071 115.359L72.5504 132.022C71.3077 132.706 69.9122 133.064 68.4935 133.064C67.0749 133.064 65.6793 132.706 64.4367 132.022L32.9157 114.433C31.5739 113.718 30.4539 112.65 29.6773 111.344C28.9006 110.039 28.4971 108.546 28.5105 107.028V96.6154C28.5241 95.1026 28.9389 93.6204 29.7127 92.3196C30.4865 91.0188 31.5917 89.946 32.9157 89.2103L64.4305 71.6237C65.6731 70.9404 67.0687 70.5821 68.4874 70.5821C69.906 70.5821 71.3016 70.9404 72.5442 71.6237L104.296 88.9794C105.638 89.6941 106.758 90.7622 107.535 92.0677C108.311 93.3733 108.715 94.8663 108.702 96.3846V107.954H108.477Z" fill="white"/>
<circle cx="68.9694" cy="32.9987" r="9.22717" fill="white"/>
</svg>
