<svg width="123" height="124" viewBox="0 0 123 124" fill="none" xmlns="http://www.w3.org/2000/svg">
<path d="M0.667835 122.882H16.8072C26.0456 122.882 33.5031 115.424 33.6144 106.075V89.3787H16.8072C7.45749 89.49 0 96.9475 0 106.186V122.993L0.667835 122.882Z" fill="white"/>
<path d="M122.88 79.8062C116.313 86.0393 107.631 89.4898 98.6153 89.4898H89.2656V98.8395C89.2656 107.855 85.8152 116.537 79.582 123.104H83.589C105.182 123.104 122.657 105.629 122.657 84.0358V79.8062" fill="white"/>
<path d="M43.1867 0H39.1797C17.475 0 0 17.475 0 39.0683V43.0754C6.56704 36.8422 15.2489 33.3918 24.2647 33.3918H33.6144V24.0421C33.5031 15.2489 36.9535 6.56704 43.1867 0Z" fill="white"/>
<path d="M78.25 89.3787H44.7469V106.186C44.7469 112.196 42.7434 118.096 39.0703 122.993H53.9853C67.342 122.993 78.25 112.196 78.25 98.7283V89.3787Z" fill="white"/>
<path d="M33.5031 44.7451H24.1534C10.7967 44.7451 0 55.5418 0 68.8985V83.8135C4.78615 80.1404 10.6854 78.2482 16.8072 78.2482H33.6144V44.7451" fill="white"/>
<path d="M83.8164 0H68.7901C55.4334 0 44.6367 10.7967 44.6367 24.2647V33.6144H78.1398V16.9185C78.1398 10.6854 80.1433 4.78615 83.8164 0Z" fill="white"/>
<path d="M122.888 39.0688C118.102 42.7419 112.202 44.7454 106.081 44.6341H89.3848V78.2485H98.7344C112.091 78.2485 122.888 67.4518 122.999 54.0951L122.888 39.0688Z" fill="white"/>
<path d="M78.2511 44.7451H61.4439C52.2055 44.7451 44.748 52.2026 44.6367 61.5523V78.3595H61.4439C70.6823 78.3595 78.1398 70.902 78.2511 61.5523V44.7451Z" fill="white"/>
<path d="M122.888 0H106.192C96.9536 0 89.3848 7.45749 89.3848 16.8072V33.6144H106.192C115.43 33.6144 122.999 26.1569 122.999 16.8072L122.888 0Z" fill="white"/>
</svg>
