<svg width="149" height="149" viewBox="0 0 149 149" fill="none" xmlns="http://www.w3.org/2000/svg">
<path opacity="0.9" fill-rule="evenodd" clip-rule="evenodd" d="M149 74.4893C149 115.629 115.645 148.979 74.5002 148.979C33.3548 148.979 0 115.629 0 74.4893C0 33.3501 33.3548 0 74.5002 0C115.645 0 149 33.3501 149 74.4893ZM141.819 74.4893C141.819 111.664 111.679 141.799 74.5002 141.799C37.3206 141.799 7.18073 111.664 7.18073 74.4893C7.18073 37.3153 37.3206 7.17972 74.5002 7.17972C111.679 7.17972 141.819 37.3153 141.819 74.4893ZM105.455 76.1235C105.455 76.5072 105.348 77.459 104.358 78.0325L62.3937 102.372C61.4044 102.946 60.5318 102.562 60.2016 102.372C59.8718 102.18 59.1048 101.61 59.1048 100.463V51.7866C59.1048 50.6368 59.8718 50.0692 60.2016 49.8775C60.4019 49.7614 60.803 49.5743 61.3093 49.5743C61.6363 49.5743 62.0054 49.6521 62.3937 49.8775L104.358 74.2163C105.348 74.7898 105.455 75.7416 105.455 76.1235ZM114.293 76.1235C114.293 72.1183 112.232 68.5303 108.777 66.5261L66.8128 42.1871C63.3592 40.1845 59.2352 40.1845 55.7816 42.1871C52.3266 44.1914 50.2648 47.7796 50.2648 51.7866V100.463C50.2648 104.469 52.3266 108.058 55.7816 110.062C57.5081 111.062 59.4021 111.563 61.2979 111.563C63.1918 111.563 65.0858 111.062 66.8128 110.062L108.777 85.7227C112.232 83.7185 114.293 80.1304 114.293 76.1235Z" fill="white"/>
</svg>
