<svg width="172" height="93" viewBox="0 0 172 93" fill="none" xmlns="http://www.w3.org/2000/svg">
<path d="M34.1188 2.52712C23.8121 4.81751 26.7705 18.1781 29.538 24.5721L51.869 9.11198C50.2467 5.9627 44.4255 0.236735 34.1188 2.52712Z" fill="#8BA5D4" stroke="white" stroke-width="3"/>
<path d="M135.126 2.52712C145.433 4.81751 142.475 18.1781 139.707 24.5721L117.376 9.11198C118.998 5.9627 124.82 0.236735 135.126 2.52712Z" fill="#8BA5D4" stroke="white" stroke-width="3"/>
<path d="M50.0989 9.4437C20.298 18.3841 16.3158 61.55 15.7432 62.4089L154.311 58.9732C153.166 58.9732 153.166 31.2026 131.98 14.5973C115.031 1.31303 92.6619 10.0164 83.5958 16.0286C81.5917 11.1614 67.2768 4.29027 50.0989 9.4437Z" fill="#523795" stroke="white" stroke-width="3"/>
<circle cx="55.5383" cy="42.0819" r="20.6135" fill="white"/>
<circle cx="55.2509" cy="43.5122" r="11.7382" fill="#272727"/>
<circle cx="113.37" cy="42.0819" r="20.6135" fill="white"/>
<circle cx="113.085" cy="43.5122" r="11.7382" fill="#272727"/>
<path d="M56.1104 48.9553C18.548 46.4359 4.86298 75.8672 2 91.3273H169.484C170.725 89.6096 173.206 55.2527 129.403 50.958C94.7802 47.5635 84.4539 55.254 84.4539 55.254C84.4539 55.254 80.4457 50.5875 56.1104 48.9553Z" fill="#8BA5D4" stroke="white" stroke-width="3"/>
<ellipse cx="55.5363" cy="77.0103" rx="13.7423" ry="8.58895" fill="white"/>
<ellipse cx="55.8261" cy="77.0093" rx="8.30265" ry="5.15337" fill="#272727"/>
<ellipse cx="115.088" cy="77.0103" rx="13.7423" ry="8.58895" fill="white"/>
<ellipse cx="115.375" cy="77.0093" rx="8.30265" ry="5.15337" fill="#272727"/>
</svg>
