<svg width="276" height="258" viewBox="0 0 276 258" fill="none" xmlns="http://www.w3.org/2000/svg">
<g filter="url(#filter0_d)">
<path d="M161.149 188.444C157.021 181.736 152.933 175.028 148.805 168.359C139.676 153.633 130.546 138.947 121.417 124.221C120.742 123.149 120.068 122.117 119.393 121.085C118.242 120.133 117.527 118.863 116.694 117.632C116.535 117.434 116.456 117.156 116.178 117.037C115.979 117.553 116.059 118.069 116.059 118.585C116.297 126.841 115.622 135.097 115.582 143.353C115.543 151.133 115.424 158.952 115.106 166.732C114.868 172.527 115.146 178.362 114.749 184.157C114.511 187.967 114.511 191.817 114.392 195.628C114.352 197.613 113.756 198.129 111.137 198.525C103.992 199.597 96.8872 200.828 89.7822 201.86C85.1382 202.534 80.4942 203.09 75.8502 203.765C74.7388 203.924 73.6274 204.241 72.5557 203.685C69.0628 201.145 66.1652 197.97 63.3074 194.755C58.4252 189.356 54.2178 183.442 50.6058 177.092C49.8516 175.742 49.4547 175.186 51.5584 174.908C61.2434 173.757 70.9283 172.328 80.6133 171.058C81.7643 170.899 82.201 170.503 82.201 169.312C82.3994 158.555 82.717 147.759 82.9551 137.002C83.233 123.785 83.5108 110.567 83.8284 97.3494C84.0665 86.8309 84.384 76.3521 84.5428 65.8336C84.5825 64.1665 85.0191 63.6505 86.7259 63.4123C96.5299 62.0231 106.294 60.5148 116.059 58.8874C117.607 58.6493 118.321 59.0462 119.075 60.2766C128.125 74.9628 137.175 89.6491 146.225 104.335C151.345 112.671 156.466 121.006 161.586 129.341C161.626 129.421 161.784 129.461 161.903 129.54C162.419 129.064 162.181 128.429 162.181 127.873C162.38 118.109 162.538 108.305 162.777 98.5402C163.015 87.1881 163.253 75.7964 163.61 64.4443C163.729 60.6736 163.848 56.9028 163.848 53.132C163.848 51.8222 164.404 51.4252 165.515 51.2665C176.669 49.5597 187.823 47.8132 198.936 46.0668C200.127 45.8683 201.08 46.1064 202.032 46.8606C211.479 54.3625 219.457 63.1742 225.808 73.4942C225.292 74.8041 224.022 74.7247 222.95 74.8835C216.004 75.9552 209.098 76.9872 202.152 78.0192C200.723 78.2176 199.294 78.4955 197.825 78.7336C196.634 78.9321 196.118 79.6069 196.118 80.7579C196.118 80.877 196.118 81.0358 196.118 81.1549C196.317 87.5057 195.563 93.8168 195.682 100.168C195.84 109.217 195.404 118.267 195.205 127.317C195.086 133.589 195.324 139.9 194.888 146.131C194.411 152.879 194.888 159.627 194.451 166.335C194.213 170.106 194.213 173.837 194.134 177.608C194.134 179.275 194.134 180.902 194.134 182.569C194.094 185.268 193.816 185.665 191.196 186.102C184.687 187.173 178.177 188.205 171.628 189.118C168.77 189.515 165.912 190.269 163.015 190.349C161.745 190.428 161.705 189.198 161.149 188.444Z" fill="white"/>
</g>
<defs>
<filter id="filter0_d" x="0" y="0" width="275.808" height="258" filterUnits="userSpaceOnUse" color-interpolation-filters="sRGB">
<feFlood flood-opacity="0" result="BackgroundImageFix"/>
<feColorMatrix in="SourceAlpha" type="matrix" values="0 0 0 0 0 0 0 0 0 0 0 0 0 0 0 0 0 0 127 0"/>
<feOffset dy="4"/>
<feGaussianBlur stdDeviation="25"/>
<feColorMatrix type="matrix" values="0 0 0 0 0 0 0 0 0 0 0 0 0 0 0 0 0 0 0.25 0"/>
<feBlend mode="normal" in2="BackgroundImageFix" result="effect1_dropShadow"/>
<feBlend mode="normal" in="SourceGraphic" in2="effect1_dropShadow" result="shape"/>
</filter>
</defs>
</svg>
