<svg width="306" height="270" viewBox="0 0 306 270" fill="none" xmlns="http://www.w3.org/2000/svg">
<g filter="url(#filter0_d)">
<path d="M184.468 116.328C186.15 118.262 186.18 118.463 184.92 120.372C182.732 123.737 179.445 125.621 175.778 126.826C172.202 128.041 168.408 128.477 164.651 128.107C158.974 127.504 155.408 123.687 155.156 117.985C155.132 117.583 155.156 117.156 155.156 116.528C154.269 117.046 153.346 117.5 152.394 117.885C150.008 118.638 147.571 119.216 145.211 119.945C144.944 120.035 144.699 120.18 144.491 120.37C144.283 120.56 144.118 120.792 144.005 121.05C142.5 126.014 140.146 130.68 137.047 134.84C135.037 137.653 132.702 140.189 129.439 141.571C126.826 142.676 124.113 142.852 121.627 141.269C119.44 139.888 118.638 137.402 119.617 134.337C120.569 131.273 121.878 128.335 123.058 125.345C124.163 122.532 125.341 119.719 126.6 116.58C125.705 117.092 124.773 117.537 123.812 117.911C121.476 118.64 119.064 119.192 116.728 119.921C116.46 120.014 116.213 120.16 116.002 120.35C115.791 120.54 115.619 120.769 115.498 121.026C113.793 127.038 110.735 132.579 106.558 137.227C104.915 138.939 103.017 140.388 100.932 141.521C99.8856 142.074 98.7291 142.386 97.5469 142.434C96.3648 142.482 95.1869 142.265 94.0995 141.798C92.8473 141.31 91.8283 140.362 91.2497 139.149C90.6711 137.936 90.5764 136.548 90.9849 135.268C91.8194 132.383 92.8174 129.549 93.974 126.778C96.5104 120.373 99.1228 113.993 101.76 107.638C103.744 102.866 105.603 98.0186 107.888 93.3966C110.501 88.1726 114.444 84.0528 120.121 82.1697C122.341 81.4541 124.67 81.1322 127.002 81.2187C130.845 81.3442 132.855 83.5801 133.184 87.4479C133.586 92.3704 129.919 99.002 125.473 101.212C124.957 101.483 124.408 101.685 123.84 101.815C121.558 102.242 119.871 100.836 119.751 98.4247C119.5 93.351 123.895 88.7546 129.346 88.5036C129.447 87.9763 129.408 87.4316 129.232 86.9244C129.055 86.4173 128.748 85.9657 128.341 85.6153C127.811 85.2287 127.18 85.004 126.525 84.9683C125.87 84.9327 125.218 85.0877 124.649 85.4146C122.443 86.3873 120.622 88.0661 119.475 90.1869C117.641 93.4518 116.084 96.8679 114.529 100.284C113.424 102.67 112.495 105.134 111.516 107.568C111.34 107.995 111.214 108.424 111.04 108.974C114.707 109.502 116.039 111.964 116.366 115.304C118.472 115.356 120.565 114.944 122.494 114.098C127.191 112.314 130.029 108.923 131.687 104.201C133.123 100.154 134.869 96.2243 136.911 92.4465C139.369 87.6564 143.551 83.9764 148.615 82.1488C151.024 81.2704 153.604 80.9694 156.15 81.27C157.562 81.4079 158.88 82.0364 159.876 83.046C160.872 84.0556 161.482 85.3824 161.601 86.7955C162.052 90.8146 160.52 94.2554 158.26 97.4204C157.095 99.1681 155.469 100.559 153.563 101.439C150.519 102.771 148.142 101.188 148.213 97.8731C148.303 95.4771 149.277 93.1993 150.946 91.4784C152.616 89.7576 154.863 88.7155 157.255 88.553C157.408 88.5423 157.559 88.5171 157.707 88.4779C157.983 85.6143 155.798 84.1831 153.111 85.4137C150.705 86.5455 148.743 88.4451 147.535 90.8136C145.626 94.4275 144.016 98.1727 142.336 101.915C141.431 103.924 140.624 106.004 139.799 108.043C139.698 108.294 139.649 108.571 139.548 108.922C141.231 109.349 142.813 109.851 143.617 111.434C144.067 112.414 144.404 113.442 144.621 114.498C144.772 115.176 145.048 115.427 145.726 115.354C149.695 114.902 153.387 113.642 156.2 110.758C157.355 109.577 157.882 107.819 158.711 106.312C161.575 101.238 165.443 97.2188 171.094 95.3852C173.046 94.7711 175.076 94.4412 177.121 94.4057C182.12 94.3305 185.134 98.1232 184.205 103.071C183.611 106.306 181.905 109.232 179.382 111.342C176.86 113.451 173.679 114.613 170.39 114.625C169.008 114.625 167.627 114.701 166.245 114.601C165.215 114.526 164.839 114.927 164.689 115.906C164.086 119.901 166.547 122.914 170.691 123.19C174.11 123.347 177.473 122.288 180.186 120.201C181.471 119.151 182.687 118.018 183.827 116.811C184.016 116.629 184.267 116.483 184.468 116.328ZM141.016 116.478C140.94 116.453 140.89 116.403 140.815 116.377C140.689 115.825 140.539 115.247 140.413 114.694C140.313 114.215 140.046 113.788 139.659 113.489C139.272 113.189 138.792 113.038 138.303 113.061C137.852 113.086 137.352 114.041 137.073 114.668C135.164 119.189 133.33 123.735 131.472 128.307C130.744 130.114 130.015 131.921 129.387 133.782C129.328 134.01 129.322 134.249 129.37 134.48C129.418 134.711 129.519 134.928 129.664 135.113C129.915 135.314 130.615 135.164 130.97 134.937C131.626 134.494 132.225 133.971 132.753 133.381C135.566 130.367 137.325 126.723 138.907 123.008C139.738 120.876 140.442 118.697 141.016 116.483V116.478ZM112.357 116.528C112.297 115.752 112.093 114.994 111.754 114.293C111.202 113.71 110.51 113.278 109.745 113.036C109.619 112.986 109.041 113.815 108.84 114.317C106.529 119.818 104.269 125.319 101.984 130.844C101.575 131.711 101.239 132.61 100.979 133.532C100.948 134.084 101.016 134.637 101.18 135.165C101.72 135.113 102.251 134.995 102.762 134.813C103.228 134.541 103.644 134.193 103.993 133.783C106.705 131.045 108.413 127.629 109.996 124.188C111.247 121.801 112.047 119.205 112.357 116.528ZM166.108 111.129C168.895 111.531 171.232 111.48 172.889 109.27C174.717 106.876 176.034 104.131 176.757 101.207C176.983 100.228 177.461 98.9725 176.255 98.3943C175.125 97.8417 174.068 98.6453 173.442 99.4994C171.584 101.961 169.828 104.498 168.142 107.06C167.364 108.265 166.861 109.646 166.108 111.129Z" fill="white"/>
<path d="M83.6184 46C82.9146 48.2102 82.2365 50.1693 81.7097 52.1541C80.6293 56.1979 81.509 60.0657 82.7396 63.9592C84.2965 68.9046 87.6374 72.5489 91.0278 76.1913C94.4183 79.8338 97.433 83.752 98.5124 88.7249C99.4336 92.7797 99.3991 96.9931 98.4116 101.032C97.0406 106.731 94.7317 112.163 91.5794 117.105C88.6408 121.574 84.8481 125.188 79.8247 127.101C73.7971 129.361 67.819 129.261 62.1176 125.795C55.9635 122.053 52.4722 116.527 50.7147 109.695C49.2834 104.194 50.1869 98.8448 51.7951 93.6227C52.9506 89.9308 54.709 86.4396 56.2155 82.8761C56.4138 82.5339 56.659 82.2212 56.944 81.9469C57.0695 81.9974 57.195 82.0478 57.3462 82.0972C57.2915 82.5733 57.2998 83.0546 57.371 83.5285C57.6676 85.1595 58.096 86.7638 58.652 88.3255C58.7867 88.7643 59.0275 89.1631 59.3532 89.4866C59.6789 89.8101 60.0793 90.0482 60.5191 90.1799C60.9588 90.3116 61.4242 90.3328 61.8741 90.2415C62.3239 90.1503 62.7444 89.9495 63.0981 89.6569C65.5593 87.9993 66.8156 85.7634 66.3629 82.7249C66.1119 81.1177 65.8351 79.5095 65.6345 77.8747C64.73 69.9374 67.468 63.0805 72.0891 56.8522C75.1603 52.8179 78.7977 49.248 82.889 46.253C83.127 46.1546 83.3706 46.0702 83.6184 46ZM90.5504 92.1648C90.4496 91.1605 90.4249 90.1553 90.2737 89.1757C90.2509 88.7959 90.1508 88.4248 89.9797 88.085C89.8086 87.7451 89.57 87.4438 89.2785 87.1993C88.987 86.9548 88.6487 86.7723 88.2843 86.6629C87.9199 86.5535 87.537 86.5196 87.1591 86.5632C85.7533 86.6871 84.3951 87.134 83.1904 87.869C79.9256 90.0041 77.8647 93.2442 75.9816 96.5595C73.4691 101.141 71.5369 106.018 70.2298 111.077C69.4835 113.852 68.9118 116.67 68.518 119.516C68.2916 121.228 68.3668 123.159 70.2003 124.188C72.1347 125.293 74.0178 124.54 75.8019 123.66C75.9083 123.593 76.0091 123.517 76.1034 123.434C78.53 121.713 80.5528 119.484 82.0311 116.903C84.6948 112.457 86.7557 107.676 88.1596 102.687C89.1971 99.2233 90.3783 95.8339 90.5542 92.1648H90.5504Z" fill="white"/>
<path d="M182.46 153.074C182.058 153.149 181.757 153.225 181.43 153.274C177.512 154.13 175.377 152.044 176.407 148.201C176.96 145.498 178.534 143.113 180.803 141.543C181.672 140.974 182.645 140.581 183.666 140.388C187.208 139.76 189.192 141.995 188.187 145.462C187.736 146.994 187.007 148.475 186.354 150.133H193.336C192.709 151.766 192.256 153.122 191.703 154.454C189.467 159.803 187.182 165.154 184.997 170.526C184.861 170.856 184.8 171.211 184.817 171.567C184.834 171.923 184.93 172.271 185.097 172.586C185.389 172.833 185.731 173.013 186.101 173.113C186.47 173.213 186.856 173.23 187.232 173.163C188.436 172.948 189.569 172.442 190.532 171.689C191.495 170.936 192.259 169.959 192.758 168.843C194.867 164.02 196.826 159.148 198.811 154.275C199.615 152.316 198.886 151.211 196.802 150.959L195.946 150.884C196.096 149.502 198.332 146.689 199.56 146.665C201.586 146.572 203.617 146.707 205.613 147.067C206.497 147.233 207.284 147.732 207.812 148.461C208.34 149.19 208.569 150.093 208.451 150.985C208.251 153.138 207.778 155.256 207.044 157.289C205.362 161.785 203.402 166.181 201.644 170.627C201.521 170.94 201.462 171.275 201.471 171.611C201.479 171.948 201.556 172.279 201.695 172.586C202.247 173.465 203.277 173.415 204.206 173.138C205.519 172.753 206.726 172.073 207.736 171.15C208.746 170.227 209.532 169.085 210.033 167.813C212.595 161.709 215.082 155.556 217.619 149.427C218.196 148.021 218.799 146.589 219.478 144.957H214.685C215.541 143.375 216.217 142.069 216.967 140.813C217.119 140.587 217.621 140.511 217.973 140.461C218.473 140.398 218.979 140.398 219.48 140.461C220.811 140.637 221.715 140.311 222.016 138.803C222.092 138.555 222.228 138.328 222.412 138.144C222.596 137.96 222.822 137.824 223.071 137.749C225.985 137.146 228.898 136.618 231.812 136.091C232.013 136.066 232.213 136.091 232.668 136.091C232.09 137.548 231.587 138.879 230.985 140.412H238.571C237.666 142.045 236.964 143.375 236.16 144.682C236.034 144.908 235.482 144.933 235.13 144.933C233.548 144.957 231.94 144.983 230.358 144.933C230.013 144.872 229.658 144.942 229.362 145.127C229.065 145.312 228.847 145.601 228.751 145.937C226.54 151.387 224.281 156.813 222.045 162.263C220.889 165.077 219.835 167.94 218.578 170.728C217.825 172.36 219.256 173.365 220.562 173.214C223.551 172.888 226.666 169.347 227.093 167.06C228.194 160.913 231.367 155.328 236.085 151.236C237.92 149.543 240.086 148.247 242.446 147.43C244.806 146.613 247.309 146.292 249.799 146.489C251.323 146.559 252.773 147.165 253.895 148.199C255.016 149.233 255.737 150.63 255.931 152.143C256.26 155.175 255.405 158.217 253.545 160.633C252.202 162.623 250.362 164.227 248.207 165.285C246.052 166.343 243.658 166.817 241.262 166.662C240.056 166.611 238.826 166.687 237.62 166.637C236.816 166.612 236.515 166.939 236.389 167.692C235.533 172.213 238.725 175.629 243.623 175.252C245.842 175.081 248.004 174.466 249.98 173.443C251.957 172.421 253.708 171.011 255.13 169.299C255.347 169.031 255.649 168.845 255.986 168.771C255.999 169.411 255.949 170.05 255.836 170.68C254.529 175 251.541 177.612 247.346 178.994C243.573 180.177 239.586 180.52 235.666 179.999C233.968 179.843 232.343 179.236 230.957 178.243C229.57 177.25 228.474 175.906 227.78 174.348L227.328 173.369C225.796 174.75 224.44 176.206 222.858 177.388C220.332 179.366 217.169 180.349 213.967 180.15C210.903 179.95 209.219 178.693 208.29 175.73C206.959 176.634 205.678 177.588 204.296 178.393C201.817 179.934 198.86 180.515 195.982 180.026C194.864 179.913 193.815 179.437 192.993 178.67C192.172 177.903 191.625 176.889 191.436 175.781C190.054 176.71 188.824 177.64 187.518 178.394C185.461 179.632 183.084 180.235 180.686 180.127C176.189 179.951 173.829 177.188 174.884 172.818C175.69 169.97 176.697 167.184 177.898 164.479C179.355 160.837 180.912 157.246 182.419 153.603C182.485 153.501 182.46 153.325 182.46 153.074ZM237.868 163.02C240.732 163.876 243.268 163.171 244.8 161.112C246.663 158.636 247.958 155.78 248.593 152.747C248.594 151.955 248.441 151.17 248.141 150.436C247.334 150.575 246.537 150.768 245.755 151.014C245.343 151.216 244.995 151.529 244.751 151.918C243.369 153.827 241.913 155.736 240.661 157.745C239.601 159.403 238.797 161.212 237.868 163.019V163.02Z" fill="white"/>
<path d="M154.328 140.013C147.421 141.419 141.845 145.362 136.093 149.357C136.093 149.005 136.018 148.804 136.093 148.703C138.098 145.981 140.244 143.365 142.523 140.867C145.765 137.63 150.125 135.761 154.705 135.643C158.576 135.375 162.46 135.358 166.334 135.592C171.256 135.995 174.472 139.837 174.095 144.233C173.893 146.972 172.686 149.539 170.705 151.441C168.841 153.364 166.635 154.923 164.2 156.038C163.981 156.166 163.771 156.308 163.572 156.465C169.299 158.747 169.951 164.226 168.344 168.571C166.36 173.971 162.923 177.94 157.393 179.799C153.919 180.978 150.202 181.255 146.592 180.603C142.59 179.964 138.536 179.711 134.486 179.849H133.025C133.426 178.744 133.753 177.866 134.105 177.012C138.476 166.36 142.863 155.71 147.267 145.063C147.47 144.581 147.81 144.171 148.246 143.883C149.929 142.777 151.662 141.773 153.345 140.718C153.696 140.49 154.023 140.239 154.328 140.013ZM144.057 176.282C146.191 177.066 148.535 177.057 150.663 176.257C152.667 175.455 154.486 174.253 156.011 172.724C157.535 171.196 158.732 169.373 159.529 167.366C160.447 165.521 160.88 163.473 160.785 161.414C160.752 160.971 160.62 160.541 160.398 160.156C160.176 159.772 159.871 159.442 159.504 159.191C159.138 158.94 158.719 158.775 158.28 158.707C157.841 158.64 157.393 158.672 156.968 158.801C155.357 159.231 153.688 159.409 152.023 159.329C151.724 159.276 151.417 159.337 151.161 159.5C150.905 159.662 150.719 159.915 150.641 160.208C149.785 162.343 148.908 164.452 148.054 166.563C146.739 169.727 145.433 172.891 144.051 176.282H144.057ZM153.023 154.355C156.464 155.26 158.75 154.707 161.107 152.371C162.842 150.668 164.113 148.55 164.799 146.217C165.167 144.773 165.235 143.269 164.999 141.797C164.827 140.816 164.292 139.937 163.501 139.332C162.71 138.727 161.721 138.442 160.729 138.532C160.333 138.509 159.941 138.624 159.62 138.857C159.3 139.091 159.07 139.429 158.971 139.813C158.042 142.124 157.087 144.434 156.133 146.745C155.077 149.282 154.047 151.818 153.018 154.354L153.023 154.355Z" fill="white"/>
<path d="M205.536 116.277C207.143 117.834 207.269 118.437 206.315 120.07C205.126 122.239 203.441 124.098 201.399 125.494C199.357 126.891 197.014 127.786 194.56 128.107C193.237 128.237 191.901 128.126 190.617 127.78C189.571 127.53 188.64 126.931 187.978 126.082C187.317 125.234 186.963 124.185 186.975 123.109C186.749 119.994 188.155 117.332 189.257 114.619C191.091 110.149 192.949 105.702 194.908 101.006C194.305 101.132 193.904 101.207 193.502 101.308C190.086 102.136 188.051 100.303 188.579 96.8378C189.207 92.7693 192.146 89.2296 195.511 88.4231C195.915 88.3277 196.327 88.2688 196.742 88.2472C199.48 88.1464 201.087 89.8297 200.559 92.5173C200.063 94.4281 199.45 96.307 198.726 98.1436H205.478C205.492 98.4055 205.467 98.6681 205.403 98.9225C202.816 105.077 200.228 111.254 197.667 117.409C197.454 117.863 197.278 118.333 197.139 118.815C196.712 120.548 197.466 121.377 199.25 121.126C201.761 120.8 203.445 119.217 204.851 117.258C205.084 116.98 205.285 116.654 205.536 116.277Z" fill="white"/>
<path d="M204.585 138.356C204.576 137.311 204.875 136.286 205.446 135.411C206.017 134.536 206.835 133.849 207.795 133.437C208.756 133.024 209.816 132.905 210.844 133.095C211.872 133.284 212.821 133.773 213.572 134.5C214.323 135.227 214.842 136.16 215.064 137.181C215.286 138.202 215.201 139.267 214.82 140.24C214.439 141.213 213.779 142.052 212.922 142.651C212.065 143.25 211.051 143.582 210.006 143.606C209.304 143.622 208.606 143.498 207.953 143.241C207.299 142.985 206.703 142.602 206.199 142.114C205.694 141.625 205.292 141.042 205.015 140.397C204.738 139.752 204.592 139.058 204.585 138.356Z" fill="white"/>
<path d="M203.454 65.1694C203.403 67.606 202.525 69.1124 200.942 70.0425C200.173 70.4843 199.291 70.689 198.406 70.631C197.522 70.573 196.674 70.2547 195.969 69.7163C194.838 68.9374 193.687 68.1842 192.528 67.4557C191.901 67.0534 191.8 66.6768 192.227 66.0244C193.633 63.9398 194.99 61.8551 196.346 59.7476C196.798 59.0695 197.25 58.8689 197.979 59.3957C199.084 60.1994 200.314 60.8774 201.37 61.7315C202.625 62.73 203.529 63.9607 203.454 65.1694ZM195.567 66.576C196.698 67.7819 198.054 68.4096 198.781 67.7562C199.648 67.022 200.271 66.0405 200.565 64.9431C200.791 63.6373 199.66 62.8584 198.377 62.3306C197.4 63.7847 196.468 65.1913 195.567 66.5722V66.576Z" fill="white"/>
<path d="M182.58 62.2753C181.475 61.9491 180.621 61.7732 179.842 61.446C179.591 61.3452 179.44 60.8687 179.366 60.5416C179.19 59.738 179.166 58.8583 178.914 58.0803C178.789 57.678 178.261 57.4022 177.935 57.076C177.734 57.4022 177.508 57.7037 177.332 58.0271C177.255 58.1728 177.188 58.3237 177.131 58.4788C176.378 60.4132 176.403 60.3875 174.444 59.7351C173.766 59.5088 173.614 59.1826 173.841 58.5292C174.67 56.1183 175.498 53.7065 176.227 51.2957C176.453 50.5672 176.729 50.3161 177.457 50.5672C178.889 51.0427 180.321 51.4963 181.728 51.9985C182.27 52.1692 182.75 52.4962 183.108 52.9387C183.465 53.3811 183.684 53.9191 183.737 54.4854C183.84 55.0278 183.766 55.5889 183.527 56.0862C183.287 56.5835 182.894 56.9908 182.406 57.2482C181.803 57.6 181.778 57.9015 181.93 58.5539C182.209 59.7827 182.426 61.0247 182.58 62.2753ZM178.134 55.2929C178.859 55.2941 179.582 55.2342 180.297 55.1141C180.448 55.0893 180.678 54.3856 180.574 54.2848C180.061 53.7868 179.506 53.3331 178.916 52.9286C178.615 53.8359 178.439 54.3884 178.137 55.2929H178.134Z" fill="white"/>
<path d="M120.164 59.4372C120.49 58.2065 120.767 57.3021 120.968 56.3939C121.47 54.3339 121.919 53.9069 124.384 53.3049C124.083 54.6611 123.908 55.9678 123.505 57.1728C123.389 57.3806 123.324 57.613 123.315 57.851C123.307 58.0889 123.354 58.3255 123.455 58.5413C123.556 58.7571 123.706 58.9459 123.894 59.0922C124.081 59.2386 124.301 59.3382 124.535 59.3829C125.942 59.9602 127.298 60.7144 128.705 61.4172C128.189 62.1199 127.435 62.6099 126.584 62.7948C125.732 62.9798 124.843 62.847 124.083 62.4215C123.131 61.946 122.148 61.4923 120.842 60.8646C121.318 61.945 121.621 62.7734 122.048 63.5522C122.5 64.3559 122.451 64.858 121.471 65.1348C121.119 65.2356 120.793 65.5865 120.467 65.5865C120.115 65.6112 119.538 65.461 119.412 65.2061C118.281 62.8447 117.252 60.4338 116.121 58.0734C115.544 56.8428 116.573 56.7923 117.202 56.4405C117.855 56.0886 118.508 55.7624 118.935 56.7667C119.257 57.5532 119.637 58.3321 120.164 59.4372Z" fill="white"/>
<path d="M91.2092 183.289C90.6076 183.315 90.0096 183.185 89.4728 182.913C88.9361 182.64 88.4787 182.233 88.1449 181.732C87.2405 180.601 86.3865 179.396 85.5077 178.241C85.0807 177.688 85.0322 177.261 85.7084 176.784C87.6171 175.428 89.4764 174.021 91.3347 172.615C91.988 172.113 92.4645 172.037 92.9419 172.841C93.8929 174.499 95.2025 176.006 95.7798 177.764C96.6585 180.501 94.2477 183.289 91.2092 183.289ZM92.2638 175.553C90.9324 176.559 89.6514 177.512 88.3703 178.492C89.0237 179.572 89.7018 180.577 90.9067 180.502C91.4771 180.467 92.0238 180.261 92.476 179.912C92.9282 179.562 93.2651 179.085 93.4431 178.542C93.8207 177.386 93.2681 176.457 92.2638 175.552V175.553Z" fill="white"/>
<path d="M181.704 210.693C180.624 208.03 179.569 205.494 178.59 202.932C178.581 202.749 178.62 202.567 178.704 202.404C178.787 202.241 178.912 202.103 179.065 202.003C180.546 201.331 182.074 200.769 183.637 200.32C184.725 200.053 185.874 200.214 186.846 200.77C187.819 201.327 188.54 202.236 188.861 203.309C189.084 203.841 189.194 204.414 189.184 204.991C189.175 205.567 189.045 206.136 188.805 206.66C188.564 207.184 188.217 207.653 187.785 208.036C187.354 208.419 186.848 208.708 186.299 208.885C184.843 209.488 183.362 210.041 181.704 210.693ZM181.779 203.085C182.081 203.763 182.357 204.366 182.608 204.969C182.884 205.622 183.059 206.3 183.387 206.928C183.465 207.074 183.576 207.2 183.711 207.295C183.846 207.391 184.002 207.455 184.165 207.48C184.515 207.44 184.851 207.32 185.147 207.131C185.444 206.942 185.694 206.687 185.877 206.387C186.061 206.087 186.175 205.75 186.209 205.399C186.243 205.049 186.197 204.696 186.074 204.366C185.27 202.279 184.115 201.903 181.779 203.083V203.085Z" fill="white"/>
<path d="M210.666 82.0163C213.329 81.4133 215.865 80.8104 218.427 80.2331L218.808 80.158C219.177 80.0148 219.573 79.9512 219.969 79.9714C220.365 79.9917 220.753 80.0953 221.106 80.2754C221.459 80.4556 221.77 80.7083 222.019 81.0169C222.268 81.3256 222.449 81.6833 222.55 82.0667C222.592 82.1809 222.609 82.3027 222.6 82.4239C222.591 82.5452 222.557 82.6633 222.5 82.7704C220.917 85.6083 219.335 88.4214 217.752 91.2346C216.07 90.3054 215.692 89.2003 216.446 87.7938C216.503 87.7274 216.545 87.6504 216.572 87.5674C216.773 86.9397 214.562 84.1009 213.909 84.177C211.921 84.3292 211.646 84.1532 210.666 82.0163ZM216.343 83.5484C216.845 84.2265 217.221 84.7543 217.8 85.5075C218.352 84.5565 218.779 83.8251 219.407 82.7447C218.179 83.0729 217.347 83.2745 216.343 83.5503V83.5484Z" fill="white"/>
<path d="M161.084 211.269C161.1 212.084 161.159 212.897 161.26 213.706C161.46 214.811 160.707 214.861 160.004 214.936C159.326 214.987 158.547 215.288 158.447 214.107C158.246 211.646 157.944 209.209 157.769 206.748C157.811 206.537 157.908 206.341 158.048 206.178C158.189 206.015 158.37 205.891 158.572 205.819C159.728 205.618 160.908 205.568 162.063 205.467C162.701 205.329 163.366 205.389 163.967 205.641C164.569 205.892 165.08 206.323 165.429 206.874C165.775 207.394 165.92 208.022 165.837 208.641C165.754 209.261 165.448 209.829 164.977 210.239C165.756 211.495 166.485 212.676 167.238 213.881C164.956 214.737 164.45 214.559 163.32 212.776C162.842 212.048 162.49 211.064 161.084 211.269ZM161.636 207.075C161.256 207.678 160.908 208.004 160.858 208.331C160.807 208.806 160.757 209.511 161.611 209.411C162.263 209.336 162.942 209.109 162.791 208.331C162.741 207.954 162.215 207.678 161.636 207.075Z" fill="white"/>
<path d="M207.977 74.2061C207.55 74.6578 207.198 75.062 206.797 75.5375C207.626 76.3164 208.379 77.0449 209.158 77.7249C209.286 77.7981 209.394 77.9025 209.472 78.0283C209.549 78.1542 209.593 78.2976 209.601 78.4452C209.608 78.5928 209.579 78.7399 209.514 78.8729C209.45 79.006 209.353 79.1207 209.233 79.2066C208.705 79.7591 208.253 79.9094 207.651 79.3321C206.37 78.0761 205.064 76.8455 203.732 75.6402C203.204 75.1647 203.18 74.8109 203.682 74.3088C205.44 72.4752 207.201 70.6169 208.906 68.7329C209.483 68.1052 209.885 67.9797 210.513 68.6321C211.744 69.8884 213.049 71.0686 214.331 72.246C214.807 72.6977 214.858 73.0249 214.382 73.4766C213.93 73.9036 213.554 74.4809 212.85 73.8028C212.097 73.0743 211.318 72.3963 210.413 71.5422C210.061 71.8941 209.786 72.2203 209.409 72.5969C210.238 73.3758 210.941 74.1043 211.691 74.732C212.345 75.2845 212.018 75.7115 211.616 76.189C211.165 76.6911 210.787 76.7919 210.26 76.2898C209.534 75.5879 208.805 74.9346 207.977 74.2061Z" fill="white"/>
<path d="M166.084 54.1622C165.456 55.7695 165.507 55.8741 167.013 56.0966C167.541 56.1717 168.093 56.2469 168.62 56.2973C169.274 56.3724 169.876 56.3724 169.75 57.352C169.625 58.2307 169.298 58.6083 168.368 58.4323C166.434 58.0805 164.5 57.8047 162.39 57.4528C162.566 55.9711 162.692 54.5388 162.892 53.1323C163.093 51.6753 163.295 50.244 163.621 48.8117C163.696 48.5103 164.198 48.0585 164.45 48.0832C166.359 48.2839 168.268 48.5588 170.156 48.9125C170.407 48.9629 170.658 49.6154 170.684 50.0176C170.709 50.5702 170.534 51.1227 169.755 50.9972C168.945 50.8092 168.122 50.6821 167.294 50.6168C167.099 50.6251 166.91 50.6824 166.744 50.7833C166.578 50.8842 166.44 51.0255 166.343 51.1941C166.092 51.8474 166.543 52.05 167.146 52.0985C167.774 52.1489 168.377 52.2992 169.005 52.3752C169.708 52.476 170.261 52.5759 170.085 53.6059C169.909 54.6102 169.432 54.5569 168.678 54.4352C167.813 54.3134 166.988 54.263 166.084 54.1622Z" fill="white"/>
<path d="M192.149 206.221C192.024 204.889 191.898 203.558 191.769 202.252C191.593 200.645 191.342 199.012 191.241 197.402C191.236 197.154 191.291 196.908 191.4 196.685C191.509 196.463 191.67 196.269 191.869 196.121C192.648 195.795 193.251 194.614 194.281 195.342C196.667 197.024 199.002 198.758 201.364 200.491C201.446 200.576 201.506 200.679 201.54 200.792C200.159 202.249 199.631 202.325 198.124 201.496C197.987 201.43 197.838 201.394 197.687 201.39C197.535 201.385 197.385 201.413 197.245 201.472C196.49 201.826 195.767 202.247 195.085 202.728C194.824 202.914 194.645 203.192 194.583 203.507C194.388 205.417 194.26 205.593 192.149 206.221ZM193.908 198.209C194.033 199.364 194.108 200.168 194.209 201.173C194.962 200.721 195.49 200.394 196.168 199.967C195.44 199.39 194.837 198.912 193.912 198.209H193.908Z" fill="white"/>
<path d="M73.3263 150.463C72.5227 148.328 72.5978 148.002 73.8788 146.849C73.9878 146.735 74.0728 146.601 74.1288 146.454C74.1848 146.307 74.2108 146.15 74.205 145.993C74.126 145.163 73.9832 144.34 73.778 143.532C73.7297 143.38 73.6514 143.24 73.5478 143.119C73.4443 142.998 73.3175 142.9 73.1751 142.829C71.6677 142.125 71.3415 141.573 71.643 139.765C71.962 139.775 72.2799 139.808 72.594 139.865C75.1304 140.519 77.6677 141.171 80.2022 141.849C81.2569 142.126 81.8599 144.763 80.9811 145.391C78.5008 147.122 75.9387 148.755 73.3263 150.463ZM78.5008 144.058C77.3453 143.782 76.5664 143.582 75.5621 143.355C75.7628 144.259 75.8884 144.836 76.0643 145.542C76.8679 145.063 77.4956 144.661 78.5008 144.058Z" fill="white"/>
<path d="M91.7104 186.63C92.8659 186.155 93.7704 185.752 94.6738 185.4C96.4066 184.722 98.1404 183.993 99.9235 183.39C100.194 183.306 100.48 183.28 100.762 183.315C101.043 183.349 101.314 183.444 101.556 183.591C102.235 184.244 103.39 184.746 102.812 186.128C101.832 188.514 100.928 190.925 99.9987 193.337C99.7219 194.066 99.3206 194.141 98.7927 193.614C98.089 192.91 97.06 192.282 98.0139 191.027C98.0636 190.901 98.0828 190.764 98.0697 190.629C98.0566 190.493 98.0118 190.363 97.9387 190.248C97.3111 189.545 96.6073 188.866 95.9045 188.214C95.7542 188.064 95.3767 187.938 95.2511 188.038C93.544 189.242 92.9411 187.614 91.7104 186.63ZM100.024 186.379L99.798 186.153C99.0448 186.479 98.2906 186.831 97.3871 187.233C98.0148 187.836 98.4418 188.239 99.0448 188.816C99.4214 187.861 99.7229 187.108 100.024 186.378V186.379Z" fill="white"/>
<path d="M148.25 210.165C148.25 208.959 148.199 207.729 148.3 206.523C148.325 206.197 148.828 205.644 149.129 205.644C150.786 205.644 152.47 205.794 154.127 205.845C154.83 205.869 155.032 206.197 155.032 206.875C155.007 207.603 154.68 207.826 154.002 207.779C153.25 207.712 152.495 207.695 151.741 207.729C151.49 207.753 151.063 208.156 151.088 208.332C151.138 208.633 151.414 209.111 151.691 209.16C152.387 209.278 153.094 209.32 153.8 209.286C154.504 209.286 154.751 209.612 154.729 210.29C154.707 210.968 154.478 211.32 153.75 211.241C153.094 211.133 152.429 211.099 151.766 211.14C151.414 211.19 151.163 211.693 150.837 211.996C151.112 212.272 151.364 212.674 151.693 212.749C152.346 212.875 153.012 212.925 153.676 212.899C154.405 212.899 154.857 213.051 154.832 213.954C154.807 214.783 154.506 215.059 153.701 215.009C152.119 214.908 150.536 214.833 148.954 214.808C148.124 214.783 147.873 214.428 147.924 213.628C148.024 212.472 148.049 211.292 148.1 210.109C148.124 210.165 148.2 210.165 148.25 210.165Z" fill="white"/>
<path d="M134.986 203.232C134.534 205.14 134.534 205.14 133.002 204.663C132.575 204.538 132.123 204.412 131.67 204.261C130.815 203.959 130.389 204.236 130.389 205.212L133.63 206.418C133.479 208.276 133.328 208.352 131.695 207.8C131.143 207.624 130.565 207.473 130.013 207.324C129.895 207.31 129.776 207.318 129.661 207.349C129.511 207.729 129.335 208.128 129.108 208.705C130.113 209.031 131.043 209.358 131.972 209.656C132.625 209.857 133.002 210.083 132.7 210.911C132.424 211.64 132.097 211.941 131.319 211.665C129.786 211.112 128.229 210.66 126.722 210.057C126.396 209.932 125.943 209.278 126.019 209.027C126.797 206.44 127.651 203.878 128.555 201.116C130.796 201.851 132.855 202.529 134.986 203.232Z" fill="white"/>
<path d="M232.337 107.638C232.286 106.687 232.286 105.804 232.161 104.95C232.111 104.649 231.734 104.422 231.508 104.146C231.281 104.423 230.955 104.649 230.88 104.95C230.704 105.678 230.629 106.432 230.499 107.16C230.466 107.797 230.201 108.399 229.753 108.853C229.305 109.307 228.706 109.58 228.07 109.621C227.462 109.682 226.851 109.553 226.32 109.251C225.789 108.95 225.365 108.491 225.106 107.938C224.754 107.178 224.501 106.376 224.353 105.552C223.973 103.542 224.252 103.191 226.488 102.864V103.919C226.446 104.457 226.48 104.998 226.589 105.526C226.74 105.929 227.166 106.204 227.493 106.556C227.738 106.205 227.94 105.825 228.096 105.426C228.208 104.523 228.402 103.632 228.674 102.764C228.877 102.315 229.199 101.931 229.605 101.653C230.01 101.374 230.485 101.212 230.976 101.183C231.467 101.155 231.957 101.261 232.392 101.491C232.828 101.721 233.192 102.065 233.446 102.487C233.922 103.267 234.254 104.126 234.425 105.024C234.798 106.859 234.371 107.361 232.337 107.638Z" fill="white"/>
<path d="M136.541 203.936C139.053 203.861 139.354 204.037 139.856 206.147C140.083 207.126 140.259 208.106 140.51 209.361C141.113 208.482 141.59 207.804 142.042 207.1C143.424 204.913 143.398 204.913 146.186 205.518C145.901 206.096 145.583 206.657 145.235 207.2C143.904 209.184 142.572 211.143 141.192 213.078C141.027 213.267 140.822 213.418 140.591 213.518C140.361 213.618 140.111 213.665 139.86 213.656C139.611 213.614 139.374 213.515 139.169 213.367C138.965 213.218 138.797 213.024 138.68 212.8C137.922 209.914 137.27 206.975 136.541 203.936Z" fill="white"/>
<path d="M140.257 58.7312C139.988 58.4381 139.775 58.0976 139.63 57.7269C139.152 55.1401 138.725 52.553 138.349 49.9656C138.298 49.6888 138.65 49.2371 138.952 49.1097C139.389 48.9612 139.846 48.8766 140.308 48.8586C140.961 48.7578 141.287 48.9337 141.413 49.6622C141.664 51.395 142.04 53.103 142.292 54.8367C142.392 55.59 142.593 55.8914 143.397 55.666C144.024 55.4901 144.728 55.4901 145.356 55.3142C146.235 55.0878 146.762 55.1886 146.913 56.2433C147.063 57.1725 146.888 57.6252 145.883 57.7507C144.1 58.0313 142.342 58.3831 140.257 58.7312Z" fill="white"/>
<path d="M224.676 99.7742C222.942 101.282 222.592 101.231 221.687 99.3472C221.034 97.9911 220.305 96.6843 219.728 95.3035C219.677 95.1011 219.677 94.889 219.73 94.6869C219.783 94.4848 219.886 94.2994 220.029 94.148C222.391 92.8422 224.802 91.6116 227.213 90.4057C227.439 90.3049 227.84 90.5312 228.142 90.632C228.192 90.6567 228.217 90.7823 228.243 90.8584C229.297 92.7167 229.297 92.7167 227.413 93.7219C226.207 94.3496 225.002 95.0277 223.746 95.6059C222.967 95.9578 222.89 96.3591 223.271 97.0629C223.797 97.9663 224.224 98.8955 224.676 99.7742Z" fill="white"/>
<path d="M150.957 52.4329C150.957 51.227 151.007 49.9964 150.932 48.7905C150.881 47.9612 151.108 47.5846 152.037 47.5846C153.946 47.5846 153.946 47.5342 153.946 49.4686C153.946 50.8 154.021 52.1562 153.946 53.4876C153.895 54.6431 154.373 54.9693 155.427 54.7934C155.928 54.7385 156.432 54.7217 156.935 54.743C158.266 54.743 158.793 55.4962 158.317 56.7268C158.236 56.8567 158.126 56.9655 157.995 57.0441C157.864 57.1227 157.716 57.1688 157.563 57.1786C155.679 57.2537 153.795 57.229 151.912 57.2794C151.21 57.3041 150.961 57.0026 150.961 56.2998C150.986 54.9941 150.961 53.713 150.961 52.4063C150.982 52.4329 150.982 52.4329 150.957 52.4329Z" fill="white"/>
<path d="M176.528 203.333C176.185 204.306 175.773 205.255 175.297 206.17C174.834 206.941 174.567 207.813 174.519 208.711C174.47 209.608 174.643 210.504 175.02 211.319C175.347 212.175 175.196 212.701 174.217 212.801C173.413 212.876 172.258 213.657 172.182 211.997C172.082 209.385 170.223 208.029 168.465 206.547C168.013 206.167 167.586 205.719 167.159 205.316C167.184 205.191 167.234 205.065 167.26 204.936C168.143 204.695 169.06 204.611 169.972 204.685C170.776 204.911 171.379 205.79 172.255 206.519C172.73 205.514 172.958 204.409 173.637 203.831C174.29 203.254 175.395 203.178 176.3 202.88L176.528 203.333Z" fill="white"/>
<path d="M202.474 192.404C202.022 190.144 201.972 188.235 204.661 187.459C204.765 188.342 204.807 189.232 204.787 190.122C204.672 191.134 204.796 192.159 205.149 193.114C205.503 194.069 206.075 194.928 206.821 195.622C207.399 196.175 207.474 196.677 206.695 197.079C206.043 197.406 205.339 198.863 204.611 197.506C203.179 194.819 200.567 194.442 198.08 193.714C197.759 193.589 197.448 193.437 197.151 193.262C197.377 192.986 197.603 192.734 197.804 192.458C198.66 191.378 199.688 191.428 200.848 191.93C201.38 192.121 201.923 192.279 202.474 192.404Z" fill="white"/>
<path d="M102.886 196.73C106.1 194.47 105.648 191.129 105.598 187.886C108.486 188.489 108.035 190.573 108.01 192.736C110.019 191.88 111.928 191.204 113.359 193.592C112.227 194.067 111.06 194.453 109.868 194.747C109.18 194.885 108.527 195.161 107.949 195.558C107.37 195.955 106.878 196.466 106.503 197.058C105.246 198.742 105.096 198.742 103.513 197.234C103.424 197.148 103.34 197.055 103.262 196.958C103.126 196.901 102.999 196.824 102.886 196.73Z" fill="white"/>
<path d="M80.76 164.904C81.0615 165.607 81.3126 166.236 81.5893 166.813C82.4937 168.671 82.4938 168.671 80.2836 169.525C79.3791 167.592 78.45 165.658 77.6207 163.699C77.5455 163.523 77.8965 163.02 78.1485 162.895C80.3587 161.84 82.5946 160.835 84.8295 159.78C85.7586 159.329 86.0097 159.981 86.2608 160.61C86.4871 161.263 87.1652 161.966 86.0097 162.468C84.7039 163.02 83.4476 163.648 82.1419 164.226C81.6892 164.453 81.2631 164.653 80.76 164.904Z" fill="white"/>
<path d="M77.1658 155.485C77.5177 156.616 77.8192 157.57 78.1168 158.499C78.4687 159.579 77.589 159.604 76.9613 159.855C76.2585 160.106 76.0103 159.729 75.8058 159.126C75.3541 157.57 74.9014 156.012 74.3745 154.48C74.0978 153.701 74.249 153.324 75.0526 153.098C77.3132 152.42 79.5738 151.691 81.8344 150.938C83.0403 150.536 83.0146 151.491 83.2162 152.144C83.3922 152.772 83.8439 153.45 82.639 153.751C80.833 154.23 79.0745 154.882 77.1658 155.485Z" fill="white"/>
<path d="M129.709 51.7755C129.889 51.5527 130.1 51.3582 130.337 51.1983C130.764 51.0378 131.2 50.9035 131.643 50.796C132.321 50.5696 132.647 50.8464 132.849 51.4741C133.577 53.9353 134.356 56.3966 135.036 58.8835C135.463 60.3909 133.981 60.039 133.303 60.4403C132.7 60.7922 132.273 60.5412 132.073 59.8878C131.32 57.3257 130.565 54.7893 129.812 52.2273C129.76 52.1788 129.76 52.1036 129.709 51.7755Z" fill="white"/>
</g>
<defs>
<filter id="filter0_d" x="0" y="0" width="306" height="269.015" filterUnits="userSpaceOnUse" color-interpolation-filters="sRGB">
<feFlood flood-opacity="0" result="BackgroundImageFix"/>
<feColorMatrix in="SourceAlpha" type="matrix" values="0 0 0 0 0 0 0 0 0 0 0 0 0 0 0 0 0 0 127 0"/>
<feOffset dy="4"/>
<feGaussianBlur stdDeviation="25"/>
<feColorMatrix type="matrix" values="0 0 0 0 0 0 0 0 0 0 0 0 0 0 0 0 0 0 0.45 0"/>
<feBlend mode="normal" in2="BackgroundImageFix" result="effect1_dropShadow"/>
<feBlend mode="normal" in="SourceGraphic" in2="effect1_dropShadow" result="shape"/>
</filter>
</defs>
</svg>
