<svg width="158" height="157" viewBox="0 0 158 157" fill="none" xmlns="http://www.w3.org/2000/svg">
<path d="M26.7639 134.36C23.7249 130.602 21.809 126.052 18.5058 122.492C15.2025 118.403 13.0224 113.722 11.4368 108.71C9.78519 101.919 8.0675 95.1272 6.41588 88.3356C5.95342 82.1374 6.61407 75.9392 6.61407 69.741C8.39783 69.1476 8.79422 67.5651 9.19061 66.0485C10.2476 61.8944 11.3707 57.8062 13.2866 53.9159C14.9383 53.1246 15.2686 54.5752 15.4668 55.4984C16.1274 58.2018 17.8451 59.7844 20.2895 60.9053C22.3375 61.8284 23.3946 63.6088 23.9231 65.7188C26.4336 75.9392 30.3974 85.5002 36.4094 94.1381C36.8718 94.7975 37.4003 95.4569 37.4664 96.1822C37.7307 100.204 40.5715 102.051 43.6765 103.765C46.5834 105.414 48.5653 108.117 51.0758 110.293C56.5592 114.909 62.3729 118.997 68.9794 121.766C69.3097 122.228 69.5079 122.755 69.3758 123.349C67.7902 131.327 65.6761 139.174 59.9285 145.372C55.0397 150.515 47.7065 151.372 41.6285 147.68C36.8058 144.779 32.5776 141.152 29.0101 136.734C28.2834 135.877 27.6888 134.954 26.7639 134.36Z" fill="white"/>
<path d="M95.7994 7.89138C96.3279 7.95732 96.7903 8.02326 97.3188 8.08919C99.1687 7.62763 100.952 7.7595 102.802 8.08919C111.06 9.73765 118.592 13.1664 125.859 17.2546C127.114 17.9799 128.303 18.7052 128.766 20.2218C128.964 24.5737 127.312 28.5959 126.52 32.75C125.793 36.7063 124.934 40.6626 123.877 44.6189C123.15 47.3224 124.075 48.4433 126.652 48.9708C128.7 49.3665 130.748 49.828 132.664 50.6852C136.429 53.1909 136.958 54.5096 135.24 58.5319C132.399 65.1257 128.105 70.5326 121.631 73.9614C118.856 75.4779 117.931 75.1483 116.213 72.1151C116.412 66.3126 118.592 60.9056 119.517 55.3009C119.781 54.4437 119.913 53.5865 120.177 52.7952C120.838 50.6852 120.111 49.4983 117.931 48.9708C109.211 46.9267 100.424 45.0145 91.7033 42.8386C89.325 42.2451 88.334 43.1683 87.8055 45.4761C86.7485 50.2896 85.5593 55.0371 84.4362 59.8506C84.1059 61.3013 83.8416 62.8838 82.7846 64.0707C80.7365 65.4554 79.4152 64.2025 78.4243 62.62C74.9889 57.2131 73.5355 51.1468 73.7997 44.8167C73.9979 40.1351 75.5835 38.8164 80.4062 38.4867C86.8145 39.0801 86.7485 39.0801 88.334 32.8819C90.2499 25.6287 91.5712 18.3096 93.7513 11.1223C94.2138 9.93546 94.2799 8.48482 95.7994 7.89138Z" fill="white"/>
<path d="M26.7669 134.36C29.4756 135.613 30.929 138.119 33.0431 140.031C35.6196 142.405 38.3943 144.581 41.3673 146.493C48.8326 151.174 56.6283 149.658 61.451 142.405C65.6131 136.206 67.7272 129.217 68.7842 121.898C68.586 117.414 73.4088 112.337 78.4297 111.875C79.9492 111.743 81.4687 111.809 82.9882 111.743C90.5196 112.93 97.9849 115.04 105.715 114.315C122.957 112.667 136.237 104.754 144.957 89.5882C151.299 79.17 152.819 67.9605 151.035 56.0917C150.573 52.6629 149.516 49.3 148.26 46.0691C147.732 44.8162 146.939 43.4975 147.93 42.1128C169.864 70.7299 154.074 113.985 118.861 121.898C109.414 124.008 100.231 123.283 90.916 121.041C81.6008 118.799 76.5138 121.832 73.8712 130.931C72.2196 136.536 70.7662 142.207 68.1896 147.548C63.1026 157.9 53.5893 159.614 44.7366 153.35C37.5355 148.207 31.5897 141.745 26.7669 134.36Z" fill="white"/>
<path d="M82.5859 112.404C75.5169 111.942 71.0245 115.239 68.7783 121.833C63.427 121.371 59.6613 117.81 55.6313 114.909C51.0729 111.546 47.0429 107.524 42.5505 104.029C38.7848 101.128 38.8509 101.194 36.8689 96.8422C35.3494 93.4793 33.0371 90.5121 31.2534 87.2152C27.5537 80.4895 24.9111 73.3023 23.1935 65.7853C22.7971 64.005 22.0704 62.4225 20.2866 61.6972C17.2476 60.5103 15.0014 58.664 14.6711 55.1034C14.605 54.378 14.1426 53.9165 13.3498 53.8505C16.9173 44.817 21.74 36.5747 29.0732 29.9809C30.3945 31.3656 29.9981 33.08 29.7339 34.6625C28.6108 41.9817 28.3465 49.2349 29.4696 56.6199C29.9321 59.5871 30.7249 62.1587 33.7638 63.4115C38.983 65.6534 39.974 70.7307 41.6256 75.3464C42.2862 77.1926 42.6166 79.1708 42.5505 81.1489C42.6166 82.0061 42.4844 82.9292 42.4184 83.7864C41.2953 92.0946 44.7306 98.2928 52.1299 102.315C58.4061 105.81 65.409 106.733 72.1476 108.579C74.8562 109.37 77.631 110.03 80.3396 110.821C81.1985 111.217 82.3877 111.085 82.5859 112.404Z" fill="white"/>
<path d="M95.7964 7.89085C92.6914 16.8584 91.2379 26.2876 88.7275 35.3871C87.3401 40.3324 87.4722 40.3983 82.3192 39.4093C81.7907 39.3433 81.1961 39.3433 80.6676 39.3433C76.9019 38.8158 73.1362 38.4202 69.4365 37.4311C67.4546 36.8377 65.2744 36.7058 63.2925 35.9805C60.9802 35.3871 58.6679 34.9255 56.3557 34.398C55.2326 34.1342 53.9773 33.9364 53.2506 32.8155C52.3918 30.112 53.7131 27.6723 54.3737 25.2326C55.6289 20.551 56.8842 15.8034 59.4607 11.5174C69.965 7.69304 80.7336 6.2424 91.8325 7.49522C93.1538 7.75898 94.4751 7.82492 95.7964 7.89085Z" fill="white"/>
<path d="M59.4651 11.5833C58.4742 17.254 55.5012 22.3312 54.5763 28.0019C54.3121 29.5844 53.9157 31.1669 53.5853 32.7495C53.7835 36.9695 52.198 40.9258 51.3391 44.948C49.6875 52.2671 48.2341 59.7181 46.12 66.9713C45.7897 67.4988 45.3933 67.8285 44.8648 67.9604C37.003 66.4438 34.6247 63.8063 33.5677 56.1575C32.5767 49.234 32.7749 42.3764 33.6998 35.5189C34.4265 30.1779 35.5496 29.1888 40.9009 29.1888C41.4294 29.1888 42.024 29.1888 42.5525 29.1888C47.6395 29.1888 47.6395 29.1888 49.3572 24.5072C50.7446 20.6168 53.255 17.1881 54.5103 13.1658C54.5763 12.7702 54.7084 12.5065 54.9727 12.2427C56.4922 12.7702 57.8796 11.4515 59.4651 11.5833Z" fill="white"/>
<path d="M147.924 42.0462C149.113 46.6618 151.558 50.9478 151.822 55.8272C148.585 56.7504 145.744 54.6404 142.639 54.7063C139.27 53.7832 135.834 53.1897 132.795 51.2775C130.021 50.6181 127.312 49.8928 124.537 49.3653C122.423 48.9697 122.225 48.1125 122.687 46.2003C124.603 38.2877 126.321 30.2433 128.039 22.2647C128.171 21.6054 128.105 20.946 128.171 20.2866C128.369 20.0228 128.633 19.891 128.964 19.891C131.276 20.6822 132.994 22.2647 134.249 24.3088C139.402 29.7817 144.026 35.6502 147.924 42.0462Z" fill="white"/>
<path d="M54.8388 13.0351C55.8298 13.7604 55.4334 14.4857 54.9709 15.277C52.5926 19.2333 50.4785 23.2555 49.2233 27.7393C48.6947 29.7174 47.5716 30.3109 45.6558 30.179C43.3435 30.0471 41.0312 30.179 38.7189 30.1131C36.5388 30.0471 35.4157 30.9043 34.9532 33.2781C33.3016 42.2457 33.3016 51.2133 35.0193 60.1809C35.5478 63.0162 37.4637 64.4009 39.776 65.4559C41.4276 66.2472 43.1453 66.9725 44.863 67.6978C45.4576 68.2912 45.5236 69.0825 45.3915 69.8738C44.863 73.2366 44.0041 76.5335 43.2113 79.8304C43.0132 80.6217 42.815 81.6107 41.5597 81.5448C41.6258 76.4676 39.4456 71.9838 37.3976 67.5659C36.4727 65.5218 34.1605 64.6646 32.1785 63.7415C30.3287 62.8843 29.3377 61.6315 28.8753 59.5874C27.2236 51.3451 27.2236 43.1029 28.611 34.8606C28.8753 33.2122 28.8753 31.6297 28.9413 29.9812C30.1966 28.6624 31.3857 27.3437 32.641 26.0909C37.3976 20.5521 43.8059 17.387 50.0821 14.0901C51.6016 13.4307 52.989 12.3757 54.8388 13.0351Z" fill="white"/>
<path d="M128.767 20.2873C128.568 20.2873 128.37 20.2873 128.172 20.2873C124.142 16.3969 118.989 14.5507 113.968 12.4406C108.683 10.1988 103.067 8.74811 97.2537 8.15467C98.0465 8.02279 98.575 7.42935 99.0374 6.83591C107.692 -4.30763 123.614 -1.20854 128.238 11.6494C129.89 14.4188 130.749 17.2541 128.767 20.2873Z" fill="white"/>
<path d="M54.8436 13.0343C47.2461 16.0015 40.3754 20.1556 34.1653 25.4307C33.7689 25.7604 33.2403 25.9582 32.7118 26.156C31.0602 16.7268 34.3634 10.5946 42.2912 8.55051C44.7356 11.0562 47.3122 12.6387 50.7476 10.2649C51.144 10.0012 51.8046 10.0671 52.2671 10.3968C53.1259 11.0562 54.0508 11.6496 54.9096 12.309C54.8436 12.5068 54.8436 12.7706 54.8436 13.0343Z" fill="white"/>
<path d="M6.61329 69.7406C8.00065 69.9384 8.06672 70.9934 7.86852 71.9825C6.74542 76.7301 7.40607 81.5435 7.27394 86.357C7.27394 87.1483 7.14181 87.8736 6.41509 88.3352C1.65842 86.2252 -0.125338 83.3898 0.00679157 78.2466C0.0728565 74.1585 2.253 71.3891 6.61329 69.7406Z" fill="white"/>
<path d="M11.4365 108.644C14.2772 112.996 16.2592 117.809 18.5054 122.425C11.6346 122.623 7.14223 115.106 11.4365 108.644Z" fill="white"/>
<path d="M128.769 20.2875C128.835 17.3862 129.099 14.419 128.307 11.5836C132.469 14.8146 134.186 19.1665 134.252 24.3097C132.403 22.9909 130.553 21.6062 128.769 20.2875Z" fill="white"/>
<path d="M52.2678 10.329C51.6732 10.5928 51.0787 10.7247 50.4841 11.0543C46.5862 13.3622 44.4061 12.7028 42.292 8.48276C45.7935 8.02119 49.2949 7.88932 52.2678 10.329Z" fill="white"/>
<path d="M114.366 82.2675C115.225 78.9706 115.489 75.4758 116.876 72.3108C117.933 74.4208 119.123 74.4868 121.303 73.2999C127.116 70.0689 131.014 65.2554 133.987 59.4529C135.573 56.4197 136.366 53.5184 132.798 51.2766C136.101 52.1337 139.405 53.0569 142.708 53.9141C147.663 55.6944 148.125 56.5516 146.275 61.3651C142.708 70.5305 136.96 77.9815 128.438 83.1247C124.738 85.3006 117.867 84.905 114.366 82.2675Z" fill="white"/>
<path d="M69.3758 36.7714C73.2076 37.4308 77.0394 37.8265 80.6069 39.409C75.9163 39.5408 74.7271 40.398 74.7271 45.2775C74.661 51.4097 76.1805 57.2123 79.2856 62.4873C80.0123 63.6742 80.9372 64.5314 82.5228 63.8061C83.6459 64.993 83.1174 66.3117 82.721 67.4986C81.8621 69.8064 81.5979 72.444 80.1444 74.488C75.652 75.0155 71.8203 73.1693 69.7062 69.6746C64.5531 61.3004 61.5802 52.201 63.0336 42.1784C63.6943 36.7714 64.0907 36.5736 69.3758 36.7714Z" fill="white"/>
<path d="M79.9466 74.3564C80.2769 70.7298 82.457 67.4989 82.5231 63.8063C84.0426 57.5422 85.7603 51.2781 87.0816 45.014C87.6762 42.1127 88.4029 41.0577 91.7061 41.9149C100.361 44.2227 109.147 46.003 117.934 48.0471C122.096 49.0362 122.096 49.0362 121.105 53.1244C120.907 53.8497 120.643 54.575 120.378 55.3003C112.12 53.3222 103.862 51.344 95.604 49.3659C93.8202 48.9703 92.8953 49.4318 92.4989 51.4759C90.7151 59.8501 88.6671 68.2242 86.6852 76.5983C84.7032 77.8512 82.7873 76.8621 80.8715 76.2686C80.1448 75.7411 79.6823 75.2136 79.9466 74.3564Z" fill="white"/>
<path d="M145.348 90.1812C142.045 97.4344 136.363 102.512 130.021 106.864C122.952 111.743 115.024 114.38 106.436 115.106C105.643 111.281 107.757 107.919 108.219 104.292C109.541 99.5444 110.334 94.665 112.249 90.0493C113.571 86.8184 115.619 85.104 119.252 85.2358C121.895 85.3677 124.538 85.4336 127.114 85.5655C132.597 86.159 137.817 87.8734 143.168 88.8624C144.027 89.0602 144.819 89.4559 145.348 90.1812Z" fill="white"/>
<path d="M145.352 90.1805C139.208 88.8617 132.998 87.543 126.854 86.2242C123.683 85.5648 120.446 85.6967 117.341 84.7736C116.152 84.3779 114.698 84.312 114.236 82.7954C114.236 82.5976 114.302 82.3998 114.434 82.2679C116.548 82.6635 118.596 83.3889 120.842 83.6526C128.704 84.4439 133.262 79.1029 137.821 74.2235C140.992 70.7947 143.37 66.6406 145.154 62.2887C147.334 57.0796 147.268 57.0796 142.776 53.9805C145.947 54.1783 148.92 55.1674 151.893 55.9586C153.941 68.0912 152.289 79.6304 145.352 90.1805Z" fill="white"/>
<path d="M109.01 104.688C108.151 108.182 107.292 111.611 106.434 115.106C98.2416 116.227 90.4459 114.051 82.5842 112.468C79.0828 111.348 75.3831 110.886 72.0138 109.369C70.8907 104.754 72.4102 100.666 74.4582 96.6433C75.3831 96.1818 76.1098 96.6433 76.9026 97.1708C84.368 102.314 92.9564 103.897 101.677 105.149C104.187 105.479 106.5 104.028 109.01 104.688Z" fill="white"/>
<path d="M74.6593 96.7741C73.5362 100.928 72.4791 105.016 72.0167 109.302C65.1459 107.918 58.2752 106.665 51.999 103.302C43.873 99.016 40.3715 92.7519 41.6268 83.5865C41.6928 82.9271 41.6268 82.2677 41.6928 81.6083C43.4766 77.1245 44.0051 72.377 44.9961 67.7613C45.1943 67.5635 45.4585 67.2998 45.6567 67.1019C46.5156 66.3766 47.5726 66.6404 48.4975 66.9041C56.8217 69.0801 65.4102 70.5966 73.338 74.1573C77.1697 75.8717 78.3589 77.1905 78.2268 81.3446C77.8964 86.6196 77.434 91.9606 74.6593 96.7741Z" fill="white"/>
<path d="M74.6602 96.7754C75.3869 91.6323 77.1706 86.621 77.3688 81.3459C77.501 77.9171 75.9815 76.2687 73.0086 74.9499C64.2219 71.1255 54.7746 69.6089 45.5916 67.1033C46.3844 60.4435 48.3003 54.1135 49.8198 47.6515C50.9429 42.7062 51.6696 37.6289 53.5194 32.8155C56.7566 34.0683 60.258 34.0023 63.4291 35.453C57.8136 37.3652 58.6064 42.4424 58.6064 46.4646C58.6064 52.465 59.7295 58.3994 62.0418 64.1361C63.6273 68.0923 66.2039 70.5321 70.1017 71.7189C72.48 72.4443 74.7923 73.4993 77.3028 74.0268C79.549 74.4883 80.3418 75.939 79.8793 78.1809C79.549 79.4996 79.4829 80.7525 79.4169 82.0712C79.2847 84.3791 80.2096 86.0935 82.2576 87.2803C89.5248 91.5663 97.5187 93.3466 105.843 93.7423C108.419 93.8742 110.203 92.3576 111.128 90.0497C111.855 88.2035 112.383 86.2913 112.978 84.445C113.176 83.7197 113.903 83.4559 114.299 82.8625C118.329 84.7747 122.888 84.5769 126.918 86.2913C124.275 86.2913 121.566 86.4891 118.924 86.2253C115.687 85.9616 114.101 87.61 113.044 90.3135C111.194 94.9951 110.401 99.9405 109.014 104.754C103.2 107.655 97.5187 105.479 91.8371 104.358C85.627 103.04 79.8132 100.666 74.6602 96.7754Z" fill="white"/>
<path d="M113.638 84.2477C113.175 86.8193 112.581 89.3249 111.326 91.6328C110.07 94.0066 107.956 94.9297 105.644 94.7319C98.1126 94.0725 90.7134 92.8856 83.9087 89.1931C78.5574 86.2918 77.3683 84.6433 78.8877 78.7748C79.6805 75.6758 78.8877 74.4229 75.9148 74.1592C75.7827 74.1592 75.7166 74.0932 75.5845 74.0273C63.3625 70.8623 58.8701 65.1916 58.1434 52.3996C57.9452 48.3774 57.5488 44.4211 58.1434 40.3989C58.6719 36.5085 59.5968 35.4535 63.4946 35.3876C65.4766 35.8491 67.4585 36.2448 69.4405 36.7063C68.978 37.3657 68.3834 37.2998 67.7228 37.1679C65.5426 36.8382 64.6177 37.9592 64.1553 40.0032C62.4376 48.1796 64.5517 55.7624 67.2603 63.4113C69.4405 69.5435 73.5365 73.302 80.0108 74.2911C80.209 74.6867 80.4733 75.0823 80.6715 75.4779C81.4643 81.2146 86.0888 82.9289 90.5812 84.6433C95.3379 86.4896 100.227 87.6105 105.248 87.8743C107.89 88.0062 110.269 87.6765 111.722 85.039C112.118 84.5115 112.713 83.918 113.638 84.2477Z" fill="white"/>
<path d="M113.641 84.2465C111.659 85.3015 111.857 88.4666 109.148 88.6644C107.1 88.7962 104.92 89.06 102.872 88.7303C96.7941 87.8072 90.9143 86.0928 85.3648 83.3893C81.8634 81.6749 79.8154 79.6309 80.6082 75.5427C82.5901 75.8724 84.5721 76.1361 86.6201 76.4658C95.671 79.1033 104.854 81.3452 114.235 82.7959C114.037 83.2574 113.839 83.719 113.641 84.2465Z" fill="white"/>
</svg>
