<svg width="389" height="91" viewBox="0 0 389 91" fill="none" xmlns="http://www.w3.org/2000/svg">
<g filter="url(#filter0_d)">
<path d="M222.824 36.9956C225.111 34.5574 227.572 33.1591 230.628 33.0682C233.912 32.9698 236.903 33.6866 238.937 36.5489C239.521 37.3692 239.806 36.925 240.25 36.4832C243.647 33.1137 249.801 32.0208 254.137 33.9996C256.977 35.2944 258.347 37.7251 259.067 40.5772C259.516 42.3592 259.624 44.2017 259.617 46.0493C259.594 51.0948 259.587 56.1404 259.629 61.1859C259.637 62.0466 259.458 62.3318 258.544 62.304C256.192 62.2334 253.834 62.2359 251.482 62.3015C250.568 62.3268 250.386 62.0264 250.394 61.1733C250.437 56.5897 250.412 52.0085 250.414 47.4249C250.414 46.3699 250.323 45.3249 250.031 44.3128C249.516 42.5207 248.327 41.4051 246.893 41.3016C244.556 41.135 243.021 41.9503 242.14 43.7802C241.507 45.0927 241.244 46.4759 241.244 47.9196C241.244 52.2912 241.219 56.6654 241.265 61.037C241.275 61.9608 241.121 62.3495 240.066 62.3066C237.799 62.2132 235.525 62.2309 233.256 62.3015C232.34 62.3293 232.059 62.1248 232.072 61.1506C232.13 56.4836 232.095 51.8167 232.1 47.1498C232.1 46.3901 232.049 45.6429 231.85 44.9034C231.133 42.2658 230.139 41.3092 228.054 41.2814C225.565 41.2461 223.99 42.4046 223.263 44.8454C222.953 45.8928 222.824 46.9731 222.824 48.0685C222.824 52.4401 222.799 56.8143 222.844 61.1859C222.854 62.0592 222.64 62.3242 221.744 62.299C219.348 62.2334 216.951 62.2409 214.555 62.2965C213.763 62.3141 213.586 62.0744 213.586 61.3121C213.611 52.3998 213.616 43.4849 213.581 34.5726C213.579 33.7068 213.856 33.52 214.656 33.5352C217.052 33.5806 219.449 33.5831 221.845 33.5352C222.627 33.52 222.9 33.7548 222.832 34.5297C222.776 35.2263 222.824 35.933 222.824 36.9956Z" fill="#FEFEFE"/>
<path d="M307.552 30.3854C307.229 31.0113 307.35 31.4732 307.35 31.9124C307.34 41.6274 307.33 51.3398 307.366 61.0548C307.368 62.0114 307.171 62.4077 306.149 62.2966C305.276 62.2007 304.375 62.1906 303.504 62.2992C302.388 62.438 302.237 61.971 302.242 60.9766C302.28 51.514 302.265 42.0539 302.265 32.5914C302.265 28.9315 302.29 25.2742 302.244 21.6169C302.234 20.7915 302.484 20.6653 303.274 20.5618C306.179 20.1807 307.921 21.049 309.42 23.8885C313.65 31.9048 318.35 39.6713 322.969 47.7179C324.001 45.9536 324.991 44.2978 325.947 42.6218C329.991 35.5445 334.034 28.4671 338.048 21.3721C338.358 20.8243 338.659 20.5618 339.302 20.5871C340.478 20.635 341.657 20.6376 342.833 20.5846C343.505 20.5543 343.681 20.7789 343.669 21.4326C343.631 23.4922 343.654 25.5544 343.654 27.614C343.654 38.7576 343.643 49.9011 343.674 61.0447C343.676 61.9761 343.522 62.4153 342.472 62.2966C341.559 62.1931 340.62 62.2159 339.701 62.2916C338.833 62.3648 338.568 62.1149 338.583 61.2088C338.638 57.5086 338.605 53.8083 338.605 50.1081C338.605 43.5986 338.605 37.0892 338.376 30.4712C337.709 31.5717 337.023 32.6646 336.377 33.7776C332.641 40.2139 328.911 46.6552 325.195 53.1041C324.872 53.6645 324.537 54.0077 323.827 53.9295C323.204 53.8613 322.565 53.879 321.937 53.927C321.392 53.9699 321.124 53.7377 320.862 53.2833C317.27 47.0566 313.658 40.8424 310.046 34.6257C309.256 33.2602 308.446 31.9023 307.552 30.3854Z" fill="#FDFDFD"/>
<path d="M167.189 37.4379C168.62 35.873 169.923 34.6261 171.646 33.8714C172.792 33.3717 173.969 33.2202 175.17 33.0537C175.763 32.9704 175.912 33.2026 175.912 33.7276C175.904 36.5444 175.887 39.3637 175.922 42.1805C175.932 42.9276 175.501 42.8545 175.031 42.8444C173.176 42.7964 171.339 42.857 169.731 43.9575C168.183 45.0175 167.277 46.5067 167.245 48.377C167.174 52.6224 167.169 56.8729 167.212 61.1183C167.222 62.0573 166.995 62.3324 166.038 62.3021C163.643 62.2289 161.242 62.2415 158.847 62.297C158.052 62.3147 157.878 62.0774 157.88 61.3101C157.908 52.3953 157.906 43.4779 157.885 34.563C157.883 33.8512 157.976 33.5105 158.824 33.5307C161.306 33.5887 163.787 33.5736 166.268 33.5383C166.972 33.5282 167.25 33.7225 167.202 34.457C167.144 35.3354 167.189 36.2213 167.189 37.4379Z" fill="#FEFEFE"/>
<path d="M358.26 48.0008C358.26 52.4153 358.24 56.8299 358.278 61.2419C358.286 62.0546 358.084 62.3549 357.241 62.2918C356.034 62.201 354.447 62.6755 353.712 62.0697C352.94 61.4337 353.485 59.788 353.482 58.5866C353.46 50.6839 353.487 42.7811 353.449 34.8784C353.444 33.9672 353.616 33.6012 354.6 33.6971C355.764 33.8107 357.337 33.3211 358.008 33.9142C358.79 34.6007 358.235 36.2035 358.248 37.4075C358.283 40.9386 358.26 44.4697 358.26 48.0008Z" fill="#FEFEFE"/>
<path d="M372.983 48.0031C372.983 52.4126 372.965 56.8246 372.998 61.2341C373.003 62.0115 372.864 62.3724 371.986 62.2967C370.825 62.1957 369.288 62.6551 368.588 62.0695C367.857 61.4537 368.371 59.866 368.369 58.7075C368.351 50.7694 368.374 42.8314 368.339 34.8933C368.334 33.9998 368.475 33.596 369.479 33.7045C370.595 33.8231 372.077 33.3663 372.756 33.9317C373.467 34.5248 372.963 36.0544 372.973 37.1725C372.998 40.7793 372.983 44.3912 372.983 48.0031Z" fill="#FEFEFE"/>
<path d="M359.277 25.0142C359.308 26.7508 357.733 28.3687 355.938 28.4393C354.194 28.51 352.528 26.9426 352.483 25.1909C352.432 23.2298 353.841 21.7936 355.827 21.7784C357.723 21.7633 359.245 23.1894 359.277 25.0142Z" fill="#FEFEFE"/>
<path d="M373.965 25.1357C374.27 26.7082 372.544 28.4069 370.605 28.4271C368.747 28.4472 367.367 26.9227 367.382 24.9893C367.397 23.0256 368.735 21.751 370.752 21.7788C372.71 21.8065 373.977 23.1291 373.965 25.1357Z" fill="#FDFDFD"/>
<path fill-rule="evenodd" clip-rule="evenodd" d="M99.5828 41.4988C99.5828 42.6137 99.5953 43.7291 99.6077 44.8443C99.636 47.3901 99.6643 49.9353 99.545 52.4733C99.4981 53.4714 99.4669 54.4709 99.4357 55.4707V55.4709C99.3491 58.2408 99.2624 61.0129 98.8433 63.7633C98.3688 66.8703 95.4939 69.5105 92.3465 69.8487C85.5518 70.5832 78.747 71.252 71.9195 71.5196C64.8245 71.7972 57.7219 72.0471 50.6167 71.7972L50.1088 71.7795C46.376 71.6493 42.6435 71.5192 38.9179 71.2874C33.8143 70.9694 28.7233 70.5049 23.6399 69.9269C21.4188 69.6745 19.4551 69.1672 17.8801 67.5443C16.6988 66.3277 15.9669 64.8435 15.8381 63.1802C15.5832 59.8333 15.404 56.4789 15.3106 53.1245C15.2773 51.9261 15.2376 50.7278 15.1979 49.5294C15.051 45.0991 14.9041 40.6685 15.0809 36.2362C15.2955 30.7843 15.5378 25.3349 15.8003 19.883C15.9593 16.5539 18.9276 13.4165 22.34 13.0656C22.9605 13.0018 23.5809 12.9374 24.2013 12.8731C29.4188 12.3319 34.6371 11.7906 39.8795 11.5538C40.4985 11.5259 41.1176 11.4976 41.7367 11.4693C48.2943 11.1697 54.8559 10.8699 61.4196 11.059L61.9525 11.0745C70.0386 11.3088 78.1263 11.5432 86.1777 12.4397C86.8933 12.5195 87.6126 12.5816 88.332 12.6436C89.9092 12.7796 91.487 12.9157 93.028 13.2398C96.7585 14.0273 98.8585 16.7406 99.078 20.7185C99.1066 21.2357 99.1357 21.753 99.1647 22.2702L99.1649 22.2732L99.165 22.2762L99.1652 22.2792L99.1653 22.2806C99.3313 25.2356 99.4973 28.1911 99.5702 31.1503C99.624 33.5194 99.6098 35.8886 99.5957 38.2569V38.2572V38.2575V38.2586V38.2591V38.2596V38.2601C99.5893 39.3399 99.5828 40.4195 99.5828 41.4988ZM58.9912 18.6843C65.2596 18.6131 71.5132 18.9201 77.7694 19.3327C80.1855 19.4919 82.5949 19.7122 85.0045 19.9326L85.0046 19.9326L85.0047 19.9326L85.0048 19.9326C86.722 20.0896 88.4393 20.2466 90.1591 20.3815C91.1092 20.4552 91.5132 20.7328 91.5916 21.8208C92.0715 28.4648 92.2625 35.1161 92.2527 41.7748C92.2429 47.9864 92.0201 54.1882 91.5622 60.3827C91.5206 60.9452 91.3981 61.3136 90.7566 61.3701C88.818 61.5361 86.8793 61.7126 84.9407 61.8891L84.9399 61.8891L84.9391 61.8892L84.9383 61.8893L84.9232 61.8907C84.2011 61.9564 83.4791 62.0221 82.7571 62.0873C82.3947 61.8789 82.3515 61.5288 82.3083 61.1788C82.3016 61.1245 82.2949 61.0702 82.287 61.0164C81.2904 54.343 79.4124 47.9348 76.479 41.8583C72.8722 34.394 68.1318 27.7574 62.0079 22.145C61.7223 21.8828 61.4431 21.6138 61.1638 21.3448L61.1637 21.3448L61.1635 21.3446C60.6504 20.8503 60.1371 20.3558 59.5838 19.9026C59.565 19.8872 59.5461 19.8718 59.527 19.8563C59.1792 19.5738 58.7893 19.2571 58.9912 18.6843ZM70.9158 64.0767H70.9158C72.8186 64.0338 74.7239 63.9908 76.594 63.5719C76.8968 63.057 76.8066 62.5198 76.7174 61.989C76.7025 61.9005 76.6877 61.8123 76.6747 61.7243C76.1422 58.1402 75.1956 54.6621 73.9967 51.2445C70.029 39.9394 63.4059 30.4996 54.0746 22.9906C53.7489 22.7285 53.4264 22.4603 53.1035 22.1917C51.5573 20.9056 50.0015 19.6115 48.0346 18.9496C47.9149 18.9446 47.7952 18.9391 47.6755 18.9336L47.6754 18.9336C47.3761 18.92 47.0769 18.9063 46.7776 18.8991C43.8963 18.8229 41.0286 19.0496 38.1626 19.2761C37.1397 19.357 36.117 19.4378 35.0939 19.5049C34.588 19.5382 34.0811 19.5655 33.5739 19.5929C31.6973 19.6942 29.817 19.7956 27.9711 20.199C27.9285 20.7342 28.2963 20.833 28.6416 20.9258C28.7261 20.9485 28.8093 20.9708 28.8848 20.9991C29.231 21.1284 29.591 21.2156 29.9513 21.3029L29.9514 21.3029L29.9514 21.3029C30.2451 21.374 30.539 21.4452 30.8258 21.5393C39.7482 24.4697 47.4036 29.3663 53.7162 36.3301C60.5058 43.8214 64.9557 52.4712 66.6341 62.4891C66.6369 62.5056 66.6396 62.5222 66.6423 62.5388C66.6471 62.5681 66.6518 62.5973 66.6564 62.6266C66.7421 63.1609 66.8285 63.7 67.298 64.0742C67.6751 64.075 68.0522 64.0782 68.4293 64.0815C69.2584 64.0886 70.0873 64.0958 70.9149 64.0767L70.9158 64.0767ZM56.6908 64.3253H56.6879L56.6634 64.3253C55.1665 64.3234 53.6699 64.3215 52.174 64.319C51.6515 64.0136 51.4976 63.4886 51.3663 62.951C49.6979 56.2169 46.4041 50.3662 41.5453 45.4519C36.7497 40.6007 31.0353 37.2362 24.3794 35.5627C24.2873 35.5396 24.1943 35.5184 24.1014 35.4972C23.4968 35.3596 22.8989 35.2235 22.6101 34.543L22.6184 34.2746C22.709 31.3604 22.7997 28.4439 22.8928 25.5297C23.2468 25.0867 23.6787 25.182 24.1 25.275L24.1 25.275C24.2043 25.298 24.308 25.3209 24.4097 25.3354C27.9332 25.8478 31.2321 27.0997 34.4503 28.551C42.1208 32.0089 48.4309 37.1933 53.3578 43.9854C57.4265 49.5938 60.1878 55.8206 61.4372 62.6733C61.448 62.735 61.4598 62.7968 61.4716 62.8588C61.5701 63.3747 61.6692 63.8944 61.205 64.3316C59.7001 64.3291 58.1953 64.3272 56.6908 64.3253ZM37.9831 63.6993C40.5807 63.9242 43.177 64.1491 45.7907 64.0717C46.244 63.264 45.9438 62.5219 45.6535 61.8042C45.5881 61.6427 45.5233 61.4825 45.4677 61.323C44.0643 57.3098 41.9668 53.6777 39.145 50.4949C35.0283 45.8532 30.0029 42.6048 24.0311 40.8632C23.9553 40.8414 23.8783 40.8148 23.8003 40.7879C23.4107 40.6535 22.9992 40.5116 22.6227 40.9112C22.6217 41.4987 22.6208 42.0861 22.6199 42.6735C22.6162 45.0258 22.6126 47.3772 22.6025 49.7301C22.6 50.1845 22.6807 50.5025 23.1805 50.6994C29.0867 53.024 33.2514 57.1735 35.8486 62.9258C36.0808 63.4381 36.366 63.5618 36.8809 63.6047C37.2484 63.6357 37.6158 63.6675 37.9831 63.6993Z" fill="#24A9E0"/>
<path fill-rule="evenodd" clip-rule="evenodd" d="M122.546 36.4166C122.544 38.0653 122.541 39.714 122.541 41.3625C122.541 42.8859 122.542 44.4095 122.543 45.9331C122.546 51.0132 122.548 56.0941 122.521 61.1736C122.519 62.0191 122.675 62.327 123.599 62.3018C126.121 62.2311 128.647 62.2412 131.169 62.2967C131.994 62.3144 132.219 62.0822 132.208 61.2569C132.189 59.5159 132.19 57.7749 132.192 56.0339C132.194 54.0317 132.197 52.0296 132.166 50.0275C132.15 49.0759 132.4 48.8285 133.347 48.8462C133.613 48.8512 133.88 48.8568 134.147 48.8623C136.985 48.9213 139.831 48.9805 142.628 48.3692C145.942 47.6448 148.948 46.2944 150.959 43.4145C153.923 39.1716 154.064 34.4618 152.681 29.709C150.904 23.6034 145.985 20.9052 139.798 20.6654C136.52 20.5372 133.236 20.5621 129.951 20.5869C127.934 20.6022 125.917 20.6175 123.902 20.5973C122.852 20.5872 122.496 20.7614 122.509 21.93C122.559 26.7581 122.553 31.5877 122.546 36.4166ZM132.193 33.4974C132.192 33.941 132.191 34.3846 132.191 34.8282C132.191 35.2161 132.191 35.604 132.19 35.9919C132.19 37.1563 132.19 38.3207 132.193 39.4851C132.194 39.53 132.193 39.5759 132.192 39.6218C132.185 39.9963 132.178 40.3778 132.774 40.3508C133.421 40.3221 134.069 40.3321 134.718 40.3421C136.235 40.3654 137.753 40.3888 139.256 39.9167C141.976 39.0636 143.408 37.1958 143.243 34.4724C143.087 31.8827 141.285 29.9771 138.63 29.4823C137.419 29.2579 136.206 29.2672 134.993 29.2765C134.323 29.2816 133.654 29.2868 132.986 29.2527C132.251 29.2173 132.173 29.5858 132.183 30.1714C132.199 31.2801 132.196 32.3887 132.193 33.4974Z" fill="#FEFEFE"/>
<path fill-rule="evenodd" clip-rule="evenodd" d="M282.653 62.5996C289.993 61.6455 295.369 55.6863 295.227 45.1712C295.157 42.0641 292.762 37.478 287.373 34.7268C283.847 32.9246 280.061 32.7505 276.229 33.336C273.581 33.7424 271.191 34.8176 269.129 36.5542C265.858 39.3054 264.283 42.8844 264.086 47.1021C263.861 51.8826 265.262 56.0573 268.988 59.2098C272.958 62.5693 277.612 63.2558 282.653 62.5996ZM277.471 54.4248C281.901 55.967 285.891 52.9154 285.891 48.0617C286.096 43.4301 282.322 40.1413 277.539 41.6456C273.874 42.7991 272.91 46.252 273.627 49.985C274.038 52.1254 275.389 53.7004 277.471 54.4248Z" fill="#FEFEFE"/>
<path fill-rule="evenodd" clip-rule="evenodd" d="M179.479 55.2872C182.414 60.7391 187.361 62.6902 193.235 62.8568C194.646 63.0032 196.029 62.7482 197.367 62.4454C202.793 61.2061 206.718 58.0334 208.25 52.637C209.77 47.2886 209.141 42.0336 205.151 37.8487C200.274 32.735 194.151 32.0409 187.652 33.9592C177.785 36.8719 175.632 48.1442 179.479 55.2872ZM193.283 54.793C197.001 54.7753 199.583 52.009 199.573 48.0059C199.563 43.9296 197.087 41.403 193.222 41.3197C189.648 41.2415 186.985 43.9801 186.97 47.9882C186.955 52.0039 189.679 54.8107 193.283 54.793Z" fill="#FEFEFE"/>
</g>
<defs>
<filter id="filter0_d" x="0" y="0" width="389" height="90.9001" filterUnits="userSpaceOnUse" color-interpolation-filters="sRGB">
<feFlood flood-opacity="0" result="BackgroundImageFix"/>
<feColorMatrix in="SourceAlpha" type="matrix" values="0 0 0 0 0 0 0 0 0 0 0 0 0 0 0 0 0 0 127 0"/>
<feOffset dy="4"/>
<feGaussianBlur stdDeviation="7.5"/>
<feColorMatrix type="matrix" values="0 0 0 0 0.0588235 0 0 0 0 0.101961 0 0 0 0 0.290196 0 0 0 0.63 0"/>
<feBlend mode="normal" in2="BackgroundImageFix" result="effect1_dropShadow"/>
<feBlend mode="normal" in="SourceGraphic" in2="effect1_dropShadow" result="shape"/>
</filter>
</defs>
</svg>
