<svg width="450" height="450" viewBox="0 0 450 450" fill="none" xmlns="http://www.w3.org/2000/svg">
<g filter="url(#filter0_d)">
<path d="M150 160.773C150 152.614 156.614 146 164.773 146H285.227C293.386 146 300 152.614 300 160.773V281.227C300 289.386 293.386 296 285.227 296H164.773C156.614 296 150 289.386 150 281.227V160.773Z" fill="#2FCC71"/>
<path d="M264.613 178.039H253.836C252.092 178.039 250.722 179.255 250.516 180.903H243.205C242.476 180.903 241.951 181.303 241.797 181.935L237.177 187.385C236.163 182.083 231.405 178.039 225.73 178.039C219.822 178.039 214.909 182.421 214.177 188.043L206.683 181.727C206.473 181.216 205.987 180.903 205.341 180.903H198.03C197.825 179.255 196.454 178.039 194.71 178.039H183.934C182.04 178.039 180.584 179.471 180.584 181.332V183.337C180.584 185.199 182.04 186.631 183.934 186.631H194.71C196.455 186.631 197.825 185.414 198.03 183.767H204.662L214.349 191.932C214.779 193.861 215.706 195.612 216.992 197.048V206.679H215.244C212.186 206.679 209.565 208.971 209.419 211.978L207.089 244.915C207.089 246.49 207.672 248.065 208.691 249.211C209.711 250.357 211.312 251.073 212.914 251.073H215.536V253.937C215.536 259.522 220.05 263.961 225.73 263.961C231.41 263.961 235.924 259.522 235.924 253.937V251.073H238.545C240.147 251.073 241.749 250.357 242.769 249.354C243.934 248.209 244.516 246.633 244.371 245.058L242.041 212.121C241.895 208.971 239.274 206.679 236.216 206.679H234.468V197.048C235.762 195.603 236.694 193.838 237.12 191.893L244.007 183.767H250.517C250.722 185.414 252.092 186.631 253.837 186.631H264.614C266.506 186.631 267.963 185.199 267.963 183.337V181.332C267.963 179.471 266.506 178.039 264.613 178.039ZM195.147 183.337C195.147 183.624 195.001 183.767 194.71 183.767H183.934C183.642 183.767 183.497 183.624 183.497 183.337V181.332C183.497 181.046 183.642 180.903 183.934 180.903H194.71C195.002 180.903 195.147 181.046 195.147 181.332V183.337H195.147ZM212.914 248.209C212.04 248.209 211.312 247.922 210.73 247.349C210.293 246.777 210.001 245.917 210.001 245.201L212.331 212.264C212.477 210.689 213.642 209.543 215.244 209.543H216.992V231.546C216.81 231.843 216.645 232.151 216.495 232.467C215.829 233.8 215.535 235.228 215.535 236.752V248.209H212.914ZM233.011 253.937C233.011 257.947 229.807 261.097 225.73 261.097C221.652 261.097 218.448 257.947 218.448 253.937V251.073V236.752C218.448 236.646 218.451 236.542 218.456 236.437C218.458 236.382 218.461 236.328 218.465 236.274C218.467 236.241 218.47 236.209 218.472 236.177C218.573 234.973 218.984 233.876 219.613 232.886C220.786 231.155 222.433 230.077 224.323 229.722C224.368 229.714 224.413 229.706 224.459 229.699C224.548 229.684 224.637 229.67 224.727 229.659C224.781 229.652 224.834 229.645 224.888 229.639C224.979 229.629 225.071 229.621 225.162 229.615C225.211 229.611 225.259 229.607 225.307 229.604C225.447 229.597 225.588 229.592 225.729 229.592C225.871 229.592 226.012 229.597 226.151 229.604C226.202 229.607 226.252 229.612 226.303 229.615C226.39 229.622 226.477 229.629 226.563 229.638C226.625 229.645 226.687 229.652 226.748 229.661C226.821 229.67 226.893 229.681 226.966 229.693C227.032 229.704 227.099 229.714 227.165 229.727C227.23 229.739 227.294 229.754 227.359 229.767C227.428 229.783 227.498 229.796 227.566 229.813C227.615 229.826 227.663 229.84 227.711 229.853C227.851 229.891 227.989 229.932 228.125 229.978C228.181 229.996 228.237 230.014 228.293 230.034C228.36 230.059 228.426 230.085 228.493 230.111C228.551 230.134 228.61 230.158 228.668 230.182C228.73 230.209 228.792 230.236 228.853 230.264C228.918 230.293 228.982 230.324 229.046 230.356C229.1 230.382 229.154 230.408 229.207 230.436C229.316 230.493 229.424 230.553 229.53 230.616C229.581 230.646 229.63 230.679 229.68 230.71C229.739 230.747 229.798 230.783 229.856 230.822C229.922 230.866 229.988 230.912 230.053 230.958C230.085 230.981 230.116 231.004 230.148 231.028C230.68 231.422 231.154 231.888 231.554 232.412V232.456L231.672 232.572C231.882 232.863 232.07 233.17 232.234 233.492C232.643 234.359 232.908 235.24 232.986 236.175C232.989 236.208 232.991 236.241 232.994 236.274C232.997 236.328 233 236.382 233.003 236.437C233.007 236.541 233.011 236.646 233.011 236.752V251.073V253.937H233.011ZM236.215 209.543C237.817 209.543 238.982 210.689 239.128 212.264L241.458 245.201C241.603 246.061 241.312 246.777 240.73 247.349C240.147 247.922 239.419 248.209 238.545 248.209H235.924V236.752C235.924 235.228 235.63 233.8 234.964 232.467C234.814 232.151 234.649 231.843 234.467 231.546V209.543H236.215ZM231.555 228.499C230.117 227.522 228.405 226.903 226.544 226.762C226.534 226.761 226.524 226.76 226.514 226.76C226.403 226.751 226.291 226.744 226.179 226.739C226.03 226.732 225.881 226.728 225.73 226.728C225.578 226.728 225.428 226.732 225.279 226.739C225.174 226.743 225.07 226.751 224.966 226.758C224.946 226.759 224.926 226.761 224.905 226.763C223.337 226.883 221.874 227.344 220.592 228.072C220.361 228.191 220.131 228.316 219.905 228.446V206.679V199.402C221.621 200.385 223.611 200.951 225.73 200.951C227.849 200.951 229.838 200.385 231.555 199.402V206.679V228.499H231.555ZM225.73 198.087C220.924 198.087 216.992 194.221 216.992 189.495C216.992 184.769 220.924 180.903 225.73 180.903C230.535 180.903 234.467 184.769 234.467 189.495C234.467 194.221 230.535 198.087 225.73 198.087ZM265.05 183.337C265.05 183.624 264.904 183.767 264.613 183.767H253.836C253.545 183.767 253.399 183.624 253.399 183.337V181.332C253.399 181.046 253.545 180.903 253.836 180.903H264.613C264.904 180.903 265.05 181.046 265.05 181.332V183.337Z" fill="white"/>
<path d="M227.077 183.438C223.873 183.438 221.252 186.059 221.252 189.263C221.252 190.137 221.834 190.72 222.708 190.72C223.582 190.72 224.165 190.137 224.165 189.263C224.165 187.661 225.475 186.351 227.077 186.351C227.951 186.351 228.534 185.768 228.534 184.894C228.534 184.02 227.951 183.438 227.077 183.438Z" fill="white"/>
</g>
<defs>
<filter id="filter0_d" x="0" y="0" width="450" height="450" filterUnits="userSpaceOnUse" color-interpolation-filters="sRGB">
<feFlood flood-opacity="0" result="BackgroundImageFix"/>
<feColorMatrix in="SourceAlpha" type="matrix" values="0 0 0 0 0 0 0 0 0 0 0 0 0 0 0 0 0 0 127 0"/>
<feOffset dy="4"/>
<feGaussianBlur stdDeviation="75"/>
<feColorMatrix type="matrix" values="0 0 0 0 0 0 0 0 0 0 0 0 0 0 0 0 0 0 0.25 0"/>
<feBlend mode="normal" in2="BackgroundImageFix" result="effect1_dropShadow"/>
<feBlend mode="normal" in="SourceGraphic" in2="effect1_dropShadow" result="shape"/>
</filter>
</defs>
</svg>
