<svg width="216" height="87" viewBox="0 0 216 87" fill="none" xmlns="http://www.w3.org/2000/svg">
<path d="M48.3916 19.188C52.9827 19.188 57.3517 19.2621 61.7207 19.188C62.8315 19.188 62.9796 19.8545 63.2758 20.595C67.7188 32.5171 72.2359 44.5133 76.6789 56.4355C77.8637 59.6196 79.0485 62.8038 80.3814 66.3582C81.7884 62.7297 83.0473 59.3975 84.2321 56.1393C88.601 44.5133 92.97 32.8133 97.265 21.1133C97.8574 19.5583 98.5979 19.114 100.153 19.188C104.152 19.3361 108.15 19.2621 112.445 19.2621C111.038 22.9646 109.705 26.519 108.373 30.0734C101.634 48.0677 94.8953 66.062 88.2308 84.1303C87.7124 85.5373 86.9719 85.9076 85.565 85.9076C82.0846 85.8335 78.6783 85.7595 75.1979 85.9076C73.4947 85.9816 72.9023 85.3152 72.3099 83.8342C68.8295 74.2076 65.2011 64.6551 61.6466 55.1026C57.3517 43.6988 53.1308 32.2209 48.8359 20.8171C48.7619 20.2988 48.6878 19.8545 48.3916 19.188Z" fill="#FEFEFE"/>
<path d="M24.0294 86.9444C14.3288 86.9444 6.55348 82.8716 0.48133 75.3925C-0.111075 74.726 -0.259178 74.2817 0.629429 73.6893C3.59145 71.6159 6.40537 69.5425 9.29334 67.395C10.1079 66.8026 10.4782 67.0248 11.0706 67.6912C14.1066 71.0976 17.587 73.9115 22.4003 74.4298C25.1402 74.726 27.806 74.2817 30.1756 72.7267C34.0262 70.357 34.5446 65.6919 31.3604 62.5077C29.5091 60.6564 27.1395 59.6938 24.844 58.6571C20.2528 56.5836 15.3655 55.0286 11.2187 52.0666C2.925 46.0685 0.703477 35.6273 5.96107 26.9634C9.21929 21.6318 14.3288 18.966 20.3269 18.2255C29.287 17.1147 36.9883 19.7805 42.9863 26.7413C43.8009 27.6299 43.7269 28.1482 42.6901 28.8147C40.1724 30.5179 37.6547 32.3691 35.211 34.2204C34.2484 34.9609 33.656 35.0349 32.7674 34.1463C30.2496 31.7027 27.2876 30.2957 23.5851 30.4438C20.3269 30.5919 17.7351 32.2951 16.9206 34.8128C16.0319 37.6267 16.9946 40.2185 19.9566 42.2919C23.6592 44.8096 27.9541 46.1425 31.9528 48.0678C34.9148 49.4748 37.7288 51.0299 40.3205 53.1033C50.4655 61.1007 48.6142 77.4659 36.9142 83.7602C32.8414 86.1298 29.361 86.9444 24.0294 86.9444Z" fill="#FEFEFE"/>
<path d="M119.332 34.0722C119.332 23.4089 119.406 12.7456 119.258 2.08235C119.258 0.305133 119.776 -0.0651111 121.405 0.00893941C124.589 0.157041 127.848 0.08299 131.032 0.00893941C132.365 -0.0651111 132.809 0.305133 132.809 1.71209C132.735 6.96968 132.809 12.2273 132.735 17.4108C132.735 18.8918 133.179 19.188 134.586 19.188C140.288 19.114 146.064 19.188 151.766 19.114C153.099 19.114 153.321 19.3361 152.877 20.669C151.544 24.0754 150.211 27.5557 149.026 31.0361C148.656 31.9988 148.212 32.295 147.175 32.295C142.954 32.2209 138.659 32.295 134.438 32.2209C133.105 32.2209 132.809 32.5912 132.809 33.85C132.883 43.8469 132.809 53.8437 132.883 63.8405C132.883 67.0987 133.846 70.0608 136.512 72.2082C139.77 74.874 143.62 75.0221 147.693 72.4304C148.73 71.7639 149.248 71.7639 150.063 72.7266C152.062 75.1702 154.21 77.6139 156.357 79.9835C157.32 80.9462 157.172 81.4645 156.209 82.205C144.953 90.7949 126.959 87.981 121.035 72.6525C119.924 69.7645 119.406 66.7285 119.406 63.6184C119.332 53.8437 119.332 43.995 119.332 34.0722Z" fill="#FEFEFE"/>
<path d="M168.502 19.1139C172.204 21.7057 175.759 24.2234 179.239 26.6671C190.939 34.8867 202.565 43.1803 214.339 51.3999C215.672 52.2885 215.524 52.7328 214.339 53.5474C204.046 60.7303 193.753 67.9873 183.534 75.2442C179.165 78.3543 174.796 81.4645 170.427 84.5005C169.909 84.8708 169.316 85.241 168.576 85.7594C168.502 63.5442 168.502 41.5512 168.502 19.1139Z" fill="#00C801"/>
</svg>
