<svg width="168" height="193" viewBox="0 0 168 193" fill="none" xmlns="http://www.w3.org/2000/svg">
<path fill-rule="evenodd" clip-rule="evenodd" d="M85.3619 0.364645C84.5192 -0.12155 83.4808 -0.121548 82.6381 0.364648L1.36192 47.2538C0.51916 47.74 0 48.6385 0 49.6109V143.389C0 144.361 0.519165 145.26 1.36192 145.746L82.6381 192.635C83.4808 193.122 84.5192 193.122 85.3619 192.635L166.638 145.746C167.481 145.26 168 144.361 168 143.389V49.6109C168 48.6385 167.481 47.74 166.638 47.2538L85.3619 0.364645ZM50.6978 66.0388C49.1935 66.0388 47.974 67.2574 47.974 68.7606V124.239C47.974 125.742 49.1935 126.961 50.6978 126.961H61.8778C63.3822 126.961 64.6017 125.742 64.6017 124.239V68.7606C64.6017 67.2574 63.3822 66.0388 61.8778 66.0388H50.6978ZM75.6873 79.8379C75.6873 78.3347 76.9069 77.1162 78.4112 77.1162H89.5912C91.0955 77.1162 92.315 78.3347 92.315 79.8379V124.24C92.315 125.743 91.0955 126.961 89.5912 126.961H78.4112C76.9069 126.961 75.6873 125.743 75.6873 124.24V79.8379ZM106.124 54.9617C104.619 54.9617 103.4 56.1803 103.4 57.6835V124.238C103.4 125.742 104.619 126.96 106.124 126.96H117.304C118.808 126.96 120.027 125.742 120.027 124.238V57.6835C120.027 56.1803 118.808 54.9617 117.304 54.9617H106.124Z" fill="white"/>
</svg>
