<svg width="97" height="58" viewBox="0 0 97 58" fill="none" xmlns="http://www.w3.org/2000/svg">
<path d="M27.7324 20.9696C27.7324 22.145 27.8595 23.0981 28.0819 23.797C28.336 24.4959 28.6537 25.2583 29.0985 26.0843C29.2573 26.3384 29.3208 26.5926 29.3208 26.8149C29.3208 27.1326 29.1302 27.4503 28.7172 27.768L26.7159 29.1022C26.4299 29.2928 26.144 29.3881 25.8899 29.3881C25.5722 29.3881 25.2545 29.2293 24.9368 28.9434C24.4921 28.4669 24.1109 27.9586 23.7932 27.4503C23.4755 26.9102 23.1578 26.3066 22.8084 25.576C20.3305 28.4986 17.2172 29.96 13.4686 29.96C10.8001 29.96 8.67163 29.1975 7.11499 27.6727C5.55836 26.1478 4.76416 24.1146 4.76416 21.5732C4.76416 18.8729 5.7172 16.6809 7.65505 15.029C9.5929 13.3771 12.1661 12.5511 15.4382 12.5511C16.5183 12.5511 17.6302 12.6464 18.8056 12.8052C19.981 12.9641 21.1882 13.2182 22.4589 13.5041V11.1851C22.4589 8.77069 21.9507 7.08699 20.9658 6.10218C19.9493 5.11737 18.2338 4.64085 15.7877 4.64085C14.6758 4.64085 13.5321 4.76792 12.3567 5.05384C11.1813 5.33975 10.0377 5.6892 8.92577 6.13395C8.41748 6.35633 8.03627 6.4834 7.81389 6.54693C7.59151 6.61047 7.43267 6.64224 7.3056 6.64224C6.86085 6.64224 6.63847 6.32456 6.63847 5.65743V4.1008C6.63847 3.59251 6.70201 3.21129 6.86085 2.98892C7.01969 2.76654 7.3056 2.54416 7.75035 2.32179C8.86223 1.74996 10.1965 1.27344 11.7531 0.892226C13.3098 0.479242 14.9617 0.288634 16.7089 0.288634C20.4893 0.288634 23.2531 1.14637 25.0322 2.86184C26.7794 4.57732 27.6689 7.18229 27.6689 10.6768V20.9696H27.7324ZM14.8346 25.7984C15.883 25.7984 16.9631 25.6077 18.1067 25.2265C19.2504 24.8453 20.267 24.1464 21.1247 23.1934C21.633 22.5898 22.0142 21.9227 22.2048 21.1602C22.3954 20.3978 22.5225 19.4765 22.5225 18.3964V17.0621C21.6012 16.8398 20.6164 16.6492 19.5998 16.5221C18.5832 16.395 17.5984 16.3315 16.6136 16.3315C14.4852 16.3315 12.9285 16.7445 11.8802 17.6022C10.8319 18.4599 10.3236 19.6671 10.3236 21.2555C10.3236 22.7486 10.7048 23.8605 11.499 24.6229C12.2614 25.4171 13.3733 25.7984 14.8346 25.7984ZM40.3443 29.2293C39.7725 29.2293 39.3913 29.134 39.1372 28.9116C38.883 28.721 38.6606 28.2763 38.47 27.6727L31.0045 3.11599C30.8139 2.48063 30.7186 2.06764 30.7186 1.84527C30.7186 1.33698 30.9728 1.05107 31.4811 1.05107H34.5943C35.1979 1.05107 35.6109 1.14637 35.8333 1.36875C36.0874 1.55935 36.278 2.00411 36.4686 2.6077L41.8057 23.6381L46.7615 2.6077C46.9203 1.97234 47.1109 1.55935 47.3651 1.36875C47.6192 1.17814 48.064 1.05107 48.6358 1.05107H51.1772C51.7808 1.05107 52.1938 1.14637 52.4479 1.36875C52.7021 1.55935 52.9245 2.00411 53.0515 2.6077L58.0709 23.8923L63.5668 2.6077C63.7574 1.97234 63.9797 1.55935 64.2021 1.36875C64.4563 1.17814 64.8692 1.05107 65.4411 1.05107H68.3955C68.9038 1.05107 69.1897 1.30521 69.1897 1.84527C69.1897 2.00411 69.1579 2.16295 69.1262 2.35355C69.0944 2.54416 69.0309 2.79831 68.9038 3.14776L61.2477 27.7044C61.0571 28.3398 60.8347 28.7528 60.5806 28.9434C60.3264 29.134 59.9134 29.2611 59.3734 29.2611H56.6413C56.0377 29.2611 55.6247 29.1658 55.3706 28.9434C55.1165 28.721 54.8941 28.308 54.767 27.6727L49.843 7.18229L44.9507 27.6409C44.7919 28.2763 44.6012 28.6892 44.3471 28.9116C44.093 29.134 43.6482 29.2293 43.0764 29.2293H40.3443ZM81.1662 30.087C79.5143 30.087 77.8624 29.8964 76.274 29.5152C74.6856 29.134 73.4466 28.721 72.6206 28.2445C72.1124 27.9586 71.7629 27.6409 71.6358 27.355C71.5088 27.0691 71.4452 26.7514 71.4452 26.4655V24.8453C71.4452 24.1782 71.6994 23.8605 72.1759 23.8605C72.3665 23.8605 72.5571 23.8923 72.7477 23.9558C72.9383 24.0193 73.2242 24.1464 73.5419 24.2735C74.622 24.75 75.7974 25.1312 77.0364 25.3854C78.3071 25.6395 79.5461 25.7666 80.8168 25.7666C82.8182 25.7666 84.3748 25.4171 85.4549 24.7182C86.535 24.0193 87.1068 23.0028 87.1068 21.7003C87.1068 20.8108 86.8209 20.0801 86.2491 19.4765C85.6773 18.8729 84.5972 18.3329 83.0406 17.8246L78.4342 16.395C76.1151 15.6644 74.3997 14.5842 73.3513 13.1547C72.303 11.7569 71.7629 10.2003 71.7629 8.54832C71.7629 7.21406 72.0488 6.03865 72.6206 5.02207C73.1925 4.00549 73.9549 3.11599 74.9079 2.41709C75.861 1.68643 76.9411 1.14637 78.2118 0.765154C79.4825 0.383938 80.8168 0.225098 82.2146 0.225098C82.9135 0.225098 83.6441 0.256866 84.343 0.35217C85.0737 0.447474 85.7408 0.574546 86.408 0.701618C87.0433 0.860458 87.6469 1.0193 88.2187 1.20991C88.7906 1.40051 89.2353 1.59112 89.553 1.78173C89.9977 2.03587 90.3154 2.29002 90.506 2.57593C90.6966 2.83008 90.7919 3.17952 90.7919 3.62428V5.11737C90.7919 5.7845 90.5378 6.13395 90.0613 6.13395C89.8071 6.13395 89.3941 6.00688 88.8541 5.75273C87.0433 4.92676 85.0102 4.51378 82.7546 4.51378C80.9439 4.51378 79.5143 4.79969 78.5295 5.40328C77.5447 6.00688 77.0364 6.92815 77.0364 8.23064C77.0364 9.12014 77.3541 9.88258 77.9894 10.4862C78.6248 11.0898 79.8002 11.6934 81.4839 12.2334L85.995 13.663C88.2823 14.3936 89.9342 15.4102 90.919 16.7127C91.9038 18.0152 92.3803 19.5083 92.3803 21.1602C92.3803 22.5262 92.0944 23.7652 91.5544 24.8453C90.9825 25.9254 90.2201 26.8785 89.2353 27.6409C88.2505 28.4351 87.0751 29.0069 85.7091 29.4199C84.2795 29.8647 82.7864 30.087 81.1662 30.087Z" fill="#ff0000"/>
<path fill-rule="evenodd" clip-rule="evenodd" d="M87.1696 45.5259C76.7179 53.2455 61.5328 57.3436 48.4762 57.3436C30.1778 57.3436 13.6902 50.577 1.23712 39.3311C0.252312 38.4416 1.14182 37.2344 2.31723 37.9333C15.7869 45.7483 32.4015 50.4817 49.588 50.4817C61.1834 50.4817 73.9224 48.0673 85.6448 43.1115C87.392 42.3173 88.8851 44.2552 87.1696 45.5259Z" fill="#4984F8"/>
<path fill-rule="evenodd" clip-rule="evenodd" d="M91.5197 40.5704C90.1854 38.8549 82.6882 39.7444 79.289 40.1574C78.2724 40.2845 78.1136 39.395 79.0348 38.7278C85.0072 34.5344 94.8236 35.7416 95.9672 37.1394C97.1108 38.569 95.6495 48.3853 90.0583 53.087C89.2006 53.8176 88.3746 53.4364 88.7559 52.4834C90.0266 49.3383 92.8539 42.2541 91.5197 40.5704Z" fill="#4984F8"/>
</svg>
