<svg width="172" height="65" viewBox="0 0 172 65" fill="none" xmlns="http://www.w3.org/2000/svg">
<path d="M55.5694 23.6909C52.2029 23.6909 48.4447 24.9878 47.6572 29.2567C47.5733 29.7101 47.8736 29.9265 48.1636 29.9927L51.614 30.4063C51.9335 30.3902 52.1499 30.0428 52.2117 29.716C52.5061 28.2469 53.7146 27.5535 55.0645 27.5535C55.7932 27.5535 56.6116 27.8038 57.0429 28.4736C57.5375 29.2199 57.5022 30.2341 57.5022 31.0953V31.6016C55.4516 31.8372 52.7519 31.98 50.8324 32.844C48.617 33.8288 47.061 35.8323 47.061 38.7778C47.061 42.5521 49.3736 44.4363 52.3515 44.4363C54.8658 44.4363 56.2554 43.846 58.194 41.8146C58.8373 42.7715 59.0434 43.2057 60.2181 44.2067C60.348 44.2808 60.498 44.3118 60.6466 44.2954C60.7952 44.2791 60.9348 44.216 61.0454 44.1154V44.1611C61.752 43.5163 63.037 42.3446 63.7598 41.7234C64.0483 41.482 63.985 41.0845 63.7598 40.7577C63.1136 39.8421 62.4262 39.1031 62.4262 37.4V31.7415C62.4262 29.345 62.6293 27.1355 60.9085 25.4853C59.5498 24.1502 57.2887 23.6909 55.5694 23.6909ZM101.939 23.6909C98.5705 23.6909 94.8154 24.9878 94.0264 29.2567C93.9425 29.7101 94.2413 29.9265 94.5327 29.9927L97.9832 30.4063C98.3026 30.3902 98.5205 30.0428 98.5808 29.716C98.8767 28.2469 100.084 27.5535 101.434 27.5535C102.164 27.5535 102.981 27.8038 103.412 28.4736C103.905 29.2199 103.826 30.2341 103.826 31.0953V31.6016C101.775 31.8372 99.1226 31.98 97.2015 32.844C94.9847 33.8288 93.4302 35.8323 93.4302 38.7778C93.4302 42.5521 95.7442 44.4363 98.7207 44.4363C101.232 44.4363 102.622 43.846 104.563 41.8146C105.205 42.7715 105.413 43.2057 106.587 44.2067C106.852 44.348 107.18 44.3333 107.415 44.1154V44.1611C108.121 43.5163 109.406 42.3446 110.129 41.7234C110.416 41.482 110.35 41.0845 110.129 40.7577C109.483 39.8421 108.795 39.1031 108.795 37.4V31.7415C108.795 29.345 108.95 27.1355 107.232 25.4853C105.872 24.1502 103.658 23.6909 101.939 23.6909ZM75.8555 23.8749C73.6799 23.8749 72.0665 24.9731 71.2098 27.3254H71.1642V24.8877C71.1525 24.7205 71.0808 24.5632 70.9623 24.4447C70.8439 24.3263 70.6866 24.2546 70.5194 24.2429H67.2073C67.0251 24.2456 66.851 24.3192 66.7221 24.4481C66.5932 24.577 66.5196 24.751 66.5169 24.9333V43.5634C66.5326 43.7291 66.6056 43.8841 66.7233 44.0018C66.841 44.1195 66.996 44.1925 67.1617 44.2082H70.7034C70.8859 44.2063 71.0604 44.1329 71.1895 44.0038C71.3185 43.8748 71.3919 43.7003 71.3938 43.5178V33.6272C71.3938 31.4706 71.2893 28.5207 73.8315 28.5207C76.3413 28.5207 75.9939 31.5516 75.9939 33.6272V43.5178C75.9939 43.8696 76.281 44.1846 76.6387 44.2082H80.1804C80.3629 44.2063 80.5374 44.1329 80.6664 44.0038C80.7955 43.8748 80.8689 43.7003 80.8708 43.5178V33.6272C80.8708 32.5688 80.8281 31.0275 81.1931 30.0854C81.5567 29.1433 82.4503 28.5221 83.3099 28.5221C84.3345 28.5221 85.1161 28.8798 85.3796 30.1325C85.5445 30.8774 85.4709 32.8455 85.4709 33.6286V43.5193C85.4709 43.8711 85.7579 44.1861 86.1156 44.2096H89.6574C89.8399 44.2077 90.0144 44.1344 90.1434 44.0053C90.2725 43.8762 90.3458 43.7018 90.3477 43.5193V31.743C90.3477 29.7425 90.5494 27.4711 89.4277 25.9004C88.437 24.4902 86.8178 23.8764 85.334 23.8764C83.2525 23.8764 81.3168 24.9745 80.4586 27.3268C79.4664 24.9745 78.068 23.8749 75.8555 23.8749ZM136.072 23.8749C130.954 23.8749 128.114 28.3749 128.114 34.1792C128.114 39.9437 130.923 44.5747 136.072 44.5747C141.026 44.5747 144.168 40.0497 144.168 34.3617C144.168 28.4839 141.321 23.8749 136.072 23.8749ZM156.266 23.8749C153.82 23.8749 152.424 25.0982 151.436 27.6463H151.39V24.7935C151.327 24.505 151.055 24.3048 150.745 24.2871H147.479C147.31 24.2833 147.146 24.3424 147.019 24.4528C146.891 24.5633 146.809 24.7172 146.789 24.8847V43.5148C146.792 43.6892 146.86 43.8562 146.979 43.9836C147.098 44.1111 147.26 44.19 147.433 44.2052H150.929C151.112 44.2026 151.286 44.129 151.415 44.0001C151.544 43.8712 151.617 43.6971 151.62 43.5148V33.4873C151.62 32.2302 151.726 31.0835 152.217 29.9456C152.615 29.0432 153.382 28.4736 154.241 28.4736C156.682 28.4736 156.45 31.4486 156.45 33.4873V43.6076C156.472 43.766 156.549 43.9119 156.666 44.0207C156.783 44.1295 156.935 44.1947 157.094 44.2052H160.636C160.983 44.2052 161.285 43.9403 161.326 43.6076V31.8769C161.326 30.0737 161.331 27.5683 160.406 26.08C159.416 24.474 157.848 23.8749 156.266 23.8749ZM113.76 24.1973C113.401 24.1973 113.117 24.4829 113.116 24.8877V27.555C113.117 27.9539 113.392 28.2425 113.76 28.2454H119.833L112.886 38.504C112.462 39.165 112.427 39.9142 112.427 40.3441V43.0585C112.427 43.4501 112.852 43.8755 113.254 43.6562C117.212 41.4952 121.957 41.6866 125.537 43.6105C125.971 43.8475 126.411 43.403 126.411 43.0129V40.1601C126.401 39.9497 126.336 39.7457 126.223 39.5681C126.11 39.3905 125.953 39.2454 125.766 39.1473C123.735 37.9785 121.377 37.6208 119.142 37.6753L125.169 28.843C125.727 28.0496 126.039 27.5712 126.043 27.187V24.8877C126.043 24.4917 125.772 24.1973 125.398 24.1973H113.76ZM136.072 27.6934C137.194 27.6934 138.021 28.1939 138.419 29.4878C138.878 30.979 138.925 32.8411 138.925 34.4103C138.925 36.8009 138.813 40.7577 136.072 40.7577C133.3 40.7577 133.312 35.8588 133.312 33.5815C133.312 31.3102 133.464 27.6934 136.072 27.6934ZM57.4551 34.5016V35.2832C57.4551 36.6978 57.5066 37.8887 56.8103 39.1473C56.248 40.1704 55.3648 40.8033 54.3726 40.8033C53.0184 40.8033 52.2102 39.7052 52.2102 38.136C52.2117 35.0418 54.8996 34.5016 57.4551 34.5016ZM103.824 34.5016V35.2832C103.824 36.6978 103.876 37.8887 103.179 39.1473C102.617 40.1704 101.738 40.8033 100.742 40.8033C99.386 40.8033 98.5794 39.7052 98.5794 38.136C98.5808 35.0418 101.266 34.5016 103.824 34.5016Z" fill="#4984F8"/>
<path d="M126.779 44.8059V47.4732H128.573V44.8059H126.779ZM74.7513 45.2652V64.2633H76.4073V62.5616C76.7606 63.2358 77.1625 63.7407 77.6497 64.0793C78.1355 64.4179 78.6934 64.5857 79.3057 64.5857C80.5216 64.5857 81.5712 63.9645 82.4795 62.7C83.3877 61.4355 83.8602 59.6028 83.8602 57.2711C83.8602 55.7446 83.6644 54.4801 83.2626 53.407C82.8607 52.3368 82.3234 51.5405 81.6522 51.015C80.9809 50.4894 80.2184 50.1877 79.3985 50.1877C78.8285 50.1816 78.2691 50.3412 77.7881 50.6469C77.3097 50.9531 76.9225 51.4522 76.5457 52.0734V45.2652H74.7513ZM91.7724 49.7284C90.5241 49.7284 89.5335 50.0979 88.8284 50.8324C88.1232 51.5655 87.77 52.512 87.77 53.6852C87.77 54.3668 87.923 54.9424 88.1836 55.4796C88.4442 56.0169 88.8195 56.4482 89.2876 56.7677C89.7587 57.0871 90.6978 57.5066 92.0933 57.963C93.059 58.2736 93.636 58.5385 93.8877 58.7446C94.2528 59.0464 94.4398 59.4424 94.4398 59.987C94.4398 60.6171 94.2219 61.1426 93.795 61.5503C93.3696 61.961 92.7778 62.148 92.0006 62.148C91.2234 62.148 90.583 61.9301 90.1149 61.4576C89.6468 60.9851 89.3936 60.2667 89.2876 59.2952L87.4932 59.6632C87.898 62.6146 89.3701 64.0808 91.9093 64.0793C93.2636 64.0793 94.2999 63.6951 95.083 62.884C95.8662 62.0729 96.2783 60.9777 96.2783 59.6632C96.2783 58.9536 96.1532 58.3383 95.9103 57.8231C95.6674 57.3079 95.3333 56.9267 94.8976 56.6278C94.4604 56.3305 93.4859 55.933 91.9991 55.4325C90.9186 55.0542 90.2857 54.7775 90.0678 54.6053C89.7013 54.3138 89.5158 53.9163 89.5158 53.41C89.5158 52.8918 89.6866 52.4531 90.0678 52.1219C90.4491 51.7907 91.0364 51.6155 91.8166 51.6155C93.1885 51.6155 93.9555 52.3692 94.1159 53.8692L95.8647 53.5925C95.744 52.643 95.5364 51.8938 95.2199 51.3844C94.9034 50.8751 94.4353 50.4453 93.8392 50.142C93.2445 49.8403 92.56 49.7284 91.7724 49.7284ZM102.767 49.7284C101.329 49.7284 100.116 50.3202 99.1782 51.5684C98.2406 52.8167 97.7975 54.6244 97.7975 56.9973C97.7975 59.2834 98.2494 61.0749 99.1782 62.2878C100.107 63.4993 101.311 64.0822 102.813 64.0822C104.007 64.0822 104.996 63.7245 105.802 62.9782C106.611 62.2319 107.196 61.1337 107.504 59.6661L105.664 59.3437C105.136 61.2235 104.161 62.1465 102.811 62.1494C101.952 62.1494 101.249 61.7844 100.649 60.9998C100.048 60.2137 99.7082 59.0479 99.636 57.5037H107.548V56.8589C107.548 54.5375 107.086 52.7947 106.167 51.5684C105.252 50.3422 104.138 49.7284 102.767 49.7284ZM113.669 49.7284C113.239 49.7284 112.864 49.8741 112.519 50.1877C112.175 50.5012 111.783 51.1519 111.37 52.119V50.0022H109.759V63.7569H111.554V56.5822C111.554 55.5812 111.648 54.6185 111.876 53.7294C112.006 53.2201 112.25 52.8182 112.566 52.5341C112.883 52.25 113.244 52.1205 113.625 52.1205C114.047 52.1205 114.467 52.2897 114.913 52.6268L115.51 50.4644C114.883 49.9639 114.27 49.7284 113.669 49.7284ZM135.657 49.7284C134.236 49.7284 133.066 50.326 132.161 51.5228C131.258 52.7181 130.78 54.514 130.78 56.9046C130.78 59.276 131.263 61.0734 132.161 62.2863C133.057 63.4978 134.179 64.0808 135.564 64.0808C136.708 64.0808 137.691 63.6553 138.508 62.7927C139.325 61.9301 139.823 60.6612 140.026 59.0214L138.277 58.7446C138.147 59.9178 137.841 60.7613 137.357 61.3207C136.873 61.8771 136.29 62.148 135.608 62.148C134.74 62.148 134.001 61.7432 133.446 60.9056C132.891 60.068 132.618 58.7284 132.618 56.8575C132.618 55.0439 132.911 53.7353 133.493 52.9006C134.074 52.066 134.815 51.6126 135.701 51.6126C136.293 51.6126 136.798 51.8422 137.219 52.303C137.643 52.7623 137.924 53.4924 138.093 54.4198L139.842 54.0518C139.631 52.6033 139.166 51.5096 138.415 50.7853C137.665 50.0596 136.753 49.7284 135.657 49.7284ZM145.915 49.7284C144.477 49.7284 143.264 50.3202 142.327 51.5684C141.389 52.8167 140.946 54.6244 140.946 56.9973C140.946 59.2834 141.398 61.0749 142.327 62.2878C143.257 63.4993 144.46 64.0822 145.961 64.0822C147.152 64.0822 148.143 63.7245 148.951 62.9782C149.757 62.2319 150.343 61.1337 150.652 59.6661L148.812 59.3437C148.284 61.2235 147.352 62.1465 146.007 62.1494C145.147 62.1494 144.399 61.7844 143.799 60.9998C143.198 60.2137 142.859 59.0479 142.786 57.5037H150.698V56.8589C150.698 54.5375 150.236 52.7947 149.317 51.5684C148.405 50.3422 147.287 49.7284 145.915 49.7284ZM156.542 49.7284C155.291 49.7284 154.303 50.0979 153.598 50.8324C152.891 51.5655 152.54 52.512 152.54 53.6852C152.54 54.3668 152.647 54.9424 152.908 55.4796C153.167 56.0155 153.541 56.4482 154.012 56.7677C154.48 57.0871 155.423 57.5066 156.817 57.963C157.78 58.2736 158.406 58.5385 158.657 58.7446C159.022 59.0464 159.209 59.4424 159.209 59.987C159.209 60.6171 158.991 61.1426 158.565 61.5503C158.141 61.961 157.547 62.148 156.77 62.148C155.991 62.148 155.353 61.9301 154.885 61.4576C154.416 60.9851 154.115 60.2667 154.01 59.2952L152.216 59.6632C152.621 62.6146 154.09 64.0808 156.632 64.0793C157.988 64.0793 159.068 63.6951 159.853 62.884C160.637 62.0729 161.048 60.9777 161.048 59.6632C161.048 58.9536 160.923 58.3383 160.68 57.8231C160.437 57.3079 160.059 56.9267 159.622 56.6278C159.186 56.3305 158.255 55.933 156.769 55.4325C155.688 55.0542 155.01 54.7775 154.79 54.6053C154.424 54.3138 154.238 53.9163 154.238 53.41C154.238 52.8918 154.455 52.4531 154.836 52.1219C155.217 51.7907 155.807 51.6155 156.585 51.6155C157.957 51.6155 158.724 52.3692 158.884 53.8692L160.633 53.5925C160.511 52.643 160.306 51.8938 159.988 51.3844C159.65 50.8516 159.173 50.4218 158.607 50.142C158.017 49.8403 157.328 49.7284 156.542 49.7284ZM115.509 50.0037L119.511 63.7584H121.213L125.216 50.0037H123.376L121.029 58.4222C120.745 59.4394 120.495 60.3182 120.339 61.0439C120.143 60.1298 119.956 59.17 119.694 58.2382L117.395 50.0037H115.509ZM126.779 50.0037V63.7584H128.573V50.0037H126.779ZM67.8062 50.1877C66.3827 50.1877 65.2375 50.8265 64.3101 52.0734C63.3813 53.3216 62.8837 55.1293 62.8837 57.5022C62.8837 59.7883 63.343 61.5341 64.2645 62.7456C65.186 63.9571 66.4122 64.5857 67.8989 64.5857C69.0795 64.5857 70.0437 64.1823 70.843 63.436C71.6409 62.6897 72.1929 61.5915 72.499 60.1239L70.7046 59.8472C70.1821 61.727 69.2326 62.6499 67.8989 62.6529C67.0466 62.6529 66.3312 62.2878 65.7365 61.5032C65.1418 60.7171 64.7959 59.5513 64.7238 58.0071H72.5432L72.5888 57.3624C72.5888 55.041 72.1178 53.2525 71.2081 52.0262C70.2984 50.8 69.1619 50.1877 67.8062 50.1877ZM47.6113 50.51L50.8321 64.2648H52.7178L54.8346 53.6838L55.2026 56.0302L56.9043 64.2648H58.7443L62.0108 50.51H60.3091L58.5147 58.4679L57.9171 61.1352L57.365 58.4679L55.8017 50.51H53.9617L52.3057 58.5606L51.7536 61.4134L51.1089 58.4694L49.4528 50.5115H47.6113V50.51ZM162.108 50.6484V51.2932H163.857V55.8933H164.547V51.2932H166.296V50.6484H162.108ZM166.985 50.6484V55.8918H167.629V51.4301L169.147 55.8918H169.792L171.31 51.5213V55.8918H172V50.6484H171.034L169.792 54.3285C169.667 54.6965 169.577 54.963 169.515 55.1558L169.238 54.3741L167.996 50.6484H166.985ZM102.72 51.6141C103.613 51.6141 104.35 52.0469 104.928 52.9021C105.325 53.488 105.583 54.38 105.664 55.5694H99.7303C99.7862 54.3624 100.128 53.4306 100.696 52.7166C101.264 52.0027 101.918 51.6141 102.72 51.6141ZM145.87 51.6141C146.76 51.6141 147.499 52.0469 148.078 52.9021C148.475 53.488 148.733 54.38 148.814 55.5694H142.88C142.936 54.3624 143.278 53.4306 143.846 52.7166C144.412 52.0056 145.066 51.6141 145.87 51.6141ZM67.8062 52.1205C68.6894 52.1205 69.3989 52.5532 69.9686 53.4085C70.3617 53.9944 70.6237 54.8864 70.7046 56.0758H64.8621C64.9181 54.8687 65.2169 53.8913 65.7821 53.1774C66.343 52.4649 67.0098 52.1205 67.8062 52.1205ZM79.2145 52.1205C80.0123 52.1205 80.6909 52.5635 81.2385 53.4085C81.7861 54.2549 82.0202 55.5591 82.0202 57.3653C82.0202 59.1244 81.7611 60.436 81.1929 61.3222C80.6247 62.2083 79.9476 62.6558 79.2145 62.6558C78.6757 62.6558 78.1855 62.4748 77.7424 62.1038C77.2979 61.7329 76.9726 61.2015 76.7297 60.4934C76.4868 59.7854 76.3617 58.696 76.3617 57.2726C76.3617 55.5959 76.6605 54.3403 77.2361 53.4541C77.8116 52.568 78.4814 52.1205 79.2145 52.1205Z" fill="#4984F8"/>
<path d="M21.8274 37.5369L14.9736 40.481L21.321 43.1954L28.6812 40.481L21.8274 37.5369ZM11.5231 41.217L11.2935 54.4654L21.321 58.8815V45.1267L11.5231 41.217ZM32.1316 41.217L23.0698 44.6675V57.6391L32.1316 53.959V41.217ZM42.9423 0L36.0413 2.94407L42.4359 5.65851L49.7961 2.94407L42.9423 0ZM33.374 3.9112V17.1595L41.9295 19.6443L42.2062 7.59129L33.374 3.9112ZM52.5105 4.64722L44.4143 8.09767V21.1164L52.5105 17.4363V4.64722ZM10.5339 18.6463L3.68009 21.5904L10.0275 24.3048L17.3877 21.5904L10.5339 18.6463ZM0.229638 22.3264L0 35.5747L10.0275 39.9908V26.2361L0.229638 22.3264ZM20.8382 22.3264L11.7763 25.7768V38.7484L20.8382 35.0683V22.3264ZM32.6144 18.1576L25.7606 21.1016L32.1081 23.8161L39.4683 21.1016L32.6144 18.1576ZM22.3102 21.8377L22.0805 35.086L32.1081 39.5021V25.7489L22.3102 21.8377ZM42.9187 21.8377L33.8568 25.2881V38.2597L42.9187 34.5796V21.8377ZM64.5091 0L57.6553 2.94407L64.0027 5.65851L71.3629 2.94407L64.5091 0ZM54.2048 3.68009L53.9752 16.9284L64.0027 21.3445V7.59129L54.2048 3.68009ZM74.8133 3.68009L65.7515 7.13054V20.1021L74.8133 16.422V3.68009Z" fill="#4984F8"/>
</svg>
