<svg width="85" height="92" viewBox="0 0 85 92" fill="none" xmlns="http://www.w3.org/2000/svg">
<path d="M48.5699 14.0209V28.0417L72.8566 42.0626V28.0417L48.5699 14.0209ZM0 28.0417V42.0626L12.1434 49.073V35.0521L0 28.0417ZM36.4265 35.0521L24.2831 42.0626V84.1251L36.4265 91.1392V63.0975L48.5699 70.1079V56.087L36.4265 49.0766V35.0521Z" fill="#2D61C8"/>
<path d="M48.4265 14L12 35.0313V49.0521L36.2868 35.0313V49.0521L48.4301 42.0417V14H48.4265ZM84.853 21.0104L72.7096 28.0208V42.0417L84.853 35.0313V21.0104ZM60.5699 49.0558L48.4265 56.0662V70.087L60.5699 63.0766V49.0558ZM48.4265 70.087L36.2831 63.0766V91.1183L48.4265 84.1079V70.087Z" fill="#1F50B2"/>
<path d="M48.5699 0L0 28.0417L12.1434 35.0521L48.5699 14.0208L72.8566 28.0417L85 21.0313L48.5699 0ZM48.5699 42.0625L36.4265 49.0729L48.5699 56.0834L60.7132 49.0729L48.5699 42.0625Z" fill="#4984F8"/>
</svg>
