<svg width="50" height="93" viewBox="0 0 50 93" fill="none" xmlns="http://www.w3.org/2000/svg">
<path d="M47.8937 73.3389H47.5435V73.1429H48.4866V73.3389H48.1385V74.3168H47.8937V73.3389ZM49.7748 73.39H49.7693L49.4221 74.3172H49.2632L48.9183 73.39H48.9142V74.3172H48.6833V73.1433H49.023L49.3428 73.9745L49.6615 73.1433H50.0001V74.3172H49.7747L49.7748 73.39Z" fill="#4984F8"/>
<path d="M16.5306 49.3348C16.5306 49.3348 14.0931 50.7523 18.2653 51.232C23.3198 51.8086 25.9031 51.7259 31.4732 50.6717C31.4732 50.6717 32.9376 51.5899 34.9828 52.3852C22.4961 57.7368 6.72294 52.0752 16.5306 49.3348ZM15.0048 42.3513C15.0048 42.3513 12.2709 44.375 16.4462 44.8069C21.8456 45.3639 26.1096 45.4095 33.488 43.9887C33.488 43.9887 34.5087 45.0233 36.1134 45.5891C21.016 50.0038 4.20049 45.9373 15.0048 42.3513Z" fill="#ff0000"/>
<path d="M27.8679 30.5052C30.9446 34.0475 27.0597 37.2353 27.0597 37.2353C27.0597 37.2353 34.8717 33.2023 31.284 28.1521C27.9331 23.4423 25.3633 21.1024 39.2748 13.0343C39.2749 13.0341 17.4384 18.4878 27.8679 30.5052Z" fill="#4984F8"/>
<path d="M44.3831 54.5003C44.3831 54.5003 46.1869 55.9868 42.3965 57.1364C35.189 59.3198 12.3981 59.9792 6.06693 57.2236C3.79102 56.2333 8.059 54.8593 9.40154 54.571C10.8017 54.2674 11.6018 54.3239 11.6018 54.3239C9.07076 52.5409 -4.75781 57.8248 4.57757 59.3382C30.0365 63.4669 50.987 57.4791 44.3831 54.5003ZM17.7033 35.1158C17.7033 35.1158 6.11043 37.8693 13.598 38.8692C16.7595 39.2924 23.0618 39.1967 28.9321 38.7048C33.7297 38.3001 38.5474 37.4398 38.5474 37.4398C38.5474 37.4398 36.8556 38.1643 35.6317 38.9998C23.8593 42.0961 1.11729 40.6556 7.66443 37.4886C13.2014 34.8121 17.7033 35.1158 17.7033 35.1158ZM38.4996 46.7401C50.4667 40.5215 44.9338 34.5453 41.0715 35.3506C40.1249 35.5476 39.7028 35.7183 39.7028 35.7183C39.7028 35.7183 40.0544 35.1678 40.7253 34.9296C48.3657 32.2434 54.2416 42.8519 38.2589 47.0537C38.2589 47.0537 38.4444 46.8883 38.4996 46.7401Z" fill="#4984F8"/>
<path d="M31.2845 0.00610352C31.2845 0.00610352 37.9121 6.63577 24.9985 16.8308C14.6431 25.0086 22.6371 29.6715 24.9942 34.9992C18.9497 29.5453 14.5138 24.7445 17.4898 20.2763C21.8576 13.7173 33.9585 10.5372 31.2845 0.00610352Z" fill="#4984F8"/>
<path d="M18.8793 63.591C30.3663 64.3264 48.0059 63.1831 48.4235 57.7479C48.4235 57.7479 47.6206 59.8082 38.9301 61.4448C29.1259 63.2897 17.0334 63.0744 9.86133 61.8919C9.86167 61.8916 11.3297 63.1069 18.8793 63.591Z" fill="#4984F8"/>
<path d="M16.9966 84.3599C15.913 85.2998 14.7685 85.8274 13.7414 85.8274C12.2754 85.8274 11.4834 84.9484 11.4834 83.5384C11.4834 82.0133 12.3322 80.8982 15.7366 80.8982H16.9964L16.9966 84.3599ZM19.9867 87.7335V77.2906C19.9867 74.6227 18.4651 72.8626 14.7967 72.8626C12.655 72.8626 10.779 73.3914 9.25423 74.0659L9.69436 75.9144C10.8949 75.4737 12.4489 75.0635 13.9742 75.0635C16.0875 75.0635 16.9966 75.9144 16.9966 77.6735V78.9935H15.9418C10.8074 78.9935 8.49124 80.9866 8.49124 83.9781C8.49124 86.56 10.0176 88.0275 12.8914 88.0275C14.7387 88.0275 16.1177 87.2647 17.4068 86.1486L17.6408 87.7339L19.9867 87.7335ZM29.9655 87.7335H26.2364L21.7482 73.127H25.0051L27.7899 82.1012L28.409 84.8002C29.8179 80.8979 30.8145 76.9389 31.3129 73.127H34.4809C33.632 77.9367 32.1046 83.2161 29.9655 87.7335ZM44.2719 84.3599C43.1862 85.2998 42.0398 85.8274 41.0126 85.8274C39.5492 85.8274 38.7551 84.9484 38.7551 83.5384C38.7551 82.0133 39.6056 80.8982 43.0098 80.8982H44.2719V84.3599ZM47.2616 87.7335V77.2906C47.2616 74.6227 45.7365 72.8626 42.072 72.8626C39.929 72.8626 38.0523 73.3914 36.5282 74.0659L36.9678 75.9144C38.1686 75.4737 39.7256 75.0635 41.2497 75.0635C43.3614 75.0635 44.2719 75.9144 44.2719 77.6735V78.9935H43.2153C38.0794 78.9935 35.7641 80.9866 35.7641 83.9781C35.7641 86.56 37.2893 88.0275 40.1626 88.0275C42.0111 88.0275 43.3896 87.2647 44.6807 86.1486L44.9156 87.7339L47.2616 87.7335ZM5.21268 90.2138C4.36029 91.4584 2.98354 92.443 1.4763 93L0 91.2627C1.14724 90.6741 2.13115 89.7234 2.58829 88.838C2.98371 88.0504 3.14738 87.0353 3.14738 84.608V67.9324H6.32416V84.3795C6.32399 87.6245 6.06456 88.9354 5.21268 90.2138Z" fill="#4984F8"/>
</svg>
