<svg width="120" height="74" viewBox="0 0 120 74" fill="none" xmlns="http://www.w3.org/2000/svg">
<path d="M59.5944 73.0844C59.2006 73.0844 58.8096 72.9814 58.4643 72.7833L54.8674 70.6609C54.3302 70.3614 54.5923 70.2555 54.7695 70.1945C55.4858 69.9445 55.6312 69.888 56.3958 69.4553C56.4761 69.4096 56.5813 69.4257 56.6636 69.4741L59.4269 71.1084C59.5267 71.1622 59.6683 71.1622 59.7608 71.1084L70.5351 64.9098C70.6349 64.8533 70.6996 64.7378 70.6996 64.6195V52.2276C70.6996 52.104 70.6349 51.9938 70.533 51.9319L59.7629 45.7387C59.6631 45.6796 59.531 45.6796 59.4312 45.7387L48.6633 51.9319C48.5589 51.9911 48.4926 52.1067 48.4926 52.2249V64.6168C48.4926 64.7351 48.5573 64.848 48.6598 64.9044L51.6103 66.6033C53.2123 67.4016 54.1913 66.4608 54.1913 65.5146V53.284C54.1913 53.1093 54.3288 52.9749 54.5041 52.9749H55.8688C56.0387 52.9749 56.1789 53.1093 56.1789 53.284V65.52C56.1789 67.6489 55.0139 68.872 52.9884 68.872C52.3654 68.872 51.8746 68.872 50.5045 68.2L47.6781 66.5764C46.9796 66.1732 46.5481 65.4205 46.5481 64.6168V52.2249C46.5481 51.4185 46.9796 50.6659 47.6781 50.268L58.4633 44.0667C59.1456 43.6823 60.0518 43.6823 60.7287 44.0667L71.5004 50.2707C72.1962 50.6712 72.6304 51.4212 72.6304 52.2276V64.6195C72.6304 65.4232 72.1962 66.1732 71.5004 66.5764L60.7287 72.7777C60.3835 72.9766 59.9924 73.0788 59.5933 73.0788" fill="#ff0000"/>
<path d="M62.7666 64.573C58.0798 64.573 57.0972 62.3914 57.0972 60.5616C57.0972 60.3876 57.2355 60.249 57.4074 60.249H58.7909C58.9437 60.249 59.0724 60.3618 59.0965 60.5149C59.3057 61.9444 59.9277 62.6655 62.7618 62.6655C65.0193 62.6655 65.9792 62.1483 65.9792 60.9344C65.9792 60.2356 65.7057 59.7163 62.1987 59.3683C59.2655 59.0747 57.453 58.4194 57.453 56.0405C57.453 53.8491 59.2762 52.544 62.3301 52.544C65.7593 52.544 67.4592 53.7512 67.6737 56.345C67.6818 56.4347 67.6496 56.5217 67.5906 56.5869C67.5316 56.6495 67.4485 56.6875 67.3627 56.6875H65.9712C65.8264 56.6875 65.7004 56.5842 65.6709 56.4429C65.3357 54.9393 64.526 54.4581 62.3247 54.4581C59.8607 54.4581 59.5738 55.3281 59.5738 55.9806C59.5738 56.7718 59.9116 57.0029 63.2363 57.4488C66.5288 57.892 68.092 58.5173 68.092 60.8637C68.092 63.2291 66.1454 64.5858 62.751 64.5858L62.7666 64.573ZM75.7978 51.2934H76.1571C76.452 51.2934 76.5083 51.084 76.5083 50.9617C76.5083 50.6408 76.2911 50.6408 76.1705 50.6408H75.8005L75.7978 51.2934ZM75.3607 50.2656H76.1571C76.4305 50.2656 76.9668 50.2656 76.9668 50.8855C76.9668 51.3178 76.6933 51.4076 76.5297 51.4619C76.8488 51.4837 76.8703 51.6958 76.9132 51.9948C76.9346 52.1824 76.9695 52.506 77.0338 52.6147H76.5431C76.5297 52.506 76.4547 51.9078 76.4547 51.8752C76.4225 51.742 76.3769 51.6767 76.2134 51.6767H75.8085V52.6174H75.3607V50.2656ZM74.4035 51.4348C74.4035 52.4081 75.1784 53.1966 76.1302 53.1966C77.0901 53.1966 77.865 52.3918 77.865 51.4348C77.865 50.4587 77.0794 49.6838 76.1276 49.6838C75.1891 49.6838 74.4009 50.4478 74.4009 51.432L74.4035 51.4348ZM78.1975 51.4402C78.1975 52.593 77.2671 53.5337 76.1329 53.5337C75.0068 53.5337 74.0684 52.6038 74.0684 51.4402C74.0684 50.2548 75.0283 49.3467 76.1329 49.3467C77.2456 49.3467 78.1948 50.2575 78.1948 51.4402" fill="#4984F8"/>
<path fill-rule="evenodd" clip-rule="evenodd" d="M26.136 24.5658C26.136 24.0689 25.8744 23.6125 25.4462 23.3654L14.0259 16.7842C13.8331 16.6708 13.6171 16.6114 13.3982 16.6033H13.2801C13.0612 16.6114 12.8452 16.6708 12.6492 16.7842L1.22936 23.3654C0.803888 23.6138 0.538574 24.0702 0.538574 24.5671L0.56365 42.2934C0.56365 42.5392 0.690375 42.7687 0.906077 42.8902C1.11639 43.0199 1.38062 43.0199 1.59093 42.8902L8.38016 38.9961C8.80887 38.7406 9.07041 38.2891 9.07041 37.797V29.5159C9.07041 29.0217 9.33194 28.5653 9.7593 28.3195L12.6497 26.6522C12.8643 26.528 13.1 26.4664 13.34 26.4664C13.5762 26.4664 13.8172 26.5274 14.0259 26.6519L16.915 28.3187C17.3426 28.5645 17.6052 29.0208 17.6052 29.515V37.7957C17.6052 38.2872 17.8702 38.7409 18.2968 38.9947L25.0817 42.8862C25.2947 43.0131 25.5598 43.0131 25.772 42.8862C25.9812 42.7646 26.1138 42.5351 26.1138 42.2894L26.136 24.5658ZM80.0259 33.7951C80.0259 33.9185 79.9604 34.0328 79.8533 34.0938L75.9308 36.3585C75.8243 36.4198 75.6927 36.4198 75.5865 36.3585L71.6634 34.0938C71.5555 34.0325 71.4908 33.9183 71.4908 33.7951V29.2593C71.4908 29.1356 71.5555 29.0217 71.6607 28.9595L75.5811 26.6911C75.6889 26.629 75.8211 26.629 75.9289 26.6911L79.852 28.9595C79.9598 29.0217 80.0246 29.1356 80.0246 29.2593L80.0259 33.7951ZM81.0855 0.199988C80.8715 0.0806241 80.611 0.0838648 80.3996 0.207279C80.1893 0.331503 80.0593 0.558348 80.0593 0.804096V18.3575C80.0593 18.5304 79.9677 18.6897 79.8183 18.7761C79.67 18.8625 79.4853 18.8625 79.3357 18.7761L76.4749 17.1258C76.0489 16.879 75.5242 16.879 75.0966 17.1258L63.6724 23.7294C63.2456 23.9752 62.9822 24.4316 62.9822 24.9231V38.1341C62.9822 38.6283 63.2456 39.0819 63.6724 39.3304L75.0966 45.9386C75.5231 46.1843 76.0484 46.1843 76.4763 45.9386L87.9004 39.3277C88.3264 39.0792 88.5906 38.6255 88.5906 38.1314V5.2065C88.5906 4.70528 88.3183 4.2443 87.8815 3.99936L81.0855 0.199988ZM119.128 29.1399C119.553 28.8931 119.814 28.4373 119.814 27.9458V24.744C119.814 24.2514 119.552 23.7969 119.127 23.549L107.776 16.9489C107.347 16.7005 106.821 16.7005 106.393 16.9489L94.9711 23.5517C94.5424 23.8002 94.2809 24.2539 94.2809 24.7481V37.9537C94.2809 38.4506 94.5478 38.9096 94.9765 39.1554L106.325 45.634C106.743 45.8743 107.255 45.877 107.679 45.6421L114.543 41.8208C114.759 41.6993 114.897 41.4697 114.897 41.2213C114.897 40.9729 114.764 40.7406 114.549 40.6191L103.057 34.0136C102.842 33.8921 102.709 33.6625 102.709 33.4168V29.2742C102.709 29.0268 102.839 28.7989 103.055 28.6757L106.63 26.6098C106.843 26.4856 107.104 26.4856 107.317 26.6098L110.895 28.6757C111.108 28.7972 111.24 29.0268 111.24 29.2725V32.5294C111.24 32.7751 111.373 33.0047 111.586 33.1289C111.799 33.2504 112.063 33.2504 112.276 33.1262L119.128 29.1399Z" fill="#4984F8"/>
<path fill-rule="evenodd" clip-rule="evenodd" d="M106.931 28.5747C107.013 28.5272 107.116 28.5272 107.199 28.5747L109.422 29.8341C109.505 29.8814 109.555 29.9684 109.555 30.0624V32.5839C109.555 32.6779 109.505 32.7649 109.422 32.8121L107.199 34.0715C107.116 34.1191 107.013 34.1191 106.931 34.0715L104.71 32.8121C104.625 32.7649 104.573 32.6779 104.573 32.5839V30.0624C104.573 29.9684 104.623 29.8814 104.707 29.8341L106.931 28.5747Z" fill="#4984F8"/>
<mask id="mask0" mask-type="alpha" maskUnits="userSpaceOnUse" x="32" y="18" width="25" height="28">
<path d="M43.7427 18.738C44.1196 18.5209 44.584 18.5209 44.9609 18.738L55.6116 24.8708C55.9885 25.0879 56.2207 25.489 56.2207 25.9231V38.1888C56.2207 38.6229 55.9885 39.024 55.6116 39.241L44.9609 45.3739C44.584 45.5909 44.1196 45.5909 43.7427 45.3739L33.092 39.241C32.7151 39.024 32.4829 38.6229 32.4829 38.1888V25.9231C32.4829 25.489 32.7151 25.0879 33.092 24.8708L43.7427 18.738Z" fill="#4984F8"/>
</mask>
<g mask="url(#mask0)">
<path d="M29.1785 17.9055L41.9614 25.2858L32.326 41.9747L19.5431 34.5945L29.1785 17.9055Z" fill="#4984F8"/>
<path d="M57.7058 22.7587L70.4888 30.1389L57.1975 53.16L44.4146 45.7797L57.7058 22.7587Z" fill="#4984F8"/>
<path d="M42.9478 22.354L55.7307 29.7342L42.4395 52.7553L29.6565 45.3751L42.9478 22.354Z" fill="#4984F8"/>
<path d="M47.3938 13.6597L60.1768 21.0399L50.5414 37.7289L37.7584 30.3486L47.3938 13.6597Z" fill="#4984F8"/>
<path d="M30.8857 24.1974L43.6687 16.8171L56.9599 39.8382L44.177 47.2185L30.8857 24.1974Z" fill="#4984F8"/>
</g>
</svg>
