<svg width="65" height="91" viewBox="0 0 65 91" fill="none" xmlns="http://www.w3.org/2000/svg">
<path d="M52.107 10.3878C52.0551 12.6191 51.744 15.0579 51.1735 17.4449C51.0698 17.9638 51.1735 18.1194 51.6402 18.2232C54.7 19.1572 57.656 20.3507 60.3008 22.2188C61.338 22.9452 62.2715 23.7755 63.1012 24.7614C65.2793 27.4596 65.1756 30.4174 62.9456 33.0119C60.8713 35.3469 58.2783 36.9036 55.426 38.0971C54.1814 38.616 52.9367 39.083 51.6402 39.4462C51.2772 39.55 51.2254 39.6538 51.2772 40.017C51.8477 42.3002 52.2107 44.5834 52.2107 46.9184C52.2107 49.7205 52.0033 52.5225 50.3956 54.9614C48.9954 57.0889 46.921 57.8153 44.4836 57.504C41.0609 57.037 38.2604 55.2727 35.6156 53.249C34.6821 52.5225 33.7486 51.7961 32.9707 50.9658C32.6077 50.6026 32.3484 50.6026 31.9854 50.9658C30.1703 52.7301 28.1478 54.2868 25.9178 55.5322C24.1546 56.5181 22.3395 57.2445 20.3688 57.504C16.7387 58.0229 14.2494 56.1548 13.2641 52.8858C12.4343 50.3432 12.4343 47.7486 12.6418 45.1541C12.7973 43.5456 13.0566 41.937 13.4715 40.3803C13.6271 39.8095 13.4197 39.6538 12.9011 39.4981C9.73762 38.5641 6.78161 37.2669 4.13677 35.295C3.04772 34.5167 2.11424 33.5827 1.33635 32.493C-0.58246 29.7947 -0.42688 26.9407 1.75123 24.45C3.2033 22.7895 5.01839 21.5442 6.93719 20.5583C8.90786 19.5205 10.9822 18.7421 13.1085 18.1194C13.5234 18.0157 13.5752 17.86 13.4715 17.4449C12.9011 15.006 12.4862 12.5672 12.4862 10.0246C12.4862 7.84521 12.6936 5.66583 13.5752 3.64212C14.8717 0.788164 17.4647 -0.457197 20.6281 0.165484C23.636 0.736274 26.229 2.24109 28.6145 4.00535C29.7554 4.83559 30.8964 5.76961 31.8817 6.75552C32.2447 7.11875 32.4003 7.06686 32.7633 6.75552C35.097 4.52425 37.6381 2.55243 40.646 1.20328C42.0462 0.580604 43.5501 0.0617036 45.1059 0.00981358C48.1656 -0.145857 50.0844 1.56652 51.0698 4.00535C51.744 5.71772 52.0551 7.8971 52.107 10.3878ZM32.1929 39.2906C34.0079 39.3944 35.823 39.1868 37.6381 39.1868C38.0011 39.1868 38.2604 39.083 38.4679 38.7717C40.4385 35.7102 42.3055 32.5449 43.965 29.2239C44.1206 28.9645 44.1206 28.705 43.965 28.4456C42.3055 25.1765 40.4904 22.0112 38.4679 18.9497C38.3123 18.6902 38.1049 18.5864 37.7937 18.5864C34.1635 18.3789 30.5333 18.3789 26.9032 18.5864C26.5401 18.5864 26.3327 18.7421 26.1253 19.0016C24.1027 22.0631 22.2877 25.2284 20.68 28.4974C20.5244 28.8088 20.5763 29.0682 20.68 29.3277C22.2877 32.5968 24.1546 35.7621 26.1771 38.7717C26.3327 39.0311 26.5401 39.1868 26.9032 39.1868C28.6145 39.1868 30.4296 39.3944 32.1929 39.2906ZM13.9383 20.7139C13.9383 20.7139 13.8864 20.7139 13.8345 20.7658C11.3971 21.4923 9.01158 22.3744 6.83347 23.7236C5.43326 24.5538 4.13677 25.5397 3.2033 26.9407C2.37354 28.1861 2.37354 29.4315 3.15144 30.7287C3.67003 31.559 4.34421 32.2335 5.07025 32.8562C7.61137 34.9318 10.5155 36.1772 13.5752 37.1112C14.042 37.2669 14.1975 37.1631 14.3531 36.6961C15.131 34.2053 16.1164 31.7665 17.1535 29.3796C17.2573 29.1201 17.3091 28.9126 17.2054 28.6531C16.0645 26.2143 15.0792 23.6717 14.3013 21.0772C14.3013 20.8696 14.2494 20.6621 13.9383 20.7139ZM15.0792 47.6449C15.0792 48.8383 15.131 49.9799 15.3903 51.1215C15.4422 51.4328 15.5459 51.7961 15.6496 52.1074C16.4275 54.4944 17.9314 55.3765 20.3688 54.8057C24.2583 53.8717 27.3699 51.5366 30.2222 48.8383C30.4296 48.6827 30.3778 48.527 30.2222 48.3713C28.4071 46.3476 26.6957 44.272 25.1399 42.0407C24.9844 41.8332 24.8288 41.7294 24.5695 41.7294C21.8728 41.5218 19.2279 41.1586 16.635 40.5878C16.2201 40.484 16.0645 40.5878 15.9608 41.0029C15.494 43.2342 15.0792 45.4136 15.0792 47.6449ZM49.4621 47.3335C49.4621 45.1023 49.151 42.9748 48.6842 40.9511C48.5805 40.5359 48.4768 40.3803 48.0619 40.484C45.4689 41.0548 42.8241 41.47 40.1792 41.6775C39.8681 41.6775 39.7125 41.7813 39.5051 42.0926C38.0011 44.272 36.3935 46.3995 34.5784 48.3194C34.3191 48.5789 34.371 48.7346 34.6303 48.994C35.5119 49.7724 36.3935 50.6026 37.3788 51.3291C39.4014 52.8858 41.5795 54.2349 44.0687 54.8057C46.4543 55.3765 48.0101 54.5981 48.8398 52.2631C49.3584 50.6026 49.4621 48.8902 49.4621 47.3335ZM15.131 9.86892C15.0792 12.204 15.494 14.4352 15.9608 16.5627C16.1164 17.393 16.1682 17.3411 16.9461 17.1854C19.2798 16.6665 21.6135 16.3033 23.9472 16.0957C24.5176 16.0438 24.9325 15.8882 25.2437 15.3693C26.6957 13.2937 28.2515 11.3218 30.0147 9.50569C30.3259 9.19435 30.274 8.98679 29.9629 8.72734C29.2887 8.15655 28.6664 7.53387 27.9922 7.01497C25.8141 5.3026 23.5323 3.79779 20.8356 3.01944C17.8796 2.18919 16.2719 3.17511 15.5459 6.13284C15.2347 7.43009 15.0792 8.72734 15.131 9.86892ZM45.4689 2.75999C44.691 2.75999 44.0169 2.91566 43.3945 3.12322C39.8681 4.21291 37.1195 6.49607 34.4747 8.9349C34.1635 9.19435 34.371 9.35002 34.5784 9.55758C36.3416 11.4775 37.9493 13.5012 39.4014 15.5768C39.6088 15.8882 39.8681 16.0438 40.2311 16.0957C42.8241 16.3033 45.4171 16.7184 48.0101 17.2892C48.3731 17.393 48.4768 17.2892 48.5805 16.926C49.151 14.3834 49.514 11.7889 49.4103 9.19435C49.3065 7.68954 49.151 6.18473 48.5287 4.7837C47.8026 3.48645 46.8691 2.7081 45.4689 2.75999ZM61.9603 28.7569C61.9603 28.7569 61.9084 28.6531 61.9084 28.5493C61.7529 27.1483 60.8194 26.2143 59.8341 25.3322C57.1892 23.049 53.9739 21.8036 50.7068 20.7658C50.3956 20.6621 50.2919 20.7658 50.1882 21.0253C49.4103 23.5679 48.4249 26.0067 47.3359 28.3937C47.2322 28.705 47.2322 28.9126 47.3359 29.172C48.4768 31.559 49.4621 34.0497 50.2919 36.5923C50.3956 36.9036 50.4993 36.9555 50.8623 36.8517C52.3144 36.4366 53.6628 35.9177 55.063 35.295C57.1892 34.3091 59.2117 33.1157 60.8194 31.2995C61.4417 30.6249 61.8566 29.7947 61.9603 28.7569ZM41.6313 38.8236C43.6538 38.616 45.4689 38.2528 47.3359 37.8895C47.6989 37.8377 47.7508 37.6301 47.647 37.3188C47.3359 36.4885 47.0766 35.6583 46.7654 34.828C46.4024 33.894 46.0394 33.0119 45.6245 31.9741C44.328 34.3091 43.0315 36.5404 41.6313 38.8236ZM22.91 38.8236C22.5988 38.3047 22.3395 37.8895 22.0802 37.5263C21.0949 35.9177 20.1096 34.2572 19.2279 32.5968C19.1761 32.493 19.1242 32.2854 18.9686 32.2854C18.7612 32.2854 18.7612 32.493 18.7093 32.5968C18.087 34.2054 17.4647 35.8139 16.9461 37.4744C16.8942 37.682 16.7905 37.8895 17.1535 37.9414C19.0205 38.3566 20.8874 38.6679 22.91 38.8236ZM28.459 41.9889C29.6517 43.6493 30.8964 45.0504 32.141 46.5033C32.3484 46.7627 32.504 46.6071 32.6596 46.4514C33.8005 45.1542 34.8896 43.805 35.9268 42.404C35.9786 42.3002 36.1342 42.1964 36.0305 42.0926C35.9268 41.9889 35.823 42.0407 35.6675 42.0407C33.2819 41.9889 30.9482 41.9889 28.459 41.9889ZM41.735 18.9497C41.735 19.0535 41.735 19.1054 41.7869 19.1572C43.0315 21.1291 44.1724 23.1528 45.3134 25.2284C45.3652 25.3322 45.4171 25.4878 45.5727 25.4359C45.6764 25.384 45.7282 25.2803 45.7801 25.1246C46.4024 23.5679 47.0247 22.0112 47.5433 20.4026C47.647 20.0394 47.5952 19.9356 47.2322 19.8318C45.4171 19.4686 43.602 19.1572 41.735 18.9497ZM28.4071 15.6806C31.0001 15.6806 33.5412 15.6806 36.0823 15.6806C34.8896 14.072 33.6968 12.671 32.4522 11.27C32.2966 11.1143 32.1929 11.1143 32.0373 11.27C30.7926 12.671 29.5999 14.1239 28.4071 15.6806ZM18.9686 25.6954C20.1614 23.3603 21.406 21.2328 22.8063 19.0016C20.8356 19.2091 18.9686 19.5205 17.2054 19.9356C16.9461 19.9875 16.8942 20.1432 16.998 20.3507C17.5166 22.115 18.1389 23.8792 18.9686 25.6954Z" fill="#4984F8"/>
<path d="M38.0993 28.7944C38.0993 32.0109 35.4533 34.6049 32.2365 34.553C29.1754 34.553 26.5813 31.9071 26.5813 28.7944C26.5813 25.6816 29.1754 23.0358 32.2365 23.0358C35.5051 23.0358 38.0993 25.5779 38.0993 28.7944Z" fill="#4984F8"/>
<path d="M11.4106 83.7659H8.44966V89.9068H5.79321V73.9689H11.1691C12.9331 73.9689 14.2945 74.3812 15.2535 75.2058C16.2125 76.0304 16.692 77.2236 16.692 78.7853C16.692 79.8507 16.4435 80.7447 15.9465 81.4671C15.4565 82.1823 14.7705 82.7333 13.8885 83.12L17.322 89.7645V89.9068H14.4765L11.4106 83.7659ZM8.44966 81.5438H11.1796C12.0756 81.5438 12.7756 81.3102 13.2796 80.8432C13.7836 80.3688 14.0355 79.723 14.0355 78.9057C14.0355 78.0519 13.8011 77.3914 13.3321 76.9244C12.8701 76.4573 12.1771 76.2165 11.2531 76.2019H8.44966V81.5438Z" fill="#4984F8"/>
<path d="M23.9683 90.1257C22.3514 90.1257 21.0389 89.5966 20.0309 88.5385C19.0299 87.473 18.5295 86.0573 18.5295 84.2913V83.9629C18.5295 82.7807 18.7465 81.7262 19.1804 80.7994C19.6214 79.8653 20.2374 79.1392 21.0284 78.6211C21.8194 78.103 22.7014 77.8439 23.6744 77.8439C25.2213 77.8439 26.4148 78.3584 27.2548 79.3873C28.1018 80.4163 28.5253 81.8722 28.5253 83.7549V84.8277H21.1019C21.1789 85.8055 21.4904 86.5791 22.0364 87.1483C22.5894 87.7175 23.2824 88.0021 24.1153 88.0021C25.2843 88.0021 26.2363 87.5095 26.9713 86.5244L28.3468 87.8927C27.8918 88.6005 27.2828 89.1515 26.5198 89.5456C25.7638 89.9323 24.9133 90.1257 23.9683 90.1257ZM23.6639 79.9784C22.9639 79.9784 22.3969 80.2338 21.9629 80.7447C21.5359 81.2555 21.2629 81.967 21.1439 82.8792H26.0053V82.6822C25.9493 81.7919 25.7218 81.1205 25.3228 80.668C24.9238 80.2083 24.3708 79.9784 23.6639 79.9784Z" fill="#4984F8"/>
<path d="M37.3031 89.9068C37.1911 89.6806 37.0931 89.312 37.0091 88.8012C36.1971 89.6842 35.2031 90.1257 34.0271 90.1257C32.8862 90.1257 31.9552 89.7864 31.2342 89.1077C30.5132 88.429 30.1527 87.5898 30.1527 86.59C30.1527 85.3276 30.6007 84.3606 31.4967 83.6892C32.3997 83.0106 33.6876 82.6712 35.3606 82.6712H36.9251V81.894C36.9251 81.281 36.7606 80.7921 36.4316 80.4272C36.1026 80.0551 35.6021 79.869 34.9301 79.869C34.3491 79.869 33.8731 80.0222 33.5022 80.3287C33.1312 80.6279 32.9457 81.011 32.9457 81.4781H30.3942C30.3942 80.8286 30.6007 80.2229 31.0137 79.661C31.4267 79.0918 31.9867 78.6466 32.6937 78.3255C33.4077 78.0044 34.2021 77.8439 35.0771 77.8439C36.4071 77.8439 37.4676 78.1942 38.2586 78.8947C39.0495 79.588 39.4555 80.5659 39.4765 81.8284V87.1702C39.4765 88.2356 39.62 89.0858 39.907 89.7207V89.9068H37.3031ZM34.4996 87.9912C35.0036 87.9912 35.4761 87.8635 35.9171 87.608C36.3651 87.3526 36.7011 87.0096 36.9251 86.5791V84.346H35.5496C34.6046 84.346 33.8941 84.5175 33.4182 84.8605C32.9422 85.2035 32.7042 85.6888 32.7042 86.3164C32.7042 86.8272 32.8652 87.2359 33.1872 87.5424C33.5162 87.8416 33.9536 87.9912 34.4996 87.9912Z" fill="#4984F8"/>
<path d="M46.8159 88.0021C47.4529 88.0021 47.9814 87.8087 48.4014 87.422C48.8213 87.0352 49.0453 86.5572 49.0733 85.988H51.4778C51.4498 86.725 51.2293 87.4147 50.8163 88.0568C50.4033 88.6917 49.8433 89.1953 49.1363 89.5674C48.4294 89.9396 47.6664 90.1257 46.8474 90.1257C45.2584 90.1257 43.9984 89.5893 43.0675 88.5166C42.1365 87.4439 41.671 85.9624 41.671 84.0724V83.7987C41.671 81.9962 42.133 80.5549 43.057 79.4749C43.9809 78.3876 45.2409 77.8439 46.8369 77.8439C48.1879 77.8439 49.2868 78.2562 50.1338 79.0808C50.9878 79.8982 51.4358 80.9745 51.4778 82.31H49.0733C49.0453 81.6313 48.8213 81.0731 48.4014 80.6352C47.9884 80.1974 47.4599 79.9784 46.8159 79.9784C45.9899 79.9784 45.3529 80.2922 44.9049 80.9198C44.4569 81.5401 44.2294 82.4851 44.2224 83.7549V84.1818C44.2224 85.4662 44.4429 86.4258 44.8839 87.0607C45.3319 87.6883 45.9759 88.0021 46.8159 88.0021Z" fill="#4984F8"/>
<path d="M56.6017 75.1839V78.0628H58.6072V80.0332H56.6017V86.6448C56.6017 87.0972 56.6857 87.4256 56.8537 87.6299C57.0287 87.827 57.3367 87.9255 57.7777 87.9255C58.0717 87.9255 58.3692 87.889 58.6701 87.816V89.8739C58.0892 90.0418 57.5292 90.1257 56.9902 90.1257C55.0302 90.1257 54.0502 88.9982 54.0502 86.7433V80.0332H52.1813V78.0628H54.0502V75.1839H56.6017Z" fill="#4984F8"/>
</svg>
