<svg width="77" height="91" viewBox="0 0 77 91" fill="none" xmlns="http://www.w3.org/2000/svg">
<path d="M11.6267 81.318C12.5706 81.79 13.1283 82.6481 13.6432 83.5062C14.8016 85.4797 16.0029 87.4104 17.2042 89.3411C17.29 89.4698 17.3329 89.5986 17.4188 89.7273C17.3329 89.856 17.2042 89.8131 17.1184 89.8131C15.7884 89.8131 14.5013 89.8131 13.1712 89.8131C12.3561 89.8131 11.7983 89.4698 11.3693 88.7834C10.3396 86.9385 9.26695 85.0936 8.19435 83.2487C8.06563 83.0342 7.93692 82.8197 7.76531 82.6481C7.59369 82.4765 7.37917 82.3477 7.12174 82.3048C6.6498 82.219 6.13495 82.2619 5.663 82.2619C5.53429 82.2619 5.44848 82.3477 5.44848 82.4765C5.44848 82.6052 5.44848 82.691 5.44848 82.8197C5.44848 85.0078 5.44848 87.153 5.44848 89.3411C5.44848 89.856 5.49138 89.8131 4.97653 89.8131C3.6894 89.8131 2.40228 89.8131 1.11515 89.8131C0.686109 89.8131 0.686109 89.8131 0.686109 89.384C0.686109 86.3807 0.686109 83.3345 0.686109 80.3312C0.686109 76.8989 0.686109 73.4666 0.686109 70.0771C0.686109 69.9484 0.686109 69.8626 0.686109 69.7339C0.643205 69.4765 0.771919 69.3907 1.02934 69.3907C3.6036 69.4336 6.17785 69.3049 8.7521 69.4765C10.0392 69.5623 11.2405 69.8197 12.399 70.3775C14.4155 71.3643 15.4452 72.9946 15.4881 75.2256C15.5739 78.0144 14.2867 79.988 11.7554 81.1893C11.8412 81.1893 11.7125 81.1893 11.6267 81.318ZM5.53429 75.955C5.53429 76.8131 5.53429 77.6283 5.53429 78.4864C5.53429 79.087 5.44848 79.0012 6.04914 79.0012C6.43527 79.0012 6.86432 79.0012 7.25046 79.0012C7.6795 79.0012 8.10854 78.9583 8.49468 78.9154C9.7818 78.7009 10.6828 77.8857 10.8973 76.6415C10.9402 76.3841 10.9831 76.1266 10.9831 75.8692C11.026 74.4963 10.2967 73.5095 8.96663 73.1662C8.83791 73.1233 8.7092 73.1233 8.58049 73.0804C7.6795 72.9088 6.77851 72.9946 5.87752 72.9946C5.53429 72.9946 5.53429 72.9946 5.53429 73.3379C5.53429 74.1959 5.53429 75.054 5.53429 75.955Z" fill="#4984F8"/>
<path d="M40.7582 88.0537C40.5866 88.1395 40.4579 88.2682 40.3292 88.3969C38.9991 89.6411 37.4546 90.156 35.6526 89.9844C34.4513 89.8557 33.4645 89.255 32.6922 88.354C31.9199 87.453 31.4909 86.3804 31.2335 85.2649C30.8044 83.2913 30.8044 81.3177 31.4909 79.387C31.9628 78.0141 32.778 76.8557 33.9793 75.9976C35.6526 74.8392 38.4843 74.5817 40.2433 75.9976C40.2862 76.0405 40.3721 76.1263 40.4579 76.0834C40.5008 75.9118 40.5008 75.7402 40.5008 75.5685C40.5008 73.552 40.5008 71.5356 40.5008 69.5191C40.5008 69.3903 40.5008 69.3045 40.5008 69.1758C40.5008 68.9613 40.5437 68.8755 40.8011 68.8755C42.0453 68.8755 43.3324 68.8755 44.5767 68.8755C44.7912 68.8755 44.877 68.9613 44.8341 69.1758C44.8341 69.2616 44.8341 69.3474 44.8341 69.4332C44.8341 76.0834 44.8341 82.6906 44.8341 89.3408C44.8341 89.9415 44.9199 89.8557 44.2763 89.8557C43.5899 89.8557 42.9034 89.8557 42.2169 89.8557C41.4876 89.8557 41.2301 89.6411 40.9727 88.9118C40.9298 88.6114 40.8869 88.3111 40.7582 88.0537ZM40.5008 82.2616C40.5008 81.3606 40.5008 80.4596 40.5008 79.5586C40.5008 79.3012 40.415 79.0867 40.2433 78.9151C39.8143 78.5289 39.3424 78.3573 38.8275 78.2715C37.5404 78.057 36.5536 78.5718 35.9958 79.7303C35.8671 80.0306 35.7813 80.288 35.6955 80.5883C35.4381 81.6609 35.4381 82.7765 35.5668 83.892C35.6097 84.4497 35.7384 85.0075 35.9958 85.5223C36.382 86.2946 36.9826 86.6807 37.8407 86.6807C38.8275 86.6807 39.6427 86.2946 40.2862 85.5652C40.4579 85.3936 40.5437 85.222 40.5437 84.9646C40.5008 84.1065 40.5008 83.1626 40.5008 82.2616Z" fill="#4984F8"/>
<path d="M56.203 88.3108C55.9885 88.4824 55.8169 88.654 55.6023 88.7827C54.1007 89.9412 52.4274 90.2844 50.5825 89.8553C48.8664 89.4263 47.8367 88.2679 47.3218 86.5946C47.1073 85.9082 47.0215 85.2217 47.0215 84.5352C47.0215 81.5748 47.0215 78.6144 47.0215 75.697C47.0215 75.3108 47.0215 75.2679 47.4505 75.2679C48.6089 75.2679 49.7673 75.2679 50.9687 75.2679C51.3977 75.2679 51.3977 75.2679 51.3977 75.697C51.3977 78.5715 51.3977 81.489 51.3977 84.3636C51.3977 84.7068 51.3977 85.0072 51.4835 85.3075C51.7409 86.2085 52.2987 86.6804 53.2855 86.7233C53.972 86.7233 54.5726 86.5517 55.1304 86.1656C55.2591 86.0798 55.3878 85.994 55.5165 85.9082C55.7739 85.7365 55.9027 85.522 55.9027 85.1788C55.9027 82.0468 55.9027 78.9148 55.9027 75.7828C55.9027 75.1821 55.8168 75.2679 56.4175 75.2679C57.533 75.2679 58.6056 75.2679 59.7211 75.2679C60.2789 75.2679 60.236 75.1821 60.236 75.7828C60.236 79.2151 60.236 82.6474 60.236 86.0798C60.236 87.1953 60.236 88.2679 60.236 89.3834C60.236 89.7695 60.236 89.7695 59.8928 89.7695C59.1205 89.7695 58.3482 89.7695 57.5759 89.7695C56.9753 89.7695 56.6749 89.555 56.5033 88.9973C56.4175 88.8256 56.3746 88.5682 56.203 88.3108Z" fill="#4984F8"/>
<path d="M20.807 83.3769C20.7641 85.2647 22.0512 86.6805 23.8961 86.7663C24.7542 86.8092 25.5265 86.6376 26.2987 86.2515C26.5991 86.0799 26.8994 85.9511 27.1997 85.7795C27.4143 85.6508 27.6717 85.6079 27.9291 85.6079C28.2723 85.6079 28.5298 85.7366 28.7443 85.994C29.0875 86.4231 29.4308 86.895 29.8169 87.3241C29.9885 87.4957 29.9885 87.6244 29.8169 87.796C29.1733 88.4825 28.444 88.9973 27.5859 89.3406C25.6552 90.1558 23.6387 90.2845 21.5793 89.7696C19.3912 89.2119 17.8466 87.8389 17.0314 85.7366C16.3021 83.9775 16.1734 82.0898 16.6453 80.2449C17.4176 77.1129 20.0347 75.1393 23.3384 75.0535C24.2393 75.0535 25.1403 75.1393 25.9984 75.4396C28.1865 76.2119 29.4308 77.7564 29.9027 79.9445C30.0743 80.8026 30.1601 81.6607 30.0314 82.5188C29.9456 83.0766 29.774 83.2482 29.1733 83.334C29.0017 83.334 28.8301 83.334 28.6585 83.334C26.2129 83.334 23.7674 83.334 21.3219 83.334C21.1502 83.334 20.9786 83.334 20.807 83.3769ZM20.8499 80.8026C22.5661 80.8026 24.2823 80.8026 25.9555 80.8026C26.17 80.8026 26.2129 80.7168 26.2129 80.5023C26.1271 79.2581 25.3978 78.1855 23.8961 78.0997C22.6948 78.0139 21.7509 78.4858 21.2361 79.5155C21.0215 79.9016 20.8928 80.2878 20.8499 80.8026Z" fill="#4984F8"/>
<path d="M61.0933 89.7699C61.1362 89.5983 61.222 89.4696 61.3078 89.3409C62.7236 87.1099 64.1824 84.9218 65.6411 82.6907C65.8556 82.3904 65.8127 82.1759 65.6411 81.8756C64.2682 79.8162 62.8952 77.7997 61.5223 75.7403C61.4365 75.6115 61.3078 75.4828 61.3078 75.3541C61.3078 75.3112 61.3507 75.3112 61.3507 75.3112C62.8094 75.3112 64.2253 75.3112 65.684 75.3112C66.0702 75.3112 66.3276 75.5686 66.5421 75.869C67.1428 76.8558 67.7434 77.8426 68.3012 78.8294C68.5157 79.2155 68.7731 79.6016 69.0305 80.0307C69.2451 79.8162 69.288 79.5587 69.4167 79.3442C70.0602 78.2716 70.7038 77.1561 71.3045 76.0406C71.6048 75.4828 71.9909 75.2683 72.6345 75.2683C73.8358 75.3112 75.0371 75.2683 76.2384 75.2683C76.2814 75.4828 76.1097 75.6115 76.0239 75.7403C74.651 77.7139 73.321 79.7303 71.9051 81.7039C71.7335 81.9614 71.6906 82.1759 71.9051 82.4762C73.3639 84.7501 74.7797 87.0241 76.2384 89.298C76.3243 89.4267 76.4101 89.5983 76.5388 89.8128C76.1955 89.8128 75.9381 89.8128 75.6807 89.8128C74.651 89.8128 73.6213 89.7699 72.5487 89.8128C71.8622 89.8128 71.4332 89.5554 71.1328 88.9977C70.4035 87.7105 69.6312 86.4234 68.9018 85.1363C68.816 85.0076 68.7731 84.8359 68.6015 84.7501C67.8721 86.1231 67.057 87.4531 66.2847 88.7831C66.1989 88.9548 66.0701 89.1264 65.9414 89.298C65.6411 89.6841 65.2979 89.8557 64.8259 89.8128C63.7533 89.7699 62.6378 89.8128 61.5652 89.8128C61.3507 89.8128 61.222 89.8557 61.0933 89.7699Z" fill="#4984F8"/>
<path d="M54.3423 17.9411C53.1224 17.6022 52.038 17.2634 50.9536 16.9245C50.6147 16.8567 50.6147 16.6534 50.6147 16.4501C50.3436 14.5523 49.8014 12.7224 49.0558 11.028C48.3103 9.26586 47.2937 7.63925 45.9382 6.28374C43.7694 4.1827 41.2617 3.16607 38.2118 3.6405C36.2463 3.9116 34.4163 4.52158 32.722 5.53821C31.502 6.28374 30.4854 7.30037 29.6721 8.45256C27.7066 11.2313 26.5544 14.349 26.1477 17.7378C25.6055 22.5498 26.1477 27.2263 28.0455 31.7673C28.4521 32.7839 28.9943 33.8006 29.5365 34.8172C29.7398 35.2239 29.9432 35.3594 30.4176 35.3594C32.2475 35.2916 33.8741 36.4438 34.4163 38.1382C34.9585 39.8326 34.4163 41.6625 32.9931 42.7469C31.502 43.8313 29.5365 43.8313 28.0455 42.7469C26.6222 41.6625 26.0122 39.697 26.6899 38.0026C26.8933 37.4604 26.8255 37.0538 26.5544 36.5794C24.6567 33.1906 23.369 29.6663 22.759 25.8708C21.8101 20.1777 22.4879 14.6879 25.0633 9.46919C26.8255 5.80931 29.6043 2.96274 33.3997 1.26836C39.364 -1.37488 45.3282 0.25173 49.3947 4.86046C51.9702 7.7748 53.3935 11.2991 54.0712 15.0945C54.139 15.9756 54.3423 16.9245 54.3423 17.9411Z" fill="#4984F8"/>
<path d="M43.4963 52.4391C43.5641 52.168 43.8352 52.1002 43.9707 51.9646C44.7163 51.3547 45.4618 50.8125 46.2073 50.2025C46.5462 49.9314 46.8173 49.8636 47.2917 49.9992C49.6639 50.948 52.1716 51.4224 54.747 51.2869C59.6946 51.0836 63.9645 47.5592 64.9133 42.6794C65.32 40.7139 64.9811 38.7484 64.3034 36.8507C62.6768 32.5809 59.7624 29.3954 55.8992 26.9555C52.2393 24.6511 48.2406 23.1601 43.903 22.6856C42.683 22.5501 41.463 22.4823 40.2431 22.5501C39.7687 22.5501 39.4298 22.7534 39.1587 23.2279C38.2776 24.6511 36.9221 25.3289 35.2277 25.1256C33.5333 24.9222 32.3811 23.9734 31.8389 22.3468C31.229 20.4491 32.0423 18.348 33.8044 17.3992C35.4988 16.4503 37.7354 16.9247 38.8876 18.4836C39.2942 19.0258 39.6331 19.0936 40.2431 19.0936C45.3262 19.0936 50.2061 19.9746 54.8148 22.279C59.3558 24.5156 63.1512 27.7688 65.8622 32.1064C67.4888 34.6141 68.3699 37.4607 68.5054 40.4428C68.7766 45.1193 66.8788 48.847 63.0834 51.558C60.2368 53.5913 57.0514 54.6079 53.5271 54.6757C50.2739 54.7434 47.1562 54.0657 44.1063 52.7102C43.8352 52.6424 43.6319 52.5746 43.4963 52.4391Z" fill="#4984F8"/>
<path d="M19.3004 25.6675C19.5715 26.7519 19.7748 27.8363 20.1137 28.8529C20.2492 29.1918 20.1815 29.4629 19.8426 29.6662C18.216 30.954 16.8605 32.5128 15.7761 34.3427C14.5561 36.376 13.8783 38.5448 13.9461 40.917C14.0817 45.6612 17.4704 49.7278 22.147 50.6766C25.8068 51.4221 29.3989 51.0833 32.8555 49.66C36.8542 48.1011 40.3785 45.7968 43.3607 42.7469C44.7839 41.2558 46.0039 39.6292 46.9528 37.7993C47.2239 37.3926 47.2916 37.0538 46.885 36.5793C45.8006 35.156 45.8684 33.2583 46.885 31.7673C47.9016 30.344 49.7316 29.734 51.3582 30.2084C52.9848 30.6829 54.2725 32.3095 54.2725 34.0039C54.3403 36.1727 52.8492 37.6637 51.3582 38.0704C50.816 38.2059 50.5449 38.5448 50.2738 39.0192C47.3594 44.6446 43.0896 48.8467 37.3964 51.6255C34.4143 53.0488 31.2966 54.0654 28.0434 54.4043C24.1802 54.8787 20.5203 54.2687 17.0638 52.371C13.7428 50.4733 11.7773 47.6267 11.0318 43.9668C9.8796 38.4093 11.4384 33.5294 15.0983 29.2596C16.1827 27.9718 17.4027 26.8874 18.7582 25.8708C18.9615 25.8708 19.0971 25.7353 19.3004 25.6675Z" fill="#4984F8"/>
</svg>
