<svg width="119" height="89" viewBox="0 0 119 89" fill="none" xmlns="http://www.w3.org/2000/svg">
<path d="M78.6785 10.2013C78.6275 12.3925 78.322 14.7875 77.7618 17.1316C77.6599 17.6411 77.7618 17.794 78.2201 17.8959C81.2249 18.8132 84.1278 19.9852 86.7251 21.8197C87.7437 22.5331 88.6604 23.3485 89.4753 24.3167C91.6143 26.9665 91.5124 29.8711 89.3225 32.419C87.2853 34.7121 84.7389 36.2409 81.9379 37.4129C80.7156 37.9225 79.4933 38.3811 78.2201 38.7378C77.8636 38.8397 77.8127 38.9416 77.8636 39.2983C78.4238 41.5405 78.7803 43.7827 78.7803 46.0758C78.7803 48.8275 78.5766 51.5792 76.9978 53.9743C75.6228 56.0636 73.5856 56.777 71.192 56.4712C67.8307 56.0126 65.0806 54.28 62.4833 52.2927C61.5666 51.5792 60.6499 50.8658 59.8859 50.0505C59.5294 49.6938 59.2748 49.6938 58.9183 50.0505C57.1358 51.7831 55.1496 53.3118 52.9597 54.5348C51.2281 55.503 49.4456 56.2164 47.5104 56.4712C43.9454 56.9808 41.5008 55.1463 40.5332 51.936C39.7183 49.439 39.7183 46.8911 39.922 44.3432C40.0748 42.7635 40.3295 41.1838 40.7369 39.655C40.8897 39.0945 40.686 38.9416 40.1767 38.7888C37.0701 37.8715 34.1671 36.5976 31.5698 34.6612C30.5003 33.8968 29.5836 32.9795 28.8197 31.9094C26.9353 29.2596 27.0881 26.4569 29.2271 24.0109C30.6531 22.3802 32.4356 21.1573 34.3199 20.189C36.2552 19.1699 38.2923 18.4055 40.3804 17.794C40.7878 17.6921 40.8387 17.5392 40.7369 17.1316C40.1767 14.7365 39.7693 12.3415 39.7693 9.84455C39.7693 7.70431 39.973 5.56407 40.8387 3.57671C42.112 0.774009 44.6584 -0.448986 47.765 0.162512C50.7188 0.723051 53.2652 2.20084 55.608 3.93341C56.7284 4.74874 57.8488 5.66599 58.8164 6.63419C59.1729 6.9909 59.3257 6.93994 59.6822 6.63419C61.974 4.44299 64.4695 2.50658 67.4233 1.18167C68.7984 0.570176 70.2753 0.0605954 71.8032 0.00963733C74.8079 -0.143237 76.6923 1.53838 77.6599 3.93341C78.322 5.61503 78.6275 7.75527 78.6785 10.2013ZM59.122 38.5849C60.9045 38.6868 62.687 38.483 64.4695 38.483C64.826 38.483 65.0806 38.3811 65.2843 38.0753C67.2196 35.0688 69.053 31.9604 70.6827 28.6991C70.8355 28.4443 70.8355 28.1895 70.6827 27.9347C69.053 24.7243 67.2705 21.6159 65.2843 18.6093C65.1315 18.3546 64.9278 18.2526 64.6223 18.2526C61.0573 18.0488 57.4923 18.0488 53.9273 18.2526C53.5708 18.2526 53.3671 18.4055 53.1634 18.6603C51.1772 21.6668 49.3947 24.7753 47.8159 27.9856C47.6631 28.2914 47.7141 28.5462 47.8159 28.801C49.3947 32.0113 51.2281 35.1198 53.2143 38.0753C53.3671 38.3301 53.5708 38.483 53.9273 38.483C55.6079 38.483 57.3904 38.6868 59.122 38.5849ZM41.1952 20.3419C41.1952 20.3419 41.1443 20.3419 41.0934 20.3929C38.6998 21.1063 36.3571 21.9726 34.2181 23.2975C32.843 24.1128 31.5698 25.081 30.6531 26.4569C29.8382 27.6799 29.8382 28.9029 30.6022 30.1768C31.1114 30.9922 31.7735 31.6546 32.4865 32.2661C34.982 34.3045 37.834 35.5274 40.8387 36.4447C41.2971 36.5976 41.4499 36.4956 41.6027 36.037C42.3666 33.591 43.3342 31.196 44.3528 28.8519C44.4547 28.5971 44.5056 28.3933 44.4037 28.1385C43.2833 25.7435 42.3157 23.2465 41.5517 20.6986C41.5517 20.4948 41.5008 20.291 41.1952 20.3419ZM42.3157 46.7892C42.3157 47.9612 42.3666 49.0823 42.6212 50.2034C42.6722 50.5091 42.774 50.8658 42.8759 51.1716C43.6398 53.5157 45.1167 54.3819 47.5104 53.8214C51.33 52.9042 54.3857 50.611 57.1867 47.9612C57.3904 47.8083 57.3395 47.6555 57.1867 47.5026C55.4042 45.5152 53.7236 43.4769 52.1958 41.2857C52.043 41.0819 51.8902 40.98 51.6355 40.98C48.9873 40.7761 46.3899 40.4194 43.8435 39.8589C43.4361 39.757 43.2833 39.8589 43.1814 40.2665C42.7231 42.4577 42.3157 44.598 42.3157 46.7892ZM76.0811 46.4834C76.0811 44.2922 75.7756 42.203 75.3172 40.2156C75.2153 39.8079 75.1135 39.655 74.7061 39.757C72.1596 40.3175 69.5623 40.7252 66.965 40.929C66.6594 40.929 66.5066 41.0309 66.3029 41.3367C64.826 43.4769 63.2472 45.5662 61.4647 47.4516C61.2101 47.7064 61.261 47.8593 61.5156 48.1141C62.3814 48.8785 63.2472 49.6938 64.2148 50.4072C66.201 51.936 68.34 53.2609 70.7846 53.8214C73.1273 54.3819 74.6551 53.6176 75.47 51.3245C75.9793 49.6938 76.0811 48.0122 76.0811 46.4834ZM42.3666 9.69168C42.3157 11.9848 42.7231 14.176 43.1814 16.2653C43.3342 17.0806 43.3852 17.0296 44.1491 16.8768C46.4409 16.3672 48.7326 16.0105 51.0244 15.8067C51.5846 15.7557 51.992 15.6028 52.2976 15.0932C53.7236 13.0549 55.2515 11.1185 56.983 9.33497C57.2886 9.02922 57.2377 8.82539 56.9321 8.5706C56.27 8.01006 55.6589 7.39856 54.9968 6.88898C52.8578 5.20736 50.617 3.72958 47.9687 2.96521C45.0658 2.14988 43.487 3.11808 42.774 6.02269C42.4685 7.29665 42.3157 8.5706 42.3666 9.69168ZM72.1596 2.71042C71.3957 2.71042 70.7337 2.86329 70.1225 3.06712C66.6594 4.13724 63.9602 6.3794 61.3629 8.77443C61.0573 9.02922 61.261 9.1821 61.4647 9.38593C63.1963 11.2714 64.775 13.2587 66.201 15.2971C66.4048 15.6028 66.6594 15.7557 67.0159 15.8067C69.5623 16.0105 72.1087 16.4181 74.6551 16.9787C75.0116 17.0806 75.1135 16.9787 75.2153 16.622C75.7756 14.125 76.1321 11.5771 76.0302 9.02922C75.9283 7.55144 75.7756 6.07365 75.1644 4.69778C74.4514 3.42383 73.5347 2.65946 72.1596 2.71042ZM88.3548 28.2404C88.3548 28.2404 88.3039 28.1385 88.3039 28.0366C88.1511 26.6607 87.2344 25.7435 86.2668 24.8772C83.6694 22.635 80.5119 21.412 77.3034 20.3929C76.9978 20.291 76.896 20.3929 76.7941 20.6477C76.0302 23.1446 75.0626 25.5396 73.9931 27.8837C73.8912 28.1895 73.8912 28.3933 73.9931 28.6481C75.1135 30.9922 76.0811 33.4382 76.896 35.9351C76.9978 36.2409 77.0997 36.2918 77.4562 36.1899C78.8822 35.7822 80.2063 35.2727 81.5814 34.6612C83.6694 33.6929 85.6556 32.5209 87.2344 30.7374C87.8456 30.0749 88.253 29.2596 88.3548 28.2404ZM68.391 38.1263C70.3772 37.9225 72.1596 37.5658 73.9931 37.2091C74.3496 37.1581 74.4005 36.9543 74.2986 36.6485C73.9931 35.8332 73.7384 35.0179 73.4329 34.2025C73.0764 33.2853 72.7199 32.419 72.3124 31.3998C71.0392 33.6929 69.766 35.8842 68.391 38.1263ZM50.0058 38.1263C49.7003 37.6167 49.4456 37.2091 49.191 36.8524C48.2233 35.2727 47.2557 33.642 46.3899 32.0113C46.339 31.9094 46.2881 31.7056 46.1353 31.7056C45.9316 31.7056 45.9316 31.9094 45.8806 32.0113C45.2695 33.591 44.6584 35.1707 44.1491 36.8014C44.0982 37.0052 43.9963 37.2091 44.3528 37.26C46.1862 37.6677 48.0196 37.9734 50.0058 38.1263ZM55.4552 41.2348C56.6265 42.8654 57.8488 44.2413 59.0711 45.6681C59.2748 45.9229 59.4276 45.77 59.5804 45.6171C60.7008 44.3432 61.7703 43.0183 62.7888 41.6424C62.8398 41.5405 62.9926 41.4386 62.8907 41.3367C62.7888 41.2347 62.687 41.2857 62.5342 41.2857C60.1915 41.2347 57.8997 41.2348 55.4552 41.2348ZM68.4928 18.6093C68.4928 18.7113 68.4928 18.7622 68.5437 18.8132C69.766 20.7496 70.8864 22.737 72.0069 24.7753C72.0578 24.8772 72.1087 25.0301 72.2615 24.9791C72.3634 24.9282 72.4143 24.8262 72.4652 24.6734C73.0764 23.1446 73.6875 21.6159 74.1968 20.0362C74.2986 19.6795 74.2477 19.5776 73.8912 19.4756C72.1087 19.1189 70.3262 18.8132 68.4928 18.6093ZM55.4042 15.399C57.9507 15.399 60.4461 15.399 62.9416 15.399C61.7703 13.8193 60.5989 12.4434 59.3766 11.0675C59.2239 10.9147 59.122 10.9147 58.9692 11.0675C57.7469 12.4434 56.5756 13.8702 55.4042 15.399ZM46.1353 25.2339C47.3066 22.9408 48.5289 20.8515 49.904 18.6603C47.9687 18.8641 46.1353 19.1699 44.4037 19.5776C44.1491 19.6285 44.0982 19.7814 44.2 19.9852C44.7093 21.7178 45.3204 23.4504 46.1353 25.2339Z" fill="#4984F8"/>
<path d="M64.922 28.2775C64.922 31.4363 62.3235 33.9836 59.1645 33.9327C56.1584 33.9327 53.6108 31.3344 53.6108 28.2775C53.6108 25.2206 56.1584 22.6223 59.1645 22.6223C62.3744 22.6223 64.922 25.1187 64.922 28.2775Z" fill="#4984F8"/>
<path d="M5.5822 82.4144H2.63981V88.2976H0V73.0286H5.34222C7.09513 73.0286 8.44808 73.4236 9.40105 74.2137C10.354 75.0037 10.8305 76.1467 10.8305 77.6429C10.8305 78.6636 10.5836 79.52 10.0897 80.2122C9.60278 80.8973 8.92109 81.4251 8.04463 81.7957L11.4566 88.1612V88.2976H8.62893L5.5822 82.4144ZM2.63981 80.2856H5.35265C6.24302 80.2856 6.93862 80.0618 7.43946 79.6144C7.94029 79.16 8.19071 78.5412 8.19071 77.7582C8.19071 76.9403 7.95768 76.3075 7.49163 75.8601C7.03253 75.4127 6.34388 75.1819 5.42569 75.168H2.63981V80.2856Z" fill="#4984F8"/>
<path d="M18.0613 88.5073C16.4545 88.5073 15.1502 88.0004 14.1485 86.9867C13.1538 85.966 12.6565 84.6097 12.6565 82.9178V82.6032C12.6565 81.4706 12.8721 80.4604 13.3034 79.5725C13.7416 78.6776 14.3537 77.9819 15.1398 77.4856C15.9258 76.9892 16.8022 76.741 17.7691 76.741C19.3064 76.741 20.4924 77.2339 21.3271 78.2197C22.1688 79.2054 22.5897 80.6002 22.5897 82.4039V83.4316H15.2128C15.2893 84.3685 15.5989 85.1095 16.1414 85.6549C16.691 86.2002 17.3796 86.4728 18.2074 86.4728C19.369 86.4728 20.315 86.0009 21.0454 85.0571L22.4123 86.368C21.9601 87.0461 21.355 87.574 20.5968 87.9515C19.8455 88.322 19.0004 88.5073 18.0613 88.5073ZM17.7587 78.7859C17.0631 78.7859 16.4997 79.0306 16.0684 79.52C15.6441 80.0094 15.3728 80.6911 15.2545 81.565H20.0855V81.3762C20.0298 80.5233 19.8038 79.8801 19.4073 79.4466C19.0108 79.0062 18.4613 78.7859 17.7587 78.7859Z" fill="#4984F8"/>
<path d="M31.3125 88.2976C31.2012 88.0808 31.1038 87.7278 31.0203 87.2384C30.2134 88.0843 29.2257 88.5073 28.0571 88.5073C26.9233 88.5073 25.9981 88.1822 25.2816 87.532C24.5652 86.8818 24.2069 86.0778 24.2069 85.12C24.2069 83.9105 24.6521 82.9842 25.5425 82.341C26.4398 81.6908 27.7197 81.3657 29.3822 81.3657H30.9369V80.6211C30.9369 80.0339 30.7734 79.5655 30.4465 79.2159C30.1195 78.8594 29.6222 78.6811 28.9544 78.6811C28.3771 78.6811 27.904 78.8279 27.5354 79.1215C27.1667 79.4082 26.9824 79.7752 26.9824 80.2226H24.4469C24.4469 79.6004 24.6521 79.0202 25.0625 78.4818C25.4729 77.9365 26.0294 77.51 26.732 77.2024C27.4415 76.8948 28.231 76.741 29.1005 76.741C30.4221 76.741 31.476 77.0766 32.262 77.7477C33.048 78.4119 33.4515 79.3487 33.4723 80.5582V85.6758C33.4723 86.6966 33.6149 87.511 33.9001 88.1193V88.2976H31.3125ZM28.5266 86.4623C29.0274 86.4623 29.497 86.34 29.9352 86.0953C30.3804 85.8506 30.7143 85.522 30.9369 85.1095V82.9702H29.57C28.631 82.9702 27.9249 83.1345 27.4519 83.4631C26.9789 83.7917 26.7424 84.2566 26.7424 84.8579C26.7424 85.3472 26.9024 85.7388 27.2224 86.0324C27.5493 86.319 27.984 86.4623 28.5266 86.4623Z" fill="#4984F8"/>
<path d="M40.7657 86.4728C41.3987 86.4728 41.9239 86.2876 42.3413 85.917C42.7586 85.5465 42.9812 85.0886 43.009 84.5432H45.3984C45.3706 85.2494 45.1515 85.91 44.7411 86.5253C44.3307 87.1335 43.7742 87.6159 43.0716 87.9725C42.3691 88.329 41.6109 88.5073 40.797 88.5073C39.218 88.5073 37.9659 87.9934 37.0408 86.9657C36.1156 85.938 35.653 84.5188 35.653 82.708V82.4459C35.653 80.719 36.1121 79.3383 37.0303 78.3035C37.9485 77.2618 39.2006 76.741 40.7866 76.741C42.1291 76.741 43.2212 77.136 44.0629 77.926C44.9115 78.709 45.3567 79.7403 45.3984 81.0197H43.009C42.9812 80.3695 42.7586 79.8346 42.3413 79.4152C41.9309 78.9957 41.4057 78.7859 40.7657 78.7859C39.9449 78.7859 39.3119 79.0866 38.8667 79.6878C38.4215 80.2821 38.1955 81.1874 38.1885 82.4039V82.8129C38.1885 84.0434 38.4076 84.9627 38.8459 85.571C39.291 86.1722 39.931 86.4728 40.7657 86.4728Z" fill="#4984F8"/>
<path d="M50.4902 74.1927V76.9507H52.4831V78.8384H50.4902V85.1725C50.4902 85.6059 50.5737 85.9205 50.7406 86.1163C50.9145 86.305 51.2206 86.3994 51.6588 86.3994C51.951 86.3994 52.2466 86.3645 52.5457 86.2946V88.2661C51.9684 88.4269 51.4119 88.5073 50.8763 88.5073C48.9286 88.5073 47.9548 87.4271 47.9548 85.2668V78.8384H46.0975V76.9507H47.9548V74.1927H50.4902Z" fill="#4984F8"/>
<path d="M72.0469 88.2976H69.4071L62.6354 77.4646V88.2976H59.9956V73.0286H62.6354L69.428 83.9035V73.0286H72.0469V88.2976Z" fill="#ff0000"/>
<path d="M81.6671 88.2976C81.5558 88.0808 81.4584 87.7278 81.3749 87.2384C80.568 88.0843 79.5803 88.5073 78.4117 88.5073C77.2778 88.5073 76.3527 88.1822 75.6362 87.532C74.9197 86.8818 74.5615 86.0778 74.5615 85.12C74.5615 83.9105 75.0067 82.9842 75.8971 82.341C76.7944 81.6908 78.0743 81.3657 79.7368 81.3657H81.2915V80.6211C81.2915 80.0339 81.128 79.5655 80.8011 79.2159C80.4741 78.8594 79.9768 78.6811 79.309 78.6811C78.7316 78.6811 78.2586 78.8279 77.89 79.1215C77.5213 79.4082 77.337 79.7752 77.337 80.2226H74.8015C74.8015 79.6004 75.0067 79.0202 75.4171 78.4818C75.8275 77.9365 76.384 77.51 77.0865 77.2024C77.7961 76.8948 78.5856 76.741 79.4551 76.741C80.7767 76.741 81.8305 77.0766 82.6166 77.7477C83.4026 78.4119 83.8061 79.3487 83.8269 80.5582V85.6758C83.8269 86.6966 83.9695 87.511 84.2547 88.1193V88.2976H81.6671ZM78.8812 86.4623C79.382 86.4623 79.8516 86.34 80.2898 86.0953C80.735 85.8506 81.0689 85.522 81.2915 85.1095V82.9702H79.9246C78.9855 82.9702 78.2795 83.1345 77.8065 83.4631C77.3335 83.7917 77.097 84.2566 77.097 84.8579C77.097 85.3472 77.257 85.7388 77.5769 86.0324C77.9039 86.319 78.3386 86.4623 78.8812 86.4623Z" fill="#4984F8"/>
<path d="M89.6595 74.1927V76.9507H91.6524V78.8384H89.6595V85.1725C89.6595 85.6059 89.743 85.9205 89.91 86.1163C90.0839 86.305 90.3899 86.3994 90.8281 86.3994C91.1203 86.3994 91.4159 86.3645 91.715 86.2946V88.2661C91.1377 88.4269 90.5812 88.5073 90.0456 88.5073C88.0979 88.5073 87.1241 87.4271 87.1241 85.2668V78.8384H85.2668V76.9507H87.1241V74.1927H89.6595Z" fill="#4984F8"/>
<path d="M96.2956 88.2976H93.7601V76.9507H96.2956V88.2976ZM93.6036 74.0039C93.6036 73.6124 93.7253 73.2873 93.9688 73.0286C94.2192 72.77 94.574 72.6406 95.0331 72.6406C95.4922 72.6406 95.8469 72.77 96.0973 73.0286C96.3477 73.2873 96.473 73.6124 96.473 74.0039C96.473 74.3884 96.3477 74.71 96.0973 74.9687C95.8469 75.2204 95.4922 75.3462 95.0331 75.3462C94.574 75.3462 94.2192 75.2204 93.9688 74.9687C93.7253 74.71 93.6036 74.3884 93.6036 74.0039Z" fill="#4984F8"/>
<path d="M103.046 85.0676L105.436 76.9507H108.055L104.142 88.2976H101.94L97.9963 76.9507H100.626L103.046 85.0676Z" fill="#ff0000"/>
<path d="M114.472 88.5073C112.865 88.5073 111.561 88.0004 110.559 86.9867C109.564 85.966 109.067 84.6097 109.067 82.9178V82.6032C109.067 81.4706 109.282 80.4604 109.714 79.5725C110.152 78.6776 110.764 77.9819 111.55 77.4856C112.336 76.9892 113.213 76.741 114.179 76.741C115.717 76.741 116.903 77.2339 117.737 78.2197C118.579 79.2054 119 80.6002 119 82.4039V83.4316H111.623C111.7 84.3685 112.009 85.1095 112.552 85.6549C113.101 86.2002 113.79 86.4728 114.618 86.4728C115.779 86.4728 116.725 86.0009 117.456 85.0571L118.823 86.368C118.37 87.0461 117.765 87.574 117.007 87.9515C116.256 88.322 115.411 88.5073 114.472 88.5073ZM114.169 78.7859C113.473 78.7859 112.91 79.0306 112.479 79.52C112.054 80.0094 111.783 80.6911 111.665 81.565H116.496V81.3762C116.44 80.5233 116.214 79.8801 115.818 79.4466C115.421 79.0062 114.872 78.7859 114.169 78.7859Z" fill="#4984F8"/>
</svg>
