<svg width="104" height="77" viewBox="0 0 104 77" fill="none" xmlns="http://www.w3.org/2000/svg">
<path d="M61.2756 43.3838C55.0893 43.3838 48.9282 43.3838 42.7419 43.3838C42.0601 43.3838 42.0854 43.4343 42.2874 42.803C43.1711 40.1265 44.0549 37.4499 44.9387 34.7734C45.1154 34.2684 45.0397 34.3189 45.5952 34.3189C57.0083 34.3189 68.4467 34.3189 79.8598 34.3189C80.4406 34.3189 80.4406 34.3189 80.4406 34.8997C80.4406 37.5509 80.4406 40.177 80.4406 42.8283C80.4406 42.904 80.4406 42.9798 80.4406 43.0808C80.4658 43.308 80.3396 43.409 80.1123 43.3838C79.9861 43.3838 79.8598 43.3838 79.7336 43.3838C73.5978 43.3838 67.4367 43.3838 61.2756 43.3838Z" fill="#ff0000"/>
<path d="M64.1035 26.2135C58.8767 26.2135 53.6498 26.2135 48.423 26.2135C47.7413 26.2135 47.7665 26.264 47.9685 25.6328C48.827 23.0067 49.7108 20.3807 50.5693 17.7547C50.5693 17.7294 50.5946 17.7042 50.5946 17.6537C50.7713 17.1234 50.7208 17.1992 51.2258 17.1992C60.7957 17.1992 70.3655 17.1992 79.9102 17.1992C79.9859 17.1992 80.0617 17.1992 80.1627 17.1992C80.3394 17.1992 80.4404 17.2749 80.4152 17.4769C80.4152 17.5779 80.4152 17.6789 80.4152 17.7799C80.4152 20.4312 80.4152 23.0572 80.4152 25.7085C80.4152 25.8095 80.4152 25.9105 80.4152 26.0115C80.4152 26.2135 80.3394 26.264 80.1374 26.264C80.0112 26.264 79.8849 26.264 79.7587 26.264C74.5571 26.2135 69.3303 26.2135 64.1035 26.2135Z" fill="#ff0000"/>
<path d="M53.4731 9.0181C53.7004 8.31109 53.9277 7.65458 54.1297 6.99807C54.8619 4.77605 55.5942 2.57927 56.3264 0.357241C56.4022 0.0794879 56.5537 -0.0215118 56.8062 0.00373854C56.8819 0.00373854 56.9324 0.00373854 57.0082 0.00373854C64.6085 0.00373854 72.2341 0.00373854 79.8345 0.00373854C80.491 0.00373854 80.4405 -0.0467636 80.4405 0.609744C80.4405 3.23578 80.4405 5.86181 80.4405 8.48784C80.4405 8.61409 80.4405 8.71509 80.4405 8.84134C80.4405 8.99285 80.3647 9.09385 80.2132 9.09385C80.087 9.09385 79.986 9.09385 79.8597 9.09385C71.2494 9.09385 62.6138 9.09385 54.0034 9.09385C53.8519 9.09385 53.7004 9.1191 53.4731 9.0181Z" fill="#ff0000"/>
<path d="M46.9585 0.0794099C46.7312 0.761168 46.5292 1.39243 46.3272 2.02369C45.5949 4.27096 44.8374 6.49299 44.1052 8.74026C44.0042 9.06852 43.9789 9.09377 43.5749 9.09377C40.9489 9.09377 38.3228 9.09377 35.6968 9.09377C32.692 9.09377 29.662 9.09377 26.6572 9.09377C26.531 9.09377 26.4047 9.09377 26.2785 9.09377C26.0512 9.11902 25.9502 9.01802 25.9502 8.79076C25.9502 8.68976 25.9502 8.58876 25.9502 8.48776C25.9502 5.86173 25.9502 3.2357 25.9502 0.609668C25.9502 0.483416 25.9502 0.382417 25.9502 0.256165C25.9502 0.104663 26.0259 0.00366211 26.1774 0.00366211C26.3037 0.00366211 26.4047 0.00366211 26.531 0.00366211C33.1718 0.00366211 39.7874 0.00366211 46.4282 0.00366211C46.5797 0.0289124 46.7312 0.00365902 46.9585 0.0794099Z" fill="#ff0000"/>
<path d="M41.2522 17.2497C41.2017 17.5527 41.0755 17.8557 40.9745 18.1335C40.1412 20.6585 39.308 23.2088 38.4747 25.7338C38.2979 26.3146 38.3232 26.2136 37.7929 26.2136C34.0306 26.2136 30.2683 26.2136 26.5061 26.2136C26.4303 26.2136 26.3545 26.2136 26.2535 26.2136C26.0263 26.2388 25.9253 26.1378 25.9253 25.9106C25.9505 25.6076 25.9253 25.2793 25.9253 24.9763C25.9253 22.6028 25.9253 20.2292 25.9253 17.8557C25.9253 17.7547 25.9253 17.6537 25.9253 17.5527C25.9253 17.1992 25.9253 17.1992 26.2788 17.174C26.3546 17.174 26.4303 17.174 26.5313 17.174C31.2279 17.174 35.9497 17.174 40.6462 17.174C40.8482 17.1992 41.0502 17.1487 41.2522 17.2497Z" fill="#ff0000"/>
<path d="M35.5956 34.3946C35.4441 34.8239 35.3178 35.2279 35.1916 35.6319C34.3836 38.0559 33.6008 40.4799 32.7928 42.904C32.6413 43.409 32.616 43.409 32.111 43.409C30.2173 43.409 28.3235 43.409 26.455 43.409C26.354 43.409 26.253 43.409 26.152 43.409C26.0257 43.409 25.95 43.3332 25.95 43.1817C25.95 43.0555 25.95 42.9545 25.95 42.8282C25.95 40.1769 25.95 37.5256 25.95 34.8744C25.95 34.7986 25.95 34.7229 25.95 34.6219C25.9247 34.4199 26.0005 34.3188 26.2277 34.3188C26.3035 34.3188 26.3792 34.3188 26.4802 34.3188C29.3587 34.3188 32.2373 34.3188 35.1158 34.3188C35.2421 34.3441 35.3936 34.3188 35.5956 34.3946Z" fill="#ff0000"/>
<path d="M89.0764 75.9819C87.7381 76.0324 86.4251 75.6284 85.1373 75.1992C85.0363 75.1739 84.9353 75.0982 84.8343 75.0477C84.6071 74.9719 84.6323 74.8457 84.7081 74.6689C84.9353 74.2397 85.1373 73.7852 85.3393 73.3559C85.4151 73.1539 85.5161 73.1539 85.6928 73.2297C86.8291 73.6842 87.9906 74.0377 89.2279 74.0629C89.6824 74.0882 90.1369 74.0882 90.5914 73.9367C90.8692 73.8609 91.0964 73.7094 91.2479 73.4569C91.7277 72.7751 91.5257 72.1944 90.7429 71.9671C89.9854 71.7399 89.2026 71.6641 88.4451 71.5884C87.6119 71.4874 86.8291 71.2854 86.0716 70.8814C84.3546 69.9471 84.4051 67.1191 85.9201 66.1596C86.9301 65.5283 88.0159 65.3011 89.1774 65.3768C90.3641 65.4526 91.5257 65.6546 92.6872 65.9323C93.0154 66.0081 93.0407 66.0081 92.9144 66.3616C92.7629 66.8161 92.6367 67.2706 92.4852 67.6998C92.3589 68.0533 92.3589 68.0533 92.0054 67.9271C90.9197 67.5736 89.8339 67.3716 88.6976 67.3716C88.2179 67.3716 87.7634 67.4726 87.3594 67.7251C87.1574 67.8513 86.9806 68.0281 86.9049 68.2806C86.8039 68.7098 87.0059 69.0633 87.4604 69.2401C87.9906 69.4169 88.5461 69.4926 89.0764 69.5431C89.8086 69.6189 90.5409 69.7199 91.2479 69.9219C91.5762 70.0229 91.8792 70.1491 92.1822 70.3259C92.9649 70.8056 93.3689 71.4874 93.4699 72.3964C93.6719 74.3659 92.4852 75.4264 91.0207 75.8052C90.4147 75.9567 89.7834 76.0072 89.0764 75.9819Z" fill="#4984F8"/>
<path d="M0.801091 73.1286C2.03836 73.6084 3.27562 74.0124 4.56339 74.0629C5.04314 74.0881 5.49765 74.0881 5.9774 73.9366C6.43191 73.8104 6.68441 73.4821 6.81066 73.0529C6.96216 72.5984 6.78541 72.2449 6.35616 72.0681C5.8259 71.8408 5.2704 71.7651 4.68964 71.6893C4.15938 71.6136 3.62912 71.5631 3.09887 71.4873C2.34136 71.3863 1.6596 71.0833 1.05359 70.6036C0.649589 70.2753 0.371834 69.8713 0.245583 69.3663C0.119331 68.8361 0.0940813 68.3058 0.220333 67.7755C0.371835 67.0433 0.775839 66.513 1.38185 66.109C2.36661 65.4778 3.42712 65.301 4.56339 65.3768C5.7754 65.4525 6.98741 65.6798 8.17418 65.9575C8.22468 65.9828 8.30043 66.008 8.37618 66.0585C8.17418 66.6645 7.97218 67.2705 7.79542 67.8513C7.74492 68.028 7.61867 68.028 7.49242 67.9775C7.11367 67.8513 6.70966 67.725 6.33091 67.6493C5.54815 67.4725 4.76539 67.3715 3.95738 67.3968C3.50287 67.3968 3.09887 67.523 2.69486 67.7503C2.39186 67.9523 2.18986 68.2301 2.24036 68.6088C2.29086 68.9623 2.51811 69.1643 2.87162 69.2906C3.37662 69.4421 3.93213 69.5178 4.46239 69.5683C5.06839 69.6441 5.69965 69.7198 6.30566 69.8713C6.48241 69.9218 6.65916 69.9723 6.81066 70.0228C8.72969 70.6793 9.15894 72.2196 8.72969 73.7851C8.40143 74.9466 7.49242 75.5526 6.38141 75.8304C4.91689 76.1839 3.42712 76.1081 1.98785 75.7041C1.38185 75.5274 0.75059 75.3759 0.195083 75.0981C-0.00691952 74.9971 -0.0574201 74.8961 0.0688314 74.6941C0.321334 74.1639 0.548588 73.6589 0.801091 73.1286Z" fill="#4984F8"/>
<path d="M95.8941 73.1538C97.1061 73.6335 98.3434 74.0123 99.6311 74.0628C100.086 74.088 100.54 74.0628 100.995 73.9618C101.373 73.8608 101.651 73.6083 101.803 73.2548C102.055 72.6993 101.904 72.27 101.323 72.0428C100.818 71.8408 100.288 71.7903 99.7574 71.7145C99.2271 71.6388 98.6969 71.5883 98.1666 71.5125C97.4091 71.4115 96.7273 71.1085 96.1213 70.6287C95.7173 70.3005 95.4396 69.8965 95.3133 69.3662C95.1871 68.836 95.1618 68.3057 95.2881 67.7755C95.4396 67.0432 95.8436 66.513 96.4748 66.1089C97.4344 65.5029 98.4949 65.3262 99.6059 65.3767C100.818 65.4524 102.005 65.6544 103.166 65.9322C103.469 66.0079 103.469 66.0079 103.393 66.311C103.242 66.7655 103.09 67.2452 102.939 67.6997C102.838 68.028 102.813 68.0532 102.51 67.927C101.777 67.6745 101.045 67.523 100.288 67.422C99.6564 67.3462 99.0251 67.2705 98.3939 67.4725C98.1919 67.523 97.9899 67.624 97.8131 67.725C97.5101 67.9017 97.3334 68.1542 97.3586 68.533C97.3839 68.9117 97.6364 69.139 97.9899 69.24C98.4949 69.3915 99.0504 69.4672 99.5806 69.5177C100.187 69.5935 100.818 69.6692 101.424 69.8207C101.601 69.8712 101.777 69.9217 101.929 69.9722C103.848 70.6288 104.277 72.1943 103.848 73.7345C103.52 74.8961 102.611 75.5021 101.5 75.7798C100.035 76.1333 98.5454 76.0576 97.1061 75.6536C96.5506 75.5021 95.9698 75.3506 95.4396 75.1233C95.0356 74.9466 95.0356 74.9466 95.2123 74.5678C95.4143 74.1385 95.6416 73.684 95.8436 73.2548C95.8183 73.2043 95.8436 73.2043 95.8941 73.1538Z" fill="#4984F8"/>
<path d="M65.6185 69.5431C65.6185 67.5988 65.6185 65.6545 65.6185 63.7355C65.6185 63.3063 65.6185 63.3063 65.1892 63.3063C64.3812 63.3063 63.548 63.3063 62.7399 63.3063C62.3359 63.3063 62.3359 63.3063 62.3359 62.9275C62.3359 62.5235 62.3359 62.1195 62.3359 61.7155C62.3359 61.5135 62.4117 61.4377 62.6137 61.4377C64.255 61.4377 65.8962 61.4377 67.5627 61.4377C67.7395 61.4377 67.8405 61.4882 67.8152 61.6902C67.8152 61.8165 67.8152 61.9428 67.8152 62.069C67.8152 65.7555 67.8152 69.4421 67.8152 73.1034C67.8152 73.7094 67.7395 73.6336 68.3708 73.6336C69.4818 73.6336 70.5928 73.6336 71.7038 73.6336C72.0573 73.6336 72.0826 73.6336 72.0826 74.0124C72.0826 74.4922 72.0826 74.9972 72.0826 75.4769C72.0826 75.7042 72.0321 75.8052 71.7795 75.7799C71.1483 75.7547 70.5423 75.7799 69.911 75.7799C68.598 75.7799 67.3102 75.7799 65.9972 75.7799C65.6185 75.7799 65.6185 75.7799 65.6185 75.4012C65.6185 73.4569 65.6185 71.5126 65.6185 69.5431Z" fill="#4984F8"/>
<path d="M41.4794 65.5282C41.1006 66.715 40.7471 67.826 40.3936 68.937C39.7119 71.0833 39.0301 73.2548 38.3231 75.4011C38.1716 75.8808 38.2473 75.8051 37.7928 75.8051C36.9596 75.8051 36.1263 75.8051 35.2931 75.8051C34.9143 75.8051 34.9143 75.8051 34.788 75.4516C34.0558 73.078 33.3488 70.6793 32.6165 68.3057C32.364 67.4977 32.1115 66.6897 31.8843 65.8817C31.859 65.7807 31.8085 65.705 31.859 65.5535C32.5408 65.5535 33.2478 65.5535 33.9295 65.5535C34.1315 65.5535 34.1568 65.7049 34.182 65.8312C34.4093 66.614 34.6365 67.3967 34.8638 68.1795C35.3941 69.9975 35.9243 71.8408 36.4546 73.6588C36.6566 73.583 36.6313 73.381 36.6818 73.2548C37.4646 70.856 38.2473 68.4572 39.0553 66.0585C39.0806 65.9575 39.1311 65.8312 39.1564 65.7302C39.1816 65.5787 39.2826 65.5282 39.4341 65.5282C40.1411 65.5282 40.7724 65.5282 41.4794 65.5282Z" fill="#4984F8"/>
<path d="M24.6374 67.0686C24.8394 66.7656 25.0162 66.4879 25.2687 66.2606C25.7232 65.8061 26.2787 65.5536 26.91 65.5284C27.92 65.5284 28.93 65.5284 29.94 65.5284C30.1925 65.5284 30.243 65.6294 30.243 65.8314C30.2178 66.3111 30.243 66.7656 30.243 67.2454C30.243 67.6999 30.2935 67.6747 29.839 67.6747C28.8542 67.6747 27.8442 67.6747 26.8595 67.6747C26.2535 67.6747 25.7484 67.9019 25.3444 68.3312C25.0162 68.6847 24.8394 69.0634 24.8394 69.5684C24.8647 71.5127 24.8394 73.457 24.8394 75.376C24.8394 75.8052 24.8899 75.8052 24.4102 75.8052C23.8799 75.8052 23.3244 75.8052 22.7942 75.8052C22.5922 75.8052 22.5164 75.7295 22.5164 75.5275C22.5164 74.8205 22.5164 74.0882 22.5164 73.3812C22.5164 70.9572 22.5164 68.5584 22.5164 66.1344C22.5164 66.0081 22.5164 65.9071 22.5164 65.7809C22.4912 65.6041 22.5669 65.5031 22.7689 65.5284C23.2992 65.5284 23.8042 65.5284 24.3344 65.5284C24.5112 65.5284 24.5617 65.6041 24.5617 65.7556C24.5869 66.1849 24.6122 66.6394 24.6374 67.0686Z" fill="#4984F8"/>
<path d="M56.806 67.0937C57.3616 66.0332 58.1696 65.503 59.3563 65.5282C60.2653 65.5535 61.1743 65.5535 62.0834 65.5282C62.3611 65.5282 62.4116 65.6292 62.4116 65.8565C62.3864 66.3615 62.3864 66.8665 62.4116 67.3715C62.4116 67.6492 62.3106 67.6997 62.0834 67.6745C61.0733 67.6745 60.0633 67.6745 59.0533 67.6745C58.4221 67.6745 57.9171 67.9017 57.4878 68.3562C57.1595 68.7097 57.008 69.0885 57.008 69.5935C57.0333 71.4873 57.008 73.3811 57.008 75.2748C57.008 75.4011 57.008 75.5021 57.008 75.6283C57.008 75.7798 56.9575 75.8303 56.806 75.8303C56.1748 75.8303 55.5435 75.8303 54.9123 75.8303C54.7608 75.8303 54.7103 75.7798 54.7103 75.6283C54.7103 75.5273 54.7103 75.4263 54.7103 75.3253C54.7103 72.2195 54.7103 69.139 54.7103 66.0332C54.7103 65.9575 54.7103 65.8817 54.7103 65.7807C54.685 65.5787 54.8113 65.5282 54.9628 65.5282C55.4678 65.5282 55.9728 65.5282 56.4778 65.5282C56.6545 65.5282 56.7303 65.604 56.7303 65.7807C56.7555 66.21 56.7808 66.6392 56.806 67.0937Z" fill="#4984F8"/>
<path fill-rule="evenodd" clip-rule="evenodd" d="M75.9204 71.4368H79.304C80.4655 71.4368 81.627 71.4368 82.738 71.4116C82.7517 71.4116 82.7654 71.4117 82.779 71.4119C82.9411 71.4137 83.0915 71.4154 83.0915 71.1591C83.1168 70.1996 83.1168 69.2401 82.7885 68.3058C82.2583 66.8413 81.324 65.7808 79.7332 65.4525C78.9505 65.301 78.1425 65.2505 77.3597 65.402C75.9709 65.6798 74.8599 66.3615 74.1277 67.624C73.2944 69.0886 73.0924 70.6288 73.5217 72.2449C73.9509 73.8861 74.8852 75.1234 76.5769 75.6284C78.5465 76.2092 80.4655 75.8809 82.3593 75.1739C82.536 75.1234 82.536 74.9971 82.4855 74.8709C82.4488 74.7461 82.41 74.6193 82.3709 74.4915C82.2755 74.1796 82.1784 73.8624 82.1068 73.5579C82.0563 73.3306 81.93 73.3054 81.728 73.4064C81.4503 73.5326 81.1725 73.6084 80.8947 73.6841C79.8595 73.9366 78.8242 74.1386 77.7637 73.9366C76.6527 73.7346 75.7437 72.8761 75.5669 71.8913C75.5282 71.659 75.5093 71.5454 75.5574 71.4899C75.6034 71.4368 75.7106 71.4368 75.9204 71.4368ZM76.6783 67.8513C76.0471 68.23 75.6936 68.836 75.5673 69.6188H75.5679C76.3757 69.6188 77.1078 69.6188 77.8398 69.5935H80.7689C81.0466 69.5935 81.0971 69.543 81.0466 69.2905C80.9456 68.634 80.6931 68.028 80.0366 67.725C78.9003 67.1695 77.7641 67.1948 76.6783 67.8513Z" fill="#4984F8"/>
<path fill-rule="evenodd" clip-rule="evenodd" d="M19.2497 73.7483C19.2116 73.6106 19.1731 73.4715 19.1329 73.3306C19.0122 73.3684 18.8983 73.4061 18.7884 73.4424C18.5305 73.5278 18.295 73.6058 18.0471 73.6589C17.0119 73.9114 15.9766 74.1134 14.9161 73.9114C13.8051 73.7094 13.0223 73.0781 12.6941 71.9671C12.5678 71.4874 12.5931 71.4369 13.0981 71.4369H17.4916H19.8904C20.0924 71.4369 20.2439 71.4369 20.2439 71.1591C20.2691 70.1743 20.2439 69.1896 19.8904 68.2301C19.3601 66.7908 18.4259 65.7808 16.8604 65.4778C16.0776 65.3263 15.2696 65.2758 14.4868 65.4273C13.0981 65.705 11.987 66.3868 11.2548 67.6493C10.4468 69.0381 10.2448 70.5026 10.5983 72.0429C11.0528 74.0881 12.2648 75.4264 14.3858 75.8304C15.1686 75.9819 15.9513 75.9819 16.7594 75.8809C17.6684 75.7799 18.5521 75.5527 19.4106 75.2244C19.5874 75.1487 19.6631 75.0982 19.5874 74.8709C19.4576 74.5 19.355 74.1292 19.2497 73.7483ZM12.6437 69.5935H18.0977C18.1482 68.836 17.82 68.1037 17.1635 67.7755C16.002 67.1695 14.8404 67.22 13.7294 67.8765C13.1234 68.23 12.7699 68.836 12.6437 69.5935Z" fill="#4984F8"/>
<path fill-rule="evenodd" clip-rule="evenodd" d="M51.3018 73.3307L51.3018 73.3307C51.1498 73.3782 51.0086 73.4257 50.8713 73.4718C50.6437 73.5483 50.4271 73.6212 50.1908 73.6842C49.1555 73.9367 48.1203 74.1134 47.0598 73.9367C45.9488 73.7599 45.065 72.9519 44.8377 71.9419C44.7367 71.5126 44.7872 71.4621 45.2165 71.4621H49.9636H52.1098C52.3118 71.4621 52.4128 71.4116 52.4128 71.1844C52.4381 70.1996 52.4128 69.2149 52.0593 68.2553C51.5291 66.8161 50.5948 65.8061 49.0293 65.5031C48.2465 65.3516 47.4385 65.3011 46.6558 65.4526C45.267 65.7303 44.156 66.4121 43.4237 67.6746C42.6157 69.0634 42.4137 70.5279 42.7672 72.0681C43.247 74.1134 44.459 75.4769 46.6053 75.8557C47.7163 76.0324 48.8273 75.9567 49.9131 75.7294C50.4938 75.6032 51.0746 75.4264 51.6301 75.1992C51.7816 75.1487 51.8321 75.0982 51.7816 74.9214C51.6048 74.3912 51.4533 73.8609 51.3018 73.3307ZM46.0998 67.7505C45.3676 68.1292 44.9888 68.7605 44.8121 69.619H44.8126C45.5699 69.619 46.2515 69.619 46.9331 69.5937H50.0136C50.2661 69.619 50.3166 69.518 50.2914 69.2907C50.1904 68.6342 49.9379 68.0535 49.2814 67.7252C48.2209 67.195 47.1604 67.2202 46.0998 67.7505Z" fill="#4984F8"/>
</svg>
