<svg width="63" height="64" viewBox="0 0 63 64" fill="none" xmlns="http://www.w3.org/2000/svg">
<path fill-rule="evenodd" clip-rule="evenodd" d="M48.8585 0H13.9235C13.6525 0 13.3815 0 13.1351 0.0492736C10.6222 0.172458 8.15848 1.01011 6.06435 2.43904C4.0195 3.8187 2.36883 5.76501 1.30945 7.98232C0.397887 9.85472 -0.045575 11.9242 0.00369861 14.0183V49.0519C0.00369861 51.1706 0.471798 53.2894 1.408 55.1864C2.49202 57.4037 4.16732 59.3254 6.21217 60.7051C8.3063 62.1094 10.7946 62.9224 13.3076 63.0456C13.8249 63.0702 48.1686 63.0702 48.8338 63.0702C50.3367 63.0702 51.8149 62.8731 53.2438 62.4297C55.5843 61.6906 57.7524 60.3109 59.403 58.4631C61.0783 56.6154 62.2363 54.3242 62.729 51.8851C62.9507 50.8257 63 49.7171 63 48.633V14.5603C63 13.6488 62.9754 12.7372 62.8275 11.8257C62.458 9.36199 61.3986 6.99685 59.7972 5.07518C58.2205 3.15351 56.1263 1.6753 53.8105 0.837651C52.2091 0.271005 50.5584 0 48.8585 0ZM49.6221 39.0986C49.6221 39.0986 56.3479 23.5035 35.5545 9.36198C35.5545 9.36198 44.0542 20.079 39.7181 32.1017C39.7181 32.1017 24.4433 21.2369 16.7566 13.4517C16.7566 13.4517 26.365 27.2976 29.7895 30.1308C29.7895 30.1308 24.0491 27.1497 10.7699 15.8415C10.7699 15.8415 26.02 35.748 33.1894 39.9116C33.1894 39.9116 22.3245 47.3273 6.40914 36.8566C6.40914 36.8566 14.761 51.6141 32.4256 51.6141C37.0787 51.6141 39.7993 50.2071 42.0489 49.0436C43.6348 48.2235 44.9866 47.5244 46.6164 47.5244C50.7061 47.5244 53.1452 51.6141 53.1452 51.6141C55.5349 45.7752 49.6221 39.0986 49.6221 39.0986Z" fill="#4984F8"/>
</svg>
