<svg width="79" height="69" viewBox="0 0 79 69" fill="none" xmlns="http://www.w3.org/2000/svg">
<path d="M0.0625 0.039451C0.298892 0.039451 0.535284 0.039451 0.745411 0.039451C5.76217 0.039451 10.7789 0.039451 15.7957 0.039451C15.7957 0.0657167 15.7957 0.0657159 15.7957 0.0919817C16.1634 0.748626 16.5311 1.379 16.8989 2.03565C18.9476 5.58153 20.9963 9.10114 23.045 12.647C25.0412 16.1141 27.0374 19.5812 29.0336 23.0483C30.6359 25.8324 32.2643 28.6166 33.8665 31.4008C35.6789 34.5527 37.4912 37.6783 39.3036 40.8302C39.3561 40.909 39.3561 41.014 39.4612 41.0403C39.5925 41.0403 39.5925 40.909 39.645 40.8302C40.3542 39.622 41.0371 38.4137 41.7463 37.2055C42.8232 35.3144 43.9263 33.4495 45.0032 31.5584C46.1852 29.5359 47.3409 27.5134 48.5228 25.4647C49.6785 23.4423 50.8605 21.4198 52.0162 19.3973C53.1982 17.3486 54.3801 15.2999 55.5621 13.2511C56.639 11.3863 57.7159 9.52139 58.7928 7.65652C59.9747 5.60779 61.1567 3.55906 62.3386 1.51033C62.6276 1.01128 62.9428 0.538499 63.1791 0.0131836C67.7494 0.0131836 72.3459 0.0131836 76.9161 0.0131836C77.5991 0.0131836 78.2557 0.0131836 78.9386 0.0131836C78.9386 0.0394494 78.9386 0.0919813 78.9386 0.118247C77.6516 2.35084 76.3646 4.60969 75.0775 6.84228C70.376 14.9847 65.6744 23.1008 60.9991 31.2432C56.8491 38.4663 52.6728 45.6631 48.4966 52.8599C45.5811 57.9029 42.6656 62.946 39.7763 67.989C39.6975 68.1203 39.6187 68.2517 39.5137 68.4355C39.4349 68.3042 39.3561 68.1729 39.2773 68.0678C31.9754 55.434 24.6735 42.7739 17.3716 30.14C11.6194 20.1853 5.86723 10.2306 0.141297 0.275841C0.115031 0.22331 0.0887658 0.170779 0.0625 0.118247C0.0625 0.118247 0.0625 0.0657167 0.0625 0.039451Z" fill="#4984F8"/>
<path d="M63.3835 0C63.1733 0.525315 62.8319 0.998098 62.5429 1.49715C61.361 3.54588 60.179 5.59461 58.9971 7.64334C57.9202 9.50821 56.8433 11.3731 55.7664 13.2379C54.5844 15.2867 53.4025 17.3354 52.2205 19.3841C51.0648 21.4066 49.8828 23.4291 48.7271 25.4515C47.5452 27.474 46.3895 29.4965 45.2075 31.5452C44.1306 33.4363 43.0275 35.3012 41.9506 37.1923C41.2414 38.4006 40.5585 39.6088 39.8493 40.817C39.7968 40.8958 39.7968 41.0271 39.6655 41.0271C39.5604 41.0271 39.5341 40.8958 39.5079 40.817C37.6955 37.6651 35.8832 34.5395 34.0709 31.3876C32.4686 28.6034 30.8402 25.8193 29.238 23.0351C27.2418 19.568 25.2456 16.1009 23.2494 12.6338C21.2006 9.08796 19.1519 5.56834 17.1032 2.02246C16.7354 1.39208 16.3677 0.73544 16 0.0787961C20.8592 0.0787961 25.6921 0.0787961 30.5512 0.0787961C31.024 0.893035 31.4968 1.70727 31.9696 2.52151C32.6788 3.756 33.4142 5.01676 34.1234 6.25125C35.3841 8.45758 36.6449 10.6639 37.9057 12.844C38.4572 13.8158 39.0351 14.7876 39.6392 15.812C39.9019 15.3655 40.1645 14.9452 40.4009 14.4987C41.1101 13.2905 41.8193 12.056 42.5284 10.8215C43.8155 8.58891 45.0762 6.35632 46.3632 4.14999C47.1249 2.86297 47.8866 1.54968 48.6221 0.262658C48.6483 0.18386 48.7271 0.131328 48.7534 0.0787961C53.4813 0.0787961 58.2091 0.0787961 62.9369 0.0787961C63.0157 0.0787961 63.1208 0.105063 63.1996 0.0262654C63.3047 -4.01175e-07 63.3309 0 63.3835 0Z" fill="#2D61C8"/>
<path d="M30.3735 0.065665C25.5143 0.065665 20.6814 0.065665 15.8223 0.065665C15.8223 0.0393993 15.8223 0.0393981 15.8223 0.0131323C15.9273 0.0131323 16.0324 0.0131323 16.1112 0.0131323C20.7602 0.0131323 25.4093 0.0131323 30.032 0.0131323C30.1634 0.0131323 30.2947 -0.0393981 30.3735 0.065665Z" fill="#4984F8"/>
<path d="M63.0482 0.0394747C62.9694 0.118272 62.8644 0.0920055 62.7856 0.0920055C58.0577 0.0920055 53.3299 0.0920055 48.6021 0.0920055C48.6546 0.0132081 48.7334 0.0394747 48.8122 0.0394747C53.5137 0.0394747 58.2153 0.0394747 62.9169 0.0394747C62.9694 0.0132089 63.022 0.0132089 63.0482 0.0394747Z" fill="#4984F8"/>
<path d="M0.0631301 0.0394287C0.0631301 0.0658104 0.0631305 0.118572 0.0367488 0.144954C0.0103671 0.0921905 -0.0423968 0.0658104 0.0631301 0.0394287Z" fill="#ff0000"/>
<path d="M78.9395 0.144954C78.9395 0.118572 78.9395 0.0658104 78.9395 0.0394287C79.045 0.0658104 78.9922 0.0921905 78.9395 0.144954Z" fill="#ff0000"/>
</svg>
