<svg width="158" height="46" viewBox="0 0 158 46" fill="none" xmlns="http://www.w3.org/2000/svg">
<path d="M48.9921 0.925781H41.844V45.6578H48.9921V0.925781Z" fill="white"/>
<path d="M74.01 31.3882C74.01 38.234 68.2612 38.7797 66.551 38.7797C62.2782 38.7797 61.5009 34.7753 61.5009 32.3598V15.24H54.3528V32.324C54.3528 36.5646 55.6823 40.0644 58.0126 42.3977C60.0712 44.4607 63.1556 45.588 66.4974 45.588C68.867 45.588 72.223 44.849 74.01 43.2154V45.6577H81.1581V15.24H74.01V31.3882Z" fill="white"/>
<path d="M95.4544 4.50415H88.3064V15.2398H82.9453V22.3969H88.3064V45.6576H95.4544V22.3969H100.815V15.2398H95.4544V4.50415Z" fill="white"/>
<path d="M123.327 36.563C121.77 37.964 119.715 38.7405 117.46 38.7405C112.488 38.7405 108.838 35.085 108.838 30.0661C108.838 25.0472 112.372 21.5456 117.46 21.5456C119.676 21.5456 121.77 22.2845 123.366 23.6856L124.451 24.6196L129.27 19.7957L128.064 18.706C125.228 16.142 121.463 14.7034 117.458 14.7034C108.523 14.7034 102.034 21.1591 102.034 30.0285C102.034 38.8604 108.679 45.547 117.458 45.547C121.538 45.547 125.343 44.1084 128.143 41.5032L129.308 40.4135L124.413 35.5932L123.327 36.563Z" fill="white"/>
<path d="M154.784 17.8917C152.725 15.8305 150.312 14.7032 146.971 14.7032C144.601 14.7032 141.917 15.4422 140.13 17.074V0.925781H132.982V45.6578H140.13V28.9012C140.13 22.0554 144.987 21.5114 146.697 21.5114C150.97 21.5114 150.852 25.5176 150.852 27.9296V45.6578H158V27.9672C158 23.7266 157.116 20.2267 154.784 17.8917Z" fill="white"/>
<path d="M117.224 24.9702C120.08 24.9702 122.394 27.2838 122.394 30.1448C122.394 33.0023 120.08 35.3194 117.224 35.3194C114.37 35.3194 112.058 33.0023 112.058 30.1448C112.059 27.2855 114.372 24.9702 117.224 24.9702Z" fill="#FF3D2E"/>
<path d="M31.8364 34.4228C29.1184 37.223 25.4264 38.7404 21.5414 38.7404C13.5785 38.7404 7.78854 32.4779 7.78854 23.8822C7.78854 15.2471 13.5785 8.98464 21.5414 8.98464C25.3889 8.98464 29.0398 10.5002 31.7989 13.2628L32.8854 14.3525L37.6639 9.56795L36.6149 8.47827C32.6531 4.39335 27.2921 2.17822 21.5414 2.17822C9.80966 2.17822 0.990723 11.5129 0.990723 23.9198C0.990723 36.289 9.84897 45.5861 21.5414 45.5861C27.3314 45.5861 32.6924 43.3316 36.6543 39.2467L37.7032 38.157L32.9641 33.2956L31.8364 34.4228Z" fill="white"/>
</svg>
