<svg width="18" height="16" viewBox="0 0 18 16" fill="none" xmlns="http://www.w3.org/2000/svg">
<path d="M18 9.80959V16H14.142V10.2242C14.142 8.77325 13.584 7.78305 12.1875 7.78305C11.1215 7.78305 10.4871 8.45037 10.208 9.0959C10.1063 9.32667 10.0801 9.64788 10.0801 9.97091V16H6.22078C6.22078 16 6.27276 6.21766 6.22078 5.20414H10.0797V6.73441C10.0719 6.74586 10.0617 6.7582 10.0543 6.76929H10.0797V6.73441C10.5924 5.99985 11.508 4.95052 13.5574 4.95052C16.0965 4.95048 18 6.49352 18 9.80959ZM2.18381 0C0.863556 0 0 0.805563 0 1.86491C0 2.90116 0.838572 3.73117 2.13259 3.73117H2.15837C3.50419 3.73117 4.34117 2.90132 4.34117 1.86491C4.31581 0.805563 3.50419 0 2.18381 0ZM0.229207 16H4.08702V5.20414H0.229207V16Z" fill="white"/>
</svg>
