<svg width="210" height="60" viewBox="0 0 210 60" fill="none" xmlns="http://www.w3.org/2000/svg">
<path d="M128.365 13.6733C119.649 13.6733 112.518 20.8071 112.518 29.7243C112.518 38.6415 119.649 45.7752 128.365 45.7752C137.081 45.7752 144.213 38.6415 144.213 29.7243C144.213 20.8071 137.081 13.6733 128.365 13.6733ZM128.365 39.2359C123.215 39.2359 119.055 35.0746 119.055 29.9224C119.055 24.7703 123.215 20.6089 128.365 20.6089C133.516 20.6089 137.676 24.7703 137.676 29.9224C137.676 34.8764 133.318 39.2359 128.365 39.2359ZM163.626 21.4015C159.07 21.4015 155.504 25.1666 155.504 29.7243V44.9826H148.571V14.6641H155.504V19.42C155.504 19.42 158.476 14.6641 164.418 14.6641H166.399V21.4015H163.626ZM94.4912 14.6641L99.6417 35.4709L105.188 14.6641H112.122L103.405 44.9826H96.6703L91.3217 23.7795L85.9732 44.9826H79.238L70.3237 14.6641H77.059L83.0018 35.4709L87.9541 14.6641H94.4912Z" fill="white"/>
<path d="M186.605 28.535C191.359 25.7607 194.726 20.6086 194.726 14.6638H187.793C187.793 19.8159 183.633 23.9773 178.681 23.9773H177.69V0H170.757V44.9822H177.69V30.7147H178.483C179.275 30.7147 180.067 31.111 180.266 31.7055L189.972 44.9822H198.094L186.605 28.535Z" fill="white"/>
<path d="M54.2778 13.6734C46.7502 13.6734 41.0054 18.6274 38.8264 26.5538C35.2607 21.0053 32.4874 14.6643 30.9026 9.31396H22.9789V30.3188C22.9789 34.4802 19.6113 37.8489 15.4513 37.8489C11.2914 37.8489 7.92376 34.4802 7.92376 30.3188V9.31396H0V30.3188C0 39.0378 6.93329 45.9735 15.4513 45.9735C23.9694 45.9735 30.9026 39.0378 30.9026 30.3188V26.752C32.4874 29.9225 34.4683 33.2912 36.6473 36.2636L31.695 59.4483H39.8169L43.3826 42.6047C46.5521 44.5863 50.1178 45.7753 54.2778 45.7753C62.9939 45.7753 70.1253 38.6415 70.1253 29.5262C70.1253 20.8072 62.9939 13.6734 54.2778 13.6734ZM54.2778 37.6508C51.1082 37.6508 47.9387 36.2637 45.3635 34.0839L46.1559 30.9133V30.7152C46.7502 27.3465 48.533 21.5998 54.4758 21.5998C58.8339 21.5998 62.3996 25.1667 62.3996 29.5262C62.2015 34.0839 58.4377 37.6508 54.2778 37.6508Z" fill="#6FDA44"/>
<path d="M199.085 15.654H196.906V14.8613H202.254V15.654H200.075V21.7969H199.283V15.654H199.085ZM203.641 14.8613H204.433L206.81 18.6263L209.187 14.8613H209.98V21.5987H209.187V16.0503L206.81 19.6171L204.433 16.0503V21.5987H203.641V14.8613Z" fill="white"/>
</svg>
